<?xml version="1.0" encoding="UTF-8" standalone="no"?>
<!DOCTYPE svg PUBLIC "-//W3C//DTD SVG 1.1//EN"
 "http://www.w3.org/Graphics/SVG/1.1/DTD/svg11.dtd">
<!-- Generated by graphviz version 2.42.3 (0)
 -->
<!-- Title: G Pages: 1 -->
<svg width="574pt" height="348pt"
 viewBox="0.00 0.00 574.00 348.00" xmlns="http://www.w3.org/2000/svg" xmlns:xlink="http://www.w3.org/1999/xlink">
<g id="graph0" class="graph" transform="scale(1 1) rotate(0) translate(4 344)">
<title>G</title>
<polygon fill="white" stroke="transparent" points="-4,4 -4,-344 570,-344 570,4 -4,4"/>
<g id="clust1" class="cluster">
<title>cluster_c1</title>
<g id="a_clust1"><a xlink:href="gl2p:repository" xlink:title="repository">
<polygon fill="none" stroke="black" points="8,-8 8,-332 558,-332 558,-8 8,-8"/>
<text text-anchor="middle" x="283" y="-15.8" font-family="Times,serif" font-size="14.00">repository</text>
</a>
</g>
</g>
<!-- n1 -->
<g id="node1" class="node">
<title>n1</title>
<g id="a_node1"><a xlink:href="gl2p:file_v-1" xlink:title="file_v&#45;1">
<ellipse fill="#fffc87" stroke="#808080" cx="80" cy="-223" rx="44.39" ry="18"/>
<text text-anchor="middle" x="80" y="-219.3" font-family="Times,serif" font-size="14.00">file_v&#45;1</text>
</a>
</g>
</g>
<!-- n3 -->
<g id="node3" class="node">
<title>n3</title>
<g id="a_node3"><a xlink:href="gl2p:file" xlink:title="file">
<ellipse fill="#fffc87" stroke="#808080" cx="61" cy="-306" rx="27" ry="18"/>
<text text-anchor="middle" x="61" y="-302.3" font-family="Times,serif" font-size="14.00">file</text>
</a>
</g>
</g>
<!-- n1&#45;&gt;n3 -->
<g id="edge6" class="edge">
<title>n1&#45;&gt;n3</title>
<path fill="none" stroke="black" d="M75.97,-241.18C73.46,-251.88 70.18,-265.88 67.32,-278.04"/>
<polygon fill="black" stroke="black" points="63.83,-277.59 64.96,-288.12 70.65,-279.19 63.83,-277.59"/>
<text text-anchor="middle" x="83" y="-262" font-family="Times,serif" font-size="10.00">spec</text>
</g>
<!-- n2 -->
<g id="node2" class="node">
<title>n2</title>
<g id="a_node2"><a xlink:href="gl2p:file_v" xlink:title="file_v">
<ellipse fill="#fffc87" stroke="#808080" cx="128" cy="-57" rx="35.19" ry="18"/>
<text text-anchor="middle" x="128" y="-53.3" font-family="Times,serif" font-size="14.00">file_v</text>
</a>
</g>
</g>
<!-- n2&#45;&gt;n1 -->
<g id="edge4" class="edge">
<title>n2&#45;&gt;n1</title>
<path fill="none" stroke="black" d="M123.04,-74.93C114.71,-103.41 97.82,-161.12 87.85,-195.17"/>
<polygon fill="black" stroke="black" points="84.45,-194.33 85,-204.91 91.17,-196.3 84.45,-194.33"/>
<text text-anchor="middle" x="117" y="-137.5" font-family="Times,serif" font-size="10.00">der</text>
</g>
<!-- n2&#45;&gt;n3 -->
<g id="edge5" class="edge">
<title>n2&#45;&gt;n3</title>
<path fill="none" stroke="black" d="M112.53,-73.43C88.68,-98.45 43.89,-150.59 27,-205 18.89,-231.12 31.77,-260.75 43.94,-280.93"/>
<polygon fill="black" stroke="black" points="41.07,-282.95 49.4,-289.5 46.97,-279.18 41.07,-282.95"/>
<text text-anchor="middle" x="50" y="-179" font-family="Times,serif" font-size="10.00">spec</text>
</g>
<!-- n4 -->
<g id="node4" class="node">
<title>n4</title>
<g id="a_node4"><a xlink:href="gl2p:commit" xlink:title="commit">
<polygon fill="#9fb1fc" stroke="#0000ff" points="250,-158 180,-158 180,-122 250,-122 250,-158"/>
<text text-anchor="middle" x="215" y="-136.3" font-family="Times,serif" font-size="14.00">commit</text>
</a>
</g>
</g>
<!-- n2&#45;&gt;n4 -->
<g id="edge2" class="edge">
<title>n2&#45;&gt;n4</title>
<path fill="none" stroke="black" d="M144.36,-73.24C156.91,-84.91 174.46,-101.26 188.93,-114.73"/>
<polygon fill="black" stroke="black" points="186.9,-117.62 196.6,-121.87 191.67,-112.49 186.9,-117.62"/>
<text text-anchor="middle" x="186" y="-96" font-family="Times,serif" font-size="10.00">gen</text>
</g>
<!-- n6 -->
<g id="node6" class="node">
<title>n6</title>
<g id="a_node6"><a xlink:href="gl2p:author" xlink:title="author">
<polygon fill="#fed37f" stroke="black" points="550.33,-228.56 499,-241 447.67,-228.56 447.72,-208.44 550.28,-208.44 550.33,-228.56"/>
<text text-anchor="middle" x="499" y="-219.3" font-family="Times,serif" font-size="14.00">author</text>
</a>
</g>
</g>
<!-- n2&#45;&gt;n6 -->
<g id="edge7" class="edge">
<title>n2&#45;&gt;n6</title>
<path fill="none" stroke="black" d="M154.67,-68.72C204.46,-88.86 314.75,-134.11 406,-176 425.06,-184.75 446.02,-195.06 463.21,-203.69"/>
<polygon fill="black" stroke="black" points="461.83,-206.92 472.34,-208.3 464.99,-200.67 461.83,-206.92"/>
<text text-anchor="middle" x="371" y="-137.5" font-family="Times,serif" font-size="10.00">att</text>
</g>
<!-- n4&#45;&gt;n1 -->
<g id="edge3" class="edge">
<title>n4&#45;&gt;n1</title>
<path fill="none" stroke="black" d="M186.37,-158.18C164.87,-171.08 135.4,-188.76 112.93,-202.24"/>
<polygon fill="black" stroke="black" points="110.85,-199.41 104.08,-207.55 114.45,-205.41 110.85,-199.41"/>
<text text-anchor="middle" x="167.5" y="-179" font-family="Times,serif" font-size="10.00">used</text>
</g>
<!-- n5 -->
<g id="node5" class="node">
<title>n5</title>
<g id="a_node5"><a xlink:href="gl2p:parent_commit" xlink:title="parent_commit">
<polygon fill="#9fb1fc" stroke="#0000ff" points="430,-241 306,-241 306,-205 430,-205 430,-241"/>
<text text-anchor="middle" x="368" y="-219.3" font-family="Times,serif" font-size="14.00">parent_commit</text>
</a>
</g>
</g>
<!-- n4&#45;&gt;n5 -->
<g id="edge1" class="edge">
<title>n4&#45;&gt;n5</title>
<path fill="none" stroke="black" d="M247.45,-158.18C270.65,-170.46 302.05,-187.09 326.99,-200.29"/>
<polygon fill="black" stroke="black" points="325.39,-203.4 335.86,-204.99 328.66,-197.21 325.39,-203.4"/>
<text text-anchor="middle" x="307" y="-179" font-family="Times,serif" font-size="10.00">inf</text>
</g>
<!-- n4&#45;&gt;n6 -->
<g id="edge8" class="edge">
<title>n4&#45;&gt;n6</title>
<path fill="none" stroke="black" d="M250.11,-151.01C297.95,-164.66 384.21,-189.26 441.54,-205.61"/>
<polygon fill="black" stroke="black" points="440.61,-208.99 451.19,-208.36 442.53,-202.26 440.61,-208.99"/>
<text text-anchor="middle" x="388" y="-179" font-family="Times,serif" font-size="10.00">assoc</text>
</g>
<!-- n7 -->
<g id="node7" class="node">
<title>n7</title>
<g id="a_node7"><a xlink:href="gl2p:committer" xlink:title="committer">
<polygon fill="#fed37f" stroke="black" points="288.21,-228.56 215,-241 141.79,-228.56 141.85,-208.44 288.15,-208.44 288.21,-228.56"/>
<text text-anchor="middle" x="215" y="-219.3" font-family="Times,serif" font-size="14.00">committer</text>
</a>
</g>
</g>
<!-- n4&#45;&gt;n7 -->
<g id="edge9" class="edge">
<title>n4&#45;&gt;n7</title>
<path fill="none" stroke="black" d="M215,-158.18C215,-169.86 215,-185.47 215,-198.33"/>
<polygon fill="black" stroke="black" points="211.5,-198.33 215,-208.33 218.5,-198.33 211.5,-198.33"/>
<text text-anchor="middle" x="229" y="-179" font-family="Times,serif" font-size="10.00">assoc</text>
</g>
</g>
</svg>
