<?xml version="1.0" encoding="UTF-8" standalone="no"?>
<!DOCTYPE svg PUBLIC "-//W3C//DTD SVG 1.1//EN"
 "http://www.w3.org/Graphics/SVG/1.1/DTD/svg11.dtd">
<!-- Generated by graphviz version 2.42.3 (0)
 -->
<!-- Title: G Pages: 1 -->
<svg width="449pt" height="265pt"
 viewBox="0.00 0.00 449.00 265.00" xmlns="http://www.w3.org/2000/svg" xmlns:xlink="http://www.w3.org/1999/xlink">
<g id="graph0" class="graph" transform="scale(1 1) rotate(0) translate(4 261)">
<title>G</title>
<polygon fill="white" stroke="transparent" points="-4,4 -4,-261 445,-261 445,4 -4,4"/>
<g id="clust1" class="cluster">
<title>cluster_c1</title>
<g id="a_clust1"><a xlink:href="gl2p:repository" xlink:title="repository">
<polygon fill="none" stroke="black" points="8,-8 8,-249 433,-249 433,-8 8,-8"/>
<text text-anchor="middle" x="220.5" y="-15.8" font-family="Times,serif" font-size="14.00">repository</text>
</a>
</g>
</g>
<!-- n1 -->
<g id="node1" class="node">
<title>n1</title>
<g id="a_node1"><a xlink:href="gl2p:file" xlink:title="file">
<ellipse fill="#fffc87" stroke="#808080" cx="129" cy="-140" rx="27" ry="18"/>
<text text-anchor="middle" x="129" y="-136.3" font-family="Times,serif" font-size="14.00">file</text>
</a>
</g>
</g>
<!-- n2 -->
<g id="node2" class="node">
<title>n2</title>
<g id="a_node2"><a xlink:href="gl2p:file_v" xlink:title="file_v">
<ellipse fill="#fffc87" stroke="#808080" cx="168" cy="-57" rx="35.19" ry="18"/>
<text text-anchor="middle" x="168" y="-53.3" font-family="Times,serif" font-size="14.00">file_v</text>
</a>
</g>
</g>
<!-- n2&#45;&gt;n1 -->
<g id="edge3" class="edge">
<title>n2&#45;&gt;n1</title>
<path fill="none" stroke="black" d="M159.92,-74.78C154.55,-85.93 147.4,-100.79 141.32,-113.4"/>
<polygon fill="black" stroke="black" points="138.12,-111.99 136.94,-122.52 144.43,-115.02 138.12,-111.99"/>
<text text-anchor="middle" x="162" y="-96" font-family="Times,serif" font-size="10.00">spec</text>
</g>
<!-- n4 -->
<g id="node4" class="node">
<title>n4</title>
<g id="a_node4"><a xlink:href="gl2p:commit" xlink:title="commit">
<polygon fill="#9fb1fc" stroke="#0000ff" points="244,-158 174,-158 174,-122 244,-122 244,-158"/>
<text text-anchor="middle" x="209" y="-136.3" font-family="Times,serif" font-size="14.00">commit</text>
</a>
</g>
</g>
<!-- n2&#45;&gt;n4 -->
<g id="edge1" class="edge">
<title>n2&#45;&gt;n4</title>
<path fill="none" stroke="black" d="M176.5,-74.78C182.07,-85.79 189.46,-100.4 195.79,-112.9"/>
<polygon fill="black" stroke="black" points="192.74,-114.62 200.37,-121.96 198.98,-111.46 192.74,-114.62"/>
<text text-anchor="middle" x="198" y="-96" font-family="Times,serif" font-size="10.00">inv</text>
</g>
<!-- n3 -->
<g id="node3" class="node">
<title>n3</title>
<g id="a_node3"><a xlink:href="gl2p:parent_commit" xlink:title="parent_commit">
<polygon fill="#9fb1fc" stroke="#0000ff" points="140,-241 16,-241 16,-205 140,-205 140,-241"/>
<text text-anchor="middle" x="78" y="-219.3" font-family="Times,serif" font-size="14.00">parent_commit</text>
</a>
</g>
</g>
<!-- n4&#45;&gt;n3 -->
<g id="edge2" class="edge">
<title>n4&#45;&gt;n3</title>
<path fill="none" stroke="black" d="M181.22,-158.18C161.77,-170.21 135.58,-186.4 114.45,-199.46"/>
<polygon fill="black" stroke="black" points="112.41,-196.61 105.74,-204.85 116.09,-202.56 112.41,-196.61"/>
<text text-anchor="middle" x="158" y="-179" font-family="Times,serif" font-size="10.00">inf</text>
</g>
<!-- n5 -->
<g id="node5" class="node">
<title>n5</title>
<g id="a_node5"><a xlink:href="gl2p:author" xlink:title="author">
<polygon fill="#fed37f" stroke="black" points="260.33,-228.56 209,-241 157.67,-228.56 157.72,-208.44 260.28,-208.44 260.33,-228.56"/>
<text text-anchor="middle" x="209" y="-219.3" font-family="Times,serif" font-size="14.00">author</text>
</a>
</g>
</g>
<!-- n4&#45;&gt;n5 -->
<g id="edge4" class="edge">
<title>n4&#45;&gt;n5</title>
<path fill="none" stroke="black" d="M209,-158.18C209,-169.86 209,-185.47 209,-198.33"/>
<polygon fill="black" stroke="black" points="205.5,-198.33 209,-208.33 212.5,-198.33 205.5,-198.33"/>
<text text-anchor="middle" x="223" y="-179" font-family="Times,serif" font-size="10.00">assoc</text>
</g>
<!-- n6 -->
<g id="node6" class="node">
<title>n6</title>
<g id="a_node6"><a xlink:href="gl2p:committer" xlink:title="committer">
<polygon fill="#fed37f" stroke="black" points="425.21,-228.56 352,-241 278.79,-228.56 278.85,-208.44 425.15,-208.44 425.21,-228.56"/>
<text text-anchor="middle" x="352" y="-219.3" font-family="Times,serif" font-size="14.00">committer</text>
</a>
</g>
</g>
<!-- n4&#45;&gt;n6 -->
<g id="edge5" class="edge">
<title>n4&#45;&gt;n6</title>
<path fill="none" stroke="black" d="M239.33,-158.18C262.74,-171.44 295.08,-189.76 319.11,-203.37"/>
<polygon fill="black" stroke="black" points="317.45,-206.45 327.87,-208.33 320.9,-200.36 317.45,-206.45"/>
<text text-anchor="middle" x="303" y="-179" font-family="Times,serif" font-size="10.00">assoc</text>
</g>
</g>
</svg>
