<?xml version="1.0" encoding="UTF-8" standalone="no"?>
<!DOCTYPE svg PUBLIC "-//W3C//DTD SVG 1.1//EN"
 "http://www.w3.org/Graphics/SVG/1.1/DTD/svg11.dtd">
<!-- Generated by graphviz version 2.42.3 (0)
 -->
<!-- Title: G Pages: 1 -->
<svg width="575pt" height="348pt"
 viewBox="0.00 0.00 575.00 348.00" xmlns="http://www.w3.org/2000/svg" xmlns:xlink="http://www.w3.org/1999/xlink">
<g id="graph0" class="graph" transform="scale(1 1) rotate(0) translate(4 344)">
<title>G</title>
<polygon fill="white" stroke="transparent" points="-4,4 -4,-344 571,-344 571,4 -4,4"/>
<g id="clust1" class="cluster">
<title>cluster_c1</title>
<g id="a_clust1"><a xlink:href="gl2p:repository" xlink:title="repository">
<polygon fill="none" stroke="black" points="8,-8 8,-332 559,-332 559,-8 8,-8"/>
<text text-anchor="middle" x="283.5" y="-15.8" font-family="Times,serif" font-size="14.00">repository</text>
</a>
</g>
</g>
<!-- n1 -->
<g id="node1" class="node">
<title>n1</title>
<g id="a_node1"><a xlink:href="gl2p:file" xlink:title="file">
<ellipse fill="#fffc87" stroke="#808080" cx="275" cy="-306" rx="27" ry="18"/>
<text text-anchor="middle" x="275" y="-302.3" font-family="Times,serif" font-size="14.00">file</text>
</a>
</g>
</g>
<!-- n2 -->
<g id="node2" class="node">
<title>n2</title>
<g id="a_node2"><a xlink:href="gl2p:file_v-1" xlink:title="file_v&#45;1">
<ellipse fill="#fffc87" stroke="#808080" cx="507" cy="-223" rx="44.39" ry="18"/>
<text text-anchor="middle" x="507" y="-219.3" font-family="Times,serif" font-size="14.00">file_v&#45;1</text>
</a>
</g>
</g>
<!-- n2&#45;&gt;n1 -->
<g id="edge6" class="edge">
<title>n2&#45;&gt;n1</title>
<path fill="none" stroke="black" d="M474.25,-235.43C430.22,-250.81 352.36,-277.99 308.13,-293.43"/>
<polygon fill="black" stroke="black" points="306.73,-290.22 298.44,-296.82 309.03,-296.82 306.73,-290.22"/>
<text text-anchor="middle" x="416" y="-262" font-family="Times,serif" font-size="10.00">spec</text>
</g>
<!-- n3 -->
<g id="node3" class="node">
<title>n3</title>
<g id="a_node3"><a xlink:href="gl2p:file_v" xlink:title="file_v">
<ellipse fill="#fffc87" stroke="#808080" cx="372" cy="-57" rx="35.19" ry="18"/>
<text text-anchor="middle" x="372" y="-53.3" font-family="Times,serif" font-size="14.00">file_v</text>
</a>
</g>
</g>
<!-- n3&#45;&gt;n1 -->
<g id="edge5" class="edge">
<title>n3&#45;&gt;n1</title>
<path fill="none" stroke="black" d="M337.57,-60.69C265.16,-68.41 97.99,-97.59 27,-205 -24.26,-282.56 156.44,-299.97 237.56,-303.87"/>
<polygon fill="black" stroke="black" points="237.71,-307.38 247.85,-304.32 238.01,-300.39 237.71,-307.38"/>
<text text-anchor="middle" x="61" y="-179" font-family="Times,serif" font-size="10.00">spec</text>
</g>
<!-- n3&#45;&gt;n2 -->
<g id="edge4" class="edge">
<title>n3&#45;&gt;n2</title>
<path fill="none" stroke="black" d="M385.19,-74.02C408.92,-102.85 458.94,-163.62 486.94,-197.63"/>
<polygon fill="black" stroke="black" points="484.5,-200.17 493.56,-205.67 489.9,-195.72 484.5,-200.17"/>
<text text-anchor="middle" x="461" y="-137.5" font-family="Times,serif" font-size="10.00">der</text>
</g>
<!-- n4 -->
<g id="node4" class="node">
<title>n4</title>
<g id="a_node4"><a xlink:href="gl2p:commit" xlink:title="commit">
<polygon fill="#9fb1fc" stroke="#0000ff" points="346,-158 276,-158 276,-122 346,-122 346,-158"/>
<text text-anchor="middle" x="311" y="-136.3" font-family="Times,serif" font-size="14.00">commit</text>
</a>
</g>
</g>
<!-- n3&#45;&gt;n4 -->
<g id="edge2" class="edge">
<title>n3&#45;&gt;n4</title>
<path fill="none" stroke="black" d="M359.95,-74C351.4,-85.35 339.76,-100.8 329.98,-113.8"/>
<polygon fill="black" stroke="black" points="327.09,-111.82 323.87,-121.91 332.68,-116.03 327.09,-111.82"/>
<text text-anchor="middle" x="355" y="-96" font-family="Times,serif" font-size="10.00">gen</text>
</g>
<!-- n6 -->
<g id="node6" class="node">
<title>n6</title>
<g id="a_node6"><a xlink:href="gl2p:author" xlink:title="author">
<polygon fill="#fed37f" stroke="black" points="444.33,-228.56 393,-241 341.67,-228.56 341.72,-208.44 444.28,-208.44 444.33,-228.56"/>
<text text-anchor="middle" x="393" y="-219.3" font-family="Times,serif" font-size="14.00">author</text>
</a>
</g>
</g>
<!-- n3&#45;&gt;n6 -->
<g id="edge7" class="edge">
<title>n3&#45;&gt;n6</title>
<path fill="none" stroke="black" d="M374.47,-75.18C377.75,-98.13 383.61,-140.09 388,-176 388.88,-183.2 389.76,-191.05 390.53,-198.19"/>
<polygon fill="black" stroke="black" points="387.07,-198.73 391.61,-208.3 394.03,-197.99 387.07,-198.73"/>
<text text-anchor="middle" x="392" y="-137.5" font-family="Times,serif" font-size="10.00">att</text>
</g>
<!-- n4&#45;&gt;n2 -->
<g id="edge3" class="edge">
<title>n4&#45;&gt;n2</title>
<path fill="none" stroke="black" d="M346.04,-155.48C380.16,-169.58 431.94,-190.98 467.5,-205.68"/>
<polygon fill="black" stroke="black" points="466.49,-209.05 477.07,-209.63 469.17,-202.58 466.49,-209.05"/>
<text text-anchor="middle" x="432.5" y="-179" font-family="Times,serif" font-size="10.00">used</text>
</g>
<!-- n5 -->
<g id="node5" class="node">
<title>n5</title>
<g id="a_node5"><a xlink:href="gl2p:parent_commit" xlink:title="parent_commit">
<polygon fill="#9fb1fc" stroke="#0000ff" points="324,-241 200,-241 200,-205 324,-205 324,-241"/>
<text text-anchor="middle" x="262" y="-219.3" font-family="Times,serif" font-size="14.00">parent_commit</text>
</a>
</g>
</g>
<!-- n4&#45;&gt;n5 -->
<g id="edge1" class="edge">
<title>n4&#45;&gt;n5</title>
<path fill="none" stroke="black" d="M289.54,-158.28C284.16,-163.5 278.84,-169.56 275,-176 271.54,-181.8 268.97,-188.56 267.07,-195.09"/>
<polygon fill="black" stroke="black" points="263.63,-194.42 264.6,-204.97 270.42,-196.12 263.63,-194.42"/>
<text text-anchor="middle" x="282" y="-179" font-family="Times,serif" font-size="10.00">inf</text>
</g>
<!-- n4&#45;&gt;n6 -->
<g id="edge8" class="edge">
<title>n4&#45;&gt;n6</title>
<path fill="none" stroke="black" d="M307.16,-158.08C306.05,-167.38 306.38,-178.65 312,-187 315.96,-192.89 327.66,-199.09 340.98,-204.62"/>
<polygon fill="black" stroke="black" points="339.79,-207.92 350.38,-208.33 342.36,-201.4 339.79,-207.92"/>
<text text-anchor="middle" x="326" y="-179" font-family="Times,serif" font-size="10.00">assoc</text>
</g>
<!-- n7 -->
<g id="node7" class="node">
<title>n7</title>
<g id="a_node7"><a xlink:href="gl2p:committer" xlink:title="committer">
<polygon fill="#fed37f" stroke="black" points="182.21,-228.56 109,-241 35.79,-228.56 35.85,-208.44 182.15,-208.44 182.21,-228.56"/>
<text text-anchor="middle" x="109" y="-219.3" font-family="Times,serif" font-size="14.00">committer</text>
</a>
</g>
</g>
<!-- n4&#45;&gt;n7 -->
<g id="edge9" class="edge">
<title>n4&#45;&gt;n7</title>
<path fill="none" stroke="black" d="M275.81,-155.11C241.57,-168.84 189.45,-189.74 152.6,-204.52"/>
<polygon fill="black" stroke="black" points="151.09,-201.35 143.11,-208.32 153.69,-207.85 151.09,-201.35"/>
<text text-anchor="middle" x="236" y="-179" font-family="Times,serif" font-size="10.00">assoc</text>
</g>
</g>
</svg>
