<?xml version="1.0" encoding="UTF-8" standalone="no"?>
<!DOCTYPE svg PUBLIC "-//W3C//DTD SVG 1.1//EN"
 "http://www.w3.org/Graphics/SVG/1.1/DTD/svg11.dtd">
<!-- Generated by graphviz version 2.42.3 (0)
 -->
<!-- Title: G Pages: 1 -->
<svg width="254pt" height="431pt"
 viewBox="0.00 0.00 254.00 431.00" xmlns="http://www.w3.org/2000/svg" xmlns:xlink="http://www.w3.org/1999/xlink">
<g id="graph0" class="graph" transform="scale(1 1) rotate(0) translate(4 427)">
<title>G</title>
<polygon fill="white" stroke="transparent" points="-4,4 -4,-427 250,-427 250,4 -4,4"/>
<g id="clust1" class="cluster">
<title>cluster_c1</title>
<g id="a_clust1"><a xlink:href="gl2p:repository" xlink:title="repository">
<polygon fill="none" stroke="black" points="8,-8 8,-415 238,-415 238,-8 8,-8"/>
<text text-anchor="middle" x="123" y="-15.8" font-family="Times,serif" font-size="14.00">repository</text>
</a>
</g>
</g>
<!-- n1 -->
<g id="node1" class="node">
<title>n1</title>
<g id="a_node1"><a xlink:href="gl2p:resource" xlink:title="resource">
<ellipse fill="#fffc87" stroke="#808080" cx="75" cy="-140" rx="51.19" ry="18"/>
<text text-anchor="middle" x="75" y="-136.3" font-family="Times,serif" font-size="14.00">resource</text>
</a>
</g>
</g>
<!-- n4 -->
<g id="node4" class="node">
<title>n4</title>
<g id="a_node4"><a xlink:href="gl2p:resource_creation" xlink:title="resource_creation">
<polygon fill="#9fb1fc" stroke="#0000ff" points="180,-241 36,-241 36,-205 180,-205 180,-241"/>
<text text-anchor="middle" x="108" y="-219.3" font-family="Times,serif" font-size="14.00">resource_creation</text>
</a>
</g>
</g>
<!-- n1&#45;&gt;n4 -->
<g id="edge6" class="edge">
<title>n1&#45;&gt;n4</title>
<path fill="none" stroke="black" d="M82,-158.18C86.42,-169.02 92.22,-183.26 97.21,-195.53"/>
<polygon fill="black" stroke="black" points="94,-196.91 101.01,-204.85 100.48,-194.27 94,-196.91"/>
<text text-anchor="middle" x="103" y="-179" font-family="Times,serif" font-size="10.00">gen</text>
</g>
<!-- n5 -->
<g id="node5" class="node">
<title>n5</title>
<g id="a_node5"><a xlink:href="gl2p:committer" xlink:title="committer">
<polygon fill="#fed37f" stroke="black" points="198.21,-394.56 125,-407 51.79,-394.56 51.85,-374.44 198.15,-374.44 198.21,-394.56"/>
<text text-anchor="middle" x="125" y="-385.3" font-family="Times,serif" font-size="14.00">committer</text>
</a>
</g>
</g>
<!-- n1&#45;&gt;n5 -->
<g id="edge2" class="edge">
<title>n1&#45;&gt;n5</title>
<path fill="none" stroke="black" d="M58.15,-157.15C46.93,-169.14 33.15,-186.55 27,-205 21.94,-220.18 24.93,-225.13 27,-241 31.93,-278.84 28.57,-291.77 49,-324 60.3,-341.82 78.16,-357.23 93.72,-368.46"/>
<polygon fill="black" stroke="black" points="91.87,-371.43 102.08,-374.25 95.86,-365.68 91.87,-371.43"/>
<text text-anchor="middle" x="38" y="-262" font-family="Times,serif" font-size="10.00">att</text>
</g>
<!-- n2 -->
<g id="node2" class="node">
<title>n2</title>
<g id="a_node2"><a xlink:href="gl2p:resource_v" xlink:title="resource_v">
<ellipse fill="#fffc87" stroke="#808080" cx="162" cy="-57" rx="61.19" ry="18"/>
<text text-anchor="middle" x="162" y="-53.3" font-family="Times,serif" font-size="14.00">resource_v</text>
</a>
</g>
</g>
<!-- n2&#45;&gt;n1 -->
<g id="edge1" class="edge">
<title>n2&#45;&gt;n1</title>
<path fill="none" stroke="black" d="M144.39,-74.39C131.57,-86.33 114.04,-102.65 99.8,-115.91"/>
<polygon fill="black" stroke="black" points="97.22,-113.53 92.28,-122.91 101.99,-118.66 97.22,-113.53"/>
<text text-anchor="middle" x="135" y="-96" font-family="Times,serif" font-size="10.00">spec</text>
</g>
<!-- n2&#45;&gt;n4 -->
<g id="edge7" class="edge">
<title>n2&#45;&gt;n4</title>
<path fill="none" stroke="black" d="M158.14,-75.09C156.12,-83.78 153.55,-94.48 151,-104 144.53,-128.18 143.43,-134.43 135,-158 130.54,-170.47 124.93,-184.02 119.99,-195.43"/>
<polygon fill="black" stroke="black" points="116.68,-194.26 115.86,-204.82 123.09,-197.08 116.68,-194.26"/>
<text text-anchor="middle" x="156" y="-137.5" font-family="Times,serif" font-size="10.00">gen</text>
</g>
<!-- n2&#45;&gt;n5 -->
<g id="edge3" class="edge">
<title>n2&#45;&gt;n5</title>
<path fill="none" stroke="black" d="M181.19,-74.23C196.71,-89.26 216,-113.14 216,-139 216,-139 216,-139 216,-307 216,-335.32 191.11,-356.17 167.36,-369.62"/>
<polygon fill="black" stroke="black" points="165.55,-366.62 158.37,-374.42 168.84,-372.8 165.55,-366.62"/>
<text text-anchor="middle" x="223" y="-220.5" font-family="Times,serif" font-size="10.00">att</text>
</g>
<!-- n3 -->
<g id="node3" class="node">
<title>n3</title>
<g id="a_node3"><a xlink:href="gl2p:commit" xlink:title="commit">
<polygon fill="#9fb1fc" stroke="#0000ff" points="128,-324 58,-324 58,-288 128,-288 128,-324"/>
<text text-anchor="middle" x="93" y="-302.3" font-family="Times,serif" font-size="14.00">commit</text>
</a>
</g>
</g>
<!-- n3&#45;&gt;n5 -->
<g id="edge4" class="edge">
<title>n3&#45;&gt;n5</title>
<path fill="none" stroke="black" d="M99.79,-324.18C104.45,-335.98 110.69,-351.78 115.8,-364.71"/>
<polygon fill="black" stroke="black" points="112.67,-366.32 119.6,-374.33 119.18,-363.75 112.67,-366.32"/>
<text text-anchor="middle" x="124" y="-345" font-family="Times,serif" font-size="10.00">assoc</text>
</g>
<!-- n4&#45;&gt;n3 -->
<g id="edge8" class="edge">
<title>n4&#45;&gt;n3</title>
<path fill="none" stroke="black" d="M104.82,-241.18C102.85,-251.81 100.28,-265.69 98.04,-277.8"/>
<polygon fill="black" stroke="black" points="94.56,-277.38 96.18,-287.85 101.44,-278.65 94.56,-277.38"/>
<text text-anchor="middle" x="108" y="-262" font-family="Times,serif" font-size="10.00">inf</text>
</g>
<!-- n4&#45;&gt;n5 -->
<g id="edge5" class="edge">
<title>n4&#45;&gt;n5</title>
<path fill="none" stroke="black" d="M117.63,-241.08C124.25,-253.65 132.6,-271.37 137,-288 143.17,-311.3 140.89,-317.92 142,-342 142.23,-346.88 143.1,-348.24 142,-353 141.07,-357.03 139.62,-361.14 137.94,-365.05"/>
<polygon fill="black" stroke="black" points="134.7,-363.71 133.48,-374.23 140.99,-366.77 134.7,-363.71"/>
<text text-anchor="middle" x="155" y="-303.5" font-family="Times,serif" font-size="10.00">assoc</text>
</g>
</g>
</svg>
