<?xml version="1.0" encoding="UTF-8" standalone="no"?>
<!DOCTYPE svg PUBLIC "-//W3C//DTD SVG 1.1//EN"
 "http://www.w3.org/Graphics/SVG/1.1/DTD/svg11.dtd">
<!-- Generated by graphviz version 2.42.3 (0)
 -->
<!-- Title: G Pages: 1 -->
<svg width="448pt" height="348pt"
 viewBox="0.00 0.00 448.00 348.00" xmlns="http://www.w3.org/2000/svg" xmlns:xlink="http://www.w3.org/1999/xlink">
<g id="graph0" class="graph" transform="scale(1 1) rotate(0) translate(4 344)">
<title>G</title>
<polygon fill="white" stroke="transparent" points="-4,4 -4,-344 444,-344 444,4 -4,4"/>
<g id="clust1" class="cluster">
<title>cluster_c1</title>
<g id="a_clust1"><a xlink:href="gitlab2prov:repository" xlink:title="repository">
<polygon fill="none" stroke="black" points="8,-8 8,-332 432,-332 432,-8 8,-8"/>
<text text-anchor="middle" x="220" y="-15.8" font-family="Times,serif" font-size="14.00">repository</text>
</a>
</g>
</g>
<!-- n1 -->
<g id="node1" class="node">
<title>n1</title>
<g id="a_node1"><a xlink:href="gitlab2prov:file" xlink:title="file">
<ellipse fill="#fffc87" stroke="#808080" cx="113" cy="-140" rx="27" ry="18"/>
<text text-anchor="middle" x="113" y="-136.3" font-family="Times,serif" font-size="14.00">file</text>
</a>
</g>
</g>
<!-- n3 -->
<g id="node3" class="node">
<title>n3</title>
<g id="a_node3"><a xlink:href="gitlab2prov:author" xlink:title="author">
<polygon fill="#fed37f" stroke="black" points="118.33,-311.56 67,-324 15.67,-311.56 15.72,-291.44 118.28,-291.44 118.33,-311.56"/>
<text text-anchor="middle" x="67" y="-302.3" font-family="Times,serif" font-size="14.00">author</text>
</a>
</g>
</g>
<!-- n1&#45;&gt;n3 -->
<g id="edge1" class="edge">
<title>n1&#45;&gt;n3</title>
<path fill="none" stroke="black" d="M108.25,-157.93C100.01,-187.32 83.03,-247.84 73.63,-281.36"/>
<polygon fill="black" stroke="black" points="70.2,-280.64 70.87,-291.22 76.94,-282.54 70.2,-280.64"/>
<text text-anchor="middle" x="101" y="-220.5" font-family="Times,serif" font-size="10.00">att</text>
</g>
<!-- n5 -->
<g id="node5" class="node">
<title>n5</title>
<g id="a_node5"><a xlink:href="gitlab2prov:commit" xlink:title="commit">
<polygon fill="#9fb1fc" stroke="#0000ff" points="211,-241 141,-241 141,-205 211,-205 211,-241"/>
<text text-anchor="middle" x="176" y="-219.3" font-family="Times,serif" font-size="14.00">commit</text>
</a>
</g>
</g>
<!-- n1&#45;&gt;n5 -->
<g id="edge3" class="edge">
<title>n1&#45;&gt;n5</title>
<path fill="none" stroke="black" d="M124.85,-156.24C133.68,-167.59 145.94,-183.35 156.24,-196.6"/>
<polygon fill="black" stroke="black" points="153.77,-199.13 162.68,-204.87 159.3,-194.83 153.77,-199.13"/>
<text text-anchor="middle" x="158" y="-179" font-family="Times,serif" font-size="10.00">gen</text>
</g>
<!-- n2 -->
<g id="node2" class="node">
<title>n2</title>
<g id="a_node2"><a xlink:href="gitlab2prov:file_v" xlink:title="file_v">
<ellipse fill="#fffc87" stroke="#808080" cx="113" cy="-57" rx="35.19" ry="18"/>
<text text-anchor="middle" x="113" y="-53.3" font-family="Times,serif" font-size="14.00">file_v</text>
</a>
</g>
</g>
<!-- n2&#45;&gt;n1 -->
<g id="edge7" class="edge">
<title>n2&#45;&gt;n1</title>
<path fill="none" stroke="black" d="M113,-75.18C113,-85.81 113,-99.69 113,-111.8"/>
<polygon fill="black" stroke="black" points="109.5,-111.85 113,-121.85 116.5,-111.85 109.5,-111.85"/>
<text text-anchor="middle" x="125" y="-96" font-family="Times,serif" font-size="10.00">spec</text>
</g>
<!-- n2&#45;&gt;n3 -->
<g id="edge2" class="edge">
<title>n2&#45;&gt;n3</title>
<path fill="none" stroke="black" d="M101.13,-74.17C92.73,-86.58 82.1,-104.5 77,-122 60.94,-177.13 62.55,-245.48 64.9,-281.01"/>
<polygon fill="black" stroke="black" points="61.44,-281.62 65.67,-291.33 68.42,-281.1 61.44,-281.62"/>
<text text-anchor="middle" x="73" y="-179" font-family="Times,serif" font-size="10.00">att</text>
</g>
<!-- n2&#45;&gt;n5 -->
<g id="edge4" class="edge">
<title>n2&#45;&gt;n5</title>
<path fill="none" stroke="black" d="M127.28,-73.59C132.09,-79.39 137.2,-86.21 141,-93 160.18,-127.22 162.15,-137.79 171,-176 172.39,-182.02 173.4,-188.57 174.13,-194.79"/>
<polygon fill="black" stroke="black" points="170.65,-195.19 175.11,-204.8 177.62,-194.5 170.65,-195.19"/>
<text text-anchor="middle" x="176" y="-137.5" font-family="Times,serif" font-size="10.00">gen</text>
</g>
<!-- n4 -->
<g id="node4" class="node">
<title>n4</title>
<g id="a_node4"><a xlink:href="gitlab2prov:committer" xlink:title="committer">
<polygon fill="#fed37f" stroke="black" points="424.21,-311.56 351,-324 277.79,-311.56 277.85,-291.44 424.15,-291.44 424.21,-311.56"/>
<text text-anchor="middle" x="351" y="-302.3" font-family="Times,serif" font-size="14.00">committer</text>
</a>
</g>
</g>
<!-- n5&#45;&gt;n3 -->
<g id="edge5" class="edge">
<title>n5&#45;&gt;n3</title>
<path fill="none" stroke="black" d="M152.88,-241.18C135.59,-254.03 111.9,-271.63 93.79,-285.1"/>
<polygon fill="black" stroke="black" points="91.33,-282.56 85.39,-291.33 95.5,-288.18 91.33,-282.56"/>
<text text-anchor="middle" x="142" y="-262" font-family="Times,serif" font-size="10.00">assoc</text>
</g>
<!-- n5&#45;&gt;n4 -->
<g id="edge6" class="edge">
<title>n5&#45;&gt;n4</title>
<path fill="none" stroke="black" d="M211.41,-240.39C240.61,-253.91 281.98,-273.05 312.1,-286.99"/>
<polygon fill="black" stroke="black" points="310.9,-290.3 321.45,-291.32 313.84,-283.95 310.9,-290.3"/>
<text text-anchor="middle" x="287" y="-262" font-family="Times,serif" font-size="10.00">assoc</text>
</g>
<!-- n6 -->
<g id="node6" class="node">
<title>n6</title>
<g id="a_node6"><a xlink:href="gitlab2prov:parent_commit" xlink:title="parent_commit">
<polygon fill="#9fb1fc" stroke="#0000ff" points="260,-324 136,-324 136,-288 260,-288 260,-324"/>
<text text-anchor="middle" x="198" y="-302.3" font-family="Times,serif" font-size="14.00">parent_commit</text>
</a>
</g>
</g>
<!-- n5&#45;&gt;n6 -->
<g id="edge8" class="edge">
<title>n5&#45;&gt;n6</title>
<path fill="none" stroke="black" d="M180.67,-241.18C183.58,-251.92 187.4,-265.97 190.71,-278.16"/>
<polygon fill="black" stroke="black" points="187.34,-279.11 193.34,-287.85 194.1,-277.28 187.34,-279.11"/>
<text text-anchor="middle" x="195" y="-262" font-family="Times,serif" font-size="10.00">inf</text>
</g>
</g>
</svg>
