<?xml version="1.0" encoding="UTF-8" standalone="no"?>
<!DOCTYPE svg PUBLIC "-//W3C//DTD SVG 1.1//EN"
 "http://www.w3.org/Graphics/SVG/1.1/DTD/svg11.dtd">
<!-- Generated by graphviz version 2.40.1 (20161225.0304)
 -->
<!-- Title: G Pages: 1 -->
<svg width="648pt" height="426pt"
 viewBox="0.00 0.00 648.00 426.00" xmlns="http://www.w3.org/2000/svg" xmlns:xlink="http://www.w3.org/1999/xlink">
<g id="graph0" class="graph" transform="scale(1 1) rotate(0) translate(4 422)">
<title>G</title>
<polygon fill="#ffffff" stroke="transparent" points="-4,4 -4,-422 644,-422 644,4 -4,4"/>
<!-- n1 -->
<g id="node1" class="node">
<title>n1</title>
<g id="a_node1"><a xlink:href="gitlab2prov:Commit" xlink:title="Commit">
<polygon fill="#9fb1fc" stroke="#0000ff" points="344.5,-302.5 282.5,-302.5 282.5,-266.5 344.5,-266.5 344.5,-302.5"/>
<text text-anchor="middle" x="313.5" y="-280.8" font-family="Times,serif" font-size="14.00" fill="#000000">Commit</text>
</a>
</g>
</g>
<!-- n2 -->
<g id="node3" class="node">
<title>n2</title>
<g id="a_node3"><a xlink:href="gitlab2prov:Parent Commit" xlink:title="Parent Commit">
<polygon fill="#9fb1fc" stroke="#0000ff" points="155.5,-418 53.5,-418 53.5,-382 155.5,-382 155.5,-418"/>
<text text-anchor="middle" x="104.5" y="-396.3" font-family="Times,serif" font-size="14.00" fill="#000000">Parent Commit</text>
</a>
</g>
</g>
<!-- n1&#45;&gt;n2 -->
<g id="edge7" class="edge">
<title>n1&#45;&gt;n2</title>
<path fill="none" stroke="#000000" d="M282.2813,-302.4129C265.249,-312.1356 243.7658,-324.3177 224.5,-335 198.8899,-349.2001 170.0382,-364.8394 147.0442,-377.2184"/>
<polygon fill="#000000" stroke="#000000" points="145.3677,-374.1459 138.2182,-381.9648 148.6832,-380.311 145.3677,-374.1459"/>
<text text-anchor="middle" x="225" y="-356" font-family="Times,serif" font-size="10.00" fill="#000000">wasInformedBy</text>
</g>
<!-- n3 -->
<g id="node5" class="node">
<title>n3</title>
<g id="a_node5"><a xlink:href="gitlab2prov:Committer" xlink:title="Committer">
<polygon fill="#fed37f" stroke="#000000" points="481.2197,-405.5623 419.5,-418 357.7803,-405.5623 357.8379,-385.4377 481.1621,-385.4377 481.2197,-405.5623"/>
<text text-anchor="middle" x="419.5" y="-396.3" font-family="Times,serif" font-size="14.00" fill="#000000">Committer</text>
</a>
</g>
</g>
<!-- n1&#45;&gt;n3 -->
<g id="edge8" class="edge">
<title>n1&#45;&gt;n3</title>
<path fill="none" stroke="#fed37f" d="M330.0625,-302.5469C348.7317,-322.8893 379.092,-355.9705 399.1797,-377.8586"/>
<polygon fill="#fed37f" stroke="#fed37f" points="396.7348,-380.3708 406.075,-385.3718 401.8921,-375.6377 396.7348,-380.3708"/>
<text text-anchor="middle" x="425.5" y="-356" font-family="Times,serif" font-size="10.00" fill="#000000">wasAssociatedWith</text>
</g>
<!-- n4 -->
<g id="node7" class="node">
<title>n4</title>
<g id="a_node7"><a xlink:href="gitlab2prov:Author" xlink:title="Author">
<polygon fill="#fed37f" stroke="#000000" points="314.4778,-405.5623 269.5,-418 224.5222,-405.5623 224.5642,-385.4377 314.4358,-385.4377 314.4778,-405.5623"/>
<text text-anchor="middle" x="269.5" y="-396.3" font-family="Times,serif" font-size="14.00" fill="#000000">Author</text>
</a>
</g>
</g>
<!-- n1&#45;&gt;n4 -->
<g id="edge9" class="edge">
<title>n1&#45;&gt;n4</title>
<path fill="none" stroke="#fed37f" d="M306.625,-302.5469C299.1134,-322.2647 287.0424,-353.9512 278.7146,-375.8116"/>
<polygon fill="#fed37f" stroke="#fed37f" points="275.3619,-374.781 275.0726,-385.3718 281.9034,-377.273 275.3619,-374.781"/>
<text text-anchor="middle" x="326.5" y="-356" font-family="Times,serif" font-size="10.00" fill="#000000">wasAssociatedWith</text>
</g>
<!-- ann1 -->
<g id="node2" class="node">
<title>ann1</title>
<polygon fill="none" stroke="#c0c0c0" points="363,-187 258,-187 258,-86 369,-86 369,-181 363,-187"/>
<polyline fill="none" stroke="#c0c0c0" points="363,-187 363,-181 "/>
<polyline fill="none" stroke="#c0c0c0" points="369,-181 363,-181 "/>
<g id="a_node2_0"><a xlink:href="http://www.w3.org/ns/prov#type" xlink:title="&lt;TABLE&gt;">
<text text-anchor="start" x="268.5" y="-172.5" font-family="Times,serif" font-size="10.00" fill="#000000">prov:type</text>
</a>
</g>
<text text-anchor="start" x="328.5" y="-172.5" font-family="Times,serif" font-size="10.00" fill="#000000">commit</text>
<g id="a_node2_1"><a xlink:href="gitlab2prov:id" xlink:title="&lt;TABLE&gt;">
<text text-anchor="start" x="268.5" y="-159.5" font-family="Times,serif" font-size="10.00" fill="#000000">id</text>
</a>
</g>
<g id="a_node2_2"><a xlink:href="gitlab2prov:message" xlink:title="&lt;TABLE&gt;">
<text text-anchor="start" x="268.5" y="-146.5" font-family="Times,serif" font-size="10.00" fill="#000000">message</text>
</a>
</g>
<g id="a_node2_3"><a xlink:href="http://www.w3.org/ns/prov#endedAt" xlink:title="&lt;TABLE&gt;">
<text text-anchor="start" x="268.5" y="-133.5" font-family="Times,serif" font-size="10.00" fill="#000000">prov:endedAt</text>
</a>
</g>
<g id="a_node2_4"><a xlink:href="http://www.w3.org/ns/prov#startedAt" xlink:title="&lt;TABLE&gt;">
<text text-anchor="start" x="268.5" y="-120.5" font-family="Times,serif" font-size="10.00" fill="#000000">prov:startedAt</text>
</a>
</g>
<g id="a_node2_5"><a xlink:href="gitlab2prov:short_id" xlink:title="&lt;TABLE&gt;">
<text text-anchor="start" x="268.5" y="-107.5" font-family="Times,serif" font-size="10.00" fill="#000000">short_id</text>
</a>
</g>
<g id="a_node2_6"><a xlink:href="gitlab2prov:title" xlink:title="&lt;TABLE&gt;">
<text text-anchor="start" x="268.5" y="-94.5" font-family="Times,serif" font-size="10.00" fill="#000000">title</text>
</a>
</g>
</g>
<!-- ann1&#45;&gt;n1 -->
<g id="edge1" class="edge">
<title>ann1&#45;&gt;n1</title>
<path fill="none" stroke="#c0c0c0" stroke-dasharray="5,2" d="M313.5,-187.0193C313.5,-214.4857 313.5,-246.7669 313.5,-266.4217"/>
</g>
<!-- ann2 -->
<g id="node4" class="node">
<title>ann2</title>
<polygon fill="none" stroke="#c0c0c0" points="105,-335 0,-335 0,-234 111,-234 111,-329 105,-335"/>
<polyline fill="none" stroke="#c0c0c0" points="105,-335 105,-329 "/>
<polyline fill="none" stroke="#c0c0c0" points="111,-329 105,-329 "/>
<g id="a_node4_7"><a xlink:href="http://www.w3.org/ns/prov#type" xlink:title="&lt;TABLE&gt;">
<text text-anchor="start" x="10.5" y="-320.5" font-family="Times,serif" font-size="10.00" fill="#000000">prov:type</text>
</a>
</g>
<text text-anchor="start" x="70.5" y="-320.5" font-family="Times,serif" font-size="10.00" fill="#000000">commit</text>
<g id="a_node4_8"><a xlink:href="gitlab2prov:id" xlink:title="&lt;TABLE&gt;">
<text text-anchor="start" x="10.5" y="-307.5" font-family="Times,serif" font-size="10.00" fill="#000000">id</text>
</a>
</g>
<g id="a_node4_9"><a xlink:href="gitlab2prov:message" xlink:title="&lt;TABLE&gt;">
<text text-anchor="start" x="10.5" y="-294.5" font-family="Times,serif" font-size="10.00" fill="#000000">message</text>
</a>
</g>
<g id="a_node4_10"><a xlink:href="http://www.w3.org/ns/prov#endedAt" xlink:title="&lt;TABLE&gt;">
<text text-anchor="start" x="10.5" y="-281.5" font-family="Times,serif" font-size="10.00" fill="#000000">prov:endedAt</text>
</a>
</g>
<g id="a_node4_11"><a xlink:href="http://www.w3.org/ns/prov#startedAt" xlink:title="&lt;TABLE&gt;">
<text text-anchor="start" x="10.5" y="-268.5" font-family="Times,serif" font-size="10.00" fill="#000000">prov:startedAt</text>
</a>
</g>
<g id="a_node4_12"><a xlink:href="gitlab2prov:short_id" xlink:title="&lt;TABLE&gt;">
<text text-anchor="start" x="10.5" y="-255.5" font-family="Times,serif" font-size="10.00" fill="#000000">short_id</text>
</a>
</g>
<g id="a_node4_13"><a xlink:href="gitlab2prov:title" xlink:title="&lt;TABLE&gt;">
<text text-anchor="start" x="10.5" y="-242.5" font-family="Times,serif" font-size="10.00" fill="#000000">title</text>
</a>
</g>
</g>
<!-- ann2&#45;&gt;n2 -->
<g id="edge2" class="edge">
<title>ann2&#45;&gt;n2</title>
<path fill="none" stroke="#c0c0c0" stroke-dasharray="5,2" d="M76.9921,-335.16C84.0378,-351.7677 91.4205,-369.1697 96.7616,-381.7594"/>
</g>
<!-- ann3 -->
<g id="node6" class="node">
<title>ann3</title>
<polygon fill="none" stroke="#c0c0c0" points="537,-315.5 440,-315.5 440,-253.5 543,-253.5 543,-309.5 537,-315.5"/>
<polyline fill="none" stroke="#c0c0c0" points="537,-315.5 537,-309.5 "/>
<polyline fill="none" stroke="#c0c0c0" points="543,-309.5 537,-309.5 "/>
<g id="a_node6_14"><a xlink:href="http://www.w3.org/ns/prov#role" xlink:title="&lt;TABLE&gt;">
<text text-anchor="start" x="450.5" y="-301.5" font-family="Times,serif" font-size="10.00" fill="#000000">prov:role</text>
</a>
</g>
<text text-anchor="start" x="491.5" y="-301.5" font-family="Times,serif" font-size="10.00" fill="#000000">committer</text>
<g id="a_node6_15"><a xlink:href="http://www.w3.org/ns/prov#type" xlink:title="&lt;TABLE&gt;">
<text text-anchor="start" x="450.5" y="-288.5" font-family="Times,serif" font-size="10.00" fill="#000000">prov:type</text>
</a>
</g>
<text text-anchor="start" x="491.5" y="-288.5" font-family="Times,serif" font-size="10.00" fill="#000000">user</text>
<g id="a_node6_16"><a xlink:href="gitlab2prov:email" xlink:title="&lt;TABLE&gt;">
<text text-anchor="start" x="450.5" y="-275.5" font-family="Times,serif" font-size="10.00" fill="#000000">email</text>
</a>
</g>
<g id="a_node6_17"><a xlink:href="gitlab2prov:name" xlink:title="&lt;TABLE&gt;">
<text text-anchor="start" x="450.5" y="-262.5" font-family="Times,serif" font-size="10.00" fill="#000000">name</text>
</a>
</g>
</g>
<!-- ann3&#45;&gt;n3 -->
<g id="edge3" class="edge">
<title>ann3&#45;&gt;n3</title>
<path fill="none" stroke="#c0c0c0" stroke-dasharray="5,2" d="M491.8537,-315.79C490.6494,-331.4261 487.0021,-349.9548 477.5,-364 471.5232,-372.8344 462.5802,-379.9066 453.4954,-385.3637"/>
</g>
<!-- ann4 -->
<g id="node8" class="node">
<title>ann4</title>
<polygon fill="none" stroke="#c0c0c0" points="210,-315.5 129,-315.5 129,-253.5 216,-253.5 216,-309.5 210,-315.5"/>
<polyline fill="none" stroke="#c0c0c0" points="210,-315.5 210,-309.5 "/>
<polyline fill="none" stroke="#c0c0c0" points="216,-309.5 210,-309.5 "/>
<g id="a_node8_18"><a xlink:href="http://www.w3.org/ns/prov#role" xlink:title="&lt;TABLE&gt;">
<text text-anchor="start" x="139.5" y="-301.5" font-family="Times,serif" font-size="10.00" fill="#000000">prov:role</text>
</a>
</g>
<text text-anchor="start" x="180.5" y="-301.5" font-family="Times,serif" font-size="10.00" fill="#000000">author</text>
<g id="a_node8_19"><a xlink:href="http://www.w3.org/ns/prov#type" xlink:title="&lt;TABLE&gt;">
<text text-anchor="start" x="139.5" y="-288.5" font-family="Times,serif" font-size="10.00" fill="#000000">prov:type</text>
</a>
</g>
<text text-anchor="start" x="180.5" y="-288.5" font-family="Times,serif" font-size="10.00" fill="#000000">user</text>
<g id="a_node8_20"><a xlink:href="gitlab2prov:email" xlink:title="&lt;TABLE&gt;">
<text text-anchor="start" x="139.5" y="-275.5" font-family="Times,serif" font-size="10.00" fill="#000000">email</text>
</a>
</g>
<g id="a_node8_21"><a xlink:href="gitlab2prov:name" xlink:title="&lt;TABLE&gt;">
<text text-anchor="start" x="139.5" y="-262.5" font-family="Times,serif" font-size="10.00" fill="#000000">name</text>
</a>
</g>
</g>
<!-- ann4&#45;&gt;n4 -->
<g id="edge4" class="edge">
<title>ann4&#45;&gt;n4</title>
<path fill="none" stroke="#c0c0c0" stroke-dasharray="5,2" d="M171.2648,-315.6194C172.1746,-331.5853 175.8235,-350.4665 186.5,-364 195.9364,-375.9615 210.138,-384.027 224.139,-389.4315"/>
</g>
<!-- n5 -->
<g id="node9" class="node">
<title>n5</title>
<g id="a_node9"><a xlink:href="gitlab2prov:File" xlink:title="File">
<ellipse fill="#fffc87" stroke="#808080" cx="588.5" cy="-284.5" rx="27" ry="18"/>
<text text-anchor="middle" x="588.5" y="-280.8" font-family="Times,serif" font-size="14.00" fill="#000000">File</text>
</a>
</g>
</g>
<!-- ann5 -->
<g id="node10" class="node">
<title>ann5</title>
<polygon fill="none" stroke="#c0c0c0" points="634,-154.5 537,-154.5 537,-118.5 640,-118.5 640,-148.5 634,-154.5"/>
<polyline fill="none" stroke="#c0c0c0" points="634,-154.5 634,-148.5 "/>
<polyline fill="none" stroke="#c0c0c0" points="640,-148.5 634,-148.5 "/>
<g id="a_node10_22"><a xlink:href="http://www.w3.org/ns/prov#type" xlink:title="&lt;TABLE&gt;">
<text text-anchor="start" x="547.5" y="-140.5" font-family="Times,serif" font-size="10.00" fill="#000000">prov:type</text>
</a>
</g>
<text text-anchor="start" x="617.5" y="-140.5" font-family="Times,serif" font-size="10.00" fill="#000000">file</text>
<g id="a_node10_23"><a xlink:href="gitlab2prov:path_at_addition" xlink:title="&lt;TABLE&gt;">
<text text-anchor="start" x="547.5" y="-127.5" font-family="Times,serif" font-size="10.00" fill="#000000">path_at_addition</text>
</a>
</g>
</g>
<!-- ann5&#45;&gt;n5 -->
<g id="edge5" class="edge">
<title>ann5&#45;&gt;n5</title>
<path fill="none" stroke="#c0c0c0" stroke-dasharray="5,2" d="M588.5,-154.6477C588.5,-183.0529 588.5,-237.7075 588.5,-266.2039"/>
</g>
<!-- n6 -->
<g id="node11" class="node">
<title>n6</title>
<g id="a_node11"><a xlink:href="gitlab2prov:File Version" xlink:title="File Version">
<ellipse fill="#fffc87" stroke="#808080" cx="453.5" cy="-136.5" rx="55.7903" ry="18"/>
<text text-anchor="middle" x="453.5" y="-132.8" font-family="Times,serif" font-size="14.00" fill="#000000">File Version</text>
</a>
</g>
</g>
<!-- n6&#45;&gt;n1 -->
<g id="edge10" class="edge">
<title>n6&#45;&gt;n1</title>
<path fill="none" stroke="#000000" d="M437.1662,-153.7671C412.6674,-179.6658 366.251,-228.7347 337.7773,-258.8355"/>
<polygon fill="#000000" stroke="#000000" points="334.9316,-256.7506 330.6022,-266.4206 340.0169,-261.5611 334.9316,-256.7506"/>
<text text-anchor="middle" x="425" y="-208" font-family="Times,serif" font-size="10.00" fill="#000000">wasInvalidatedBy</text>
</g>
<!-- n6&#45;&gt;n5 -->
<g id="edge11" class="edge">
<title>n6&#45;&gt;n5</title>
<path fill="none" stroke="#000000" d="M464.9781,-154.3566C476.8058,-171.7223 496.5685,-198.0405 518.5,-216 531.7286,-226.8328 539.6364,-222.7362 552.5,-234 560.5562,-241.0543 567.7861,-250.2492 573.6159,-258.8568"/>
<polygon fill="#000000" stroke="#000000" points="570.8149,-260.9727 579.1603,-267.5 576.7069,-257.1931 570.8149,-260.9727"/>
<text text-anchor="middle" x="551.5" y="-208" font-family="Times,serif" font-size="10.00" fill="#000000">specializationOf</text>
</g>
<!-- ann6 -->
<g id="node12" class="node">
<title>ann6</title>
<polygon fill="none" stroke="#c0c0c0" points="502,-49 399,-49 399,0 508,0 508,-43 502,-49"/>
<polyline fill="none" stroke="#c0c0c0" points="502,-49 502,-43 "/>
<polyline fill="none" stroke="#c0c0c0" points="508,-43 502,-43 "/>
<g id="a_node12_24"><a xlink:href="http://www.w3.org/ns/prov#type" xlink:title="&lt;TABLE&gt;">
<text text-anchor="start" x="409.5" y="-34.5" font-family="Times,serif" font-size="10.00" fill="#000000">prov:type</text>
</a>
</g>
<text text-anchor="start" x="450.5" y="-34.5" font-family="Times,serif" font-size="10.00" fill="#000000">file_version</text>
<g id="a_node12_25"><a xlink:href="gitlab2prov:new_path" xlink:title="&lt;TABLE&gt;">
<text text-anchor="start" x="409.5" y="-21.5" font-family="Times,serif" font-size="10.00" fill="#000000">new_path</text>
</a>
</g>
<g id="a_node12_26"><a xlink:href="gitlab2prov:old_path" xlink:title="&lt;TABLE&gt;">
<text text-anchor="start" x="409.5" y="-8.5" font-family="Times,serif" font-size="10.00" fill="#000000">old_path</text>
</a>
</g>
</g>
<!-- ann6&#45;&gt;n6 -->
<g id="edge6" class="edge">
<title>ann6&#45;&gt;n6</title>
<path fill="none" stroke="#c0c0c0" stroke-dasharray="5,2" d="M453.5,-49.0789C453.5,-69.9421 453.5,-99.4082 453.5,-118.2345"/>
</g>
</g>
</svg>
