<?xml version="1.0" encoding="UTF-8" standalone="no"?>
<!DOCTYPE svg PUBLIC "-//W3C//DTD SVG 1.1//EN"
 "http://www.w3.org/Graphics/SVG/1.1/DTD/svg11.dtd">
<!-- Generated by graphviz version 2.50.0 (20211204.2007)
 -->
<!-- Title: G Pages: 1 -->
<svg width="402pt" height="293pt"
 viewBox="0.00 0.00 401.99 293.00" xmlns="http://www.w3.org/2000/svg" xmlns:xlink="http://www.w3.org/1999/xlink">
<g id="graph0" class="graph" transform="scale(1 1) rotate(0) translate(4 289)">
<title>G</title>
<!-- n1 -->
<g id="node1" class="node">
<title>n1</title>
<g id="a_node1"><a xlink:href="gitlab2prov:Commit" xlink:title="Commit">
<polygon fill="#9fb1fc" stroke="#0000ff" points="214.94,-202 152.94,-202 152.94,-166 214.94,-166 214.94,-202"/>
<text text-anchor="middle" x="183.94" y="-180.3" font-family="Times New Roman,serif" font-size="14.00">Commit</text>
</a>
</g>
</g>
<!-- n2 -->
<g id="node2" class="node">
<title>n2</title>
<g id="a_node2"><a xlink:href="gitlab2prov:Parent Commit" xlink:title="Parent Commit">
<polygon fill="#9fb1fc" stroke="#0000ff" points="253.44,-285 152.44,-285 152.44,-249 253.44,-249 253.44,-285"/>
<text text-anchor="middle" x="202.94" y="-263.3" font-family="Times New Roman,serif" font-size="14.00">Parent Commit</text>
</a>
</g>
</g>
<!-- n1&#45;&gt;n2 -->
<g id="edge1" class="edge">
<title>n1&#45;&gt;n2</title>
<path fill="none" stroke="black" d="M187.97,-202.18C190.46,-212.81 193.72,-226.69 196.55,-238.8"/>
<polygon fill="black" stroke="black" points="193.22,-239.91 198.91,-248.85 200.04,-238.31 193.22,-239.91"/>
<text text-anchor="middle" x="225.94" y="-223" font-family="Times New Roman,serif" font-size="10.00">wasInformedBy</text>
</g>
<!-- n3 -->
<g id="node3" class="node">
<title>n3</title>
<g id="a_node3"><a xlink:href="gitlab2prov:Committer" xlink:title="Committer">
<polygon fill="#fed37f" stroke="black" points="394.05,-272.56 332.94,-285 271.82,-272.56 271.88,-252.44 393.99,-252.44 394.05,-272.56"/>
<text text-anchor="middle" x="332.94" y="-263.3" font-family="Times New Roman,serif" font-size="14.00">Committer</text>
</a>
</g>
</g>
<!-- n1&#45;&gt;n3 -->
<g id="edge2" class="edge">
<title>n1&#45;&gt;n3</title>
<path fill="none" stroke="#fed37f" d="M215.21,-197.73C229.68,-203.95 246.94,-211.84 261.94,-220 276.61,-227.99 292.26,-237.96 305.13,-246.57"/>
<polygon fill="#fed37f" stroke="#fed37f" points="303.3,-249.56 313.54,-252.28 307.23,-243.77 303.3,-249.56"/>
<text text-anchor="middle" x="320.94" y="-223" font-family="Times New Roman,serif" font-size="10.00">wasAssociatedWith</text>
</g>
<!-- n4 -->
<g id="node4" class="node">
<title>n4</title>
<g id="a_node4"><a xlink:href="gitlab2prov:Author" xlink:title="Author">
<polygon fill="#fed37f" stroke="black" points="109.91,-272.56 64.94,-285 19.96,-272.56 20,-252.44 109.87,-252.44 109.91,-272.56"/>
<text text-anchor="middle" x="64.94" y="-263.3" font-family="Times New Roman,serif" font-size="14.00">Author</text>
</a>
</g>
</g>
<!-- n1&#45;&gt;n4 -->
<g id="edge3" class="edge">
<title>n1&#45;&gt;n4</title>
<path fill="none" stroke="#fed37f" d="M152.73,-197.44C134.64,-204.95 113.9,-214.17 105.94,-220 96.75,-226.73 88.11,-235.83 81.15,-244.15"/>
<polygon fill="#fed37f" stroke="#fed37f" points="78.3,-242.1 74.8,-252.1 83.77,-246.47 78.3,-242.1"/>
<text text-anchor="middle" x="146.94" y="-223" font-family="Times New Roman,serif" font-size="10.00">wasAssociatedWith</text>
</g>
<!-- n5 -->
<g id="node5" class="node">
<title>n5</title>
<g id="a_node5"><a xlink:href="gitlab2prov:File" xlink:title="File">
<ellipse fill="#fffc87" stroke="#808080" cx="81.94" cy="-101" rx="27" ry="18"/>
<text text-anchor="middle" x="81.94" y="-97.3" font-family="Times New Roman,serif" font-size="14.00">File</text>
</a>
</g>
</g>
<!-- n5&#45;&gt;n1 -->
<g id="edge4" class="edge">
<title>n5&#45;&gt;n1</title>
<path fill="none" stroke="darkgreen" d="M85.59,-119.11C88.39,-128.65 93.14,-140.15 100.94,-148 104.37,-151.46 124.12,-159.84 143.5,-167.54"/>
<polygon fill="darkgreen" stroke="darkgreen" points="142.32,-170.83 152.91,-171.24 144.88,-164.32 142.32,-170.83"/>
<text text-anchor="middle" x="134.94" y="-140" font-family="Times New Roman,serif" font-size="10.00" fill="darkgreen">wasGeneratedBy</text>
</g>
<!-- n5&#45;&gt;n4 -->
<g id="edge6" class="edge">
<title>n5&#45;&gt;n4</title>
<path fill="none" stroke="#fed37f" d="M79.64,-119.09C77.94,-131.98 75.65,-150.08 73.94,-166 71.14,-192.03 68.53,-221.94 66.84,-242.21"/>
<polygon fill="#fed37f" stroke="#fed37f" points="63.34,-242.15 66.01,-252.4 70.31,-242.72 63.34,-242.15"/>
<text text-anchor="middle" x="108.94" y="-181.5" font-family="Times New Roman,serif" font-size="10.00">wasAttributedTo</text>
</g>
<!-- n6 -->
<g id="node6" class="node">
<title>n6</title>
<g id="a_node6"><a xlink:href="gitlab2prov:File Revision" xlink:title="File Revision">
<ellipse fill="#fffc87" stroke="#808080" cx="81.94" cy="-18" rx="57.69" ry="18"/>
<text text-anchor="middle" x="81.94" y="-14.3" font-family="Times New Roman,serif" font-size="14.00">File Revision</text>
</a>
</g>
</g>
<!-- n6&#45;&gt;n1 -->
<g id="edge5" class="edge">
<title>n6&#45;&gt;n1</title>
<path fill="none" stroke="darkgreen" d="M119.78,-31.62C130.88,-36.96 142.12,-44.27 149.94,-54 173.47,-83.3 180.83,-127.29 183.06,-155.57"/>
<polygon fill="darkgreen" stroke="darkgreen" points="179.57,-155.81 183.69,-165.58 186.56,-155.38 179.57,-155.81"/>
<text text-anchor="middle" x="210.94" y="-98.5" font-family="Times New Roman,serif" font-size="10.00" fill="darkgreen">wasGeneratedBy</text>
</g>
<!-- n6&#45;&gt;n4 -->
<g id="edge7" class="edge">
<title>n6&#45;&gt;n4</title>
<path fill="none" stroke="#fed37f" d="M65.98,-35.67C46.69,-57.11 15.26,-96.43 2.94,-137 -9.19,-176.9 21.23,-219.93 43.63,-244.84"/>
<polygon fill="#fed37f" stroke="#fed37f" points="41.17,-247.33 50.55,-252.26 46.29,-242.56 41.17,-247.33"/>
<text text-anchor="middle" x="37.94" y="-140" font-family="Times New Roman,serif" font-size="10.00">wasAttributedTo</text>
</g>
<!-- n6&#45;&gt;n5 -->
<g id="edge8" class="edge">
<title>n6&#45;&gt;n5</title>
<path fill="none" stroke="black" d="M81.94,-36.18C81.94,-46.81 81.94,-60.69 81.94,-72.8"/>
<polygon fill="black" stroke="black" points="78.44,-72.85 81.94,-82.85 85.44,-72.85 78.44,-72.85"/>
<text text-anchor="middle" x="113.94" y="-57" font-family="Times New Roman,serif" font-size="10.00">specializationOf</text>
</g>
</g>
</svg>
