<?xml version="1.0" encoding="UTF-8" standalone="no"?>
<!DOCTYPE svg PUBLIC "-//W3C//DTD SVG 1.1//EN"
 "http://www.w3.org/Graphics/SVG/1.1/DTD/svg11.dtd">
<!-- Generated by graphviz version 2.50.0 (20211204.2007)
 -->
<!-- Title: G Pages: 1 -->
<svg width="680pt" height="293pt"
 viewBox="0.00 0.00 680.29 293.00" xmlns="http://www.w3.org/2000/svg" xmlns:xlink="http://www.w3.org/1999/xlink">
<g id="graph0" class="graph" transform="scale(1 1) rotate(0) translate(4 289)">
<title>G</title>
<!-- n1 -->
<g id="node1" class="node">
<title>n1</title>
<g id="a_node1"><a xlink:href="gitlab2prov:Commit" xlink:title="Commit">
<polygon fill="#9fb1fc" stroke="#0000ff" points="399.29,-119 337.29,-119 337.29,-83 399.29,-83 399.29,-119"/>
<text text-anchor="middle" x="368.29" y="-97.3" font-family="Times New Roman,serif" font-size="14.00">Commit</text>
</a>
</g>
</g>
<!-- n2 -->
<g id="node2" class="node">
<title>n2</title>
<g id="a_node2"><a xlink:href="gitlab2prov:Parent Commit" xlink:title="Parent Commit">
<polygon fill="#9fb1fc" stroke="#0000ff" points="443.79,-202 342.79,-202 342.79,-166 443.79,-166 443.79,-202"/>
<text text-anchor="middle" x="393.29" y="-180.3" font-family="Times New Roman,serif" font-size="14.00">Parent Commit</text>
</a>
</g>
</g>
<!-- n1&#45;&gt;n2 -->
<g id="edge1" class="edge">
<title>n1&#45;&gt;n2</title>
<path fill="none" stroke="black" d="M366.35,-119.43C365.95,-128.2 366.35,-138.88 369.29,-148 370.31,-151.16 371.71,-154.28 373.33,-157.3"/>
<polygon fill="black" stroke="black" points="370.42,-159.25 378.67,-165.9 376.37,-155.56 370.42,-159.25"/>
<text text-anchor="middle" x="401.29" y="-140" font-family="Times New Roman,serif" font-size="10.00">wasInformedBy</text>
</g>
<!-- n3 -->
<g id="node3" class="node">
<title>n3</title>
<g id="a_node3"><a xlink:href="gitlab2prov:Committer" xlink:title="Committer">
<polygon fill="#fed37f" stroke="black" points="324.4,-189.56 263.29,-202 202.18,-189.56 202.24,-169.44 324.35,-169.44 324.4,-189.56"/>
<text text-anchor="middle" x="263.29" y="-180.3" font-family="Times New Roman,serif" font-size="14.00">Committer</text>
</a>
</g>
</g>
<!-- n1&#45;&gt;n3 -->
<g id="edge3" class="edge">
<title>n1&#45;&gt;n3</title>
<path fill="none" stroke="#fed37f" d="M337.02,-107.75C318.37,-112.65 295.45,-121.47 280.29,-137 274.34,-143.1 270.44,-151.47 267.9,-159.39"/>
<polygon fill="#fed37f" stroke="#fed37f" points="264.45,-158.77 265.29,-169.33 271.22,-160.55 264.45,-158.77"/>
<text text-anchor="middle" x="321.29" y="-140" font-family="Times New Roman,serif" font-size="10.00">wasAssociatedWith</text>
</g>
<!-- n4 -->
<g id="node4" class="node">
<title>n4</title>
<g id="a_node4"><a xlink:href="gitlab2prov:Author" xlink:title="Author">
<polygon fill="#fed37f" stroke="black" points="574.27,-189.56 529.29,-202 484.31,-189.56 484.36,-169.44 574.23,-169.44 574.27,-189.56"/>
<text text-anchor="middle" x="529.29" y="-180.3" font-family="Times New Roman,serif" font-size="14.00">Author</text>
</a>
</g>
</g>
<!-- n1&#45;&gt;n4 -->
<g id="edge2" class="edge">
<title>n1&#45;&gt;n4</title>
<path fill="none" stroke="#fed37f" d="M399.52,-118.66C416.28,-127.51 437.33,-138.5 456.29,-148 467.58,-153.66 479.94,-159.65 491.22,-165.05"/>
<polygon fill="#fed37f" stroke="#fed37f" points="489.87,-168.29 500.4,-169.43 492.88,-161.97 489.87,-168.29"/>
<text text-anchor="middle" x="497.29" y="-140" font-family="Times New Roman,serif" font-size="10.00">wasAssociatedWith</text>
</g>
<!-- n7 -->
<g id="node7" class="node">
<title>n7</title>
<g id="a_node7"><a xlink:href="gitlab2prov:Previous File Revision" xlink:title="Previous File Revision">
<ellipse fill="#fffc87" stroke="#808080" cx="92.29" cy="-184" rx="92.08" ry="18"/>
<text text-anchor="middle" x="92.29" y="-180.3" font-family="Times New Roman,serif" font-size="14.00">Previous File Revision</text>
</a>
</g>
</g>
<!-- n1&#45;&gt;n7 -->
<g id="edge4" class="edge">
<title>n1&#45;&gt;n7</title>
<path fill="none" stroke="#8b0000" d="M337.17,-111.13C292.15,-124.35 208.03,-149.03 151.1,-165.74"/>
<polygon fill="#8b0000" stroke="#8b0000" points="149.76,-162.49 141.15,-168.66 151.73,-169.2 149.76,-162.49"/>
<text text-anchor="middle" x="257.29" y="-140" font-family="Times New Roman,serif" font-size="10.00" fill="red">used</text>
</g>
<!-- n5 -->
<g id="node5" class="node">
<title>n5</title>
<g id="a_node5"><a xlink:href="gitlab2prov:File" xlink:title="File">
<ellipse fill="#fffc87" stroke="#808080" cx="371.29" cy="-267" rx="27" ry="18"/>
<text text-anchor="middle" x="371.29" y="-263.3" font-family="Times New Roman,serif" font-size="14.00">File</text>
</a>
</g>
</g>
<!-- n6 -->
<g id="node6" class="node">
<title>n6</title>
<g id="a_node6"><a xlink:href="gitlab2prov:File Revision" xlink:title="File Revision">
<ellipse fill="#fffc87" stroke="#808080" cx="481.29" cy="-18" rx="57.69" ry="18"/>
<text text-anchor="middle" x="481.29" y="-14.3" font-family="Times New Roman,serif" font-size="14.00">File Revision</text>
</a>
</g>
</g>
<!-- n6&#45;&gt;n1 -->
<g id="edge5" class="edge">
<title>n6&#45;&gt;n1</title>
<path fill="none" stroke="darkgreen" d="M459.24,-34.81C442.53,-46.79 419.32,-63.42 400.53,-76.89"/>
<polygon fill="darkgreen" stroke="darkgreen" points="398.33,-74.16 392.25,-82.83 402.41,-79.85 398.33,-74.16"/>
<text text-anchor="middle" x="465.29" y="-57" font-family="Times New Roman,serif" font-size="10.00" fill="darkgreen">wasGeneratedBy</text>
</g>
<!-- n6&#45;&gt;n4 -->
<g id="edge11" class="edge">
<title>n6&#45;&gt;n4</title>
<path fill="none" stroke="#fed37f" d="M492.92,-36C507.2,-58.1 530.49,-98.42 538.29,-137 539.77,-144.29 539.04,-152.23 537.5,-159.44"/>
<polygon fill="#fed37f" stroke="#fed37f" points="534.06,-158.74 534.82,-169.3 540.82,-160.57 534.06,-158.74"/>
<text text-anchor="middle" x="568.29" y="-98.5" font-family="Times New Roman,serif" font-size="10.00">wasAttributedTo</text>
</g>
<!-- n6&#45;&gt;n5 -->
<g id="edge9" class="edge">
<title>n6&#45;&gt;n5</title>
<path fill="none" stroke="black" d="M526.89,-29.26C555.37,-38.28 589.84,-54.56 607.29,-83 625.94,-113.38 591.6,-193.6 583.29,-202 536.43,-249.41 455.8,-261.96 408.64,-265.12"/>
<polygon fill="black" stroke="black" points="408.33,-261.63 398.54,-265.69 408.72,-268.62 408.33,-261.63"/>
<text text-anchor="middle" x="640.29" y="-140" font-family="Times New Roman,serif" font-size="10.00">specializationOf</text>
</g>
<!-- b1 -->
<g id="node8" class="node">
<title>b1</title>
<ellipse fill="gray" stroke="gray" cx="228.29" cy="-101" rx="1.8" ry="1.8"/>
</g>
<!-- n6&#45;&gt;b1 -->
<g id="edge6" class="edge">
<title>n6&#45;&gt;b1</title>
<path fill="none" stroke="black" d="M435.87,-29.21C409.25,-35.57 375.1,-44.35 345.29,-54 296.29,-69.87 238.2,-95.57 229.43,-99.49"/>
<text text-anchor="middle" x="379.29" y="-57" font-family="Times New Roman,serif" font-size="10.00">wasDerivedFrom</text>
</g>
<!-- n7&#45;&gt;n5 -->
<g id="edge10" class="edge">
<title>n7&#45;&gt;n5</title>
<path fill="none" stroke="black" d="M141.53,-199.29C197.76,-215.62 288.27,-241.9 337.22,-256.11"/>
<polygon fill="black" stroke="black" points="336.43,-259.52 347.01,-258.95 338.38,-252.8 336.43,-259.52"/>
<text text-anchor="middle" x="281.29" y="-223" font-family="Times New Roman,serif" font-size="10.00">specializationOf</text>
</g>
<!-- b1&#45;&gt;n7 -->
<g id="edge7" class="edge">
<title>b1&#45;&gt;n7</title>
<path fill="none" stroke="black" d="M226.76,-102.91C217.21,-108.6 164.93,-139.74 128.45,-161.47"/>
<polygon fill="black" stroke="black" points="126.35,-158.64 119.55,-166.77 129.93,-164.66 126.35,-158.64"/>
</g>
<!-- ann1 -->
<g id="node9" class="node">
<title>ann1</title>
<polygon fill="none" stroke="gray" points="281.79,-36 168.79,-36 168.79,0 287.79,0 287.79,-30 281.79,-36"/>
<polyline fill="none" stroke="gray" points="281.79,-36 281.79,-30 "/>
<polyline fill="none" stroke="gray" points="287.79,-30 281.79,-30 "/>
<g id="a_node9_0"><a xlink:href="http://www.w3.org/ns/prov#type" xlink:title="&lt;TABLE&gt;">
<text text-anchor="start" x="179.29" y="-15" font-family="Times New Roman,serif" font-size="10.00">prov:type</text>
</a>
</g>
<g id="a_node9_1"><a xlink:href="http://www.w3.org/ns/prov#Revision" xlink:title="&lt;TABLE&gt;">
<text text-anchor="start" x="221.29" y="-15" font-family="Times New Roman,serif" font-size="10.00">prov:Revision</text>
</a>
</g>
</g>
<!-- ann1&#45;&gt;b1 -->
<g id="edge8" class="edge">
<title>ann1&#45;&gt;b1</title>
<path fill="none" stroke="gray" stroke-dasharray="5,2" d="M228.29,-36.18C228.29,-57.73 228.29,-92.63 228.29,-98.99"/>
</g>
</g>
</svg>
