<?xml version="1.0" encoding="UTF-8" standalone="no"?>
<!DOCTYPE svg PUBLIC "-//W3C//DTD SVG 1.1//EN"
 "http://www.w3.org/Graphics/SVG/1.1/DTD/svg11.dtd">
<!-- Generated by graphviz version 2.43.0 (0)
 -->
<!-- Title: G Pages: 1 -->
<svg width="812pt" height="509pt"
 viewBox="0.00 0.00 811.50 509.00" xmlns="http://www.w3.org/2000/svg" xmlns:xlink="http://www.w3.org/1999/xlink">
<g id="graph0" class="graph" transform="scale(1 1) rotate(0) translate(4 505)">
<title>G</title>
<polygon fill="white" stroke="transparent" points="-4,4 -4,-505 807.5,-505 807.5,4 -4,4"/>
<!-- n1 -->
<g id="node1" class="node">
<title>n1</title>
<g id="a_node1"><a xlink:href="gitlab2prov:Commit" xlink:title="Commit">
<polygon fill="#9fb1fc" stroke="#0000ff" points="449,-385.5 376,-385.5 376,-349.5 449,-349.5 449,-385.5"/>
<text text-anchor="middle" x="412.5" y="-363.8" font-family="Times,serif" font-size="14.00">Commit</text>
</a>
</g>
</g>
<!-- n2 -->
<g id="node3" class="node">
<title>n2</title>
<g id="a_node3"><a xlink:href="gitlab2prov:Parent Commit" xlink:title="Parent Commit">
<polygon fill="#9fb1fc" stroke="#0000ff" points="161,-501 36,-501 36,-465 161,-465 161,-501"/>
<text text-anchor="middle" x="98.5" y="-479.3" font-family="Times,serif" font-size="14.00">Parent Commit</text>
</a>
</g>
</g>
<!-- n1&#45;&gt;n2 -->
<g id="edge7" class="edge">
<title>n1&#45;&gt;n2</title>
<path fill="none" stroke="black" d="M375.9,-382.76C349.91,-392.81 314.16,-406.47 282.5,-418 241.4,-432.97 194.86,-449.15 158.87,-461.5"/>
<polygon fill="black" stroke="black" points="157.34,-458.32 149.01,-464.87 159.61,-464.94 157.34,-458.32"/>
<text text-anchor="middle" x="273" y="-439" font-family="Times,serif" font-size="10.00">wasInformedBy</text>
</g>
<!-- n3 -->
<g id="node5" class="node">
<title>n3</title>
<g id="a_node5"><a xlink:href="gitlab2prov:Committer" xlink:title="Committer">
<polygon fill="#fed37f" stroke="black" points="362.03,-488.56 286.5,-501 210.97,-488.56 211.04,-468.44 361.96,-468.44 362.03,-488.56"/>
<text text-anchor="middle" x="286.5" y="-479.3" font-family="Times,serif" font-size="14.00">Committer</text>
</a>
</g>
</g>
<!-- n1&#45;&gt;n3 -->
<g id="edge8" class="edge">
<title>n1&#45;&gt;n3</title>
<path fill="none" stroke="#fed37f" d="M394.45,-385.55C377.37,-401.59 350.93,-426.19 327.5,-447 322.14,-451.76 316.32,-456.8 310.79,-461.54"/>
<polygon fill="#fed37f" stroke="#fed37f" points="308.33,-459.03 302.99,-468.18 312.87,-464.36 308.33,-459.03"/>
<text text-anchor="middle" x="388.5" y="-439" font-family="Times,serif" font-size="10.00">wasAssociatedWith</text>
</g>
<!-- n4 -->
<g id="node7" class="node">
<title>n4</title>
<g id="a_node7"><a xlink:href="gitlab2prov:Author" xlink:title="Author">
<polygon fill="#fed37f" stroke="black" points="647.94,-488.56 595.5,-501 543.06,-488.56 543.11,-468.44 647.89,-468.44 647.94,-488.56"/>
<text text-anchor="middle" x="595.5" y="-479.3" font-family="Times,serif" font-size="14.00">Author</text>
</a>
</g>
</g>
<!-- n1&#45;&gt;n4 -->
<g id="edge9" class="edge">
<title>n1&#45;&gt;n4</title>
<path fill="none" stroke="#fed37f" d="M420.06,-385.54C428.89,-403.49 445.18,-431.29 467.5,-447 486.7,-460.51 510.89,-468.81 533.06,-473.91"/>
<polygon fill="#fed37f" stroke="#fed37f" points="532.57,-477.38 543.08,-476.03 534.02,-470.53 532.57,-477.38"/>
<text text-anchor="middle" x="516.5" y="-439" font-family="Times,serif" font-size="10.00">wasAssociatedWith</text>
</g>
<!-- ann1 -->
<g id="node2" class="node">
<title>ann1</title>
<polygon fill="none" stroke="gray" points="473,-270 346,-270 346,-169 479,-169 479,-264 473,-270"/>
<polyline fill="none" stroke="gray" points="473,-270 473,-264 "/>
<polyline fill="none" stroke="gray" points="479,-264 473,-264 "/>
<g id="a_node2_0"><a xlink:href="http://www.w3.org/ns/prov#type" xlink:title="&lt;TABLE&gt;">
<text text-anchor="start" x="356.5" y="-255.5" font-family="Times,serif" font-size="10.00">prov:type</text>
</a>
</g>
<text text-anchor="start" x="431.5" y="-255.5" font-family="Times,serif" font-size="10.00">commit</text>
<g id="a_node2_1"><a xlink:href="gitlab2prov:id" xlink:title="&lt;TABLE&gt;">
<text text-anchor="start" x="356.5" y="-242.5" font-family="Times,serif" font-size="10.00">id</text>
</a>
</g>
<g id="a_node2_2"><a xlink:href="gitlab2prov:message" xlink:title="&lt;TABLE&gt;">
<text text-anchor="start" x="356.5" y="-229.5" font-family="Times,serif" font-size="10.00">message</text>
</a>
</g>
<g id="a_node2_3"><a xlink:href="http://www.w3.org/ns/prov#endedAt" xlink:title="&lt;TABLE&gt;">
<text text-anchor="start" x="356.5" y="-216.5" font-family="Times,serif" font-size="10.00">prov:endedAt</text>
</a>
</g>
<g id="a_node2_4"><a xlink:href="http://www.w3.org/ns/prov#startedAt" xlink:title="&lt;TABLE&gt;">
<text text-anchor="start" x="356.5" y="-203.5" font-family="Times,serif" font-size="10.00">prov:startedAt</text>
</a>
</g>
<g id="a_node2_5"><a xlink:href="gitlab2prov:short_id" xlink:title="&lt;TABLE&gt;">
<text text-anchor="start" x="356.5" y="-190.5" font-family="Times,serif" font-size="10.00">short_id</text>
</a>
</g>
<g id="a_node2_6"><a xlink:href="gitlab2prov:title" xlink:title="&lt;TABLE&gt;">
<text text-anchor="start" x="356.5" y="-177.5" font-family="Times,serif" font-size="10.00">title</text>
</a>
</g>
</g>
<!-- ann1&#45;&gt;n1 -->
<g id="edge1" class="edge">
<title>ann1&#45;&gt;n1</title>
<path fill="none" stroke="gray" stroke-dasharray="5,2" d="M412.5,-270.34C412.5,-297.76 412.5,-330.05 412.5,-349.37"/>
</g>
<!-- ann2 -->
<g id="node4" class="node">
<title>ann2</title>
<polygon fill="none" stroke="gray" points="127,-418 0,-418 0,-317 133,-317 133,-412 127,-418"/>
<polyline fill="none" stroke="gray" points="127,-418 127,-412 "/>
<polyline fill="none" stroke="gray" points="133,-412 127,-412 "/>
<g id="a_node4_7"><a xlink:href="http://www.w3.org/ns/prov#type" xlink:title="&lt;TABLE&gt;">
<text text-anchor="start" x="10.5" y="-403.5" font-family="Times,serif" font-size="10.00">prov:type</text>
</a>
</g>
<text text-anchor="start" x="85.5" y="-403.5" font-family="Times,serif" font-size="10.00">commit</text>
<g id="a_node4_8"><a xlink:href="gitlab2prov:id" xlink:title="&lt;TABLE&gt;">
<text text-anchor="start" x="10.5" y="-390.5" font-family="Times,serif" font-size="10.00">id</text>
</a>
</g>
<g id="a_node4_9"><a xlink:href="gitlab2prov:message" xlink:title="&lt;TABLE&gt;">
<text text-anchor="start" x="10.5" y="-377.5" font-family="Times,serif" font-size="10.00">message</text>
</a>
</g>
<g id="a_node4_10"><a xlink:href="http://www.w3.org/ns/prov#endedAt" xlink:title="&lt;TABLE&gt;">
<text text-anchor="start" x="10.5" y="-364.5" font-family="Times,serif" font-size="10.00">prov:endedAt</text>
</a>
</g>
<g id="a_node4_11"><a xlink:href="http://www.w3.org/ns/prov#startedAt" xlink:title="&lt;TABLE&gt;">
<text text-anchor="start" x="10.5" y="-351.5" font-family="Times,serif" font-size="10.00">prov:startedAt</text>
</a>
</g>
<g id="a_node4_12"><a xlink:href="gitlab2prov:short_id" xlink:title="&lt;TABLE&gt;">
<text text-anchor="start" x="10.5" y="-338.5" font-family="Times,serif" font-size="10.00">short_id</text>
</a>
</g>
<g id="a_node4_13"><a xlink:href="gitlab2prov:title" xlink:title="&lt;TABLE&gt;">
<text text-anchor="start" x="10.5" y="-325.5" font-family="Times,serif" font-size="10.00">title</text>
</a>
</g>
</g>
<!-- ann2&#45;&gt;n2 -->
<g id="edge2" class="edge">
<title>ann2&#45;&gt;n2</title>
<path fill="none" stroke="gray" stroke-dasharray="5,2" d="M80.54,-418.28C85.24,-434.96 90.17,-452.45 93.67,-464.88"/>
</g>
<!-- ann3 -->
<g id="node6" class="node">
<title>ann3</title>
<polygon fill="none" stroke="gray" points="268,-398.5 151,-398.5 151,-336.5 274,-336.5 274,-392.5 268,-398.5"/>
<polyline fill="none" stroke="gray" points="268,-398.5 268,-392.5 "/>
<polyline fill="none" stroke="gray" points="274,-392.5 268,-392.5 "/>
<g id="a_node6_14"><a xlink:href="http://www.w3.org/ns/prov#role" xlink:title="&lt;TABLE&gt;">
<text text-anchor="start" x="161.5" y="-384.5" font-family="Times,serif" font-size="10.00">prov:role</text>
</a>
</g>
<text text-anchor="start" x="212.5" y="-384.5" font-family="Times,serif" font-size="10.00">committer</text>
<g id="a_node6_15"><a xlink:href="http://www.w3.org/ns/prov#type" xlink:title="&lt;TABLE&gt;">
<text text-anchor="start" x="161.5" y="-371.5" font-family="Times,serif" font-size="10.00">prov:type</text>
</a>
</g>
<text text-anchor="start" x="212.5" y="-371.5" font-family="Times,serif" font-size="10.00">user</text>
<g id="a_node6_16"><a xlink:href="gitlab2prov:email" xlink:title="&lt;TABLE&gt;">
<text text-anchor="start" x="161.5" y="-358.5" font-family="Times,serif" font-size="10.00">email</text>
</a>
</g>
<g id="a_node6_17"><a xlink:href="gitlab2prov:name" xlink:title="&lt;TABLE&gt;">
<text text-anchor="start" x="161.5" y="-345.5" font-family="Times,serif" font-size="10.00">name</text>
</a>
</g>
</g>
<!-- ann3&#45;&gt;n3 -->
<g id="edge3" class="edge">
<title>ann3&#45;&gt;n3</title>
<path fill="none" stroke="gray" stroke-dasharray="5,2" d="M212.02,-398.74C213.14,-414.37 216.75,-433.04 226.5,-447 232.78,-456 242.18,-463.02 251.68,-468.34"/>
</g>
<!-- ann4 -->
<g id="node8" class="node">
<title>ann4</title>
<polygon fill="none" stroke="gray" points="566,-398.5 467,-398.5 467,-336.5 572,-336.5 572,-392.5 566,-398.5"/>
<polyline fill="none" stroke="gray" points="566,-398.5 566,-392.5 "/>
<polyline fill="none" stroke="gray" points="572,-392.5 566,-392.5 "/>
<g id="a_node8_18"><a xlink:href="http://www.w3.org/ns/prov#role" xlink:title="&lt;TABLE&gt;">
<text text-anchor="start" x="477.5" y="-384.5" font-family="Times,serif" font-size="10.00">prov:role</text>
</a>
</g>
<text text-anchor="start" x="528.5" y="-384.5" font-family="Times,serif" font-size="10.00">author</text>
<g id="a_node8_19"><a xlink:href="http://www.w3.org/ns/prov#type" xlink:title="&lt;TABLE&gt;">
<text text-anchor="start" x="477.5" y="-371.5" font-family="Times,serif" font-size="10.00">prov:type</text>
</a>
</g>
<text text-anchor="start" x="528.5" y="-371.5" font-family="Times,serif" font-size="10.00">user</text>
<g id="a_node8_20"><a xlink:href="gitlab2prov:email" xlink:title="&lt;TABLE&gt;">
<text text-anchor="start" x="477.5" y="-358.5" font-family="Times,serif" font-size="10.00">email</text>
</a>
</g>
<g id="a_node8_21"><a xlink:href="gitlab2prov:name" xlink:title="&lt;TABLE&gt;">
<text text-anchor="start" x="477.5" y="-345.5" font-family="Times,serif" font-size="10.00">name</text>
</a>
</g>
</g>
<!-- ann4&#45;&gt;n4 -->
<g id="edge4" class="edge">
<title>ann4&#45;&gt;n4</title>
<path fill="none" stroke="gray" stroke-dasharray="5,2" d="M542.96,-398.51C551.63,-410.02 561.32,-423.4 569.5,-436 576.3,-446.46 583.21,-458.79 588.2,-468.05"/>
</g>
<!-- n5 -->
<g id="node9" class="node">
<title>n5</title>
<g id="a_node9"><a xlink:href="gitlab2prov:File" xlink:title="File">
<ellipse fill="#fffc87" stroke="#808080" cx="529.5" cy="-219.5" rx="28.7" ry="18"/>
<text text-anchor="middle" x="529.5" y="-215.8" font-family="Times,serif" font-size="14.00">File</text>
</a>
</g>
</g>
<!-- n5&#45;&gt;n1 -->
<g id="edge10" class="edge">
<title>n5&#45;&gt;n1</title>
<path fill="none" stroke="darkgreen" d="M517.2,-235.85C497.14,-260.88 457.19,-310.73 432.86,-341.1"/>
<polygon fill="darkgreen" stroke="darkgreen" points="429.96,-339.12 426.44,-349.11 435.42,-343.49 429.96,-339.12"/>
<text text-anchor="middle" x="519.5" y="-291" font-family="Times,serif" font-size="10.00" fill="darkgreen">wasGeneratedBy</text>
</g>
<!-- n5&#45;&gt;n4 -->
<g id="edge12" class="edge">
<title>n5&#45;&gt;n4</title>
<path fill="none" stroke="#fed37f" d="M539.14,-236.64C547.08,-250.18 558.48,-270.11 567.5,-288 573.86,-300.61 576.92,-303.34 580.5,-317 593.27,-365.79 595.59,-425.14 595.77,-457.71"/>
<polygon fill="#fed37f" stroke="#fed37f" points="592.27,-458.04 595.77,-468.05 599.27,-458.05 592.27,-458.04"/>
<text text-anchor="middle" x="637.5" y="-365" font-family="Times,serif" font-size="10.00">wasAttributedTo</text>
</g>
<!-- ann5 -->
<g id="node10" class="node">
<title>ann5</title>
<polygon fill="none" stroke="gray" points="547.5,-122 429.5,-122 429.5,-86 553.5,-86 553.5,-116 547.5,-122"/>
<polyline fill="none" stroke="gray" points="547.5,-122 547.5,-116 "/>
<polyline fill="none" stroke="gray" points="553.5,-116 547.5,-116 "/>
<g id="a_node10_22"><a xlink:href="http://www.w3.org/ns/prov#type" xlink:title="&lt;TABLE&gt;">
<text text-anchor="start" x="439.5" y="-108" font-family="Times,serif" font-size="10.00">prov:type</text>
</a>
</g>
<text text-anchor="start" x="527.5" y="-108" font-family="Times,serif" font-size="10.00">file</text>
<g id="a_node10_23"><a xlink:href="gitlab2prov:path_at_addition" xlink:title="&lt;TABLE&gt;">
<text text-anchor="start" x="439.5" y="-95" font-family="Times,serif" font-size="10.00">path_at_addition</text>
</a>
</g>
</g>
<!-- ann5&#45;&gt;n5 -->
<g id="edge5" class="edge">
<title>ann5&#45;&gt;n5</title>
<path fill="none" stroke="gray" stroke-dasharray="5,2" d="M497.27,-122.24C504.5,-143.82 516.79,-180.53 523.92,-201.84"/>
</g>
<!-- n6 -->
<g id="node11" class="node">
<title>n6</title>
<g id="a_node11"><a xlink:href="gitlab2prov:File Version" xlink:title="File Version">
<ellipse fill="#fffc87" stroke="#808080" cx="637.5" cy="-104" rx="65.79" ry="18"/>
<text text-anchor="middle" x="637.5" y="-100.3" font-family="Times,serif" font-size="14.00">File Version</text>
</a>
</g>
</g>
<!-- n6&#45;&gt;n1 -->
<g id="edge11" class="edge">
<title>n6&#45;&gt;n1</title>
<path fill="none" stroke="darkgreen" d="M636.82,-122.22C634.32,-160.57 622.58,-253.23 567.5,-299 529.4,-330.66 501.03,-293.35 457.5,-317 446.87,-322.77 437.45,-332.04 430,-341"/>
<polygon fill="darkgreen" stroke="darkgreen" points="427.13,-339 423.74,-349.04 432.65,-343.3 427.13,-339"/>
<text text-anchor="middle" x="674.5" y="-217" font-family="Times,serif" font-size="10.00" fill="darkgreen">wasGeneratedBy</text>
</g>
<!-- n6&#45;&gt;n4 -->
<g id="edge13" class="edge">
<title>n6&#45;&gt;n4</title>
<path fill="none" stroke="#fed37f" d="M669.92,-119.9C689.02,-130.6 711.53,-147.02 722.5,-169 742.54,-209.17 728.27,-225.48 722.5,-270 713.76,-337.46 721.9,-361.85 683.5,-418 670.6,-436.86 650.26,-452.18 632.38,-463.1"/>
<polygon fill="#fed37f" stroke="#fed37f" points="630.17,-460.33 623.3,-468.4 633.7,-466.38 630.17,-460.33"/>
<text text-anchor="middle" x="761.5" y="-291" font-family="Times,serif" font-size="10.00">wasAttributedTo</text>
</g>
<!-- n6&#45;&gt;n5 -->
<g id="edge14" class="edge">
<title>n6&#45;&gt;n5</title>
<path fill="none" stroke="black" d="M589.7,-116.49C567.49,-122.83 544.45,-131.19 537.5,-140 526.23,-154.29 524.5,-174.9 525.45,-191.42"/>
<polygon fill="black" stroke="black" points="521.98,-191.93 526.38,-201.57 528.95,-191.29 521.98,-191.93"/>
<text text-anchor="middle" x="578.5" y="-143" font-family="Times,serif" font-size="10.00">specializationOf</text>
</g>
<!-- ann6 -->
<g id="node12" class="node">
<title>ann6</title>
<polygon fill="none" stroke="gray" points="697,-49 572,-49 572,0 703,0 703,-43 697,-49"/>
<polyline fill="none" stroke="gray" points="697,-49 697,-43 "/>
<polyline fill="none" stroke="gray" points="703,-43 697,-43 "/>
<g id="a_node12_24"><a xlink:href="http://www.w3.org/ns/prov#type" xlink:title="&lt;TABLE&gt;">
<text text-anchor="start" x="582.5" y="-34.5" font-family="Times,serif" font-size="10.00">prov:type</text>
</a>
</g>
<text text-anchor="start" x="634.5" y="-34.5" font-family="Times,serif" font-size="10.00">file_version</text>
<g id="a_node12_25"><a xlink:href="gitlab2prov:new_path" xlink:title="&lt;TABLE&gt;">
<text text-anchor="start" x="582.5" y="-21.5" font-family="Times,serif" font-size="10.00">new_path</text>
</a>
</g>
<g id="a_node12_26"><a xlink:href="gitlab2prov:old_path" xlink:title="&lt;TABLE&gt;">
<text text-anchor="start" x="582.5" y="-8.5" font-family="Times,serif" font-size="10.00">old_path</text>
</a>
</g>
</g>
<!-- ann6&#45;&gt;n6 -->
<g id="edge6" class="edge">
<title>ann6&#45;&gt;n6</title>
<path fill="none" stroke="gray" stroke-dasharray="5,2" d="M637.5,-49.17C637.5,-60.93 637.5,-74.87 637.5,-85.62"/>
</g>
</g>
</svg>
