<?xml version="1.0" encoding="UTF-8" standalone="no"?>
<!DOCTYPE svg PUBLIC "-//W3C//DTD SVG 1.1//EN"
 "http://www.w3.org/Graphics/SVG/1.1/DTD/svg11.dtd">
<!-- Generated by graphviz version 2.43.0 (0)
 -->
<!-- Title: G Pages: 1 -->
<svg width="1015pt" height="509pt"
 viewBox="0.00 0.00 1014.50 509.00" xmlns="http://www.w3.org/2000/svg" xmlns:xlink="http://www.w3.org/1999/xlink">
<g id="graph0" class="graph" transform="scale(1 1) rotate(0) translate(4 505)">
<title>G</title>
<polygon fill="white" stroke="transparent" points="-4,4 -4,-505 1010.5,-505 1010.5,4 -4,4"/>
<!-- n1 -->
<g id="node1" class="node">
<title>n1</title>
<g id="a_node1"><a xlink:href="gitlab2prov:Commit" xlink:title="Commit">
<polygon fill="#9fb1fc" stroke="#0000ff" points="382,-302.5 309,-302.5 309,-266.5 382,-266.5 382,-302.5"/>
<text text-anchor="middle" x="345.5" y="-280.8" font-family="Times,serif" font-size="14.00">Commit</text>
</a>
</g>
</g>
<!-- n2 -->
<g id="node3" class="node">
<title>n2</title>
<g id="a_node3"><a xlink:href="gitlab2prov:Parent Commit" xlink:title="Parent Commit">
<polygon fill="#9fb1fc" stroke="#0000ff" points="200,-418 75,-418 75,-382 200,-382 200,-418"/>
<text text-anchor="middle" x="137.5" y="-396.3" font-family="Times,serif" font-size="14.00">Parent Commit</text>
</a>
</g>
</g>
<!-- n1&#45;&gt;n2 -->
<g id="edge8" class="edge">
<title>n1&#45;&gt;n2</title>
<path fill="none" stroke="black" d="M318.83,-302.56C303.18,-312.37 282.93,-324.74 264.5,-335 237.62,-349.95 206.82,-365.51 182.29,-377.54"/>
<polygon fill="black" stroke="black" points="180.67,-374.44 173.22,-381.97 183.74,-380.73 180.67,-374.44"/>
<text text-anchor="middle" x="271" y="-356" font-family="Times,serif" font-size="10.00">wasInformedBy</text>
</g>
<!-- n3 -->
<g id="node5" class="node">
<title>n3</title>
<g id="a_node5"><a xlink:href="gitlab2prov:Committer" xlink:title="Committer">
<polygon fill="#fed37f" stroke="black" points="562.03,-405.56 486.5,-418 410.97,-405.56 411.04,-385.44 561.96,-385.44 562.03,-405.56"/>
<text text-anchor="middle" x="486.5" y="-396.3" font-family="Times,serif" font-size="14.00">Committer</text>
</a>
</g>
</g>
<!-- n1&#45;&gt;n3 -->
<g id="edge10" class="edge">
<title>n1&#45;&gt;n3</title>
<path fill="none" stroke="#fed37f" d="M373.7,-302.62C393.94,-315.44 421.43,-333.99 443.5,-353 452.2,-360.49 460.99,-369.58 468.34,-377.69"/>
<polygon fill="#fed37f" stroke="#fed37f" points="465.91,-380.21 475.16,-385.38 471.15,-375.57 465.91,-380.21"/>
<text text-anchor="middle" x="504.5" y="-356" font-family="Times,serif" font-size="10.00">wasAssociatedWith</text>
</g>
<!-- n4 -->
<g id="node7" class="node">
<title>n4</title>
<g id="a_node7"><a xlink:href="gitlab2prov:Author" xlink:title="Author">
<polygon fill="#fed37f" stroke="black" points="392.94,-405.56 340.5,-418 288.06,-405.56 288.11,-385.44 392.89,-385.44 392.94,-405.56"/>
<text text-anchor="middle" x="340.5" y="-396.3" font-family="Times,serif" font-size="14.00">Author</text>
</a>
</g>
</g>
<!-- n1&#45;&gt;n4 -->
<g id="edge9" class="edge">
<title>n1&#45;&gt;n4</title>
<path fill="none" stroke="#fed37f" d="M344.3,-302.69C343.4,-316.33 342.19,-335.87 341.5,-353 341.21,-360.21 341,-368.06 340.85,-375.19"/>
<polygon fill="#fed37f" stroke="#fed37f" points="337.35,-375.25 340.66,-385.31 344.35,-375.37 337.35,-375.25"/>
<text text-anchor="middle" x="390.5" y="-356" font-family="Times,serif" font-size="10.00">wasAssociatedWith</text>
</g>
<!-- n7 -->
<g id="node13" class="node">
<title>n7</title>
<g id="a_node13"><a xlink:href="gitlab2prov:File Version N-1" xlink:title="File Version N&#45;1">
<ellipse fill="#fffc87" stroke="#808080" cx="845.5" cy="-400" rx="85.29" ry="18"/>
<text text-anchor="middle" x="845.5" y="-396.3" font-family="Times,serif" font-size="14.00">File Version N&#45;1</text>
</a>
</g>
</g>
<!-- n1&#45;&gt;n7 -->
<g id="edge11" class="edge">
<title>n1&#45;&gt;n7</title>
<path fill="none" stroke="#8b0000" d="M369.51,-302.66C386.13,-313.67 409.19,-327.31 431.5,-335 484.98,-353.44 501.57,-344.54 557.5,-353 629.88,-363.95 712.36,-377.2 770.44,-386.66"/>
<polygon fill="#8b0000" stroke="#8b0000" points="770.2,-390.17 780.64,-388.33 771.33,-383.26 770.2,-390.17"/>
<text text-anchor="middle" x="641" y="-356" font-family="Times,serif" font-size="10.00" fill="red">used</text>
</g>
<!-- ann1 -->
<g id="node2" class="node">
<title>ann1</title>
<polygon fill="none" stroke="gray" points="378,-187 251,-187 251,-86 384,-86 384,-181 378,-187"/>
<polyline fill="none" stroke="gray" points="378,-187 378,-181 "/>
<polyline fill="none" stroke="gray" points="384,-181 378,-181 "/>
<g id="a_node2_0"><a xlink:href="http://www.w3.org/ns/prov#type" xlink:title="&lt;TABLE&gt;">
<text text-anchor="start" x="261.5" y="-172.5" font-family="Times,serif" font-size="10.00">prov:type</text>
</a>
</g>
<text text-anchor="start" x="336.5" y="-172.5" font-family="Times,serif" font-size="10.00">commit</text>
<g id="a_node2_1"><a xlink:href="gitlab2prov:id" xlink:title="&lt;TABLE&gt;">
<text text-anchor="start" x="261.5" y="-159.5" font-family="Times,serif" font-size="10.00">id</text>
</a>
</g>
<g id="a_node2_2"><a xlink:href="gitlab2prov:message" xlink:title="&lt;TABLE&gt;">
<text text-anchor="start" x="261.5" y="-146.5" font-family="Times,serif" font-size="10.00">message</text>
</a>
</g>
<g id="a_node2_3"><a xlink:href="http://www.w3.org/ns/prov#endedAt" xlink:title="&lt;TABLE&gt;">
<text text-anchor="start" x="261.5" y="-133.5" font-family="Times,serif" font-size="10.00">prov:endedAt</text>
</a>
</g>
<g id="a_node2_4"><a xlink:href="http://www.w3.org/ns/prov#startedAt" xlink:title="&lt;TABLE&gt;">
<text text-anchor="start" x="261.5" y="-120.5" font-family="Times,serif" font-size="10.00">prov:startedAt</text>
</a>
</g>
<g id="a_node2_5"><a xlink:href="gitlab2prov:short_id" xlink:title="&lt;TABLE&gt;">
<text text-anchor="start" x="261.5" y="-107.5" font-family="Times,serif" font-size="10.00">short_id</text>
</a>
</g>
<g id="a_node2_6"><a xlink:href="gitlab2prov:title" xlink:title="&lt;TABLE&gt;">
<text text-anchor="start" x="261.5" y="-94.5" font-family="Times,serif" font-size="10.00">title</text>
</a>
</g>
</g>
<!-- ann1&#45;&gt;n1 -->
<g id="edge1" class="edge">
<title>ann1&#45;&gt;n1</title>
<path fill="none" stroke="gray" stroke-dasharray="5,2" d="M326.18,-187.37C327.89,-196.89 329.72,-206.76 331.5,-216 334.81,-233.16 338.9,-252.7 341.8,-266.33"/>
</g>
<!-- ann2 -->
<g id="node4" class="node">
<title>ann2</title>
<polygon fill="none" stroke="gray" points="127,-335 0,-335 0,-234 133,-234 133,-329 127,-335"/>
<polyline fill="none" stroke="gray" points="127,-335 127,-329 "/>
<polyline fill="none" stroke="gray" points="133,-329 127,-329 "/>
<g id="a_node4_7"><a xlink:href="http://www.w3.org/ns/prov#type" xlink:title="&lt;TABLE&gt;">
<text text-anchor="start" x="10.5" y="-320.5" font-family="Times,serif" font-size="10.00">prov:type</text>
</a>
</g>
<text text-anchor="start" x="85.5" y="-320.5" font-family="Times,serif" font-size="10.00">commit</text>
<g id="a_node4_8"><a xlink:href="gitlab2prov:id" xlink:title="&lt;TABLE&gt;">
<text text-anchor="start" x="10.5" y="-307.5" font-family="Times,serif" font-size="10.00">id</text>
</a>
</g>
<g id="a_node4_9"><a xlink:href="gitlab2prov:message" xlink:title="&lt;TABLE&gt;">
<text text-anchor="start" x="10.5" y="-294.5" font-family="Times,serif" font-size="10.00">message</text>
</a>
</g>
<g id="a_node4_10"><a xlink:href="http://www.w3.org/ns/prov#endedAt" xlink:title="&lt;TABLE&gt;">
<text text-anchor="start" x="10.5" y="-281.5" font-family="Times,serif" font-size="10.00">prov:endedAt</text>
</a>
</g>
<g id="a_node4_11"><a xlink:href="http://www.w3.org/ns/prov#startedAt" xlink:title="&lt;TABLE&gt;">
<text text-anchor="start" x="10.5" y="-268.5" font-family="Times,serif" font-size="10.00">prov:startedAt</text>
</a>
</g>
<g id="a_node4_12"><a xlink:href="gitlab2prov:short_id" xlink:title="&lt;TABLE&gt;">
<text text-anchor="start" x="10.5" y="-255.5" font-family="Times,serif" font-size="10.00">short_id</text>
</a>
</g>
<g id="a_node4_13"><a xlink:href="gitlab2prov:title" xlink:title="&lt;TABLE&gt;">
<text text-anchor="start" x="10.5" y="-242.5" font-family="Times,serif" font-size="10.00">title</text>
</a>
</g>
</g>
<!-- ann2&#45;&gt;n2 -->
<g id="edge2" class="edge">
<title>ann2&#45;&gt;n2</title>
<path fill="none" stroke="gray" stroke-dasharray="5,2" d="M97.64,-335.28C108.07,-351.96 119.02,-369.45 126.79,-381.88"/>
</g>
<!-- ann3 -->
<g id="node6" class="node">
<title>ann3</title>
<polygon fill="none" stroke="gray" points="698,-315.5 581,-315.5 581,-253.5 704,-253.5 704,-309.5 698,-315.5"/>
<polyline fill="none" stroke="gray" points="698,-315.5 698,-309.5 "/>
<polyline fill="none" stroke="gray" points="704,-309.5 698,-309.5 "/>
<g id="a_node6_14"><a xlink:href="http://www.w3.org/ns/prov#role" xlink:title="&lt;TABLE&gt;">
<text text-anchor="start" x="591.5" y="-301.5" font-family="Times,serif" font-size="10.00">prov:role</text>
</a>
</g>
<text text-anchor="start" x="642.5" y="-301.5" font-family="Times,serif" font-size="10.00">committer</text>
<g id="a_node6_15"><a xlink:href="http://www.w3.org/ns/prov#type" xlink:title="&lt;TABLE&gt;">
<text text-anchor="start" x="591.5" y="-288.5" font-family="Times,serif" font-size="10.00">prov:type</text>
</a>
</g>
<text text-anchor="start" x="642.5" y="-288.5" font-family="Times,serif" font-size="10.00">user</text>
<g id="a_node6_16"><a xlink:href="gitlab2prov:email" xlink:title="&lt;TABLE&gt;">
<text text-anchor="start" x="591.5" y="-275.5" font-family="Times,serif" font-size="10.00">email</text>
</a>
</g>
<g id="a_node6_17"><a xlink:href="gitlab2prov:name" xlink:title="&lt;TABLE&gt;">
<text text-anchor="start" x="591.5" y="-262.5" font-family="Times,serif" font-size="10.00">name</text>
</a>
</g>
</g>
<!-- ann3&#45;&gt;n3 -->
<g id="edge3" class="edge">
<title>ann3&#45;&gt;n3</title>
<path fill="none" stroke="gray" stroke-dasharray="5,2" d="M646.77,-315.67C647.33,-331.85 644.97,-351.07 633.5,-364 630.53,-367.35 588.93,-377.08 550.75,-385.43"/>
</g>
<!-- ann4 -->
<g id="node8" class="node">
<title>ann4</title>
<polygon fill="none" stroke="gray" points="250,-315.5 151,-315.5 151,-253.5 256,-253.5 256,-309.5 250,-315.5"/>
<polyline fill="none" stroke="gray" points="250,-315.5 250,-309.5 "/>
<polyline fill="none" stroke="gray" points="256,-309.5 250,-309.5 "/>
<g id="a_node8_18"><a xlink:href="http://www.w3.org/ns/prov#role" xlink:title="&lt;TABLE&gt;">
<text text-anchor="start" x="161.5" y="-301.5" font-family="Times,serif" font-size="10.00">prov:role</text>
</a>
</g>
<text text-anchor="start" x="212.5" y="-301.5" font-family="Times,serif" font-size="10.00">author</text>
<g id="a_node8_19"><a xlink:href="http://www.w3.org/ns/prov#type" xlink:title="&lt;TABLE&gt;">
<text text-anchor="start" x="161.5" y="-288.5" font-family="Times,serif" font-size="10.00">prov:type</text>
</a>
</g>
<text text-anchor="start" x="212.5" y="-288.5" font-family="Times,serif" font-size="10.00">user</text>
<g id="a_node8_20"><a xlink:href="gitlab2prov:email" xlink:title="&lt;TABLE&gt;">
<text text-anchor="start" x="161.5" y="-275.5" font-family="Times,serif" font-size="10.00">email</text>
</a>
</g>
<g id="a_node8_21"><a xlink:href="gitlab2prov:name" xlink:title="&lt;TABLE&gt;">
<text text-anchor="start" x="161.5" y="-262.5" font-family="Times,serif" font-size="10.00">name</text>
</a>
</g>
</g>
<!-- ann4&#45;&gt;n4 -->
<g id="edge4" class="edge">
<title>ann4&#45;&gt;n4</title>
<path fill="none" stroke="gray" stroke-dasharray="5,2" d="M201.61,-315.66C202.23,-331.84 205.8,-351.06 217.5,-364 235.29,-383.68 263.28,-392.61 288.06,-396.55"/>
</g>
<!-- n5 -->
<g id="node9" class="node">
<title>n5</title>
<g id="a_node9"><a xlink:href="gitlab2prov:File" xlink:title="File">
<ellipse fill="#fffc87" stroke="#808080" cx="732.5" cy="-483" rx="28.7" ry="18"/>
<text text-anchor="middle" x="732.5" y="-479.3" font-family="Times,serif" font-size="14.00">File</text>
</a>
</g>
</g>
<!-- ann5 -->
<g id="node10" class="node">
<title>ann5</title>
<polygon fill="none" stroke="gray" points="698.5,-418 580.5,-418 580.5,-382 704.5,-382 704.5,-412 698.5,-418"/>
<polyline fill="none" stroke="gray" points="698.5,-418 698.5,-412 "/>
<polyline fill="none" stroke="gray" points="704.5,-412 698.5,-412 "/>
<g id="a_node10_22"><a xlink:href="http://www.w3.org/ns/prov#type" xlink:title="&lt;TABLE&gt;">
<text text-anchor="start" x="590.5" y="-404" font-family="Times,serif" font-size="10.00">prov:type</text>
</a>
</g>
<text text-anchor="start" x="678.5" y="-404" font-family="Times,serif" font-size="10.00">file</text>
<g id="a_node10_23"><a xlink:href="gitlab2prov:path_at_addition" xlink:title="&lt;TABLE&gt;">
<text text-anchor="start" x="590.5" y="-391" font-family="Times,serif" font-size="10.00">path_at_addition</text>
</a>
</g>
</g>
<!-- ann5&#45;&gt;n5 -->
<g id="edge5" class="edge">
<title>ann5&#45;&gt;n5</title>
<path fill="none" stroke="gray" stroke-dasharray="5,2" d="M661.59,-418.18C678,-432.95 701.38,-453.99 716.74,-467.82"/>
</g>
<!-- n6 -->
<g id="node11" class="node">
<title>n6</title>
<g id="a_node11"><a xlink:href="gitlab2prov:File Version N" xlink:title="File Version N">
<ellipse fill="#fffc87" stroke="#808080" cx="605.5" cy="-136.5" rx="76.89" ry="18"/>
<text text-anchor="middle" x="605.5" y="-132.8" font-family="Times,serif" font-size="14.00">File Version N</text>
</a>
</g>
</g>
<!-- n6&#45;&gt;n1 -->
<g id="edge12" class="edge">
<title>n6&#45;&gt;n1</title>
<path fill="none" stroke="darkgreen" d="M553.37,-149.73C480.97,-166.94 358.06,-197.11 351.5,-205 339.89,-218.97 338.71,-239.59 340.27,-256.19"/>
<polygon fill="darkgreen" stroke="darkgreen" points="336.84,-256.95 341.61,-266.41 343.78,-256.04 336.84,-256.95"/>
<text text-anchor="middle" x="395.5" y="-208" font-family="Times,serif" font-size="10.00" fill="darkgreen">wasGeneratedBy</text>
</g>
<!-- n6&#45;&gt;n4 -->
<g id="edge16" class="edge">
<title>n6&#45;&gt;n4</title>
<path fill="none" stroke="#fed37f" d="M578.82,-153.58C552.58,-170.6 513.01,-199.73 488.5,-234 452.58,-284.23 483.61,-320.79 439.5,-364 435.76,-367.66 415.43,-375.09 394.16,-382.16"/>
<polygon fill="#fed37f" stroke="#fed37f" points="392.79,-378.93 384.38,-385.37 394.97,-385.58 392.79,-378.93"/>
<text text-anchor="middle" x="530.5" y="-282" font-family="Times,serif" font-size="10.00">wasAttributedTo</text>
</g>
<!-- n6&#45;&gt;n5 -->
<g id="edge14" class="edge">
<title>n6&#45;&gt;n5</title>
<path fill="none" stroke="black" d="M633.12,-153.44C658.88,-169.97 695.9,-198.38 713.5,-234 749.62,-307.09 742.8,-407.25 736.73,-454.81"/>
<polygon fill="black" stroke="black" points="733.23,-454.54 735.34,-464.93 740.17,-455.49 733.23,-454.54"/>
<text text-anchor="middle" x="781.5" y="-356" font-family="Times,serif" font-size="10.00">specializationOf</text>
</g>
<!-- n6&#45;&gt;n7 -->
<g id="edge13" class="edge">
<title>n6&#45;&gt;n7</title>
<path fill="none" stroke="black" d="M681.61,-138.71C751.78,-144.38 852.39,-165.03 902.5,-234 928.89,-270.32 918.47,-293.05 902.5,-335 896.65,-350.37 885.23,-364.39 874.14,-375.37"/>
<polygon fill="black" stroke="black" points="871.48,-373.06 866.59,-382.46 876.27,-378.17 871.48,-373.06"/>
<text text-anchor="middle" x="962.5" y="-282" font-family="Times,serif" font-size="10.00">wasDerivedFrom</text>
</g>
<!-- ann6 -->
<g id="node12" class="node">
<title>ann6</title>
<polygon fill="none" stroke="gray" points="665,-49 540,-49 540,0 671,0 671,-43 665,-49"/>
<polyline fill="none" stroke="gray" points="665,-49 665,-43 "/>
<polyline fill="none" stroke="gray" points="671,-43 665,-43 "/>
<g id="a_node12_24"><a xlink:href="http://www.w3.org/ns/prov#type" xlink:title="&lt;TABLE&gt;">
<text text-anchor="start" x="550.5" y="-34.5" font-family="Times,serif" font-size="10.00">prov:type</text>
</a>
</g>
<text text-anchor="start" x="602.5" y="-34.5" font-family="Times,serif" font-size="10.00">file_version</text>
<g id="a_node12_25"><a xlink:href="gitlab2prov:new_path" xlink:title="&lt;TABLE&gt;">
<text text-anchor="start" x="550.5" y="-21.5" font-family="Times,serif" font-size="10.00">new_path</text>
</a>
</g>
<g id="a_node12_26"><a xlink:href="gitlab2prov:old_path" xlink:title="&lt;TABLE&gt;">
<text text-anchor="start" x="550.5" y="-8.5" font-family="Times,serif" font-size="10.00">old_path</text>
</a>
</g>
</g>
<!-- ann6&#45;&gt;n6 -->
<g id="edge6" class="edge">
<title>ann6&#45;&gt;n6</title>
<path fill="none" stroke="gray" stroke-dasharray="5,2" d="M605.5,-49.1C605.5,-69.93 605.5,-99.8 605.5,-118.41"/>
</g>
<!-- n7&#45;&gt;n5 -->
<g id="edge15" class="edge">
<title>n7&#45;&gt;n5</title>
<path fill="none" stroke="black" d="M822.63,-417.39C804.29,-430.54 778.51,-449.02 759.22,-462.85"/>
<polygon fill="black" stroke="black" points="756.95,-460.17 750.86,-468.84 761.03,-465.86 756.95,-460.17"/>
<text text-anchor="middle" x="836.5" y="-439" font-family="Times,serif" font-size="10.00">specializationOf</text>
</g>
<!-- ann7 -->
<g id="node14" class="node">
<title>ann7</title>
<polygon fill="none" stroke="gray" points="887,-309 762,-309 762,-260 893,-260 893,-303 887,-309"/>
<polyline fill="none" stroke="gray" points="887,-309 887,-303 "/>
<polyline fill="none" stroke="gray" points="893,-303 887,-303 "/>
<g id="a_node14_27"><a xlink:href="http://www.w3.org/ns/prov#type" xlink:title="&lt;TABLE&gt;">
<text text-anchor="start" x="772.5" y="-294.5" font-family="Times,serif" font-size="10.00">prov:type</text>
</a>
</g>
<text text-anchor="start" x="824.5" y="-294.5" font-family="Times,serif" font-size="10.00">file_version</text>
<g id="a_node14_28"><a xlink:href="gitlab2prov:new_path" xlink:title="&lt;TABLE&gt;">
<text text-anchor="start" x="772.5" y="-281.5" font-family="Times,serif" font-size="10.00">new_path</text>
</a>
</g>
<g id="a_node14_29"><a xlink:href="gitlab2prov:old_path" xlink:title="&lt;TABLE&gt;">
<text text-anchor="start" x="772.5" y="-268.5" font-family="Times,serif" font-size="10.00">old_path</text>
</a>
</g>
</g>
<!-- ann7&#45;&gt;n7 -->
<g id="edge7" class="edge">
<title>ann7&#45;&gt;n7</title>
<path fill="none" stroke="gray" stroke-dasharray="5,2" d="M831.23,-309.02C834.67,-330.7 839.69,-362.39 842.77,-381.8"/>
</g>
</g>
</svg>
