<?xml version="1.0" encoding="UTF-8" standalone="no"?>
<!DOCTYPE svg PUBLIC "-//W3C//DTD SVG 1.1//EN"
 "http://www.w3.org/Graphics/SVG/1.1/DTD/svg11.dtd">
<!-- Generated by graphviz version 2.50.0 (20211204.2007)
 -->
<!-- Title: G Pages: 1 -->
<svg width="369pt" height="210pt"
 viewBox="0.00 0.00 368.50 210.00" xmlns="http://www.w3.org/2000/svg" xmlns:xlink="http://www.w3.org/1999/xlink">
<g id="graph0" class="graph" transform="scale(1 1) rotate(0) translate(4 206)">
<title>G</title>
<!-- n1 -->
<g id="node1" class="node">
<title>n1</title>
<g id="a_node1"><a xlink:href="gitlab2prov:Commit" xlink:title="Commit">
<polygon fill="#9fb1fc" stroke="#0000ff" points="211.5,-119 149.5,-119 149.5,-83 211.5,-83 211.5,-119"/>
<text text-anchor="middle" x="180.5" y="-97.3" font-family="Times New Roman,serif" font-size="14.00">Commit</text>
</a>
</g>
</g>
<!-- n2 -->
<g id="node2" class="node">
<title>n2</title>
<g id="a_node2"><a xlink:href="gitlab2prov:Parent Commit" xlink:title="Parent Commit">
<polygon fill="#9fb1fc" stroke="#0000ff" points="101,-202 0,-202 0,-166 101,-166 101,-202"/>
<text text-anchor="middle" x="50.5" y="-180.3" font-family="Times New Roman,serif" font-size="14.00">Parent Commit</text>
</a>
</g>
</g>
<!-- n1&#45;&gt;n2 -->
<g id="edge1" class="edge">
<title>n1&#45;&gt;n2</title>
<path fill="none" stroke="black" d="M149.45,-116.65C137.64,-122.56 124.22,-129.7 112.5,-137 101.48,-143.86 89.92,-152.12 79.81,-159.73"/>
<polygon fill="black" stroke="black" points="77.52,-157.07 71.7,-165.93 81.77,-162.64 77.52,-157.07"/>
<text text-anchor="middle" x="144.5" y="-140" font-family="Times New Roman,serif" font-size="10.00">wasInformedBy</text>
</g>
<!-- n3 -->
<g id="node3" class="node">
<title>n3</title>
<g id="a_node3"><a xlink:href="gitlab2prov:Committer" xlink:title="Committer">
<polygon fill="#fed37f" stroke="black" points="241.61,-189.56 180.5,-202 119.39,-189.56 119.44,-169.44 241.56,-169.44 241.61,-189.56"/>
<text text-anchor="middle" x="180.5" y="-180.3" font-family="Times New Roman,serif" font-size="14.00">Committer</text>
</a>
</g>
</g>
<!-- n1&#45;&gt;n3 -->
<g id="edge2" class="edge">
<title>n1&#45;&gt;n3</title>
<path fill="none" stroke="#fed37f" d="M180.5,-119.18C180.5,-130.86 180.5,-146.47 180.5,-159.33"/>
<polygon fill="#fed37f" stroke="#fed37f" points="177,-159.33 180.5,-169.33 184,-159.33 177,-159.33"/>
<text text-anchor="middle" x="221.5" y="-140" font-family="Times New Roman,serif" font-size="10.00">wasAssociatedWith</text>
</g>
<!-- n4 -->
<g id="node4" class="node">
<title>n4</title>
<g id="a_node4"><a xlink:href="gitlab2prov:Author" xlink:title="Author">
<polygon fill="#fed37f" stroke="black" points="349.48,-189.56 304.5,-202 259.52,-189.56 259.56,-169.44 349.44,-169.44 349.48,-189.56"/>
<text text-anchor="middle" x="304.5" y="-180.3" font-family="Times New Roman,serif" font-size="14.00">Author</text>
</a>
</g>
</g>
<!-- n1&#45;&gt;n4 -->
<g id="edge3" class="edge">
<title>n1&#45;&gt;n4</title>
<path fill="none" stroke="#fed37f" d="M211.84,-110.61C229.04,-116.31 250.13,-124.98 266.5,-137 275.42,-143.55 283.52,-152.65 289.92,-161.03"/>
<polygon fill="#fed37f" stroke="#fed37f" points="287.25,-163.31 295.95,-169.36 292.92,-159.21 287.25,-163.31"/>
<text text-anchor="middle" x="319.5" y="-140" font-family="Times New Roman,serif" font-size="10.00">wasAssociatedWith</text>
</g>
<!-- n5 -->
<g id="node5" class="node">
<title>n5</title>
<g id="a_node5"><a xlink:href="gitlab2prov:File" xlink:title="File">
<ellipse fill="#fffc87" stroke="#808080" cx="276.5" cy="-101" rx="27" ry="18"/>
<text text-anchor="middle" x="276.5" y="-97.3" font-family="Times New Roman,serif" font-size="14.00">File</text>
</a>
</g>
</g>
<!-- n6 -->
<g id="node6" class="node">
<title>n6</title>
<g id="a_node6"><a xlink:href="gitlab2prov:File Revision" xlink:title="File Revision">
<ellipse fill="#fffc87" stroke="#808080" cx="228.5" cy="-18" rx="57.69" ry="18"/>
<text text-anchor="middle" x="228.5" y="-14.3" font-family="Times New Roman,serif" font-size="14.00">File Revision</text>
</a>
</g>
</g>
<!-- n6&#45;&gt;n1 -->
<g id="edge4" class="edge">
<title>n6&#45;&gt;n1</title>
<path fill="none" stroke="black" d="M200.14,-33.8C192.75,-39.12 185.7,-45.86 181.5,-54 178.59,-59.64 177.39,-66.21 177.12,-72.59"/>
<polygon fill="black" stroke="black" points="173.63,-73.04 177.4,-82.94 180.63,-72.85 173.63,-73.04"/>
<text text-anchor="middle" x="218" y="-57" font-family="Times New Roman,serif" font-size="10.00">wasInvalidatedBy</text>
</g>
<!-- n6&#45;&gt;n5 -->
<g id="edge5" class="edge">
<title>n6&#45;&gt;n5</title>
<path fill="none" stroke="black" d="M241.88,-35.63C246.15,-41.3 250.75,-47.78 254.5,-54 258.31,-60.32 261.97,-67.39 265.17,-74.07"/>
<polygon fill="black" stroke="black" points="262.13,-75.82 269.5,-83.42 268.48,-72.88 262.13,-75.82"/>
<text text-anchor="middle" x="292.5" y="-57" font-family="Times New Roman,serif" font-size="10.00">specializationOf</text>
</g>
</g>
</svg>
