<?xml version="1.0" encoding="UTF-8" standalone="no"?>
<!DOCTYPE svg PUBLIC "-//W3C//DTD SVG 1.1//EN"
 "http://www.w3.org/Graphics/SVG/1.1/DTD/svg11.dtd">
<!-- Generated by graphviz version 2.40.1 (20161225.0304)
 -->
<!-- Title: G Pages: 1 -->
<svg width="862pt" height="509pt"
 viewBox="0.00 0.00 861.50 509.00" xmlns="http://www.w3.org/2000/svg" xmlns:xlink="http://www.w3.org/1999/xlink">
<g id="graph0" class="graph" transform="scale(1 1) rotate(0) translate(4 505)">
<title>G</title>
<polygon fill="#ffffff" stroke="transparent" points="-4,4 -4,-505 857.5,-505 857.5,4 -4,4"/>
<!-- n1 -->
<g id="node1" class="node">
<title>n1</title>
<g id="a_node1"><a xlink:href="gitlab2prov:Commit" xlink:title="Commit">
<polygon fill="#9fb1fc" stroke="#0000ff" points="421.5,-302.5 359.5,-302.5 359.5,-266.5 421.5,-266.5 421.5,-302.5"/>
<text text-anchor="middle" x="390.5" y="-280.8" font-family="Times,serif" font-size="14.00" fill="#000000">Commit</text>
</a>
</g>
</g>
<!-- n2 -->
<g id="node3" class="node">
<title>n2</title>
<g id="a_node3"><a xlink:href="gitlab2prov:Parent Commit" xlink:title="Parent Commit">
<polygon fill="#9fb1fc" stroke="#0000ff" points="215.5,-418 113.5,-418 113.5,-382 215.5,-382 215.5,-418"/>
<text text-anchor="middle" x="164.5" y="-396.3" font-family="Times,serif" font-size="14.00" fill="#000000">Parent Commit</text>
</a>
</g>
</g>
<!-- n1&#45;&gt;n2 -->
<g id="edge8" class="edge">
<title>n1&#45;&gt;n2</title>
<path fill="none" stroke="#000000" d="M380.6999,-302.7871C373.7625,-313.905 363.408,-327.3844 350.5,-335 308.5886,-359.7273 288.1494,-336.1437 242.5,-353 226.8055,-358.7953 210.7584,-367.8302 197.3318,-376.4363"/>
<polygon fill="#000000" stroke="#000000" points="195.3342,-373.5611 188.9171,-381.9915 199.1909,-379.4029 195.3342,-373.5611"/>
<text text-anchor="middle" x="275" y="-356" font-family="Times,serif" font-size="10.00" fill="#000000">wasInformedBy</text>
</g>
<!-- n3 -->
<g id="node5" class="node">
<title>n3</title>
<g id="a_node5"><a xlink:href="gitlab2prov:Committer" xlink:title="Committer">
<polygon fill="#fed37f" stroke="#000000" points="357.2197,-405.5623 295.5,-418 233.7803,-405.5623 233.8379,-385.4377 357.1621,-385.4377 357.2197,-405.5623"/>
<text text-anchor="middle" x="295.5" y="-396.3" font-family="Times,serif" font-size="14.00" fill="#000000">Committer</text>
</a>
</g>
</g>
<!-- n1&#45;&gt;n3 -->
<g id="edge10" class="edge">
<title>n1&#45;&gt;n3</title>
<path fill="none" stroke="#fed37f" d="M378.6181,-302.7229C371.3242,-313.0055 361.3242,-325.6305 350.5,-335 338.4541,-345.427 330.4577,-341.4347 319.5,-353 313.3177,-359.5251 308.3491,-367.9519 304.5719,-375.8644"/>
<polygon fill="#fed37f" stroke="#fed37f" points="301.3345,-374.5324 300.5539,-385.0984 307.7532,-377.3253 301.3345,-374.5324"/>
<text text-anchor="middle" x="359.5" y="-356" font-family="Times,serif" font-size="10.00" fill="#000000">wasAssociatedWith</text>
</g>
<!-- n4 -->
<g id="node7" class="node">
<title>n4</title>
<g id="a_node7"><a xlink:href="gitlab2prov:Author" xlink:title="Author">
<polygon fill="#fed37f" stroke="#000000" points="585.4778,-405.5623 540.5,-418 495.5222,-405.5623 495.5642,-385.4377 585.4358,-385.4377 585.4778,-405.5623"/>
<text text-anchor="middle" x="540.5" y="-396.3" font-family="Times,serif" font-size="14.00" fill="#000000">Author</text>
</a>
</g>
</g>
<!-- n1&#45;&gt;n4 -->
<g id="edge9" class="edge">
<title>n1&#45;&gt;n4</title>
<path fill="none" stroke="#fed37f" d="M393.0696,-302.6254C396.5851,-320.7115 404.6364,-348.0412 422.5,-364 444.8547,-383.9709 458.8519,-373.1765 487.5,-382 487.8309,-382.1019 488.1628,-382.2045 488.4956,-382.3076"/>
<polygon fill="#fed37f" stroke="#fed37f" points="487.7436,-385.7411 498.3341,-385.4367 489.8653,-379.0704 487.7436,-385.7411"/>
<text text-anchor="middle" x="462.5" y="-356" font-family="Times,serif" font-size="10.00" fill="#000000">wasAssociatedWith</text>
</g>
<!-- n7 -->
<g id="node13" class="node">
<title>n7</title>
<g id="a_node13"><a xlink:href="gitlab2prov:File Version N-1" xlink:title="File Version N&#45;1">
<ellipse fill="#fffc87" stroke="#808080" cx="698.5" cy="-400" rx="72.2875" ry="18"/>
<text text-anchor="middle" x="698.5" y="-396.3" font-family="Times,serif" font-size="14.00" fill="#000000">File Version N&#45;1</text>
</a>
</g>
</g>
<!-- n1&#45;&gt;n7 -->
<g id="edge11" class="edge">
<title>n1&#45;&gt;n7</title>
<path fill="none" stroke="#8b0000" d="M408.5531,-302.7147C420.1961,-313.5191 436.1696,-326.6857 452.5,-335 468.9751,-343.388 569.0989,-368.6013 636.4253,-385.0478"/>
<polygon fill="#8b0000" stroke="#8b0000" points="635.9744,-388.5403 646.5188,-387.5079 637.632,-381.7394 635.9744,-388.5403"/>
<text text-anchor="middle" x="559" y="-356" font-family="Times,serif" font-size="10.00" fill="#ff0000">used</text>
</g>
<!-- ann1 -->
<g id="node2" class="node">
<title>ann1</title>
<polygon fill="none" stroke="#c0c0c0" points="105,-187 0,-187 0,-86 111,-86 111,-181 105,-187"/>
<polyline fill="none" stroke="#c0c0c0" points="105,-187 105,-181 "/>
<polyline fill="none" stroke="#c0c0c0" points="111,-181 105,-181 "/>
<g id="a_node2_0"><a xlink:href="http://www.w3.org/ns/prov#type" xlink:title="&lt;TABLE&gt;">
<text text-anchor="start" x="10.5" y="-172.5" font-family="Times,serif" font-size="10.00" fill="#000000">prov:type</text>
</a>
</g>
<text text-anchor="start" x="70.5" y="-172.5" font-family="Times,serif" font-size="10.00" fill="#000000">commit</text>
<g id="a_node2_1"><a xlink:href="gitlab2prov:id" xlink:title="&lt;TABLE&gt;">
<text text-anchor="start" x="10.5" y="-159.5" font-family="Times,serif" font-size="10.00" fill="#000000">id</text>
</a>
</g>
<g id="a_node2_2"><a xlink:href="gitlab2prov:message" xlink:title="&lt;TABLE&gt;">
<text text-anchor="start" x="10.5" y="-146.5" font-family="Times,serif" font-size="10.00" fill="#000000">message</text>
</a>
</g>
<g id="a_node2_3"><a xlink:href="http://www.w3.org/ns/prov#endedAt" xlink:title="&lt;TABLE&gt;">
<text text-anchor="start" x="10.5" y="-133.5" font-family="Times,serif" font-size="10.00" fill="#000000">prov:endedAt</text>
</a>
</g>
<g id="a_node2_4"><a xlink:href="http://www.w3.org/ns/prov#startedAt" xlink:title="&lt;TABLE&gt;">
<text text-anchor="start" x="10.5" y="-120.5" font-family="Times,serif" font-size="10.00" fill="#000000">prov:startedAt</text>
</a>
</g>
<g id="a_node2_5"><a xlink:href="gitlab2prov:short_id" xlink:title="&lt;TABLE&gt;">
<text text-anchor="start" x="10.5" y="-107.5" font-family="Times,serif" font-size="10.00" fill="#000000">short_id</text>
</a>
</g>
<g id="a_node2_6"><a xlink:href="gitlab2prov:title" xlink:title="&lt;TABLE&gt;">
<text text-anchor="start" x="10.5" y="-94.5" font-family="Times,serif" font-size="10.00" fill="#000000">title</text>
</a>
</g>
</g>
<!-- ann1&#45;&gt;n1 -->
<g id="edge1" class="edge">
<title>ann1&#45;&gt;n1</title>
<path fill="none" stroke="#c0c0c0" stroke-dasharray="5,2" d="M111.1852,-144.999C173.9349,-156.7022 276.7795,-182.4694 350.5,-234 362.6004,-242.4582 372.857,-255.6203 379.9541,-266.3866"/>
</g>
<!-- ann2 -->
<g id="node4" class="node">
<title>ann2</title>
<polygon fill="none" stroke="#c0c0c0" points="214,-335 109,-335 109,-234 220,-234 220,-329 214,-335"/>
<polyline fill="none" stroke="#c0c0c0" points="214,-335 214,-329 "/>
<polyline fill="none" stroke="#c0c0c0" points="220,-329 214,-329 "/>
<g id="a_node4_7"><a xlink:href="http://www.w3.org/ns/prov#type" xlink:title="&lt;TABLE&gt;">
<text text-anchor="start" x="119.5" y="-320.5" font-family="Times,serif" font-size="10.00" fill="#000000">prov:type</text>
</a>
</g>
<text text-anchor="start" x="179.5" y="-320.5" font-family="Times,serif" font-size="10.00" fill="#000000">commit</text>
<g id="a_node4_8"><a xlink:href="gitlab2prov:id" xlink:title="&lt;TABLE&gt;">
<text text-anchor="start" x="119.5" y="-307.5" font-family="Times,serif" font-size="10.00" fill="#000000">id</text>
</a>
</g>
<g id="a_node4_9"><a xlink:href="gitlab2prov:message" xlink:title="&lt;TABLE&gt;">
<text text-anchor="start" x="119.5" y="-294.5" font-family="Times,serif" font-size="10.00" fill="#000000">message</text>
</a>
</g>
<g id="a_node4_10"><a xlink:href="http://www.w3.org/ns/prov#endedAt" xlink:title="&lt;TABLE&gt;">
<text text-anchor="start" x="119.5" y="-281.5" font-family="Times,serif" font-size="10.00" fill="#000000">prov:endedAt</text>
</a>
</g>
<g id="a_node4_11"><a xlink:href="http://www.w3.org/ns/prov#startedAt" xlink:title="&lt;TABLE&gt;">
<text text-anchor="start" x="119.5" y="-268.5" font-family="Times,serif" font-size="10.00" fill="#000000">prov:startedAt</text>
</a>
</g>
<g id="a_node4_12"><a xlink:href="gitlab2prov:short_id" xlink:title="&lt;TABLE&gt;">
<text text-anchor="start" x="119.5" y="-255.5" font-family="Times,serif" font-size="10.00" fill="#000000">short_id</text>
</a>
</g>
<g id="a_node4_13"><a xlink:href="gitlab2prov:title" xlink:title="&lt;TABLE&gt;">
<text text-anchor="start" x="119.5" y="-242.5" font-family="Times,serif" font-size="10.00" fill="#000000">title</text>
</a>
</g>
</g>
<!-- ann2&#45;&gt;n2 -->
<g id="edge2" class="edge">
<title>ann2&#45;&gt;n2</title>
<path fill="none" stroke="#c0c0c0" stroke-dasharray="5,2" d="M164.5,-335.16C164.5,-351.7677 164.5,-369.1697 164.5,-381.7594"/>
</g>
<!-- ann3 -->
<g id="node6" class="node">
<title>ann3</title>
<polygon fill="none" stroke="#c0c0c0" points="335,-315.5 238,-315.5 238,-253.5 341,-253.5 341,-309.5 335,-315.5"/>
<polyline fill="none" stroke="#c0c0c0" points="335,-315.5 335,-309.5 "/>
<polyline fill="none" stroke="#c0c0c0" points="341,-309.5 335,-309.5 "/>
<g id="a_node6_14"><a xlink:href="http://www.w3.org/ns/prov#role" xlink:title="&lt;TABLE&gt;">
<text text-anchor="start" x="248.5" y="-301.5" font-family="Times,serif" font-size="10.00" fill="#000000">prov:role</text>
</a>
</g>
<text text-anchor="start" x="289.5" y="-301.5" font-family="Times,serif" font-size="10.00" fill="#000000">committer</text>
<g id="a_node6_15"><a xlink:href="http://www.w3.org/ns/prov#type" xlink:title="&lt;TABLE&gt;">
<text text-anchor="start" x="248.5" y="-288.5" font-family="Times,serif" font-size="10.00" fill="#000000">prov:type</text>
</a>
</g>
<text text-anchor="start" x="289.5" y="-288.5" font-family="Times,serif" font-size="10.00" fill="#000000">user</text>
<g id="a_node6_16"><a xlink:href="gitlab2prov:email" xlink:title="&lt;TABLE&gt;">
<text text-anchor="start" x="248.5" y="-275.5" font-family="Times,serif" font-size="10.00" fill="#000000">email</text>
</a>
</g>
<g id="a_node6_17"><a xlink:href="gitlab2prov:name" xlink:title="&lt;TABLE&gt;">
<text text-anchor="start" x="248.5" y="-262.5" font-family="Times,serif" font-size="10.00" fill="#000000">name</text>
</a>
</g>
</g>
<!-- ann3&#45;&gt;n3 -->
<g id="edge3" class="edge">
<title>ann3&#45;&gt;n3</title>
<path fill="none" stroke="#c0c0c0" stroke-dasharray="5,2" d="M252.7413,-315.6231C233.1133,-332.4373 212.717,-350.3115 211.5,-353 209.4839,-357.4538 208.8087,-359.9186 211.5,-364 217.6139,-373.272 226.6648,-380.1651 236.5894,-385.2869"/>
</g>
<!-- ann4 -->
<g id="node8" class="node">
<title>ann4</title>
<polygon fill="none" stroke="#c0c0c0" points="642,-315.5 561,-315.5 561,-253.5 648,-253.5 648,-309.5 642,-315.5"/>
<polyline fill="none" stroke="#c0c0c0" points="642,-315.5 642,-309.5 "/>
<polyline fill="none" stroke="#c0c0c0" points="648,-309.5 642,-309.5 "/>
<g id="a_node8_18"><a xlink:href="http://www.w3.org/ns/prov#role" xlink:title="&lt;TABLE&gt;">
<text text-anchor="start" x="571.5" y="-301.5" font-family="Times,serif" font-size="10.00" fill="#000000">prov:role</text>
</a>
</g>
<text text-anchor="start" x="612.5" y="-301.5" font-family="Times,serif" font-size="10.00" fill="#000000">author</text>
<g id="a_node8_19"><a xlink:href="http://www.w3.org/ns/prov#type" xlink:title="&lt;TABLE&gt;">
<text text-anchor="start" x="571.5" y="-288.5" font-family="Times,serif" font-size="10.00" fill="#000000">prov:type</text>
</a>
</g>
<text text-anchor="start" x="612.5" y="-288.5" font-family="Times,serif" font-size="10.00" fill="#000000">user</text>
<g id="a_node8_20"><a xlink:href="gitlab2prov:email" xlink:title="&lt;TABLE&gt;">
<text text-anchor="start" x="571.5" y="-275.5" font-family="Times,serif" font-size="10.00" fill="#000000">email</text>
</a>
</g>
<g id="a_node8_21"><a xlink:href="gitlab2prov:name" xlink:title="&lt;TABLE&gt;">
<text text-anchor="start" x="571.5" y="-262.5" font-family="Times,serif" font-size="10.00" fill="#000000">name</text>
</a>
</g>
</g>
<!-- ann4&#45;&gt;n4 -->
<g id="edge4" class="edge">
<title>ann4&#45;&gt;n4</title>
<path fill="none" stroke="#c0c0c0" stroke-dasharray="5,2" d="M598.7007,-315.5563C594.8705,-330.9517 588.7963,-349.3364 579.5,-364 574.4675,-371.938 567.254,-379.2655 560.3963,-385.2088"/>
</g>
<!-- n5 -->
<g id="node9" class="node">
<title>n5</title>
<g id="a_node9"><a xlink:href="gitlab2prov:File" xlink:title="File">
<ellipse fill="#fffc87" stroke="#808080" cx="426.5" cy="-483" rx="27" ry="18"/>
<text text-anchor="middle" x="426.5" y="-479.3" font-family="Times,serif" font-size="14.00" fill="#000000">File</text>
</a>
</g>
</g>
<!-- ann5 -->
<g id="node10" class="node">
<title>ann5</title>
<polygon fill="none" stroke="#c0c0c0" points="472,-418 375,-418 375,-382 478,-382 478,-412 472,-418"/>
<polyline fill="none" stroke="#c0c0c0" points="472,-418 472,-412 "/>
<polyline fill="none" stroke="#c0c0c0" points="478,-412 472,-412 "/>
<g id="a_node10_22"><a xlink:href="http://www.w3.org/ns/prov#type" xlink:title="&lt;TABLE&gt;">
<text text-anchor="start" x="385.5" y="-404" font-family="Times,serif" font-size="10.00" fill="#000000">prov:type</text>
</a>
</g>
<text text-anchor="start" x="455.5" y="-404" font-family="Times,serif" font-size="10.00" fill="#000000">file</text>
<g id="a_node10_23"><a xlink:href="gitlab2prov:path_at_addition" xlink:title="&lt;TABLE&gt;">
<text text-anchor="start" x="385.5" y="-391" font-family="Times,serif" font-size="10.00" fill="#000000">path_at_addition</text>
</a>
</g>
</g>
<!-- ann5&#45;&gt;n5 -->
<g id="edge5" class="edge">
<title>ann5&#45;&gt;n5</title>
<path fill="none" stroke="#c0c0c0" stroke-dasharray="5,2" d="M426.5,-418.0098C426.5,-431.8363 426.5,-450.8499 426.5,-464.7388"/>
</g>
<!-- n6 -->
<g id="node11" class="node">
<title>n6</title>
<g id="a_node11"><a xlink:href="gitlab2prov:File Version N" xlink:title="File Version N">
<ellipse fill="#fffc87" stroke="#808080" cx="432.5" cy="-136.5" rx="64.9885" ry="18"/>
<text text-anchor="middle" x="432.5" y="-132.8" font-family="Times,serif" font-size="14.00" fill="#000000">File Version N</text>
</a>
</g>
</g>
<!-- n6&#45;&gt;n1 -->
<g id="edge12" class="edge">
<title>n6&#45;&gt;n1</title>
<path fill="none" stroke="#006400" d="M418.3359,-154.167C408.7217,-167.3266 396.8248,-186.197 391.5,-205 386.7941,-221.6177 386.4495,-240.9832 387.3271,-256.4405"/>
<polygon fill="#006400" stroke="#006400" points="383.839,-256.7314 388.0913,-266.4355 390.8186,-256.1977 383.839,-256.7314"/>
<text text-anchor="middle" x="426" y="-208" font-family="Times,serif" font-size="10.00" fill="#006400">wasGeneratedBy</text>
</g>
<!-- n6&#45;&gt;n4 -->
<g id="edge18" class="edge">
<title>n6&#45;&gt;n4</title>
<path fill="none" stroke="#fed37f" d="M441.028,-154.4524C447.1985,-168.0628 455.3294,-187.3707 460.5,-205 477.0359,-261.3792 457.1614,-282.9937 484.5,-335 489.7643,-345.0143 494.9329,-344.5894 502.5,-353 509.4064,-360.6762 516.6181,-369.3959 522.88,-377.2224"/>
<polygon fill="#fed37f" stroke="#fed37f" points="520.296,-379.5976 529.2425,-385.273 525.7879,-375.2572 520.296,-379.5976"/>
<text text-anchor="middle" x="518.5" y="-282" font-family="Times,serif" font-size="10.00" fill="#000000">wasAttributedTo</text>
</g>
<!-- n6&#45;&gt;n5 -->
<g id="edge16" class="edge">
<title>n6&#45;&gt;n5</title>
<path fill="none" stroke="#000000" d="M375.3479,-145.1153C289.4609,-159.3355 133.5139,-190.5317 99.5,-234 63.8678,-279.5363 89.2136,-306.4217 94.5,-364 96.7316,-388.3058 87.3802,-400.6027 104.5,-418 143.8981,-458.0366 313.3168,-474.9448 389.3346,-480.6127"/>
<polygon fill="#000000" stroke="#000000" points="389.1922,-484.1115 399.4179,-481.3391 389.6953,-477.1295 389.1922,-484.1115"/>
<text text-anchor="middle" x="127.5" y="-356" font-family="Times,serif" font-size="10.00" fill="#000000">specializationOf</text>
</g>
<!-- b1 -->
<g id="node15" class="node">
<title>b1</title>
<ellipse fill="#c0c0c0" stroke="#c0c0c0" cx="794.5" cy="-284.5" rx="1.8" ry="1.8"/>
</g>
<!-- n6&#45;&gt;b1 -->
<g id="edge13" class="edge">
<title>n6&#45;&gt;b1</title>
<path fill="none" stroke="#000000" d="M478.8281,-149.2909C574.3114,-175.6587 784.1668,-233.6409 784.5,-234 797.8746,-248.4133 795.6469,-275.3493 794.7558,-282.64"/>
<text text-anchor="middle" x="751.5" y="-208" font-family="Times,serif" font-size="10.00" fill="#000000">wasDerivedFrom</text>
</g>
<!-- ann6 -->
<g id="node12" class="node">
<title>ann6</title>
<polygon fill="none" stroke="#c0c0c0" points="481,-49 378,-49 378,0 487,0 487,-43 481,-49"/>
<polyline fill="none" stroke="#c0c0c0" points="481,-49 481,-43 "/>
<polyline fill="none" stroke="#c0c0c0" points="487,-43 481,-43 "/>
<g id="a_node12_24"><a xlink:href="http://www.w3.org/ns/prov#type" xlink:title="&lt;TABLE&gt;">
<text text-anchor="start" x="388.5" y="-34.5" font-family="Times,serif" font-size="10.00" fill="#000000">prov:type</text>
</a>
</g>
<text text-anchor="start" x="429.5" y="-34.5" font-family="Times,serif" font-size="10.00" fill="#000000">file_version</text>
<g id="a_node12_25"><a xlink:href="gitlab2prov:new_path" xlink:title="&lt;TABLE&gt;">
<text text-anchor="start" x="388.5" y="-21.5" font-family="Times,serif" font-size="10.00" fill="#000000">new_path</text>
</a>
</g>
<g id="a_node12_26"><a xlink:href="gitlab2prov:old_path" xlink:title="&lt;TABLE&gt;">
<text text-anchor="start" x="388.5" y="-8.5" font-family="Times,serif" font-size="10.00" fill="#000000">old_path</text>
</a>
</g>
</g>
<!-- ann6&#45;&gt;n6 -->
<g id="edge6" class="edge">
<title>ann6&#45;&gt;n6</title>
<path fill="none" stroke="#c0c0c0" stroke-dasharray="5,2" d="M432.5,-49.0789C432.5,-69.9421 432.5,-99.4082 432.5,-118.2345"/>
</g>
<!-- n7&#45;&gt;n5 -->
<g id="edge17" class="edge">
<title>n7&#45;&gt;n5</title>
<path fill="none" stroke="#000000" d="M652.6665,-413.986C598.5302,-430.5055 509.7017,-457.6112 461.0407,-472.46"/>
<polygon fill="#000000" stroke="#000000" points="459.8367,-469.168 451.2936,-475.4343 461.8798,-475.8632 459.8367,-469.168"/>
<text text-anchor="middle" x="611.5" y="-439" font-family="Times,serif" font-size="10.00" fill="#000000">specializationOf</text>
</g>
<!-- ann7 -->
<g id="node14" class="node">
<title>ann7</title>
<polygon fill="none" stroke="#c0c0c0" points="769,-309 666,-309 666,-260 775,-260 775,-303 769,-309"/>
<polyline fill="none" stroke="#c0c0c0" points="769,-309 769,-303 "/>
<polyline fill="none" stroke="#c0c0c0" points="775,-303 769,-303 "/>
<g id="a_node14_27"><a xlink:href="http://www.w3.org/ns/prov#type" xlink:title="&lt;TABLE&gt;">
<text text-anchor="start" x="676.5" y="-294.5" font-family="Times,serif" font-size="10.00" fill="#000000">prov:type</text>
</a>
</g>
<text text-anchor="start" x="717.5" y="-294.5" font-family="Times,serif" font-size="10.00" fill="#000000">file_version</text>
<g id="a_node14_28"><a xlink:href="gitlab2prov:new_path" xlink:title="&lt;TABLE&gt;">
<text text-anchor="start" x="676.5" y="-281.5" font-family="Times,serif" font-size="10.00" fill="#000000">new_path</text>
</a>
</g>
<g id="a_node14_29"><a xlink:href="gitlab2prov:old_path" xlink:title="&lt;TABLE&gt;">
<text text-anchor="start" x="676.5" y="-268.5" font-family="Times,serif" font-size="10.00" fill="#000000">old_path</text>
</a>
</g>
</g>
<!-- ann7&#45;&gt;n7 -->
<g id="edge7" class="edge">
<title>ann7&#45;&gt;n7</title>
<path fill="none" stroke="#c0c0c0" stroke-dasharray="5,2" d="M715.7804,-309.2776C711.6392,-331.019 705.7121,-362.1367 701.9867,-381.6947"/>
</g>
<!-- b1&#45;&gt;n7 -->
<g id="edge14" class="edge">
<title>b1&#45;&gt;n7</title>
<path fill="none" stroke="#000000" d="M794.5944,-286.6151C794.8214,-293.9355 794.7471,-318.6388 784.5,-335 773.3335,-352.8291 755.3926,-367.533 738.7792,-378.4187"/>
<polygon fill="#000000" stroke="#000000" points="736.871,-375.484 730.2554,-383.7596 740.5878,-381.4158 736.871,-375.484"/>
</g>
<!-- ann8 -->
<g id="node16" class="node">
<title>ann8</title>
<polygon fill="none" stroke="#c0c0c0" points="847.5,-154.5 735.5,-154.5 735.5,-118.5 853.5,-118.5 853.5,-148.5 847.5,-154.5"/>
<polyline fill="none" stroke="#c0c0c0" points="847.5,-154.5 847.5,-148.5 "/>
<polyline fill="none" stroke="#c0c0c0" points="853.5,-148.5 847.5,-148.5 "/>
<g id="a_node16_30"><a xlink:href="http://www.w3.org/ns/prov#type" xlink:title="&lt;TABLE&gt;">
<text text-anchor="start" x="745.5" y="-133.5" font-family="Times,serif" font-size="10.00" fill="#000000">prov:type</text>
</a>
</g>
<g id="a_node16_31"><a xlink:href="http://www.w3.org/ns/prov#Revision" xlink:title="&lt;TABLE&gt;">
<text text-anchor="start" x="786.5" y="-133.5" font-family="Times,serif" font-size="10.00" fill="#000000">prov:Revision</text>
</a>
</g>
</g>
<!-- ann8&#45;&gt;b1 -->
<g id="edge15" class="edge">
<title>ann8&#45;&gt;b1</title>
<path fill="none" stroke="#c0c0c0" stroke-dasharray="5,2" d="M794.5,-154.6477C794.5,-190.7717 794.5,-269.3494 794.5,-282.5882"/>
</g>
</g>
</svg>
