<?xml version="1.0" encoding="UTF-8" standalone="no"?>
<!DOCTYPE svg PUBLIC "-//W3C//DTD SVG 1.1//EN"
 "http://www.w3.org/Graphics/SVG/1.1/DTD/svg11.dtd">
<!-- Generated by graphviz version 2.43.0 (0)
 -->
<!-- Title: G Pages: 1 -->
<svg width="753pt" height="426pt"
 viewBox="0.00 0.00 752.50 426.00" xmlns="http://www.w3.org/2000/svg" xmlns:xlink="http://www.w3.org/1999/xlink">
<g id="graph0" class="graph" transform="scale(1 1) rotate(0) translate(4 422)">
<title>G</title>
<polygon fill="white" stroke="transparent" points="-4,4 -4,-422 748.5,-422 748.5,4 -4,4"/>
<!-- n1 -->
<g id="node1" class="node">
<title>n1</title>
<g id="a_node1"><a xlink:href="gitlab2prov:Commit" xlink:title="Commit">
<polygon fill="#9fb1fc" stroke="#0000ff" points="400,-302.5 327,-302.5 327,-266.5 400,-266.5 400,-302.5"/>
<text text-anchor="middle" x="363.5" y="-280.8" font-family="Times,serif" font-size="14.00">Commit</text>
</a>
</g>
</g>
<!-- n2 -->
<g id="node3" class="node">
<title>n2</title>
<g id="a_node3"><a xlink:href="gitlab2prov:Parent Commit" xlink:title="Parent Commit">
<polygon fill="#9fb1fc" stroke="#0000ff" points="185,-418 60,-418 60,-382 185,-382 185,-418"/>
<text text-anchor="middle" x="122.5" y="-396.3" font-family="Times,serif" font-size="14.00">Parent Commit</text>
</a>
</g>
</g>
<!-- n1&#45;&gt;n2 -->
<g id="edge7" class="edge">
<title>n1&#45;&gt;n2</title>
<path fill="none" stroke="black" d="M330.21,-302.56C311.08,-312.26 286.54,-324.53 264.5,-335 233.58,-349.69 198.53,-365.5 170.98,-377.73"/>
<polygon fill="black" stroke="black" points="169.29,-374.65 161.57,-381.9 172.13,-381.05 169.29,-374.65"/>
<text text-anchor="middle" x="267" y="-356" font-family="Times,serif" font-size="10.00">wasInformedBy</text>
</g>
<!-- n3 -->
<g id="node5" class="node">
<title>n3</title>
<g id="a_node5"><a xlink:href="gitlab2prov:Committer" xlink:title="Committer">
<polygon fill="#fed37f" stroke="black" points="564.03,-405.56 488.5,-418 412.97,-405.56 413.04,-385.44 563.96,-385.44 564.03,-405.56"/>
<text text-anchor="middle" x="488.5" y="-396.3" font-family="Times,serif" font-size="14.00">Committer</text>
</a>
</g>
</g>
<!-- n1&#45;&gt;n3 -->
<g id="edge8" class="edge">
<title>n1&#45;&gt;n3</title>
<path fill="none" stroke="#fed37f" d="M382.48,-302.74C404.82,-323.02 441.87,-356.66 465.73,-378.33"/>
<polygon fill="#fed37f" stroke="#fed37f" points="463.52,-381.05 473.28,-385.18 468.23,-375.86 463.52,-381.05"/>
<text text-anchor="middle" x="497.5" y="-356" font-family="Times,serif" font-size="10.00">wasAssociatedWith</text>
</g>
<!-- n4 -->
<g id="node7" class="node">
<title>n4</title>
<g id="a_node7"><a xlink:href="gitlab2prov:Author" xlink:title="Author">
<polygon fill="#fed37f" stroke="black" points="365.94,-405.56 313.5,-418 261.06,-405.56 261.11,-385.44 365.89,-385.44 365.94,-405.56"/>
<text text-anchor="middle" x="313.5" y="-396.3" font-family="Times,serif" font-size="14.00">Author</text>
</a>
</g>
</g>
<!-- n1&#45;&gt;n4 -->
<g id="edge9" class="edge">
<title>n1&#45;&gt;n4</title>
<path fill="none" stroke="#fed37f" d="M355.91,-302.74C347.28,-322.31 333.17,-354.34 323.62,-376.02"/>
<polygon fill="#fed37f" stroke="#fed37f" points="320.42,-374.62 319.59,-385.18 326.82,-377.44 320.42,-374.62"/>
<text text-anchor="middle" x="382.5" y="-356" font-family="Times,serif" font-size="10.00">wasAssociatedWith</text>
</g>
<!-- ann1 -->
<g id="node2" class="node">
<title>ann1</title>
<polygon fill="none" stroke="gray" points="424,-187 297,-187 297,-86 430,-86 430,-181 424,-187"/>
<polyline fill="none" stroke="gray" points="424,-187 424,-181 "/>
<polyline fill="none" stroke="gray" points="430,-181 424,-181 "/>
<g id="a_node2_0"><a xlink:href="http://www.w3.org/ns/prov#type" xlink:title="&lt;TABLE&gt;">
<text text-anchor="start" x="307.5" y="-172.5" font-family="Times,serif" font-size="10.00">prov:type</text>
</a>
</g>
<text text-anchor="start" x="382.5" y="-172.5" font-family="Times,serif" font-size="10.00">commit</text>
<g id="a_node2_1"><a xlink:href="gitlab2prov:id" xlink:title="&lt;TABLE&gt;">
<text text-anchor="start" x="307.5" y="-159.5" font-family="Times,serif" font-size="10.00">id</text>
</a>
</g>
<g id="a_node2_2"><a xlink:href="gitlab2prov:message" xlink:title="&lt;TABLE&gt;">
<text text-anchor="start" x="307.5" y="-146.5" font-family="Times,serif" font-size="10.00">message</text>
</a>
</g>
<g id="a_node2_3"><a xlink:href="http://www.w3.org/ns/prov#endedAt" xlink:title="&lt;TABLE&gt;">
<text text-anchor="start" x="307.5" y="-133.5" font-family="Times,serif" font-size="10.00">prov:endedAt</text>
</a>
</g>
<g id="a_node2_4"><a xlink:href="http://www.w3.org/ns/prov#startedAt" xlink:title="&lt;TABLE&gt;">
<text text-anchor="start" x="307.5" y="-120.5" font-family="Times,serif" font-size="10.00">prov:startedAt</text>
</a>
</g>
<g id="a_node2_5"><a xlink:href="gitlab2prov:short_id" xlink:title="&lt;TABLE&gt;">
<text text-anchor="start" x="307.5" y="-107.5" font-family="Times,serif" font-size="10.00">short_id</text>
</a>
</g>
<g id="a_node2_6"><a xlink:href="gitlab2prov:title" xlink:title="&lt;TABLE&gt;">
<text text-anchor="start" x="307.5" y="-94.5" font-family="Times,serif" font-size="10.00">title</text>
</a>
</g>
</g>
<!-- ann1&#45;&gt;n1 -->
<g id="edge1" class="edge">
<title>ann1&#45;&gt;n1</title>
<path fill="none" stroke="gray" stroke-dasharray="5,2" d="M363.5,-187.34C363.5,-214.76 363.5,-247.05 363.5,-266.37"/>
</g>
<!-- ann2 -->
<g id="node4" class="node">
<title>ann2</title>
<polygon fill="none" stroke="gray" points="127,-335 0,-335 0,-234 133,-234 133,-329 127,-335"/>
<polyline fill="none" stroke="gray" points="127,-335 127,-329 "/>
<polyline fill="none" stroke="gray" points="133,-329 127,-329 "/>
<g id="a_node4_7"><a xlink:href="http://www.w3.org/ns/prov#type" xlink:title="&lt;TABLE&gt;">
<text text-anchor="start" x="10.5" y="-320.5" font-family="Times,serif" font-size="10.00">prov:type</text>
</a>
</g>
<text text-anchor="start" x="85.5" y="-320.5" font-family="Times,serif" font-size="10.00">commit</text>
<g id="a_node4_8"><a xlink:href="gitlab2prov:id" xlink:title="&lt;TABLE&gt;">
<text text-anchor="start" x="10.5" y="-307.5" font-family="Times,serif" font-size="10.00">id</text>
</a>
</g>
<g id="a_node4_9"><a xlink:href="gitlab2prov:message" xlink:title="&lt;TABLE&gt;">
<text text-anchor="start" x="10.5" y="-294.5" font-family="Times,serif" font-size="10.00">message</text>
</a>
</g>
<g id="a_node4_10"><a xlink:href="http://www.w3.org/ns/prov#endedAt" xlink:title="&lt;TABLE&gt;">
<text text-anchor="start" x="10.5" y="-281.5" font-family="Times,serif" font-size="10.00">prov:endedAt</text>
</a>
</g>
<g id="a_node4_11"><a xlink:href="http://www.w3.org/ns/prov#startedAt" xlink:title="&lt;TABLE&gt;">
<text text-anchor="start" x="10.5" y="-268.5" font-family="Times,serif" font-size="10.00">prov:startedAt</text>
</a>
</g>
<g id="a_node4_12"><a xlink:href="gitlab2prov:short_id" xlink:title="&lt;TABLE&gt;">
<text text-anchor="start" x="10.5" y="-255.5" font-family="Times,serif" font-size="10.00">short_id</text>
</a>
</g>
<g id="a_node4_13"><a xlink:href="gitlab2prov:title" xlink:title="&lt;TABLE&gt;">
<text text-anchor="start" x="10.5" y="-242.5" font-family="Times,serif" font-size="10.00">title</text>
</a>
</g>
</g>
<!-- ann2&#45;&gt;n2 -->
<g id="edge2" class="edge">
<title>ann2&#45;&gt;n2</title>
<path fill="none" stroke="gray" stroke-dasharray="5,2" d="M91.06,-335.28C99.29,-351.96 107.92,-369.45 114.05,-381.88"/>
</g>
<!-- ann3 -->
<g id="node6" class="node">
<title>ann3</title>
<polygon fill="none" stroke="gray" points="630,-315.5 513,-315.5 513,-253.5 636,-253.5 636,-309.5 630,-315.5"/>
<polyline fill="none" stroke="gray" points="630,-315.5 630,-309.5 "/>
<polyline fill="none" stroke="gray" points="636,-309.5 630,-309.5 "/>
<g id="a_node6_14"><a xlink:href="http://www.w3.org/ns/prov#role" xlink:title="&lt;TABLE&gt;">
<text text-anchor="start" x="523.5" y="-301.5" font-family="Times,serif" font-size="10.00">prov:role</text>
</a>
</g>
<text text-anchor="start" x="574.5" y="-301.5" font-family="Times,serif" font-size="10.00">committer</text>
<g id="a_node6_15"><a xlink:href="http://www.w3.org/ns/prov#type" xlink:title="&lt;TABLE&gt;">
<text text-anchor="start" x="523.5" y="-288.5" font-family="Times,serif" font-size="10.00">prov:type</text>
</a>
</g>
<text text-anchor="start" x="574.5" y="-288.5" font-family="Times,serif" font-size="10.00">user</text>
<g id="a_node6_16"><a xlink:href="gitlab2prov:email" xlink:title="&lt;TABLE&gt;">
<text text-anchor="start" x="523.5" y="-275.5" font-family="Times,serif" font-size="10.00">email</text>
</a>
</g>
<g id="a_node6_17"><a xlink:href="gitlab2prov:name" xlink:title="&lt;TABLE&gt;">
<text text-anchor="start" x="523.5" y="-262.5" font-family="Times,serif" font-size="10.00">name</text>
</a>
</g>
</g>
<!-- ann3&#45;&gt;n3 -->
<g id="edge3" class="edge">
<title>ann3&#45;&gt;n3</title>
<path fill="none" stroke="gray" stroke-dasharray="5,2" d="M575.43,-315.67C574.46,-331.46 570.85,-350.31 560.5,-364 553.54,-373.2 543.53,-380.12 533.17,-385.26"/>
</g>
<!-- ann4 -->
<g id="node8" class="node">
<title>ann4</title>
<polygon fill="none" stroke="gray" points="250,-315.5 151,-315.5 151,-253.5 256,-253.5 256,-309.5 250,-315.5"/>
<polyline fill="none" stroke="gray" points="250,-315.5 250,-309.5 "/>
<polyline fill="none" stroke="gray" points="256,-309.5 250,-309.5 "/>
<g id="a_node8_18"><a xlink:href="http://www.w3.org/ns/prov#role" xlink:title="&lt;TABLE&gt;">
<text text-anchor="start" x="161.5" y="-301.5" font-family="Times,serif" font-size="10.00">prov:role</text>
</a>
</g>
<text text-anchor="start" x="212.5" y="-301.5" font-family="Times,serif" font-size="10.00">author</text>
<g id="a_node8_19"><a xlink:href="http://www.w3.org/ns/prov#type" xlink:title="&lt;TABLE&gt;">
<text text-anchor="start" x="161.5" y="-288.5" font-family="Times,serif" font-size="10.00">prov:type</text>
</a>
</g>
<text text-anchor="start" x="212.5" y="-288.5" font-family="Times,serif" font-size="10.00">user</text>
<g id="a_node8_20"><a xlink:href="gitlab2prov:email" xlink:title="&lt;TABLE&gt;">
<text text-anchor="start" x="161.5" y="-275.5" font-family="Times,serif" font-size="10.00">email</text>
</a>
</g>
<g id="a_node8_21"><a xlink:href="gitlab2prov:name" xlink:title="&lt;TABLE&gt;">
<text text-anchor="start" x="161.5" y="-262.5" font-family="Times,serif" font-size="10.00">name</text>
</a>
</g>
</g>
<!-- ann4&#45;&gt;n4 -->
<g id="edge4" class="edge">
<title>ann4&#45;&gt;n4</title>
<path fill="none" stroke="gray" stroke-dasharray="5,2" d="M202,-315.72C202.77,-331.73 206.37,-350.75 217.5,-364 228.57,-377.17 245.03,-385.39 261.21,-390.51"/>
</g>
<!-- n5 -->
<g id="node9" class="node">
<title>n5</title>
<g id="a_node9"><a xlink:href="gitlab2prov:File" xlink:title="File">
<ellipse fill="#fffc87" stroke="#808080" cx="682.5" cy="-284.5" rx="28.7" ry="18"/>
<text text-anchor="middle" x="682.5" y="-280.8" font-family="Times,serif" font-size="14.00">File</text>
</a>
</g>
</g>
<!-- ann5 -->
<g id="node10" class="node">
<title>ann5</title>
<polygon fill="none" stroke="gray" points="738.5,-154.5 620.5,-154.5 620.5,-118.5 744.5,-118.5 744.5,-148.5 738.5,-154.5"/>
<polyline fill="none" stroke="gray" points="738.5,-154.5 738.5,-148.5 "/>
<polyline fill="none" stroke="gray" points="744.5,-148.5 738.5,-148.5 "/>
<g id="a_node10_22"><a xlink:href="http://www.w3.org/ns/prov#type" xlink:title="&lt;TABLE&gt;">
<text text-anchor="start" x="630.5" y="-140.5" font-family="Times,serif" font-size="10.00">prov:type</text>
</a>
</g>
<text text-anchor="start" x="718.5" y="-140.5" font-family="Times,serif" font-size="10.00">file</text>
<g id="a_node10_23"><a xlink:href="gitlab2prov:path_at_addition" xlink:title="&lt;TABLE&gt;">
<text text-anchor="start" x="630.5" y="-127.5" font-family="Times,serif" font-size="10.00">path_at_addition</text>
</a>
</g>
</g>
<!-- ann5&#45;&gt;n5 -->
<g id="edge5" class="edge">
<title>ann5&#45;&gt;n5</title>
<path fill="none" stroke="gray" stroke-dasharray="5,2" d="M682.5,-154.53C682.5,-182.52 682.5,-237.92 682.5,-266.12"/>
</g>
<!-- n6 -->
<g id="node11" class="node">
<title>n6</title>
<g id="a_node11"><a xlink:href="gitlab2prov:File Version" xlink:title="File Version">
<ellipse fill="#fffc87" stroke="#808080" cx="525.5" cy="-136.5" rx="65.79" ry="18"/>
<text text-anchor="middle" x="525.5" y="-132.8" font-family="Times,serif" font-size="14.00">File Version</text>
</a>
</g>
</g>
<!-- n6&#45;&gt;n1 -->
<g id="edge10" class="edge">
<title>n6&#45;&gt;n1</title>
<path fill="none" stroke="black" d="M507.23,-153.96C478.58,-179.79 422.95,-229.92 389.93,-259.68"/>
<polygon fill="black" stroke="black" points="387.54,-257.13 382.45,-266.42 392.22,-262.33 387.54,-257.13"/>
<text text-anchor="middle" x="495" y="-208" font-family="Times,serif" font-size="10.00">wasInvalidatedBy</text>
</g>
<!-- n6&#45;&gt;n5 -->
<g id="edge11" class="edge">
<title>n6&#45;&gt;n5</title>
<path fill="none" stroke="black" d="M536.97,-154.42C549.68,-172 571.67,-199.24 596.5,-216 615.73,-228.98 626.9,-220.14 645.5,-234 654.4,-240.64 662.16,-250 668.23,-258.8"/>
<polygon fill="black" stroke="black" points="665.36,-260.79 673.73,-267.28 671.23,-256.99 665.36,-260.79"/>
<text text-anchor="middle" x="637.5" y="-208" font-family="Times,serif" font-size="10.00">specializationOf</text>
</g>
<!-- ann6 -->
<g id="node12" class="node">
<title>ann6</title>
<polygon fill="none" stroke="gray" points="585,-49 460,-49 460,0 591,0 591,-43 585,-49"/>
<polyline fill="none" stroke="gray" points="585,-49 585,-43 "/>
<polyline fill="none" stroke="gray" points="591,-43 585,-43 "/>
<g id="a_node12_24"><a xlink:href="http://www.w3.org/ns/prov#type" xlink:title="&lt;TABLE&gt;">
<text text-anchor="start" x="470.5" y="-34.5" font-family="Times,serif" font-size="10.00">prov:type</text>
</a>
</g>
<text text-anchor="start" x="522.5" y="-34.5" font-family="Times,serif" font-size="10.00">file_version</text>
<g id="a_node12_25"><a xlink:href="gitlab2prov:new_path" xlink:title="&lt;TABLE&gt;">
<text text-anchor="start" x="470.5" y="-21.5" font-family="Times,serif" font-size="10.00">new_path</text>
</a>
</g>
<g id="a_node12_26"><a xlink:href="gitlab2prov:old_path" xlink:title="&lt;TABLE&gt;">
<text text-anchor="start" x="470.5" y="-8.5" font-family="Times,serif" font-size="10.00">old_path</text>
</a>
</g>
</g>
<!-- ann6&#45;&gt;n6 -->
<g id="edge6" class="edge">
<title>ann6&#45;&gt;n6</title>
<path fill="none" stroke="gray" stroke-dasharray="5,2" d="M525.5,-49.1C525.5,-69.93 525.5,-99.8 525.5,-118.41"/>
</g>
</g>
</svg>
