<?xml version="1.0" encoding="UTF-8" standalone="no"?>
<!DOCTYPE svg PUBLIC "-//W3C//DTD SVG 1.1//EN"
 "http://www.w3.org/Graphics/SVG/1.1/DTD/svg11.dtd">
<!-- Generated by graphviz version 2.40.1 (20161225.0304)
 -->
<!-- Title: G Pages: 1 -->
<svg width="693pt" height="509pt"
 viewBox="0.00 0.00 692.50 509.00" xmlns="http://www.w3.org/2000/svg" xmlns:xlink="http://www.w3.org/1999/xlink">
<g id="graph0" class="graph" transform="scale(1 1) rotate(0) translate(4 505)">
<title>G</title>
<polygon fill="#ffffff" stroke="transparent" points="-4,4 -4,-505 688.5,-505 688.5,4 -4,4"/>
<!-- n1 -->
<g id="node1" class="node">
<title>n1</title>
<g id="a_node1"><a xlink:href="gitlab2prov:Commit" xlink:title="Commit">
<polygon fill="#9fb1fc" stroke="#0000ff" points="382.5,-385.5 320.5,-385.5 320.5,-349.5 382.5,-349.5 382.5,-385.5"/>
<text text-anchor="middle" x="351.5" y="-363.8" font-family="Times,serif" font-size="14.00" fill="#000000">Commit</text>
</a>
</g>
</g>
<!-- n2 -->
<g id="node3" class="node">
<title>n2</title>
<g id="a_node3"><a xlink:href="gitlab2prov:Parent Commit" xlink:title="Parent Commit">
<polygon fill="#9fb1fc" stroke="#0000ff" points="135.5,-501 33.5,-501 33.5,-465 135.5,-465 135.5,-501"/>
<text text-anchor="middle" x="84.5" y="-479.3" font-family="Times,serif" font-size="14.00" fill="#000000">Parent Commit</text>
</a>
</g>
</g>
<!-- n1&#45;&gt;n2 -->
<g id="edge7" class="edge">
<title>n1&#45;&gt;n2</title>
<path fill="none" stroke="#000000" d="M320.0426,-382.1376C297.885,-392.3678 267.479,-406.2459 240.5,-418 206.7626,-432.6986 168.637,-448.5972 138.5217,-460.9915"/>
<polygon fill="#000000" stroke="#000000" points="136.9608,-457.8489 129.0411,-464.8866 139.621,-464.3237 136.9608,-457.8489"/>
<text text-anchor="middle" x="231" y="-439" font-family="Times,serif" font-size="10.00" fill="#000000">wasInformedBy</text>
</g>
<!-- n3 -->
<g id="node5" class="node">
<title>n3</title>
<g id="a_node5"><a xlink:href="gitlab2prov:Committer" xlink:title="Committer">
<polygon fill="#fed37f" stroke="#000000" points="306.2197,-488.5623 244.5,-501 182.7803,-488.5623 182.8379,-468.4377 306.1621,-468.4377 306.2197,-488.5623"/>
<text text-anchor="middle" x="244.5" y="-479.3" font-family="Times,serif" font-size="14.00" fill="#000000">Committer</text>
</a>
</g>
</g>
<!-- n1&#45;&gt;n3 -->
<g id="edge8" class="edge">
<title>n1&#45;&gt;n3</title>
<path fill="none" stroke="#fed37f" d="M335.3806,-385.6631C320.9057,-401.8853 298.9956,-426.2244 279.5,-447 275.2202,-451.5608 270.5901,-456.393 266.1422,-460.9861"/>
<polygon fill="#fed37f" stroke="#fed37f" points="263.3915,-458.794 258.9227,-468.4003 268.4067,-463.6775 263.3915,-458.794"/>
<text text-anchor="middle" x="329.5" y="-439" font-family="Times,serif" font-size="10.00" fill="#000000">wasAssociatedWith</text>
</g>
<!-- n4 -->
<g id="node7" class="node">
<title>n4</title>
<g id="a_node7"><a xlink:href="gitlab2prov:Author" xlink:title="Author">
<polygon fill="#fed37f" stroke="#000000" points="556.4778,-488.5623 511.5,-501 466.5222,-488.5623 466.5642,-468.4377 556.4358,-468.4377 556.4778,-488.5623"/>
<text text-anchor="middle" x="511.5" y="-479.3" font-family="Times,serif" font-size="14.00" fill="#000000">Author</text>
</a>
</g>
</g>
<!-- n1&#45;&gt;n4 -->
<g id="edge9" class="edge">
<title>n1&#45;&gt;n4</title>
<path fill="none" stroke="#fed37f" d="M358.4976,-385.545C366.3662,-403.567 380.8077,-430.8465 401.5,-447 417.4158,-459.4247 437.7849,-467.6421 456.659,-473.0408"/>
<polygon fill="#fed37f" stroke="#fed37f" points="455.7981,-476.4334 466.3612,-475.6144 457.5929,-469.6674 455.7981,-476.4334"/>
<text text-anchor="middle" x="441.5" y="-439" font-family="Times,serif" font-size="10.00" fill="#000000">wasAssociatedWith</text>
</g>
<!-- ann1 -->
<g id="node2" class="node">
<title>ann1</title>
<polygon fill="none" stroke="#c0c0c0" points="401,-270 296,-270 296,-169 407,-169 407,-264 401,-270"/>
<polyline fill="none" stroke="#c0c0c0" points="401,-270 401,-264 "/>
<polyline fill="none" stroke="#c0c0c0" points="407,-264 401,-264 "/>
<g id="a_node2_0"><a xlink:href="http://www.w3.org/ns/prov#type" xlink:title="&lt;TABLE&gt;">
<text text-anchor="start" x="306.5" y="-255.5" font-family="Times,serif" font-size="10.00" fill="#000000">prov:type</text>
</a>
</g>
<text text-anchor="start" x="366.5" y="-255.5" font-family="Times,serif" font-size="10.00" fill="#000000">commit</text>
<g id="a_node2_1"><a xlink:href="gitlab2prov:id" xlink:title="&lt;TABLE&gt;">
<text text-anchor="start" x="306.5" y="-242.5" font-family="Times,serif" font-size="10.00" fill="#000000">id</text>
</a>
</g>
<g id="a_node2_2"><a xlink:href="gitlab2prov:message" xlink:title="&lt;TABLE&gt;">
<text text-anchor="start" x="306.5" y="-229.5" font-family="Times,serif" font-size="10.00" fill="#000000">message</text>
</a>
</g>
<g id="a_node2_3"><a xlink:href="http://www.w3.org/ns/prov#endedAt" xlink:title="&lt;TABLE&gt;">
<text text-anchor="start" x="306.5" y="-216.5" font-family="Times,serif" font-size="10.00" fill="#000000">prov:endedAt</text>
</a>
</g>
<g id="a_node2_4"><a xlink:href="http://www.w3.org/ns/prov#startedAt" xlink:title="&lt;TABLE&gt;">
<text text-anchor="start" x="306.5" y="-203.5" font-family="Times,serif" font-size="10.00" fill="#000000">prov:startedAt</text>
</a>
</g>
<g id="a_node2_5"><a xlink:href="gitlab2prov:short_id" xlink:title="&lt;TABLE&gt;">
<text text-anchor="start" x="306.5" y="-190.5" font-family="Times,serif" font-size="10.00" fill="#000000">short_id</text>
</a>
</g>
<g id="a_node2_6"><a xlink:href="gitlab2prov:title" xlink:title="&lt;TABLE&gt;">
<text text-anchor="start" x="306.5" y="-177.5" font-family="Times,serif" font-size="10.00" fill="#000000">title</text>
</a>
</g>
</g>
<!-- ann1&#45;&gt;n1 -->
<g id="edge1" class="edge">
<title>ann1&#45;&gt;n1</title>
<path fill="none" stroke="#c0c0c0" stroke-dasharray="5,2" d="M351.5,-270.0193C351.5,-297.4857 351.5,-329.7669 351.5,-349.4217"/>
</g>
<!-- ann2 -->
<g id="node4" class="node">
<title>ann2</title>
<polygon fill="none" stroke="#c0c0c0" points="105,-418 0,-418 0,-317 111,-317 111,-412 105,-418"/>
<polyline fill="none" stroke="#c0c0c0" points="105,-418 105,-412 "/>
<polyline fill="none" stroke="#c0c0c0" points="111,-412 105,-412 "/>
<g id="a_node4_7"><a xlink:href="http://www.w3.org/ns/prov#type" xlink:title="&lt;TABLE&gt;">
<text text-anchor="start" x="10.5" y="-403.5" font-family="Times,serif" font-size="10.00" fill="#000000">prov:type</text>
</a>
</g>
<text text-anchor="start" x="70.5" y="-403.5" font-family="Times,serif" font-size="10.00" fill="#000000">commit</text>
<g id="a_node4_8"><a xlink:href="gitlab2prov:id" xlink:title="&lt;TABLE&gt;">
<text text-anchor="start" x="10.5" y="-390.5" font-family="Times,serif" font-size="10.00" fill="#000000">id</text>
</a>
</g>
<g id="a_node4_9"><a xlink:href="gitlab2prov:message" xlink:title="&lt;TABLE&gt;">
<text text-anchor="start" x="10.5" y="-377.5" font-family="Times,serif" font-size="10.00" fill="#000000">message</text>
</a>
</g>
<g id="a_node4_10"><a xlink:href="http://www.w3.org/ns/prov#endedAt" xlink:title="&lt;TABLE&gt;">
<text text-anchor="start" x="10.5" y="-364.5" font-family="Times,serif" font-size="10.00" fill="#000000">prov:endedAt</text>
</a>
</g>
<g id="a_node4_11"><a xlink:href="http://www.w3.org/ns/prov#startedAt" xlink:title="&lt;TABLE&gt;">
<text text-anchor="start" x="10.5" y="-351.5" font-family="Times,serif" font-size="10.00" fill="#000000">prov:startedAt</text>
</a>
</g>
<g id="a_node4_12"><a xlink:href="gitlab2prov:short_id" xlink:title="&lt;TABLE&gt;">
<text text-anchor="start" x="10.5" y="-338.5" font-family="Times,serif" font-size="10.00" fill="#000000">short_id</text>
</a>
</g>
<g id="a_node4_13"><a xlink:href="gitlab2prov:title" xlink:title="&lt;TABLE&gt;">
<text text-anchor="start" x="10.5" y="-325.5" font-family="Times,serif" font-size="10.00" fill="#000000">title</text>
</a>
</g>
</g>
<!-- ann2&#45;&gt;n2 -->
<g id="edge2" class="edge">
<title>ann2&#45;&gt;n2</title>
<path fill="none" stroke="#c0c0c0" stroke-dasharray="5,2" d="M68.2198,-418.16C72.3897,-434.7677 76.759,-452.1697 79.9201,-464.7594"/>
</g>
<!-- ann3 -->
<g id="node6" class="node">
<title>ann3</title>
<polygon fill="none" stroke="#c0c0c0" points="226,-398.5 129,-398.5 129,-336.5 232,-336.5 232,-392.5 226,-398.5"/>
<polyline fill="none" stroke="#c0c0c0" points="226,-398.5 226,-392.5 "/>
<polyline fill="none" stroke="#c0c0c0" points="232,-392.5 226,-392.5 "/>
<g id="a_node6_14"><a xlink:href="http://www.w3.org/ns/prov#role" xlink:title="&lt;TABLE&gt;">
<text text-anchor="start" x="139.5" y="-384.5" font-family="Times,serif" font-size="10.00" fill="#000000">prov:role</text>
</a>
</g>
<text text-anchor="start" x="180.5" y="-384.5" font-family="Times,serif" font-size="10.00" fill="#000000">committer</text>
<g id="a_node6_15"><a xlink:href="http://www.w3.org/ns/prov#type" xlink:title="&lt;TABLE&gt;">
<text text-anchor="start" x="139.5" y="-371.5" font-family="Times,serif" font-size="10.00" fill="#000000">prov:type</text>
</a>
</g>
<text text-anchor="start" x="180.5" y="-371.5" font-family="Times,serif" font-size="10.00" fill="#000000">user</text>
<g id="a_node6_16"><a xlink:href="gitlab2prov:email" xlink:title="&lt;TABLE&gt;">
<text text-anchor="start" x="139.5" y="-358.5" font-family="Times,serif" font-size="10.00" fill="#000000">email</text>
</a>
</g>
<g id="a_node6_17"><a xlink:href="gitlab2prov:name" xlink:title="&lt;TABLE&gt;">
<text text-anchor="start" x="139.5" y="-345.5" font-family="Times,serif" font-size="10.00" fill="#000000">name</text>
</a>
</g>
</g>
<!-- ann3&#45;&gt;n3 -->
<g id="edge3" class="edge">
<title>ann3&#45;&gt;n3</title>
<path fill="none" stroke="#c0c0c0" stroke-dasharray="5,2" d="M180.5523,-398.5253C181.8639,-414.0915 185.4846,-432.6376 194.5,-447 199.9024,-455.6066 208.1807,-462.783 216.4566,-468.4056"/>
</g>
<!-- ann4 -->
<g id="node8" class="node">
<title>ann4</title>
<polygon fill="none" stroke="#c0c0c0" points="482,-398.5 401,-398.5 401,-336.5 488,-336.5 488,-392.5 482,-398.5"/>
<polyline fill="none" stroke="#c0c0c0" points="482,-398.5 482,-392.5 "/>
<polyline fill="none" stroke="#c0c0c0" points="488,-392.5 482,-392.5 "/>
<g id="a_node8_18"><a xlink:href="http://www.w3.org/ns/prov#role" xlink:title="&lt;TABLE&gt;">
<text text-anchor="start" x="411.5" y="-384.5" font-family="Times,serif" font-size="10.00" fill="#000000">prov:role</text>
</a>
</g>
<text text-anchor="start" x="452.5" y="-384.5" font-family="Times,serif" font-size="10.00" fill="#000000">author</text>
<g id="a_node8_19"><a xlink:href="http://www.w3.org/ns/prov#type" xlink:title="&lt;TABLE&gt;">
<text text-anchor="start" x="411.5" y="-371.5" font-family="Times,serif" font-size="10.00" fill="#000000">prov:type</text>
</a>
</g>
<text text-anchor="start" x="452.5" y="-371.5" font-family="Times,serif" font-size="10.00" fill="#000000">user</text>
<g id="a_node8_20"><a xlink:href="gitlab2prov:email" xlink:title="&lt;TABLE&gt;">
<text text-anchor="start" x="411.5" y="-358.5" font-family="Times,serif" font-size="10.00" fill="#000000">email</text>
</a>
</g>
<g id="a_node8_21"><a xlink:href="gitlab2prov:name" xlink:title="&lt;TABLE&gt;">
<text text-anchor="start" x="411.5" y="-345.5" font-family="Times,serif" font-size="10.00" fill="#000000">name</text>
</a>
</g>
</g>
<!-- ann4&#45;&gt;n4 -->
<g id="edge4" class="edge">
<title>ann4&#45;&gt;n4</title>
<path fill="none" stroke="#c0c0c0" stroke-dasharray="5,2" d="M463.5034,-398.7408C470.5057,-410.3847 478.4472,-423.7479 485.5,-436 491.6409,-446.6678 498.3616,-458.8303 503.4315,-468.1098"/>
</g>
<!-- n5 -->
<g id="node9" class="node">
<title>n5</title>
<g id="a_node9"><a xlink:href="gitlab2prov:File" xlink:title="File">
<ellipse fill="#fffc87" stroke="#808080" cx="459.5" cy="-219.5" rx="27" ry="18"/>
<text text-anchor="middle" x="459.5" y="-215.8" font-family="Times,serif" font-size="14.00" fill="#000000">File</text>
</a>
</g>
</g>
<!-- n5&#45;&gt;n1 -->
<g id="edge10" class="edge">
<title>n5&#45;&gt;n1</title>
<path fill="none" stroke="#006400" d="M447.5295,-235.9041C429.0347,-261.2488 393.3258,-310.1831 371.0484,-340.7115"/>
<polygon fill="#006400" stroke="#006400" points="367.9407,-339.0326 364.8733,-349.1736 373.5953,-343.1589 367.9407,-339.0326"/>
<text text-anchor="middle" x="444" y="-291" font-family="Times,serif" font-size="10.00" fill="#006400">wasGeneratedBy</text>
</g>
<!-- n5&#45;&gt;n4 -->
<g id="edge12" class="edge">
<title>n5&#45;&gt;n4</title>
<path fill="none" stroke="#fed37f" d="M467.6599,-236.6659C476.362,-255.8006 489.7941,-287.8892 496.5,-317 507.8218,-366.1489 510.6801,-425.3218 511.3513,-458.0859"/>
<polygon fill="#fed37f" stroke="#fed37f" points="507.8523,-458.1867 511.5041,-468.1322 514.8515,-458.0801 507.8523,-458.1867"/>
<text text-anchor="middle" x="544.5" y="-365" font-family="Times,serif" font-size="10.00" fill="#000000">wasAttributedTo</text>
</g>
<!-- ann5 -->
<g id="node10" class="node">
<title>ann5</title>
<polygon fill="none" stroke="#c0c0c0" points="473,-122 376,-122 376,-86 479,-86 479,-116 473,-122"/>
<polyline fill="none" stroke="#c0c0c0" points="473,-122 473,-116 "/>
<polyline fill="none" stroke="#c0c0c0" points="479,-116 473,-116 "/>
<g id="a_node10_22"><a xlink:href="http://www.w3.org/ns/prov#type" xlink:title="&lt;TABLE&gt;">
<text text-anchor="start" x="386.5" y="-108" font-family="Times,serif" font-size="10.00" fill="#000000">prov:type</text>
</a>
</g>
<text text-anchor="start" x="456.5" y="-108" font-family="Times,serif" font-size="10.00" fill="#000000">file</text>
<g id="a_node10_23"><a xlink:href="gitlab2prov:path_at_addition" xlink:title="&lt;TABLE&gt;">
<text text-anchor="start" x="386.5" y="-95" font-family="Times,serif" font-size="10.00" fill="#000000">path_at_addition</text>
</a>
</g>
</g>
<!-- ann5&#45;&gt;n5 -->
<g id="edge5" class="edge">
<title>ann5&#45;&gt;n5</title>
<path fill="none" stroke="#c0c0c0" stroke-dasharray="5,2" d="M432.5,-122.0469C438.5117,-143.7454 448.5391,-179.9379 454.5351,-201.5799"/>
</g>
<!-- n6 -->
<g id="node11" class="node">
<title>n6</title>
<g id="a_node11"><a xlink:href="gitlab2prov:File Version" xlink:title="File Version">
<ellipse fill="#fffc87" stroke="#808080" cx="552.5" cy="-104" rx="55.7903" ry="18"/>
<text text-anchor="middle" x="552.5" y="-100.3" font-family="Times,serif" font-size="14.00" fill="#000000">File Version</text>
</a>
</g>
</g>
<!-- n6&#45;&gt;n1 -->
<g id="edge11" class="edge">
<title>n6&#45;&gt;n1</title>
<path fill="none" stroke="#006400" d="M551.9634,-122.0666C549.7366,-161.3166 538.5015,-254.4199 482.5,-299 450.2443,-324.6773 426.689,-295.5177 391.5,-317 381.8062,-322.9179 373.509,-332.0869 367.0257,-340.9965"/>
<polygon fill="#006400" stroke="#006400" points="364.0827,-339.1006 361.3792,-349.3448 369.8809,-343.0224 364.0827,-339.1006"/>
<text text-anchor="middle" x="581" y="-217" font-family="Times,serif" font-size="10.00" fill="#006400">wasGeneratedBy</text>
</g>
<!-- n6&#45;&gt;n4 -->
<g id="edge13" class="edge">
<title>n6&#45;&gt;n4</title>
<path fill="none" stroke="#fed37f" d="M577.5408,-120.3324C592.8086,-131.8768 610.9745,-148.8508 619.5,-169 636.9919,-210.3406 624.9847,-225.4474 619.5,-270 611.2157,-337.2942 617.1985,-359.7492 582.5,-418 572.205,-435.2829 555.8935,-450.6841 541.4998,-462.1519"/>
<polygon fill="#fed37f" stroke="#fed37f" points="539.1128,-459.5717 533.3066,-468.4339 543.3721,-465.1268 539.1128,-459.5717"/>
<text text-anchor="middle" x="650.5" y="-291" font-family="Times,serif" font-size="10.00" fill="#000000">wasAttributedTo</text>
</g>
<!-- n6&#45;&gt;n5 -->
<g id="edge14" class="edge">
<title>n6&#45;&gt;n5</title>
<path fill="none" stroke="#000000" d="M506.3615,-114.4716C492.4783,-119.8572 478.5452,-127.9357 469.5,-140 458.616,-154.5169 456.2268,-174.878 456.5016,-191.3599"/>
<polygon fill="#000000" stroke="#000000" points="453.0148,-191.7153 457.0044,-201.5303 460.0063,-191.3696 453.0148,-191.7153"/>
<text text-anchor="middle" x="502.5" y="-143" font-family="Times,serif" font-size="10.00" fill="#000000">specializationOf</text>
</g>
<!-- ann6 -->
<g id="node12" class="node">
<title>ann6</title>
<polygon fill="none" stroke="#c0c0c0" points="601,-49 498,-49 498,0 607,0 607,-43 601,-49"/>
<polyline fill="none" stroke="#c0c0c0" points="601,-49 601,-43 "/>
<polyline fill="none" stroke="#c0c0c0" points="607,-43 601,-43 "/>
<g id="a_node12_24"><a xlink:href="http://www.w3.org/ns/prov#type" xlink:title="&lt;TABLE&gt;">
<text text-anchor="start" x="508.5" y="-34.5" font-family="Times,serif" font-size="10.00" fill="#000000">prov:type</text>
</a>
</g>
<text text-anchor="start" x="549.5" y="-34.5" font-family="Times,serif" font-size="10.00" fill="#000000">file_version</text>
<g id="a_node12_25"><a xlink:href="gitlab2prov:new_path" xlink:title="&lt;TABLE&gt;">
<text text-anchor="start" x="508.5" y="-21.5" font-family="Times,serif" font-size="10.00" fill="#000000">new_path</text>
</a>
</g>
<g id="a_node12_26"><a xlink:href="gitlab2prov:old_path" xlink:title="&lt;TABLE&gt;">
<text text-anchor="start" x="508.5" y="-8.5" font-family="Times,serif" font-size="10.00" fill="#000000">old_path</text>
</a>
</g>
</g>
<!-- ann6&#45;&gt;n6 -->
<g id="edge6" class="edge">
<title>ann6&#45;&gt;n6</title>
<path fill="none" stroke="#c0c0c0" stroke-dasharray="5,2" d="M552.5,-49.2185C552.5,-61.0695 552.5,-75.0111 552.5,-85.8639"/>
</g>
</g>
</svg>
