<?xml version="1.0" encoding="UTF-8" standalone="no"?>
<!DOCTYPE svg PUBLIC "-//W3C//DTD SVG 1.1//EN"
 "http://www.w3.org/Graphics/SVG/1.1/DTD/svg11.dtd">
<!-- Generated by graphviz version 2.43.0 (0)
 -->
<!-- Title: G Pages: 1 -->
<svg width="857pt" height="688pt"
 viewBox="0.00 0.00 857.00 688.00" xmlns="http://www.w3.org/2000/svg" xmlns:xlink="http://www.w3.org/1999/xlink">
<g id="graph0" class="graph" transform="scale(1 1) rotate(0) translate(4 684)">
<title>G</title>
<polygon fill="white" stroke="transparent" points="-4,4 -4,-684 853,-684 853,4 -4,4"/>
<!-- n1 -->
<g id="node1" class="node">
<title>n1</title>
<g id="a_node1"><a xlink:href="gitlab2prov:Creator" xlink:title="Creator">
<polygon fill="#fed37f" stroke="black" points="255.08,-667.56 198,-680 140.92,-667.56 140.97,-647.44 255.03,-647.44 255.08,-667.56"/>
<text text-anchor="middle" x="198" y="-658.3" font-family="Times,serif" font-size="14.00">Creator</text>
</a>
</g>
</g>
<!-- ann1 -->
<g id="node2" class="node">
<title>ann1</title>
<polygon fill="none" stroke="gray" points="102,-571 0,-571 0,-522 108,-522 108,-565 102,-571"/>
<polyline fill="none" stroke="gray" points="102,-571 102,-565 "/>
<polyline fill="none" stroke="gray" points="108,-565 102,-565 "/>
<g id="a_node2_0"><a xlink:href="http://www.w3.org/ns/prov#role" xlink:title="&lt;TABLE&gt;">
<text text-anchor="start" x="10" y="-556.5" font-family="Times,serif" font-size="10.00">prov:role</text>
</a>
</g>
<text text-anchor="start" x="61" y="-556.5" font-family="Times,serif" font-size="10.00">creator</text>
<g id="a_node2_1"><a xlink:href="http://www.w3.org/ns/prov#type" xlink:title="&lt;TABLE&gt;">
<text text-anchor="start" x="10" y="-543.5" font-family="Times,serif" font-size="10.00">prov:type</text>
</a>
</g>
<text text-anchor="start" x="61" y="-543.5" font-family="Times,serif" font-size="10.00">user</text>
<g id="a_node2_2"><a xlink:href="gitlab2prov:name" xlink:title="&lt;TABLE&gt;">
<text text-anchor="start" x="10" y="-530.5" font-family="Times,serif" font-size="10.00">name</text>
</a>
</g>
</g>
<!-- ann1&#45;&gt;n1 -->
<g id="edge1" class="edge">
<title>ann1&#45;&gt;n1</title>
<path fill="none" stroke="gray" stroke-dasharray="5,2" d="M70.27,-571.19C82.85,-588.15 101.53,-610.62 122,-626 133.5,-634.64 147.47,-641.83 160.28,-647.4"/>
</g>
<!-- n2 -->
<g id="node3" class="node">
<title>n2</title>
<g id="a_node3"><a xlink:href="gitlab2prov:Annotator" xlink:title="Annotator">
<polygon fill="#fed37f" stroke="black" points="791.89,-321.06 721,-333.5 650.11,-321.06 650.17,-300.94 791.83,-300.94 791.89,-321.06"/>
<text text-anchor="middle" x="721" y="-311.8" font-family="Times,serif" font-size="14.00">Annotator</text>
</a>
</g>
</g>
<!-- ann2 -->
<g id="node4" class="node">
<title>ann2</title>
<polygon fill="none" stroke="gray" points="719.5,-231 614.5,-231 614.5,-182 725.5,-182 725.5,-225 719.5,-231"/>
<polyline fill="none" stroke="gray" points="719.5,-231 719.5,-225 "/>
<polyline fill="none" stroke="gray" points="725.5,-225 719.5,-225 "/>
<g id="a_node4_3"><a xlink:href="http://www.w3.org/ns/prov#role" xlink:title="&lt;TABLE&gt;">
<text text-anchor="start" x="625" y="-216.5" font-family="Times,serif" font-size="10.00">prov:role</text>
</a>
</g>
<text text-anchor="start" x="676" y="-216.5" font-family="Times,serif" font-size="10.00">initiator</text>
<g id="a_node4_4"><a xlink:href="http://www.w3.org/ns/prov#type" xlink:title="&lt;TABLE&gt;">
<text text-anchor="start" x="625" y="-203.5" font-family="Times,serif" font-size="10.00">prov:type</text>
</a>
</g>
<text text-anchor="start" x="676" y="-203.5" font-family="Times,serif" font-size="10.00">user</text>
<g id="a_node4_5"><a xlink:href="gitlab2prov:name" xlink:title="&lt;TABLE&gt;">
<text text-anchor="start" x="625" y="-190.5" font-family="Times,serif" font-size="10.00">name</text>
</a>
</g>
</g>
<!-- ann2&#45;&gt;n2 -->
<g id="edge2" class="edge">
<title>ann2&#45;&gt;n2</title>
<path fill="none" stroke="gray" stroke-dasharray="5,2" d="M694.99,-231.39C699.55,-236.81 703.86,-242.8 707,-249 715.42,-265.59 718.78,-287.03 720.12,-300.78"/>
</g>
<!-- n3 -->
<g id="node5" class="node">
<title>n3</title>
<g id="a_node5"><a xlink:href="gitlab2prov:Commit Creation" xlink:title="Commit Creation">
<polygon fill="#9fb1fc" stroke="#0000ff" points="501.5,-564.5 362.5,-564.5 362.5,-528.5 501.5,-528.5 501.5,-564.5"/>
<text text-anchor="middle" x="432" y="-542.8" font-family="Times,serif" font-size="14.00">Commit Creation</text>
</a>
</g>
</g>
<!-- n3&#45;&gt;n1 -->
<g id="edge10" class="edge">
<title>n3&#45;&gt;n1</title>
<path fill="none" stroke="#fed37f" d="M404.88,-564.69C388.67,-574.66 367.49,-587.15 348,-597 313.45,-614.46 273.03,-631.52 242.86,-643.63"/>
<polygon fill="#fed37f" stroke="#fed37f" points="241.43,-640.43 233.44,-647.38 244.03,-646.93 241.43,-640.43"/>
<text text-anchor="middle" x="357" y="-618" font-family="Times,serif" font-size="10.00">wasAssociatedWith</text>
</g>
<!-- n5 -->
<g id="node9" class="node">
<title>n5</title>
<g id="a_node9"><a xlink:href="gitlab2prov:Git Commit" xlink:title="Git Commit">
<polygon fill="#9fb1fc" stroke="#0000ff" points="572.5,-680 473.5,-680 473.5,-644 572.5,-644 572.5,-680"/>
<text text-anchor="middle" x="523" y="-658.3" font-family="Times,serif" font-size="14.00">Git Commit</text>
</a>
</g>
</g>
<!-- n3&#45;&gt;n5 -->
<g id="edge9" class="edge">
<title>n3&#45;&gt;n5</title>
<path fill="none" stroke="black" d="M434.75,-564.55C438.27,-581.73 445.83,-608.19 461,-626 464.85,-630.52 469.44,-634.58 474.35,-638.19"/>
<polygon fill="black" stroke="black" points="472.59,-641.22 482.86,-643.84 476.47,-635.39 472.59,-641.22"/>
<text text-anchor="middle" x="501.5" y="-618" font-family="Times,serif" font-size="10.00">wasInformedBy</text>
</g>
<!-- ann3 -->
<g id="node6" class="node">
<title>ann3</title>
<polygon fill="none" stroke="gray" points="734.5,-449 603.5,-449 603.5,-400 740.5,-400 740.5,-443 734.5,-449"/>
<polyline fill="none" stroke="gray" points="734.5,-449 734.5,-443 "/>
<polyline fill="none" stroke="gray" points="740.5,-443 734.5,-443 "/>
<g id="a_node6_6"><a xlink:href="http://www.w3.org/ns/prov#type" xlink:title="&lt;TABLE&gt;">
<text text-anchor="start" x="614" y="-434.5" font-family="Times,serif" font-size="10.00">prov:type</text>
</a>
</g>
<text text-anchor="start" x="689" y="-434.5" font-family="Times,serif" font-size="10.00">creation</text>
<g id="a_node6_7"><a xlink:href="http://www.w3.org/ns/prov#endedAt" xlink:title="&lt;TABLE&gt;">
<text text-anchor="start" x="614" y="-421.5" font-family="Times,serif" font-size="10.00">prov:endedAt</text>
</a>
</g>
<g id="a_node6_8"><a xlink:href="http://www.w3.org/ns/prov#startedAt" xlink:title="&lt;TABLE&gt;">
<text text-anchor="start" x="614" y="-408.5" font-family="Times,serif" font-size="10.00">prov:startedAt</text>
</a>
</g>
</g>
<!-- ann3&#45;&gt;n3 -->
<g id="edge3" class="edge">
<title>ann3&#45;&gt;n3</title>
<path fill="none" stroke="gray" stroke-dasharray="5,2" d="M640.29,-449.15C625.37,-459.31 606.95,-470.54 589,-478 555.75,-491.82 543.24,-482.15 510,-496 490.01,-504.33 469.42,-517.64 454.41,-528.36"/>
</g>
<!-- n4 -->
<g id="node7" class="node">
<title>n4</title>
<g id="a_node7"><a xlink:href="gitlab2prov:Commit Annotation" xlink:title="Commit Annotation">
<polygon fill="#9fb1fc" stroke="#0000ff" points="596.5,-224.5 441.5,-224.5 441.5,-188.5 596.5,-188.5 596.5,-224.5"/>
<text text-anchor="middle" x="519" y="-202.8" font-family="Times,serif" font-size="14.00">Commit Annotation</text>
</a>
</g>
</g>
<!-- n4&#45;&gt;n2 -->
<g id="edge16" class="edge">
<title>n4&#45;&gt;n2</title>
<path fill="none" stroke="#fed37f" d="M546.34,-224.63C567,-237.5 593.68,-253.91 605,-260 629.52,-273.19 657.78,-286.51 680.27,-296.68"/>
<polygon fill="#fed37f" stroke="#fed37f" points="678.97,-299.93 689.53,-300.83 681.84,-293.54 678.97,-299.93"/>
<text text-anchor="middle" x="654" y="-252" font-family="Times,serif" font-size="10.00">wasAssociatedWith</text>
</g>
<!-- n4&#45;&gt;n3 -->
<g id="edge18" class="edge">
<title>n4&#45;&gt;n3</title>
<path fill="none" stroke="black" d="M530.95,-224.51C539.82,-238.23 551.17,-258.41 556,-278 563.98,-310.36 563.08,-320.43 556,-353 543.04,-412.67 533.72,-427.77 499,-478 487.93,-494.01 472.86,-509.59 459.8,-521.73"/>
<polygon fill="black" stroke="black" points="457.44,-519.15 452.4,-528.47 462.15,-524.33 457.44,-519.15"/>
<text text-anchor="middle" x="592.5" y="-374" font-family="Times,serif" font-size="10.00">wasInformedBy</text>
</g>
<!-- n7 -->
<g id="node13" class="node">
<title>n7</title>
<g id="a_node13"><a xlink:href="gitlab2prov:Commit Version" xlink:title="Commit Version">
<ellipse fill="#fffc87" stroke="#808080" cx="242" cy="-315.5" rx="85.29" ry="18"/>
<text text-anchor="middle" x="242" y="-311.8" font-family="Times,serif" font-size="14.00">Commit Version</text>
</a>
</g>
</g>
<!-- n4&#45;&gt;n7 -->
<g id="edge17" class="edge">
<title>n4&#45;&gt;n7</title>
<path fill="none" stroke="#8b0000" d="M499.8,-224.58C485.97,-236.07 466.41,-250.76 447,-260 418.77,-273.44 409.22,-269.98 379,-278 354.02,-284.63 326.48,-291.97 302.69,-298.31"/>
<polygon fill="#8b0000" stroke="#8b0000" points="301.5,-295 292.74,-300.96 303.31,-301.77 301.5,-295"/>
<text text-anchor="middle" x="479.5" y="-252" font-family="Times,serif" font-size="10.00" fill="red">used</text>
</g>
<!-- ann4 -->
<g id="node8" class="node">
<title>ann4</title>
<polygon fill="none" stroke="gray" points="843,-135 725,-135 725,-73 849,-73 849,-129 843,-135"/>
<polyline fill="none" stroke="gray" points="843,-135 843,-129 "/>
<polyline fill="none" stroke="gray" points="849,-129 843,-129 "/>
<g id="a_node8_9"><a xlink:href="http://www.w3.org/ns/prov#type" xlink:title="&lt;TABLE&gt;">
<text text-anchor="start" x="735" y="-121" font-family="Times,serif" font-size="10.00">prov:type</text>
</a>
</g>
<text text-anchor="start" x="810" y="-121" font-family="Times,serif" font-size="10.00">event</text>
<g id="a_node8_10"><a xlink:href="gitlab2prov:event" xlink:title="&lt;TABLE&gt;">
<text text-anchor="start" x="735" y="-108" font-family="Times,serif" font-size="10.00">event</text>
</a>
</g>
<g id="a_node8_11"><a xlink:href="http://www.w3.org/ns/prov#endedAt" xlink:title="&lt;TABLE&gt;">
<text text-anchor="start" x="735" y="-95" font-family="Times,serif" font-size="10.00">prov:endedAt</text>
</a>
</g>
<g id="a_node8_12"><a xlink:href="http://www.w3.org/ns/prov#startedAt" xlink:title="&lt;TABLE&gt;">
<text text-anchor="start" x="735" y="-82" font-family="Times,serif" font-size="10.00">prov:startedAt</text>
</a>
</g>
</g>
<!-- ann4&#45;&gt;n4 -->
<g id="edge4" class="edge">
<title>ann4&#45;&gt;n4</title>
<path fill="none" stroke="gray" stroke-dasharray="5,2" d="M724.84,-128.31C675.82,-146.69 608.6,-171.9 564.5,-188.44"/>
</g>
<!-- ann5 -->
<g id="node10" class="node">
<title>ann5</title>
<polygon fill="none" stroke="gray" points="646.5,-597 519.5,-597 519.5,-496 652.5,-496 652.5,-591 646.5,-597"/>
<polyline fill="none" stroke="gray" points="646.5,-597 646.5,-591 "/>
<polyline fill="none" stroke="gray" points="652.5,-591 646.5,-591 "/>
<g id="a_node10_13"><a xlink:href="http://www.w3.org/ns/prov#type" xlink:title="&lt;TABLE&gt;">
<text text-anchor="start" x="530" y="-582.5" font-family="Times,serif" font-size="10.00">prov:type</text>
</a>
</g>
<text text-anchor="start" x="605" y="-582.5" font-family="Times,serif" font-size="10.00">commit</text>
<g id="a_node10_14"><a xlink:href="gitlab2prov:id" xlink:title="&lt;TABLE&gt;">
<text text-anchor="start" x="530" y="-569.5" font-family="Times,serif" font-size="10.00">id</text>
</a>
</g>
<g id="a_node10_15"><a xlink:href="gitlab2prov:message" xlink:title="&lt;TABLE&gt;">
<text text-anchor="start" x="530" y="-556.5" font-family="Times,serif" font-size="10.00">message</text>
</a>
</g>
<g id="a_node10_16"><a xlink:href="http://www.w3.org/ns/prov#endedAt" xlink:title="&lt;TABLE&gt;">
<text text-anchor="start" x="530" y="-543.5" font-family="Times,serif" font-size="10.00">prov:endedAt</text>
</a>
</g>
<g id="a_node10_17"><a xlink:href="http://www.w3.org/ns/prov#startedAt" xlink:title="&lt;TABLE&gt;">
<text text-anchor="start" x="530" y="-530.5" font-family="Times,serif" font-size="10.00">prov:startedAt</text>
</a>
</g>
<g id="a_node10_18"><a xlink:href="gitlab2prov:short_id" xlink:title="&lt;TABLE&gt;">
<text text-anchor="start" x="530" y="-517.5" font-family="Times,serif" font-size="10.00">short_id</text>
</a>
</g>
<g id="a_node10_19"><a xlink:href="gitlab2prov:title" xlink:title="&lt;TABLE&gt;">
<text text-anchor="start" x="530" y="-504.5" font-family="Times,serif" font-size="10.00">title</text>
</a>
</g>
</g>
<!-- ann5&#45;&gt;n5 -->
<g id="edge5" class="edge">
<title>ann5&#45;&gt;n5</title>
<path fill="none" stroke="gray" stroke-dasharray="5,2" d="M561.64,-597.36C556.65,-606.97 551.3,-616.87 546,-626 542.57,-631.91 538.55,-638.2 534.85,-643.79"/>
</g>
<!-- n6 -->
<g id="node11" class="node">
<title>n6</title>
<g id="a_node11"><a xlink:href="gitlab2prov:Commit" xlink:title="Commit">
<ellipse fill="#fffc87" stroke="#808080" cx="388" cy="-424.5" rx="47.39" ry="18"/>
<text text-anchor="middle" x="388" y="-420.8" font-family="Times,serif" font-size="14.00">Commit</text>
</a>
</g>
</g>
<!-- n6&#45;&gt;n1 -->
<g id="edge11" class="edge">
<title>n6&#45;&gt;n1</title>
<path fill="none" stroke="#fed37f" d="M355.92,-437.84C329.55,-449.39 292.78,-468.95 269,-496 232.03,-538.06 211.99,-602.29 203.32,-636.9"/>
<polygon fill="#fed37f" stroke="#fed37f" points="199.82,-636.49 200.9,-647.03 206.63,-638.12 199.82,-636.49"/>
<text text-anchor="middle" x="311" y="-544" font-family="Times,serif" font-size="10.00">wasAttributedTo</text>
</g>
<!-- n6&#45;&gt;n3 -->
<g id="edge13" class="edge">
<title>n6&#45;&gt;n3</title>
<path fill="none" stroke="darkgreen" d="M394.21,-442.44C401.47,-462.25 413.59,-495.29 422.14,-518.62"/>
<polygon fill="darkgreen" stroke="darkgreen" points="418.95,-520.08 425.68,-528.26 425.52,-517.67 418.95,-520.08"/>
<text text-anchor="middle" x="451" y="-470" font-family="Times,serif" font-size="10.00" fill="darkgreen">wasGeneratedBy</text>
</g>
<!-- ann6 -->
<g id="node12" class="node">
<title>ann6</title>
<polygon fill="none" stroke="gray" points="541.5,-353 388.5,-353 388.5,-278 547.5,-278 547.5,-347 541.5,-353"/>
<polyline fill="none" stroke="gray" points="541.5,-353 541.5,-347 "/>
<polyline fill="none" stroke="gray" points="547.5,-347 541.5,-347 "/>
<g id="a_node12_20"><a xlink:href="http://www.w3.org/ns/prov#type" xlink:title="&lt;TABLE&gt;">
<text text-anchor="start" x="399" y="-338.5" font-family="Times,serif" font-size="10.00">prov:type</text>
</a>
</g>
<text text-anchor="start" x="450" y="-338.5" font-family="Times,serif" font-size="10.00">commit_resource</text>
<g id="a_node12_21"><a xlink:href="gitlab2prov:id" xlink:title="&lt;TABLE&gt;">
<text text-anchor="start" x="399" y="-325.5" font-family="Times,serif" font-size="10.00">id</text>
</a>
</g>
<g id="a_node12_22"><a xlink:href="gitlab2prov:message" xlink:title="&lt;TABLE&gt;">
<text text-anchor="start" x="399" y="-312.5" font-family="Times,serif" font-size="10.00">message</text>
</a>
</g>
<g id="a_node12_23"><a xlink:href="gitlab2prov:short_id" xlink:title="&lt;TABLE&gt;">
<text text-anchor="start" x="399" y="-299.5" font-family="Times,serif" font-size="10.00">short_id</text>
</a>
</g>
<g id="a_node12_24"><a xlink:href="gitlab2prov:title" xlink:title="&lt;TABLE&gt;">
<text text-anchor="start" x="399" y="-286.5" font-family="Times,serif" font-size="10.00">title</text>
</a>
</g>
</g>
<!-- ann6&#45;&gt;n6 -->
<g id="edge6" class="edge">
<title>ann6&#45;&gt;n6</title>
<path fill="none" stroke="gray" stroke-dasharray="5,2" d="M440.69,-353.02C427.02,-371.31 411.15,-392.54 400.42,-406.88"/>
</g>
<!-- n7&#45;&gt;n1 -->
<g id="edge12" class="edge">
<title>n7&#45;&gt;n1</title>
<path fill="none" stroke="#fed37f" d="M231.1,-333.7C214.66,-360.79 184.22,-415.61 173,-467 159.75,-527.7 178.2,-600.71 189.82,-637.45"/>
<polygon fill="#fed37f" stroke="#fed37f" points="186.58,-638.81 193.02,-647.22 193.23,-636.63 186.58,-638.81"/>
<text text-anchor="middle" x="215" y="-470" font-family="Times,serif" font-size="10.00">wasAttributedTo</text>
</g>
<!-- n7&#45;&gt;n3 -->
<g id="edge14" class="edge">
<title>n7&#45;&gt;n3</title>
<path fill="none" stroke="darkgreen" d="M236.75,-333.73C229.6,-360.84 220.24,-413.96 244,-449 274.53,-494.02 308.98,-470.46 357,-496 371.66,-503.8 387.1,-513.67 400.13,-522.54"/>
<polygon fill="darkgreen" stroke="darkgreen" points="398.51,-525.68 408.72,-528.48 402.49,-519.92 398.51,-525.68"/>
<text text-anchor="middle" x="288" y="-422" font-family="Times,serif" font-size="10.00" fill="darkgreen">wasGeneratedBy</text>
</g>
<!-- n7&#45;&gt;n6 -->
<g id="edge20" class="edge">
<title>n7&#45;&gt;n6</title>
<path fill="none" stroke="black" d="M244.85,-333.61C248.18,-348.39 255.11,-369.31 269,-382 288.93,-400.21 301.5,-391.14 327,-400 333.48,-402.25 340.31,-404.75 346.95,-407.26"/>
<polygon fill="black" stroke="black" points="345.9,-410.6 356.49,-410.9 348.39,-404.06 345.9,-410.6"/>
<text text-anchor="middle" x="310" y="-374" font-family="Times,serif" font-size="10.00">specializationOf</text>
</g>
<!-- ann7 -->
<g id="node14" class="node">
<title>ann7</title>
<polygon fill="none" stroke="gray" points="202.5,-224.5 7.5,-224.5 7.5,-188.5 208.5,-188.5 208.5,-218.5 202.5,-224.5"/>
<polyline fill="none" stroke="gray" points="202.5,-224.5 202.5,-218.5 "/>
<polyline fill="none" stroke="gray" points="208.5,-218.5 202.5,-218.5 "/>
<g id="a_node14_25"><a xlink:href="http://www.w3.org/ns/prov#type" xlink:title="&lt;TABLE&gt;">
<text text-anchor="start" x="18" y="-203.5" font-family="Times,serif" font-size="10.00">prov:type</text>
</a>
</g>
<text text-anchor="start" x="69" y="-203.5" font-family="Times,serif" font-size="10.00">commit_resource_version</text>
</g>
<!-- ann7&#45;&gt;n7 -->
<g id="edge7" class="edge">
<title>ann7&#45;&gt;n7</title>
<path fill="none" stroke="gray" stroke-dasharray="5,2" d="M129.53,-224.69C154.68,-244.78 196.03,-277.79 220.97,-297.7"/>
</g>
<!-- n8 -->
<g id="node15" class="node">
<title>n8</title>
<g id="a_node15"><a xlink:href="gitlab2prov:Annotated Commit Version" xlink:title="Annotated Commit Version">
<ellipse fill="#fffc87" stroke="#808080" cx="421" cy="-104" rx="135.68" ry="18"/>
<text text-anchor="middle" x="421" y="-100.3" font-family="Times,serif" font-size="14.00">Annotated Commit Version</text>
</a>
</g>
</g>
<!-- n8&#45;&gt;n2 -->
<g id="edge15" class="edge">
<title>n8&#45;&gt;n2</title>
<path fill="none" stroke="#fed37f" d="M521.01,-116.23C602.34,-127.66 707.76,-148.53 734,-182 758.62,-213.41 744.12,-262.71 732.07,-291.49"/>
<polygon fill="#fed37f" stroke="#fed37f" points="728.82,-290.19 727.97,-300.76 735.22,-293.02 728.82,-290.19"/>
<text text-anchor="middle" x="790" y="-204" font-family="Times,serif" font-size="10.00">wasAttributedTo</text>
</g>
<!-- n8&#45;&gt;n4 -->
<g id="edge19" class="edge">
<title>n8&#45;&gt;n4</title>
<path fill="none" stroke="darkgreen" d="M437.62,-122.05C453.39,-138.22 477.26,-162.69 495.07,-180.96"/>
<polygon fill="darkgreen" stroke="darkgreen" points="492.81,-183.65 502.29,-188.37 497.82,-178.76 492.81,-183.65"/>
<text text-anchor="middle" x="520" y="-156" font-family="Times,serif" font-size="10.00" fill="darkgreen">wasGeneratedBy</text>
</g>
<!-- n8&#45;&gt;n6 -->
<g id="edge21" class="edge">
<title>n8&#45;&gt;n6</title>
<path fill="none" stroke="black" d="M411.28,-122.02C396.91,-148.27 370.67,-200.67 361,-249 350.59,-301.03 366.6,-362.48 378.06,-396.82"/>
<polygon fill="black" stroke="black" points="374.86,-398.26 381.44,-406.57 381.47,-395.97 374.86,-398.26"/>
<text text-anchor="middle" x="402" y="-252" font-family="Times,serif" font-size="10.00">specializationOf</text>
</g>
<!-- n8&#45;&gt;n7 -->
<g id="edge22" class="edge">
<title>n8&#45;&gt;n7</title>
<path fill="none" stroke="black" d="M355.92,-119.83C321.64,-131.08 282.03,-150.23 259,-182 236.79,-212.63 235.98,-258.04 238.32,-286.95"/>
<polygon fill="black" stroke="black" points="234.86,-287.55 239.33,-297.15 241.83,-286.85 234.86,-287.55"/>
<text text-anchor="middle" x="303" y="-204" font-family="Times,serif" font-size="10.00">wasDerivedFrom</text>
</g>
<!-- ann8 -->
<g id="node16" class="node">
<title>ann8</title>
<polygon fill="none" stroke="gray" points="515.5,-36 320.5,-36 320.5,0 521.5,0 521.5,-30 515.5,-36"/>
<polyline fill="none" stroke="gray" points="515.5,-36 515.5,-30 "/>
<polyline fill="none" stroke="gray" points="521.5,-30 515.5,-30 "/>
<g id="a_node16_26"><a xlink:href="http://www.w3.org/ns/prov#type" xlink:title="&lt;TABLE&gt;">
<text text-anchor="start" x="331" y="-15" font-family="Times,serif" font-size="10.00">prov:type</text>
</a>
</g>
<text text-anchor="start" x="382" y="-15" font-family="Times,serif" font-size="10.00">commit_resource_version</text>
</g>
<!-- ann8&#45;&gt;n8 -->
<g id="edge8" class="edge">
<title>ann8&#45;&gt;n8</title>
<path fill="none" stroke="gray" stroke-dasharray="5,2" d="M421,-36.4C421,-50.92 421,-71.48 421,-85.9"/>
</g>
</g>
</svg>
