<?xml version="1.0" encoding="UTF-8" standalone="no"?>
<!DOCTYPE svg PUBLIC "-//W3C//DTD SVG 1.1//EN"
 "http://www.w3.org/Graphics/SVG/1.1/DTD/svg11.dtd">
<!-- Generated by graphviz version 2.43.0 (0)
 -->
<!-- Title: G Pages: 1 -->
<svg width="1268pt" height="681pt"
 viewBox="0.00 0.00 1267.50 681.00" xmlns="http://www.w3.org/2000/svg" xmlns:xlink="http://www.w3.org/1999/xlink">
<g id="graph0" class="graph" transform="scale(1 1) rotate(0) translate(4 677)">
<title>G</title>
<polygon fill="white" stroke="transparent" points="-4,4 -4,-677 1263.5,-677 1263.5,4 -4,4"/>
<!-- n1 -->
<g id="node1" class="node">
<title>n1</title>
<g id="a_node1"><a xlink:href="gitlab2prov:User" xlink:title="User">
<polygon fill="#fed37f" stroke="black" points="870.44,-660.56 829.5,-673 788.56,-660.56 788.59,-640.44 870.41,-640.44 870.44,-660.56"/>
<text text-anchor="middle" x="829.5" y="-651.3" font-family="Times,serif" font-size="14.00">User</text>
</a>
</g>
</g>
<!-- ann1 -->
<g id="node2" class="node">
<title>ann1</title>
<polygon fill="none" stroke="gray" points="519.5,-590 471.5,-590 471.5,-554 525.5,-554 525.5,-584 519.5,-590"/>
<polyline fill="none" stroke="gray" points="519.5,-590 519.5,-584 "/>
<polyline fill="none" stroke="gray" points="525.5,-584 519.5,-584 "/>
<g id="a_node2_0"><a xlink:href="gitlab2prov:email" xlink:title="&lt;TABLE&gt;">
<text text-anchor="start" x="483.5" y="-576" font-family="Times,serif" font-size="10.00">email</text>
</a>
</g>
<g id="a_node2_1"><a xlink:href="gitlab2prov:name" xlink:title="&lt;TABLE&gt;">
<text text-anchor="start" x="483.5" y="-563" font-family="Times,serif" font-size="10.00">name</text>
</a>
</g>
</g>
<!-- ann1&#45;&gt;n1 -->
<g id="edge1" class="edge">
<title>ann1&#45;&gt;n1</title>
<path fill="none" stroke="gray" stroke-dasharray="5,2" d="M512.04,-590.32C520.96,-600.43 533.56,-612.46 547.5,-619 589.32,-638.62 720.83,-648.26 788.46,-652.03"/>
</g>
<!-- n2 -->
<g id="node3" class="node">
<title>n2</title>
<g id="a_node3"><a xlink:href="gitlab2prov:Release_Event" xlink:title="Release_Event">
<polygon fill="#9fb1fc" stroke="#0000ff" points="785,-590 664,-590 664,-554 785,-554 785,-590"/>
<text text-anchor="middle" x="724.5" y="-568.3" font-family="Times,serif" font-size="14.00">Release_Event</text>
</a>
</g>
</g>
<!-- n2&#45;&gt;n1 -->
<g id="edge20" class="edge">
<title>n2&#45;&gt;n1</title>
<path fill="none" stroke="#fed37f" d="M716.25,-590.19C713.07,-599.53 711.47,-610.8 717.5,-619 731.52,-638.07 755.89,-647.04 778.32,-651.15"/>
<polygon fill="#fed37f" stroke="#fed37f" points="778.03,-654.65 788.45,-652.71 779.1,-647.73 778.03,-654.65"/>
<text text-anchor="middle" x="766.5" y="-611" font-family="Times,serif" font-size="10.00">wasAssociatedWith</text>
</g>
<!-- n3 -->
<g id="node4" class="node">
<title>n3</title>
<g id="a_node4"><a xlink:href="gitlab2prov:Tag_Event" xlink:title="Tag_Event">
<polygon fill="#9fb1fc" stroke="#0000ff" points="881,-536 790,-536 790,-500 881,-500 881,-536"/>
<text text-anchor="middle" x="835.5" y="-514.3" font-family="Times,serif" font-size="14.00">Tag_Event</text>
</a>
</g>
</g>
<!-- n3&#45;&gt;n1 -->
<g id="edge21" class="edge">
<title>n3&#45;&gt;n1</title>
<path fill="none" stroke="#fed37f" d="M834.74,-536.1C833.68,-559.92 831.76,-603.2 830.56,-630.17"/>
<polygon fill="#fed37f" stroke="#fed37f" points="827.06,-630.15 830.11,-640.3 834.05,-630.46 827.06,-630.15"/>
<text text-anchor="middle" x="882.5" y="-569.5" font-family="Times,serif" font-size="10.00">wasAssociatedWith</text>
</g>
<!-- n4 -->
<g id="node5" class="node">
<title>n4</title>
<g id="a_node5"><a xlink:href="gitlab2prov:Commit_Event" xlink:title="Commit_Event">
<polygon fill="#9fb1fc" stroke="#0000ff" points="1128.5,-428 1006.5,-428 1006.5,-392 1128.5,-392 1128.5,-428"/>
<text text-anchor="middle" x="1067.5" y="-406.3" font-family="Times,serif" font-size="14.00">Commit_Event</text>
</a>
</g>
</g>
<!-- n4&#45;&gt;n1 -->
<g id="edge19" class="edge">
<title>n4&#45;&gt;n1</title>
<path fill="none" stroke="#fed37f" d="M1066.47,-428.04C1064.39,-452.94 1058.25,-500.19 1040.5,-536 1018.94,-579.49 1010.78,-593.46 969.5,-619 942.75,-635.55 908.55,-644.29 880.65,-648.89"/>
<polygon fill="#fed37f" stroke="#fed37f" points="880.05,-645.45 870.69,-650.41 881.1,-652.37 880.05,-645.45"/>
<text text-anchor="middle" x="1102.5" y="-515.5" font-family="Times,serif" font-size="10.00">wasAssociatedWith</text>
</g>
<!-- n5 -->
<g id="node6" class="node">
<title>n5</title>
<g id="a_node6"><a xlink:href="gitlab2prov:Tag" xlink:title="Tag">
<ellipse fill="#fffc87" stroke="#808080" cx="952.5" cy="-310.5" rx="27.1" ry="18"/>
<text text-anchor="middle" x="952.5" y="-306.8" font-family="Times,serif" font-size="14.00">Tag</text>
</a>
</g>
</g>
<!-- n5&#45;&gt;n1 -->
<g id="edge23" class="edge">
<title>n5&#45;&gt;n1</title>
<path fill="none" stroke="#fed37f" d="M952.37,-328.53C951.82,-385.58 949.01,-567.67 935.5,-590 922.8,-610.99 900.36,-625.98 879.39,-636.15"/>
<polygon fill="#fed37f" stroke="#fed37f" points="877.84,-633.01 870.21,-640.36 880.76,-639.37 877.84,-633.01"/>
<text text-anchor="middle" x="988.5" y="-515.5" font-family="Times,serif" font-size="10.00">wasAttributedTo</text>
</g>
<!-- n5&#45;&gt;n3 -->
<g id="edge26" class="edge">
<title>n5&#45;&gt;n3</title>
<path fill="none" stroke="darkgreen" d="M931.54,-322.25C908.31,-335.36 871.74,-359.81 853.5,-392 836.3,-422.35 833.53,-463.25 833.89,-489.87"/>
<polygon fill="darkgreen" stroke="darkgreen" points="830.4,-490.1 834.19,-499.99 837.39,-489.89 830.4,-490.1"/>
<text text-anchor="middle" x="897.5" y="-407.5" font-family="Times,serif" font-size="10.00" fill="darkgreen">wasGeneratedBy</text>
</g>
<!-- n6 -->
<g id="node8" class="node">
<title>n6</title>
<g id="a_node8"><a xlink:href="gitlab2prov:Release" xlink:title="Release">
<ellipse fill="#fffc87" stroke="#808080" cx="561.5" cy="-464" rx="46.59" ry="18"/>
<text text-anchor="middle" x="561.5" y="-460.3" font-family="Times,serif" font-size="14.00">Release</text>
</a>
</g>
</g>
<!-- n5&#45;&gt;n6 -->
<g id="edge17" class="edge">
<title>n5&#45;&gt;n6</title>
<path fill="none" stroke="black" d="M929.5,-320.41C865.48,-345.22 684.54,-415.33 602.66,-447.05"/>
<polygon fill="black" stroke="black" points="601.24,-443.85 593.18,-450.73 603.77,-450.38 601.24,-443.85"/>
<text text-anchor="middle" x="765.5" y="-407.5" font-family="Times,serif" font-size="10.00">hadMember</text>
</g>
<!-- ann2 -->
<g id="node7" class="node">
<title>ann2</title>
<polygon fill="none" stroke="gray" points="1032.5,-200 866.5,-200 866.5,-125 1038.5,-125 1038.5,-194 1032.5,-200"/>
<polyline fill="none" stroke="gray" points="1032.5,-200 1032.5,-194 "/>
<polyline fill="none" stroke="gray" points="1038.5,-194 1032.5,-194 "/>
<g id="a_node7_2"><a xlink:href="http://www.w3.org/ns/prov#type" xlink:title="&lt;TABLE&gt;">
<text text-anchor="start" x="876.5" y="-185.5" font-family="Times,serif" font-size="10.00">prov:type</text>
</a>
</g>
<text text-anchor="start" x="951.5" y="-185.5" font-family="Times,serif" font-size="10.00">prov:Collection</text>
<g id="a_node7_3"><a xlink:href="gitlab2prov:commit" xlink:title="&lt;TABLE&gt;">
<text text-anchor="start" x="876.5" y="-172.5" font-family="Times,serif" font-size="10.00">commit</text>
</a>
</g>
<g id="a_node7_4"><a xlink:href="gitlab2prov:message" xlink:title="&lt;TABLE&gt;">
<text text-anchor="start" x="876.5" y="-159.5" font-family="Times,serif" font-size="10.00">message</text>
</a>
</g>
<g id="a_node7_5"><a xlink:href="gitlab2prov:name" xlink:title="&lt;TABLE&gt;">
<text text-anchor="start" x="876.5" y="-146.5" font-family="Times,serif" font-size="10.00">name</text>
</a>
</g>
<g id="a_node7_6"><a xlink:href="gitlab2prov:target_branch" xlink:title="&lt;TABLE&gt;">
<text text-anchor="start" x="876.5" y="-133.5" font-family="Times,serif" font-size="10.00">target_branch</text>
</a>
</g>
</g>
<!-- ann2&#45;&gt;n5 -->
<g id="edge2" class="edge">
<title>ann2&#45;&gt;n5</title>
<path fill="none" stroke="gray" stroke-dasharray="5,2" d="M952.5,-200.34C952.5,-229.74 952.5,-269.6 952.5,-292.12"/>
</g>
<!-- n6&#45;&gt;n1 -->
<g id="edge22" class="edge">
<title>n6&#45;&gt;n1</title>
<path fill="none" stroke="#fed37f" d="M557.19,-482.29C551.69,-508.8 545.72,-559.62 571.5,-590 597.92,-621.12 711.04,-639.8 778.41,-648.36"/>
<polygon fill="#fed37f" stroke="#fed37f" points="778.05,-651.84 788.41,-649.6 778.91,-644.9 778.05,-651.84"/>
<text text-anchor="middle" x="613.5" y="-569.5" font-family="Times,serif" font-size="10.00">wasAttributedTo</text>
</g>
<!-- n6&#45;&gt;n2 -->
<g id="edge25" class="edge">
<title>n6&#45;&gt;n2</title>
<path fill="none" stroke="darkgreen" d="M584.51,-479.96C611.86,-497.75 657.79,-527.62 689.55,-548.27"/>
<polygon fill="darkgreen" stroke="darkgreen" points="687.81,-551.31 698.1,-553.83 691.62,-545.44 687.81,-551.31"/>
<text text-anchor="middle" x="710.5" y="-515.5" font-family="Times,serif" font-size="10.00" fill="darkgreen">wasGeneratedBy</text>
</g>
<!-- ann3 -->
<g id="node9" class="node">
<title>ann3</title>
<polygon fill="none" stroke="gray" points="456,-374 277,-374 277,-247 462,-247 462,-368 456,-374"/>
<polyline fill="none" stroke="gray" points="456,-374 456,-368 "/>
<polyline fill="none" stroke="gray" points="462,-368 456,-368 "/>
<g id="a_node9_7"><a xlink:href="http://www.w3.org/ns/prov#type" xlink:title="&lt;TABLE&gt;">
<text text-anchor="start" x="287.5" y="-359.5" font-family="Times,serif" font-size="10.00">prov:type</text>
</a>
</g>
<text text-anchor="start" x="375.5" y="-359.5" font-family="Times,serif" font-size="10.00">prov:Collection</text>
<g id="a_node9_8"><a xlink:href="gitlab2prov:commit_path" xlink:title="&lt;TABLE&gt;">
<text text-anchor="start" x="287.5" y="-346.5" font-family="Times,serif" font-size="10.00">commit_path</text>
</a>
</g>
<g id="a_node9_9"><a xlink:href="gitlab2prov:created_at" xlink:title="&lt;TABLE&gt;">
<text text-anchor="start" x="287.5" y="-333.5" font-family="Times,serif" font-size="10.00">created_at</text>
</a>
</g>
<g id="a_node9_10"><a xlink:href="gitlab2prov:description" xlink:title="&lt;TABLE&gt;">
<text text-anchor="start" x="287.5" y="-320.5" font-family="Times,serif" font-size="10.00">description</text>
</a>
</g>
<g id="a_node9_11"><a xlink:href="gitlab2prov:description_html" xlink:title="&lt;TABLE&gt;">
<text text-anchor="start" x="287.5" y="-307.5" font-family="Times,serif" font-size="10.00">description_html</text>
</a>
</g>
<g id="a_node9_12"><a xlink:href="gitlab2prov:name" xlink:title="&lt;TABLE&gt;">
<text text-anchor="start" x="287.5" y="-294.5" font-family="Times,serif" font-size="10.00">name</text>
</a>
</g>
<g id="a_node9_13"><a xlink:href="gitlab2prov:released_at" xlink:title="&lt;TABLE&gt;">
<text text-anchor="start" x="287.5" y="-281.5" font-family="Times,serif" font-size="10.00">released_at</text>
</a>
</g>
<g id="a_node9_14"><a xlink:href="gitlab2prov:tag_name" xlink:title="&lt;TABLE&gt;">
<text text-anchor="start" x="287.5" y="-268.5" font-family="Times,serif" font-size="10.00">tag_name</text>
</a>
</g>
<g id="a_node9_15"><a xlink:href="gitlab2prov:tag_path" xlink:title="&lt;TABLE&gt;">
<text text-anchor="start" x="287.5" y="-255.5" font-family="Times,serif" font-size="10.00">tag_path</text>
</a>
</g>
</g>
<!-- ann3&#45;&gt;n6 -->
<g id="edge3" class="edge">
<title>ann3&#45;&gt;n6</title>
<path fill="none" stroke="gray" stroke-dasharray="5,2" d="M448.98,-374.21C483.02,-401.08 519.93,-430.2 541.86,-447.5"/>
</g>
<!-- n7 -->
<g id="node10" class="node">
<title>n7</title>
<g id="a_node10"><a xlink:href="gitlab2prov:Commit" xlink:title="Commit">
<ellipse fill="#fffc87" stroke="#808080" cx="1103.5" cy="-162.5" rx="47.39" ry="18"/>
<text text-anchor="middle" x="1103.5" y="-158.8" font-family="Times,serif" font-size="14.00">Commit</text>
</a>
</g>
</g>
<!-- n7&#45;&gt;n1 -->
<g id="edge24" class="edge">
<title>n7&#45;&gt;n1</title>
<path fill="none" stroke="#fed37f" d="M1125.74,-178.56C1138.31,-188.3 1153.14,-202.1 1161.5,-218 1180.65,-254.41 1175.5,-268.36 1175.5,-309.5 1175.5,-309.5 1175.5,-309.5 1175.5,-573 1175.5,-632.82 976.94,-648.49 880.65,-652.57"/>
<polygon fill="#fed37f" stroke="#fed37f" points="880.4,-649.08 870.55,-652.98 880.68,-656.08 880.4,-649.08"/>
<text text-anchor="middle" x="1217.5" y="-461.5" font-family="Times,serif" font-size="10.00">wasAttributedTo</text>
</g>
<!-- n7&#45;&gt;n4 -->
<g id="edge27" class="edge">
<title>n7&#45;&gt;n4</title>
<path fill="none" stroke="darkgreen" d="M1091.55,-180.27C1084.89,-190.62 1077.21,-204.46 1073.5,-218 1058.03,-274.5 1061.04,-343.92 1064.41,-381.57"/>
<polygon fill="darkgreen" stroke="darkgreen" points="1060.94,-382.13 1065.39,-391.74 1067.91,-381.45 1060.94,-382.13"/>
<text text-anchor="middle" x="1117.5" y="-221" font-family="Times,serif" font-size="10.00" fill="darkgreen">wasGeneratedBy</text>
</g>
<!-- n7&#45;&gt;n5 -->
<g id="edge18" class="edge">
<title>n7&#45;&gt;n5</title>
<path fill="none" stroke="black" d="M1083.07,-178.88C1072.8,-186.06 1059.93,-194.26 1047.5,-200 1021.83,-211.84 1007.16,-198.71 986.5,-218 968.46,-234.84 959.94,-262.13 955.95,-282.53"/>
<polygon fill="black" stroke="black" points="952.49,-282.03 954.25,-292.48 959.39,-283.21 952.49,-282.03"/>
<text text-anchor="middle" x="1018.5" y="-221" font-family="Times,serif" font-size="10.00">hadMember</text>
</g>
<!-- ann4 -->
<g id="node11" class="node">
<title>ann4</title>
<polygon fill="none" stroke="gray" points="1135.5,-88 1065.5,-88 1065.5,0 1141.5,0 1141.5,-82 1135.5,-88"/>
<polyline fill="none" stroke="gray" points="1135.5,-88 1135.5,-82 "/>
<polyline fill="none" stroke="gray" points="1141.5,-82 1135.5,-82 "/>
<g id="a_node11_16"><a xlink:href="gitlab2prov:created_at" xlink:title="&lt;TABLE&gt;">
<text text-anchor="start" x="1075.5" y="-74" font-family="Times,serif" font-size="10.00">created_at</text>
</a>
</g>
<g id="a_node11_17"><a xlink:href="gitlab2prov:id" xlink:title="&lt;TABLE&gt;">
<text text-anchor="start" x="1075.5" y="-61" font-family="Times,serif" font-size="10.00">id</text>
</a>
</g>
<g id="a_node11_18"><a xlink:href="gitlab2prov:message" xlink:title="&lt;TABLE&gt;">
<text text-anchor="start" x="1075.5" y="-48" font-family="Times,serif" font-size="10.00">message</text>
</a>
</g>
<g id="a_node11_19"><a xlink:href="gitlab2prov:short_id" xlink:title="&lt;TABLE&gt;">
<text text-anchor="start" x="1075.5" y="-35" font-family="Times,serif" font-size="10.00">short_id</text>
</a>
</g>
<g id="a_node11_20"><a xlink:href="gitlab2prov:title" xlink:title="&lt;TABLE&gt;">
<text text-anchor="start" x="1075.5" y="-22" font-family="Times,serif" font-size="10.00">title</text>
</a>
</g>
<g id="a_node11_21"><a xlink:href="gitlab2prov:web_url" xlink:title="&lt;TABLE&gt;">
<text text-anchor="start" x="1075.5" y="-9" font-family="Times,serif" font-size="10.00">web_url</text>
</a>
</g>
</g>
<!-- ann4&#45;&gt;n7 -->
<g id="edge4" class="edge">
<title>ann4&#45;&gt;n7</title>
<path fill="none" stroke="gray" stroke-dasharray="5,2" d="M1103.5,-88.05C1103.5,-107.62 1103.5,-129.66 1103.5,-144.45"/>
</g>
<!-- n8 -->
<g id="node12" class="node">
<title>n8</title>
<g id="a_node12"><a xlink:href="gitlab2prov:Release_Evidence" xlink:title="Release_Evidence">
<ellipse fill="#fffc87" stroke="#808080" cx="99.5" cy="-310.5" rx="93.68" ry="18"/>
<text text-anchor="middle" x="99.5" y="-306.8" font-family="Times,serif" font-size="14.00">Release_Evidence</text>
</a>
</g>
</g>
<!-- n8&#45;&gt;n6 -->
<g id="edge16" class="edge">
<title>n8&#45;&gt;n6</title>
<path fill="none" stroke="black" d="M136.17,-327.11C193.64,-351.14 308.77,-397.62 409.5,-428 442.66,-438 480.64,-446.75 510.33,-452.99"/>
<polygon fill="black" stroke="black" points="509.97,-456.49 520.47,-455.1 511.39,-449.64 509.97,-456.49"/>
<text text-anchor="middle" x="441.5" y="-407.5" font-family="Times,serif" font-size="10.00">hadMember</text>
</g>
<!-- ann5 -->
<g id="node13" class="node">
<title>ann5</title>
<polygon fill="none" stroke="gray" points="77,-187 0,-187 0,-138 83,-138 83,-181 77,-187"/>
<polyline fill="none" stroke="gray" points="77,-187 77,-181 "/>
<polyline fill="none" stroke="gray" points="83,-181 77,-181 "/>
<g id="a_node13_22"><a xlink:href="gitlab2prov:collected_at" xlink:title="&lt;TABLE&gt;">
<text text-anchor="start" x="10.5" y="-172.5" font-family="Times,serif" font-size="10.00">collected_at</text>
</a>
</g>
<g id="a_node13_23"><a xlink:href="gitlab2prov:filepath" xlink:title="&lt;TABLE&gt;">
<text text-anchor="start" x="10.5" y="-159.5" font-family="Times,serif" font-size="10.00">filepath</text>
</a>
</g>
<g id="a_node13_24"><a xlink:href="gitlab2prov:sha" xlink:title="&lt;TABLE&gt;">
<text text-anchor="start" x="10.5" y="-146.5" font-family="Times,serif" font-size="10.00">sha</text>
</a>
</g>
</g>
<!-- ann5&#45;&gt;n8 -->
<g id="edge5" class="edge">
<title>ann5&#45;&gt;n8</title>
<path fill="none" stroke="gray" stroke-dasharray="5,2" d="M50.95,-187.28C62.63,-216.69 82.24,-266.06 92.6,-292.14"/>
</g>
<!-- n9 -->
<g id="node14" class="node">
<title>n9</title>
<g id="a_node14"><a xlink:href="gitlab2prov:Release_Assets" xlink:title="Release_Assets">
<ellipse fill="#fffc87" stroke="#808080" cx="561.5" cy="-310.5" rx="81.49" ry="18"/>
<text text-anchor="middle" x="561.5" y="-306.8" font-family="Times,serif" font-size="14.00">Release_Assets</text>
</a>
</g>
</g>
<!-- n9&#45;&gt;n6 -->
<g id="edge15" class="edge">
<title>n9&#45;&gt;n6</title>
<path fill="none" stroke="black" d="M561.5,-328.58C561.5,-354.61 561.5,-404.45 561.5,-435.58"/>
<polygon fill="black" stroke="black" points="558,-435.75 561.5,-445.75 565,-435.75 558,-435.75"/>
<text text-anchor="middle" x="593.5" y="-407.5" font-family="Times,serif" font-size="10.00">hadMember</text>
</g>
<!-- ann6 -->
<g id="node15" class="node">
<title>ann6</title>
<polygon fill="none" stroke="gray" points="842.5,-180.5 700.5,-180.5 700.5,-144.5 848.5,-144.5 848.5,-174.5 842.5,-180.5"/>
<polyline fill="none" stroke="gray" points="842.5,-180.5 842.5,-174.5 "/>
<polyline fill="none" stroke="gray" points="848.5,-174.5 842.5,-174.5 "/>
<g id="a_node15_25"><a xlink:href="http://www.w3.org/ns/prov#type" xlink:title="&lt;TABLE&gt;">
<text text-anchor="start" x="710.5" y="-166.5" font-family="Times,serif" font-size="10.00">prov:type</text>
</a>
</g>
<text text-anchor="start" x="761.5" y="-166.5" font-family="Times,serif" font-size="10.00">prov:Collection</text>
<g id="a_node15_26"><a xlink:href="gitlab2prov:count" xlink:title="&lt;TABLE&gt;">
<text text-anchor="start" x="710.5" y="-153.5" font-family="Times,serif" font-size="10.00">count</text>
</a>
</g>
</g>
<!-- ann6&#45;&gt;n9 -->
<g id="edge6" class="edge">
<title>ann6&#45;&gt;n9</title>
<path fill="none" stroke="gray" stroke-dasharray="5,2" d="M749.65,-180.53C708.28,-208.89 625.82,-265.41 585.22,-293.24"/>
</g>
<!-- n10 -->
<g id="node16" class="node">
<title>n10</title>
<g id="a_node16"><a xlink:href="gitlab2prov:source.zip" xlink:title="source.zip">
<ellipse fill="#fffc87" stroke="#808080" cx="158.5" cy="-162.5" rx="57.69" ry="18"/>
<text text-anchor="middle" x="158.5" y="-158.8" font-family="Times,serif" font-size="14.00">source.zip</text>
</a>
</g>
</g>
<!-- n10&#45;&gt;n9 -->
<g id="edge11" class="edge">
<title>n10&#45;&gt;n9</title>
<path fill="none" stroke="black" d="M183.62,-178.91C195.93,-186.01 211.15,-194.14 225.5,-200 269.13,-217.83 281.32,-219.59 327.5,-229 390.27,-241.8 410.63,-224.22 470.5,-247 494.36,-256.08 518.03,-272.63 535.24,-286.42"/>
<polygon fill="black" stroke="black" points="533.2,-289.27 543.15,-292.92 537.65,-283.87 533.2,-289.27"/>
<text text-anchor="middle" x="359.5" y="-221" font-family="Times,serif" font-size="10.00">hadMember</text>
</g>
<!-- ann7 -->
<g id="node17" class="node">
<title>ann7</title>
<polygon fill="none" stroke="gray" points="180.5,-62 130.5,-62 130.5,-26 186.5,-26 186.5,-56 180.5,-62"/>
<polyline fill="none" stroke="gray" points="180.5,-62 180.5,-56 "/>
<polyline fill="none" stroke="gray" points="186.5,-56 180.5,-56 "/>
<g id="a_node17_27"><a xlink:href="gitlab2prov:format" xlink:title="&lt;TABLE&gt;">
<text text-anchor="start" x="140.5" y="-48" font-family="Times,serif" font-size="10.00">format</text>
</a>
</g>
<g id="a_node17_28"><a xlink:href="gitlab2prov:url" xlink:title="&lt;TABLE&gt;">
<text text-anchor="start" x="140.5" y="-35" font-family="Times,serif" font-size="10.00">url</text>
</a>
</g>
</g>
<!-- ann7&#45;&gt;n10 -->
<g id="edge7" class="edge">
<title>ann7&#45;&gt;n10</title>
<path fill="none" stroke="gray" stroke-dasharray="5,2" d="M158.5,-62.19C158.5,-84.22 158.5,-122.18 158.5,-144.24"/>
</g>
<!-- n11 -->
<g id="node18" class="node">
<title>n11</title>
<g id="a_node18"><a xlink:href="gitlab2prov:source.tar" xlink:title="source.tar">
<ellipse fill="#fffc87" stroke="#808080" cx="292.5" cy="-162.5" rx="57.69" ry="18"/>
<text text-anchor="middle" x="292.5" y="-158.8" font-family="Times,serif" font-size="14.00">source.tar</text>
</a>
</g>
</g>
<!-- n11&#45;&gt;n9 -->
<g id="edge12" class="edge">
<title>n11&#45;&gt;n9</title>
<path fill="none" stroke="black" d="M319.42,-178.5C331.6,-185.2 346.21,-193.12 359.5,-200 385.45,-213.44 391.53,-217.76 418.5,-229 441.07,-238.41 448.67,-235.98 470.5,-247 492.55,-258.13 515.47,-273.9 532.79,-286.82"/>
<polygon fill="black" stroke="black" points="530.73,-289.64 540.81,-292.89 534.96,-284.06 530.73,-289.64"/>
<text text-anchor="middle" x="450.5" y="-221" font-family="Times,serif" font-size="10.00">hadMember</text>
</g>
<!-- ann8 -->
<g id="node19" class="node">
<title>ann8</title>
<polygon fill="none" stroke="gray" points="314.5,-62 264.5,-62 264.5,-26 320.5,-26 320.5,-56 314.5,-62"/>
<polyline fill="none" stroke="gray" points="314.5,-62 314.5,-56 "/>
<polyline fill="none" stroke="gray" points="320.5,-56 314.5,-56 "/>
<g id="a_node19_29"><a xlink:href="gitlab2prov:format" xlink:title="&lt;TABLE&gt;">
<text text-anchor="start" x="274.5" y="-48" font-family="Times,serif" font-size="10.00">format</text>
</a>
</g>
<g id="a_node19_30"><a xlink:href="gitlab2prov:url" xlink:title="&lt;TABLE&gt;">
<text text-anchor="start" x="274.5" y="-35" font-family="Times,serif" font-size="10.00">url</text>
</a>
</g>
</g>
<!-- ann8&#45;&gt;n11 -->
<g id="edge8" class="edge">
<title>ann8&#45;&gt;n11</title>
<path fill="none" stroke="gray" stroke-dasharray="5,2" d="M292.5,-62.19C292.5,-84.22 292.5,-122.18 292.5,-144.24"/>
</g>
<!-- n12 -->
<g id="node20" class="node">
<title>n12</title>
<g id="a_node20"><a xlink:href="gitlab2prov:source.tar.gz" xlink:title="source.tar.gz">
<ellipse fill="#fffc87" stroke="#808080" cx="439.5" cy="-162.5" rx="70.69" ry="18"/>
<text text-anchor="middle" x="439.5" y="-158.8" font-family="Times,serif" font-size="14.00">source.tar.gz</text>
</a>
</g>
</g>
<!-- n12&#45;&gt;n9 -->
<g id="edge13" class="edge">
<title>n12&#45;&gt;n9</title>
<path fill="none" stroke="black" d="M453.49,-180.25C474.89,-205.85 515.87,-254.89 540.73,-284.65"/>
<polygon fill="black" stroke="black" points="538.19,-287.07 547.29,-292.5 543.57,-282.58 538.19,-287.07"/>
<text text-anchor="middle" x="525.5" y="-221" font-family="Times,serif" font-size="10.00">hadMember</text>
</g>
<!-- ann9 -->
<g id="node21" class="node">
<title>ann9</title>
<polygon fill="none" stroke="gray" points="461.5,-62 411.5,-62 411.5,-26 467.5,-26 467.5,-56 461.5,-62"/>
<polyline fill="none" stroke="gray" points="461.5,-62 461.5,-56 "/>
<polyline fill="none" stroke="gray" points="467.5,-56 461.5,-56 "/>
<g id="a_node21_31"><a xlink:href="gitlab2prov:format" xlink:title="&lt;TABLE&gt;">
<text text-anchor="start" x="421.5" y="-48" font-family="Times,serif" font-size="10.00">format</text>
</a>
</g>
<g id="a_node21_32"><a xlink:href="gitlab2prov:url" xlink:title="&lt;TABLE&gt;">
<text text-anchor="start" x="421.5" y="-35" font-family="Times,serif" font-size="10.00">url</text>
</a>
</g>
</g>
<!-- ann9&#45;&gt;n12 -->
<g id="edge9" class="edge">
<title>ann9&#45;&gt;n12</title>
<path fill="none" stroke="gray" stroke-dasharray="5,2" d="M439.5,-62.19C439.5,-84.22 439.5,-122.18 439.5,-144.24"/>
</g>
<!-- n13 -->
<g id="node22" class="node">
<title>n13</title>
<g id="a_node22"><a xlink:href="gitlab2prov:source.tar.bz2" xlink:title="source.tar.bz2">
<ellipse fill="#fffc87" stroke="#808080" cx="605.5" cy="-162.5" rx="76.89" ry="18"/>
<text text-anchor="middle" x="605.5" y="-158.8" font-family="Times,serif" font-size="14.00">source.tar.bz2</text>
</a>
</g>
</g>
<!-- n13&#45;&gt;n9 -->
<g id="edge14" class="edge">
<title>n13&#45;&gt;n9</title>
<path fill="none" stroke="black" d="M600.37,-180.53C592.82,-205.56 578.67,-252.54 569.68,-282.35"/>
<polygon fill="black" stroke="black" points="566.27,-281.54 566.74,-292.12 572.97,-283.56 566.27,-281.54"/>
<text text-anchor="middle" x="621.5" y="-221" font-family="Times,serif" font-size="10.00">hadMember</text>
</g>
<!-- ann10 -->
<g id="node23" class="node">
<title>ann10</title>
<polygon fill="none" stroke="gray" points="627.5,-62 577.5,-62 577.5,-26 633.5,-26 633.5,-56 627.5,-62"/>
<polyline fill="none" stroke="gray" points="627.5,-62 627.5,-56 "/>
<polyline fill="none" stroke="gray" points="633.5,-56 627.5,-56 "/>
<g id="a_node23_33"><a xlink:href="gitlab2prov:format" xlink:title="&lt;TABLE&gt;">
<text text-anchor="start" x="587.5" y="-48" font-family="Times,serif" font-size="10.00">format</text>
</a>
</g>
<g id="a_node23_34"><a xlink:href="gitlab2prov:url" xlink:title="&lt;TABLE&gt;">
<text text-anchor="start" x="587.5" y="-35" font-family="Times,serif" font-size="10.00">url</text>
</a>
</g>
</g>
<!-- ann10&#45;&gt;n13 -->
<g id="edge10" class="edge">
<title>ann10&#45;&gt;n13</title>
<path fill="none" stroke="gray" stroke-dasharray="5,2" d="M605.5,-62.19C605.5,-84.22 605.5,-122.18 605.5,-144.24"/>
</g>
</g>
</svg>
