<?xml version="1.0" encoding="UTF-8" standalone="no"?>
<!DOCTYPE svg PUBLIC "-//W3C//DTD SVG 1.1//EN"
 "http://www.w3.org/Graphics/SVG/1.1/DTD/svg11.dtd">
<!-- Generated by graphviz version 2.43.0 (0)
 -->
<!-- Title: G Pages: 1 -->
<svg width="993pt" height="681pt"
 viewBox="0.00 0.00 992.59 681.00" xmlns="http://www.w3.org/2000/svg" xmlns:xlink="http://www.w3.org/1999/xlink">
<g id="graph0" class="graph" transform="scale(1 1) rotate(0) translate(4 677)">
<title>G</title>
<polygon fill="white" stroke="transparent" points="-4,4 -4,-677 988.59,-677 988.59,4 -4,4"/>
<!-- n1 -->
<g id="node1" class="node">
<title>n1</title>
<g id="a_node1"><a xlink:href="gitlab2prov:User" xlink:title="User">
<polygon fill="#fed37f" stroke="black" points="595.54,-660.56 554.59,-673 513.65,-660.56 513.69,-640.44 595.5,-640.44 595.54,-660.56"/>
<text text-anchor="middle" x="554.59" y="-651.3" font-family="Times,serif" font-size="14.00">User</text>
</a>
</g>
</g>
<!-- ann1 -->
<g id="node2" class="node">
<title>ann1</title>
<polygon fill="none" stroke="gray" points="252.59,-590 204.59,-590 204.59,-554 258.59,-554 258.59,-584 252.59,-590"/>
<polyline fill="none" stroke="gray" points="252.59,-590 252.59,-584 "/>
<polyline fill="none" stroke="gray" points="258.59,-584 252.59,-584 "/>
<g id="a_node2_0"><a xlink:href="gitlab2prov:email" xlink:title="&lt;TABLE&gt;">
<text text-anchor="start" x="216.59" y="-576" font-family="Times,serif" font-size="10.00">email</text>
</a>
</g>
<g id="a_node2_1"><a xlink:href="gitlab2prov:name" xlink:title="&lt;TABLE&gt;">
<text text-anchor="start" x="216.59" y="-563" font-family="Times,serif" font-size="10.00">name</text>
</a>
</g>
</g>
<!-- ann1&#45;&gt;n1 -->
<g id="edge1" class="edge">
<title>ann1&#45;&gt;n1</title>
<path fill="none" stroke="gray" stroke-dasharray="5,2" d="M245.14,-590.3C254.07,-600.41 266.66,-612.43 280.59,-619 320.99,-638.04 447.64,-647.9 513.65,-651.86"/>
</g>
<!-- n2 -->
<g id="node3" class="node">
<title>n2</title>
<g id="a_node3"><a xlink:href="gitlab2prov:Release_Event" xlink:title="Release_Event">
<polygon fill="#9fb1fc" stroke="#0000ff" points="518.09,-590 397.09,-590 397.09,-554 518.09,-554 518.09,-590"/>
<text text-anchor="middle" x="457.59" y="-568.3" font-family="Times,serif" font-size="14.00">Release_Event</text>
</a>
</g>
</g>
<!-- n2&#45;&gt;n1 -->
<g id="edge12" class="edge">
<title>n2&#45;&gt;n1</title>
<path fill="none" stroke="#fed37f" d="M444.82,-590.38C439.75,-599.55 436.42,-610.61 442.59,-619 456.61,-638.07 480.98,-647.04 503.42,-651.15"/>
<polygon fill="#fed37f" stroke="#fed37f" points="503.13,-654.65 513.54,-652.71 504.19,-647.73 503.13,-654.65"/>
<text text-anchor="middle" x="491.59" y="-611" font-family="Times,serif" font-size="10.00">wasAssociatedWith</text>
</g>
<!-- n3 -->
<g id="node4" class="node">
<title>n3</title>
<g id="a_node4"><a xlink:href="gitlab2prov:Tag_Event" xlink:title="Tag_Event">
<polygon fill="#9fb1fc" stroke="#0000ff" points="611.09,-536 520.09,-536 520.09,-500 611.09,-500 611.09,-536"/>
<text text-anchor="middle" x="565.59" y="-514.3" font-family="Times,serif" font-size="14.00">Tag_Event</text>
</a>
</g>
</g>
<!-- n3&#45;&gt;n1 -->
<g id="edge13" class="edge">
<title>n3&#45;&gt;n1</title>
<path fill="none" stroke="#fed37f" d="M564.2,-536.1C562.26,-559.92 558.73,-603.2 556.53,-630.17"/>
<polygon fill="#fed37f" stroke="#fed37f" points="553.03,-630.05 555.71,-640.3 560.01,-630.62 553.03,-630.05"/>
<text text-anchor="middle" x="611.59" y="-569.5" font-family="Times,serif" font-size="10.00">wasAssociatedWith</text>
</g>
<!-- n4 -->
<g id="node5" class="node">
<title>n4</title>
<g id="a_node5"><a xlink:href="gitlab2prov:Commit_Event" xlink:title="Commit_Event">
<polygon fill="#9fb1fc" stroke="#0000ff" points="848.59,-428 726.59,-428 726.59,-392 848.59,-392 848.59,-428"/>
<text text-anchor="middle" x="787.59" y="-406.3" font-family="Times,serif" font-size="14.00">Commit_Event</text>
</a>
</g>
</g>
<!-- n4&#45;&gt;n1 -->
<g id="edge11" class="edge">
<title>n4&#45;&gt;n1</title>
<path fill="none" stroke="#fed37f" d="M787.4,-428.03C786.52,-452.9 782.52,-500.13 765.59,-536 744.87,-579.9 735.87,-593.46 694.59,-619 667.84,-635.55 633.64,-644.29 605.75,-648.89"/>
<polygon fill="#fed37f" stroke="#fed37f" points="605.14,-645.45 595.78,-650.41 606.19,-652.37 605.14,-645.45"/>
<text text-anchor="middle" x="826.59" y="-515.5" font-family="Times,serif" font-size="10.00">wasAssociatedWith</text>
</g>
<!-- n5 -->
<g id="node6" class="node">
<title>n5</title>
<g id="a_node6"><a xlink:href="gitlab2prov:Tag" xlink:title="Tag">
<ellipse fill="#fffc87" stroke="#808080" cx="616.59" cy="-310.5" rx="27.1" ry="18"/>
<text text-anchor="middle" x="616.59" y="-306.8" font-family="Times,serif" font-size="14.00">Tag</text>
</a>
</g>
</g>
<!-- n5&#45;&gt;n1 -->
<g id="edge15" class="edge">
<title>n5&#45;&gt;n1</title>
<path fill="none" stroke="#fed37f" d="M629.6,-326.58C641.87,-341.88 659.42,-366.84 666.59,-392 669.92,-403.68 678.87,-565.53 664.59,-590 651.54,-612.38 627.37,-627.68 605,-637.7"/>
<polygon fill="#fed37f" stroke="#fed37f" points="603.42,-634.57 595.56,-641.67 606.14,-641.02 603.42,-634.57"/>
<text text-anchor="middle" x="713.59" y="-515.5" font-family="Times,serif" font-size="10.00">wasAttributedTo</text>
</g>
<!-- n5&#45;&gt;n3 -->
<g id="edge18" class="edge">
<title>n5&#45;&gt;n3</title>
<path fill="none" stroke="darkgreen" d="M607.04,-327.52C598.1,-343.33 585.16,-368.48 578.59,-392 569.45,-424.73 566.62,-463.9 565.81,-489.56"/>
<polygon fill="darkgreen" stroke="darkgreen" points="562.3,-489.6 565.57,-499.68 569.3,-489.76 562.3,-489.6"/>
<text text-anchor="middle" x="622.59" y="-407.5" font-family="Times,serif" font-size="10.00" fill="darkgreen">wasGeneratedBy</text>
</g>
<!-- n6 -->
<g id="node8" class="node">
<title>n6</title>
<g id="a_node8"><a xlink:href="gitlab2prov:Release" xlink:title="Release">
<ellipse fill="#fffc87" stroke="#808080" cx="366.59" cy="-464" rx="46.59" ry="18"/>
<text text-anchor="middle" x="366.59" y="-460.3" font-family="Times,serif" font-size="14.00">Release</text>
</a>
</g>
</g>
<!-- n5&#45;&gt;n6 -->
<g id="edge9" class="edge">
<title>n5&#45;&gt;n6</title>
<path fill="none" stroke="black" d="M608.77,-327.94C601.07,-342.32 587.94,-362.63 570.59,-374 540.47,-393.74 524.61,-377.63 491.59,-392 465.48,-403.36 463.24,-413.74 438.59,-428 428.08,-434.08 416.35,-440.09 405.46,-445.37"/>
<polygon fill="black" stroke="black" points="403.69,-442.34 396.17,-449.8 406.7,-448.66 403.69,-442.34"/>
<text text-anchor="middle" x="523.59" y="-407.5" font-family="Times,serif" font-size="10.00">hadMember</text>
</g>
<!-- ann2 -->
<g id="node7" class="node">
<title>ann2</title>
<polygon fill="none" stroke="gray" points="696.59,-200 530.59,-200 530.59,-125 702.59,-125 702.59,-194 696.59,-200"/>
<polyline fill="none" stroke="gray" points="696.59,-200 696.59,-194 "/>
<polyline fill="none" stroke="gray" points="702.59,-194 696.59,-194 "/>
<g id="a_node7_2"><a xlink:href="http://www.w3.org/ns/prov#type" xlink:title="&lt;TABLE&gt;">
<text text-anchor="start" x="540.59" y="-185.5" font-family="Times,serif" font-size="10.00">prov:type</text>
</a>
</g>
<text text-anchor="start" x="615.59" y="-185.5" font-family="Times,serif" font-size="10.00">prov:Collection</text>
<g id="a_node7_3"><a xlink:href="gitlab2prov:commit" xlink:title="&lt;TABLE&gt;">
<text text-anchor="start" x="540.59" y="-172.5" font-family="Times,serif" font-size="10.00">commit</text>
</a>
</g>
<g id="a_node7_4"><a xlink:href="gitlab2prov:message" xlink:title="&lt;TABLE&gt;">
<text text-anchor="start" x="540.59" y="-159.5" font-family="Times,serif" font-size="10.00">message</text>
</a>
</g>
<g id="a_node7_5"><a xlink:href="gitlab2prov:name" xlink:title="&lt;TABLE&gt;">
<text text-anchor="start" x="540.59" y="-146.5" font-family="Times,serif" font-size="10.00">name</text>
</a>
</g>
<g id="a_node7_6"><a xlink:href="gitlab2prov:target_branch" xlink:title="&lt;TABLE&gt;">
<text text-anchor="start" x="540.59" y="-133.5" font-family="Times,serif" font-size="10.00">target_branch</text>
</a>
</g>
</g>
<!-- ann2&#45;&gt;n5 -->
<g id="edge2" class="edge">
<title>ann2&#45;&gt;n5</title>
<path fill="none" stroke="gray" stroke-dasharray="5,2" d="M616.59,-200.34C616.59,-229.74 616.59,-269.6 616.59,-292.12"/>
</g>
<!-- n6&#45;&gt;n1 -->
<g id="edge14" class="edge">
<title>n6&#45;&gt;n1</title>
<path fill="none" stroke="#fed37f" d="M348.15,-480.75C321.25,-505.62 277.26,-554.79 304.59,-590 328.71,-621.07 437.38,-639.63 503.25,-648.22"/>
<polygon fill="#fed37f" stroke="#fed37f" points="503.07,-651.73 513.43,-649.52 503.95,-644.78 503.07,-651.73"/>
<text text-anchor="middle" x="346.59" y="-569.5" font-family="Times,serif" font-size="10.00">wasAttributedTo</text>
</g>
<!-- n6&#45;&gt;n2 -->
<g id="edge17" class="edge">
<title>n6&#45;&gt;n2</title>
<path fill="none" stroke="darkgreen" d="M379.07,-481.43C390.35,-496.06 407.58,-517.88 423.59,-536 426.64,-539.45 429.93,-543.01 433.21,-546.48"/>
<polygon fill="darkgreen" stroke="darkgreen" points="430.86,-549.08 440.31,-553.86 435.9,-544.23 430.86,-549.08"/>
<text text-anchor="middle" x="467.59" y="-515.5" font-family="Times,serif" font-size="10.00" fill="darkgreen">wasGeneratedBy</text>
</g>
<!-- ann3 -->
<g id="node9" class="node">
<title>ann3</title>
<polygon fill="none" stroke="gray" points="555.09,-374 376.09,-374 376.09,-247 561.09,-247 561.09,-368 555.09,-374"/>
<polyline fill="none" stroke="gray" points="555.09,-374 555.09,-368 "/>
<polyline fill="none" stroke="gray" points="561.09,-368 555.09,-368 "/>
<g id="a_node9_7"><a xlink:href="http://www.w3.org/ns/prov#type" xlink:title="&lt;TABLE&gt;">
<text text-anchor="start" x="386.59" y="-359.5" font-family="Times,serif" font-size="10.00">prov:type</text>
</a>
</g>
<text text-anchor="start" x="474.59" y="-359.5" font-family="Times,serif" font-size="10.00">prov:Collection</text>
<g id="a_node9_8"><a xlink:href="gitlab2prov:commit_path" xlink:title="&lt;TABLE&gt;">
<text text-anchor="start" x="386.59" y="-346.5" font-family="Times,serif" font-size="10.00">commit_path</text>
</a>
</g>
<g id="a_node9_9"><a xlink:href="gitlab2prov:created_at" xlink:title="&lt;TABLE&gt;">
<text text-anchor="start" x="386.59" y="-333.5" font-family="Times,serif" font-size="10.00">created_at</text>
</a>
</g>
<g id="a_node9_10"><a xlink:href="gitlab2prov:description" xlink:title="&lt;TABLE&gt;">
<text text-anchor="start" x="386.59" y="-320.5" font-family="Times,serif" font-size="10.00">description</text>
</a>
</g>
<g id="a_node9_11"><a xlink:href="gitlab2prov:description_html" xlink:title="&lt;TABLE&gt;">
<text text-anchor="start" x="386.59" y="-307.5" font-family="Times,serif" font-size="10.00">description_html</text>
</a>
</g>
<g id="a_node9_12"><a xlink:href="gitlab2prov:name" xlink:title="&lt;TABLE&gt;">
<text text-anchor="start" x="386.59" y="-294.5" font-family="Times,serif" font-size="10.00">name</text>
</a>
</g>
<g id="a_node9_13"><a xlink:href="gitlab2prov:released_at" xlink:title="&lt;TABLE&gt;">
<text text-anchor="start" x="386.59" y="-281.5" font-family="Times,serif" font-size="10.00">released_at</text>
</a>
</g>
<g id="a_node9_14"><a xlink:href="gitlab2prov:tag_name" xlink:title="&lt;TABLE&gt;">
<text text-anchor="start" x="386.59" y="-268.5" font-family="Times,serif" font-size="10.00">tag_name</text>
</a>
</g>
<g id="a_node9_15"><a xlink:href="gitlab2prov:tag_path" xlink:title="&lt;TABLE&gt;">
<text text-anchor="start" x="386.59" y="-255.5" font-family="Times,serif" font-size="10.00">tag_path</text>
</a>
</g>
</g>
<!-- ann3&#45;&gt;n6 -->
<g id="edge3" class="edge">
<title>ann3&#45;&gt;n6</title>
<path fill="none" stroke="gray" stroke-dasharray="5,2" d="M445.84,-374.07C437.39,-392.55 426.62,-412.08 413.59,-428 407.28,-435.72 398.91,-442.65 390.99,-448.28"/>
</g>
<!-- n7 -->
<g id="node10" class="node">
<title>n7</title>
<g id="a_node10"><a xlink:href="gitlab2prov:Commit" xlink:title="Commit">
<ellipse fill="#fffc87" stroke="#808080" cx="787.59" cy="-162.5" rx="47.39" ry="18"/>
<text text-anchor="middle" x="787.59" y="-158.8" font-family="Times,serif" font-size="14.00">Commit</text>
</a>
</g>
</g>
<!-- n7&#45;&gt;n1 -->
<g id="edge16" class="edge">
<title>n7&#45;&gt;n1</title>
<path fill="none" stroke="#fed37f" d="M821.26,-175.54C841.13,-184.34 865.14,-198.21 879.59,-218 904.2,-251.69 900.59,-267.78 900.59,-309.5 900.59,-309.5 900.59,-309.5 900.59,-573 900.59,-632.82 702.03,-648.49 605.74,-652.57"/>
<polygon fill="#fed37f" stroke="#fed37f" points="605.49,-649.08 595.64,-652.98 605.77,-656.08 605.49,-649.08"/>
<text text-anchor="middle" x="942.59" y="-461.5" font-family="Times,serif" font-size="10.00">wasAttributedTo</text>
</g>
<!-- n7&#45;&gt;n4 -->
<g id="edge19" class="edge">
<title>n7&#45;&gt;n4</title>
<path fill="none" stroke="darkgreen" d="M787.59,-180.76C787.59,-222.76 787.59,-330.53 787.59,-381.5"/>
<polygon fill="darkgreen" stroke="darkgreen" points="784.09,-381.76 787.59,-391.76 791.09,-381.76 784.09,-381.76"/>
<text text-anchor="middle" x="831.59" y="-221" font-family="Times,serif" font-size="10.00" fill="darkgreen">wasGeneratedBy</text>
</g>
<!-- n7&#45;&gt;n5 -->
<g id="edge10" class="edge">
<title>n7&#45;&gt;n5</title>
<path fill="none" stroke="black" d="M761.58,-177.62C743.88,-187.79 720.35,-202.41 701.59,-218 676.5,-238.86 651.53,-266.82 635.22,-286.32"/>
<polygon fill="black" stroke="black" points="632.45,-284.17 628.78,-294.11 637.84,-288.63 632.45,-284.17"/>
<text text-anchor="middle" x="733.59" y="-221" font-family="Times,serif" font-size="10.00">hadMember</text>
</g>
<!-- ann4 -->
<g id="node11" class="node">
<title>ann4</title>
<polygon fill="none" stroke="gray" points="819.59,-88 749.59,-88 749.59,0 825.59,0 825.59,-82 819.59,-88"/>
<polyline fill="none" stroke="gray" points="819.59,-88 819.59,-82 "/>
<polyline fill="none" stroke="gray" points="825.59,-82 819.59,-82 "/>
<g id="a_node11_16"><a xlink:href="gitlab2prov:created_at" xlink:title="&lt;TABLE&gt;">
<text text-anchor="start" x="759.59" y="-74" font-family="Times,serif" font-size="10.00">created_at</text>
</a>
</g>
<g id="a_node11_17"><a xlink:href="gitlab2prov:id" xlink:title="&lt;TABLE&gt;">
<text text-anchor="start" x="759.59" y="-61" font-family="Times,serif" font-size="10.00">id</text>
</a>
</g>
<g id="a_node11_18"><a xlink:href="gitlab2prov:message" xlink:title="&lt;TABLE&gt;">
<text text-anchor="start" x="759.59" y="-48" font-family="Times,serif" font-size="10.00">message</text>
</a>
</g>
<g id="a_node11_19"><a xlink:href="gitlab2prov:short_id" xlink:title="&lt;TABLE&gt;">
<text text-anchor="start" x="759.59" y="-35" font-family="Times,serif" font-size="10.00">short_id</text>
</a>
</g>
<g id="a_node11_20"><a xlink:href="gitlab2prov:title" xlink:title="&lt;TABLE&gt;">
<text text-anchor="start" x="759.59" y="-22" font-family="Times,serif" font-size="10.00">title</text>
</a>
</g>
<g id="a_node11_21"><a xlink:href="gitlab2prov:web_url" xlink:title="&lt;TABLE&gt;">
<text text-anchor="start" x="759.59" y="-9" font-family="Times,serif" font-size="10.00">web_url</text>
</a>
</g>
</g>
<!-- ann4&#45;&gt;n7 -->
<g id="edge4" class="edge">
<title>ann4&#45;&gt;n7</title>
<path fill="none" stroke="gray" stroke-dasharray="5,2" d="M787.59,-88.05C787.59,-107.62 787.59,-129.66 787.59,-144.45"/>
</g>
<!-- n8 -->
<g id="node12" class="node">
<title>n8</title>
<g id="a_node12"><a xlink:href="gitlab2prov:Release_Evidence" xlink:title="Release_Evidence">
<ellipse fill="#fffc87" stroke="#808080" cx="93.59" cy="-310.5" rx="93.68" ry="18"/>
<text text-anchor="middle" x="93.59" y="-306.8" font-family="Times,serif" font-size="14.00">Release_Evidence</text>
</a>
</g>
</g>
<!-- n8&#45;&gt;n6 -->
<g id="edge8" class="edge">
<title>n8&#45;&gt;n6</title>
<path fill="none" stroke="black" d="M113.46,-328.27C143.58,-352.98 203.37,-399.36 260.59,-428 278.95,-437.19 300.28,-444.77 318.96,-450.5"/>
<polygon fill="black" stroke="black" points="318.16,-453.91 328.75,-453.4 320.16,-447.2 318.16,-453.91"/>
<text text-anchor="middle" x="292.59" y="-407.5" font-family="Times,serif" font-size="10.00">hadMember</text>
</g>
<!-- ann5 -->
<g id="node13" class="node">
<title>ann5</title>
<polygon fill="none" stroke="gray" points="129.09,-187 52.09,-187 52.09,-138 135.09,-138 135.09,-181 129.09,-187"/>
<polyline fill="none" stroke="gray" points="129.09,-187 129.09,-181 "/>
<polyline fill="none" stroke="gray" points="135.09,-181 129.09,-181 "/>
<g id="a_node13_22"><a xlink:href="gitlab2prov:collected_at" xlink:title="&lt;TABLE&gt;">
<text text-anchor="start" x="62.59" y="-172.5" font-family="Times,serif" font-size="10.00">collected_at</text>
</a>
</g>
<g id="a_node13_23"><a xlink:href="gitlab2prov:filepath" xlink:title="&lt;TABLE&gt;">
<text text-anchor="start" x="62.59" y="-159.5" font-family="Times,serif" font-size="10.00">filepath</text>
</a>
</g>
<g id="a_node13_24"><a xlink:href="gitlab2prov:sha" xlink:title="&lt;TABLE&gt;">
<text text-anchor="start" x="62.59" y="-146.5" font-family="Times,serif" font-size="10.00">sha</text>
</a>
</g>
</g>
<!-- ann5&#45;&gt;n8 -->
<g id="edge5" class="edge">
<title>ann5&#45;&gt;n8</title>
<path fill="none" stroke="gray" stroke-dasharray="5,2" d="M93.59,-187.28C93.59,-216.69 93.59,-266.06 93.59,-292.14"/>
</g>
<!-- n9 -->
<g id="node14" class="node">
<title>n9</title>
<g id="a_node14"><a xlink:href="gitlab2prov:Release_Asset" xlink:title="Release_Asset">
<ellipse fill="#fffc87" stroke="#808080" cx="281.59" cy="-310.5" rx="76.89" ry="18"/>
<text text-anchor="middle" x="281.59" y="-306.8" font-family="Times,serif" font-size="14.00">Release_Asset</text>
</a>
</g>
</g>
<!-- n9&#45;&gt;n6 -->
<g id="edge7" class="edge">
<title>n9&#45;&gt;n6</title>
<path fill="none" stroke="black" d="M291.18,-328.58C306.05,-355.09 334.78,-406.3 352.17,-437.29"/>
<polygon fill="black" stroke="black" points="349.23,-439.2 357.17,-446.21 355.33,-435.78 349.23,-439.2"/>
<text text-anchor="middle" x="377.59" y="-407.5" font-family="Times,serif" font-size="10.00">hadMember</text>
</g>
<!-- ann6 -->
<g id="node15" class="node">
<title>ann6</title>
<polygon fill="none" stroke="gray" points="306.59,-187 250.59,-187 250.59,-138 312.59,-138 312.59,-181 306.59,-187"/>
<polyline fill="none" stroke="gray" points="306.59,-187 306.59,-181 "/>
<polyline fill="none" stroke="gray" points="312.59,-181 306.59,-181 "/>
<g id="a_node15_25"><a xlink:href="gitlab2prov:filepath" xlink:title="&lt;TABLE&gt;">
<text text-anchor="start" x="260.59" y="-172.5" font-family="Times,serif" font-size="10.00">filepath</text>
</a>
</g>
<g id="a_node15_26"><a xlink:href="gitlab2prov:format" xlink:title="&lt;TABLE&gt;">
<text text-anchor="start" x="260.59" y="-159.5" font-family="Times,serif" font-size="10.00">format</text>
</a>
</g>
<g id="a_node15_27"><a xlink:href="gitlab2prov:uri" xlink:title="&lt;TABLE&gt;">
<text text-anchor="start" x="260.59" y="-146.5" font-family="Times,serif" font-size="10.00">uri</text>
</a>
</g>
</g>
<!-- ann6&#45;&gt;n9 -->
<g id="edge6" class="edge">
<title>ann6&#45;&gt;n9</title>
<path fill="none" stroke="gray" stroke-dasharray="5,2" d="M281.59,-187.28C281.59,-216.69 281.59,-266.06 281.59,-292.14"/>
</g>
</g>
</svg>
