<?xml version="1.0" encoding="UTF-8" standalone="no"?>
<!DOCTYPE svg PUBLIC "-//W3C//DTD SVG 1.1//EN"
 "http://www.w3.org/Graphics/SVG/1.1/DTD/svg11.dtd">
<!-- Generated by graphviz version 2.43.0 (0)
 -->
<!-- Title: G Pages: 1 -->
<svg width="1059pt" height="714pt"
 viewBox="0.00 0.00 1059.00 714.00" xmlns="http://www.w3.org/2000/svg" xmlns:xlink="http://www.w3.org/1999/xlink">
<g id="graph0" class="graph" transform="scale(1 1) rotate(0) translate(4 710)">
<title>G</title>
<polygon fill="white" stroke="transparent" points="-4,4 -4,-710 1055,-710 1055,4 -4,4"/>
<!-- n1 -->
<g id="node1" class="node">
<title>n1</title>
<g id="a_node1"><a xlink:href="gitlab2prov:Creator" xlink:title="Creator">
<polygon fill="#fed37f" stroke="black" points="259.08,-693.56 202,-706 144.92,-693.56 144.97,-673.44 259.03,-673.44 259.08,-693.56"/>
<text text-anchor="middle" x="202" y="-684.3" font-family="Times,serif" font-size="14.00">Creator</text>
</a>
</g>
</g>
<!-- ann1 -->
<g id="node2" class="node">
<title>ann1</title>
<polygon fill="none" stroke="gray" points="102,-623 0,-623 0,-574 108,-574 108,-617 102,-623"/>
<polyline fill="none" stroke="gray" points="102,-623 102,-617 "/>
<polyline fill="none" stroke="gray" points="108,-617 102,-617 "/>
<g id="a_node2_0"><a xlink:href="http://www.w3.org/ns/prov#role" xlink:title="&lt;TABLE&gt;">
<text text-anchor="start" x="10" y="-608.5" font-family="Times,serif" font-size="10.00">prov:role</text>
</a>
</g>
<text text-anchor="start" x="61" y="-608.5" font-family="Times,serif" font-size="10.00">creator</text>
<g id="a_node2_1"><a xlink:href="http://www.w3.org/ns/prov#type" xlink:title="&lt;TABLE&gt;">
<text text-anchor="start" x="10" y="-595.5" font-family="Times,serif" font-size="10.00">prov:type</text>
</a>
</g>
<text text-anchor="start" x="61" y="-595.5" font-family="Times,serif" font-size="10.00">user</text>
<g id="a_node2_2"><a xlink:href="gitlab2prov:name" xlink:title="&lt;TABLE&gt;">
<text text-anchor="start" x="10" y="-582.5" font-family="Times,serif" font-size="10.00">name</text>
</a>
</g>
</g>
<!-- ann1&#45;&gt;n1 -->
<g id="edge1" class="edge">
<title>ann1&#45;&gt;n1</title>
<path fill="none" stroke="gray" stroke-dasharray="5,2" d="M85.84,-623.1C99.18,-632.56 115.04,-643.27 130,-652 143.2,-659.71 158.35,-667.26 171.34,-673.36"/>
</g>
<!-- n2 -->
<g id="node3" class="node">
<title>n2</title>
<g id="a_node3"><a xlink:href="gitlab2prov:Annotator" xlink:title="Annotator">
<polygon fill="#fed37f" stroke="black" points="942.89,-360.06 872,-372.5 801.11,-360.06 801.17,-339.94 942.83,-339.94 942.89,-360.06"/>
<text text-anchor="middle" x="872" y="-350.8" font-family="Times,serif" font-size="14.00">Annotator</text>
</a>
</g>
</g>
<!-- ann2 -->
<g id="node4" class="node">
<title>ann2</title>
<polygon fill="none" stroke="gray" points="921.5,-231 816.5,-231 816.5,-182 927.5,-182 927.5,-225 921.5,-231"/>
<polyline fill="none" stroke="gray" points="921.5,-231 921.5,-225 "/>
<polyline fill="none" stroke="gray" points="927.5,-225 921.5,-225 "/>
<g id="a_node4_3"><a xlink:href="http://www.w3.org/ns/prov#role" xlink:title="&lt;TABLE&gt;">
<text text-anchor="start" x="827" y="-216.5" font-family="Times,serif" font-size="10.00">prov:role</text>
</a>
</g>
<text text-anchor="start" x="878" y="-216.5" font-family="Times,serif" font-size="10.00">initiator</text>
<g id="a_node4_4"><a xlink:href="http://www.w3.org/ns/prov#type" xlink:title="&lt;TABLE&gt;">
<text text-anchor="start" x="827" y="-203.5" font-family="Times,serif" font-size="10.00">prov:type</text>
</a>
</g>
<text text-anchor="start" x="878" y="-203.5" font-family="Times,serif" font-size="10.00">user</text>
<g id="a_node4_5"><a xlink:href="gitlab2prov:name" xlink:title="&lt;TABLE&gt;">
<text text-anchor="start" x="827" y="-190.5" font-family="Times,serif" font-size="10.00">name</text>
</a>
</g>
</g>
<!-- ann2&#45;&gt;n2 -->
<g id="edge2" class="edge">
<title>ann2&#45;&gt;n2</title>
<path fill="none" stroke="gray" stroke-dasharray="5,2" d="M872,-231.28C872,-262.15 872,-314.99 872,-339.83"/>
</g>
<!-- n3 -->
<g id="node5" class="node">
<title>n3</title>
<g id="a_node5"><a xlink:href="gitlab2prov:Merge Request Creation" xlink:title="Merge Request Creation">
<polygon fill="#9fb1fc" stroke="#0000ff" points="438,-616.5 246,-616.5 246,-580.5 438,-580.5 438,-616.5"/>
<text text-anchor="middle" x="342" y="-594.8" font-family="Times,serif" font-size="14.00">Merge Request Creation</text>
</a>
</g>
</g>
<!-- n3&#45;&gt;n1 -->
<g id="edge19" class="edge">
<title>n3&#45;&gt;n1</title>
<path fill="none" stroke="#fed37f" d="M314.67,-616.58C291,-631.37 256.8,-652.75 232.3,-668.06"/>
<polygon fill="#fed37f" stroke="#fed37f" points="230.37,-665.14 223.75,-673.41 234.08,-671.07 230.37,-665.14"/>
<text text-anchor="middle" x="321" y="-644" font-family="Times,serif" font-size="10.00">wasAssociatedWith</text>
</g>
<!-- ann3 -->
<g id="node6" class="node">
<title>ann3</title>
<polygon fill="none" stroke="gray" points="599.5,-527 386.5,-527 386.5,-478 605.5,-478 605.5,-521 599.5,-527"/>
<polyline fill="none" stroke="gray" points="599.5,-527 599.5,-521 "/>
<polyline fill="none" stroke="gray" points="605.5,-521 599.5,-521 "/>
<g id="a_node6_6"><a xlink:href="http://www.w3.org/ns/prov#type" xlink:title="&lt;TABLE&gt;">
<text text-anchor="start" x="397" y="-512.5" font-family="Times,serif" font-size="10.00">prov:type</text>
</a>
</g>
<text text-anchor="start" x="472" y="-512.5" font-family="Times,serif" font-size="10.00">merge_request_creation</text>
<g id="a_node6_7"><a xlink:href="http://www.w3.org/ns/prov#endedAt" xlink:title="&lt;TABLE&gt;">
<text text-anchor="start" x="397" y="-499.5" font-family="Times,serif" font-size="10.00">prov:endedAt</text>
</a>
</g>
<g id="a_node6_8"><a xlink:href="http://www.w3.org/ns/prov#startedAt" xlink:title="&lt;TABLE&gt;">
<text text-anchor="start" x="397" y="-486.5" font-family="Times,serif" font-size="10.00">prov:startedAt</text>
</a>
</g>
</g>
<!-- ann3&#45;&gt;n3 -->
<g id="edge3" class="edge">
<title>ann3&#45;&gt;n3</title>
<path fill="none" stroke="gray" stroke-dasharray="5,2" d="M457.14,-527.22C430.05,-543.75 394.54,-565.43 370.16,-580.31"/>
</g>
<!-- n4 -->
<g id="node7" class="node">
<title>n4</title>
<g id="a_node7"><a xlink:href="gitlab2prov:Merge Request Annotation" xlink:title="Merge Request Annotation">
<polygon fill="#9fb1fc" stroke="#0000ff" points="798.5,-224.5 589.5,-224.5 589.5,-188.5 798.5,-188.5 798.5,-224.5"/>
<text text-anchor="middle" x="694" y="-202.8" font-family="Times,serif" font-size="14.00">Merge Request Annotation</text>
</a>
</g>
</g>
<!-- n4&#45;&gt;n2 -->
<g id="edge20" class="edge">
<title>n4&#45;&gt;n2</title>
<path fill="none" stroke="#fed37f" d="M714.77,-224.53C747.79,-251.62 812.15,-304.41 847.42,-333.34"/>
<polygon fill="#fed37f" stroke="#fed37f" points="845.36,-336.18 855.31,-339.81 849.8,-330.77 845.36,-336.18"/>
<text text-anchor="middle" x="806" y="-252" font-family="Times,serif" font-size="10.00">wasAssociatedWith</text>
</g>
<!-- n4&#45;&gt;n3 -->
<g id="edge8" class="edge">
<title>n4&#45;&gt;n3</title>
<path fill="none" stroke="black" d="M700.7,-224.78C721.19,-280.86 776.52,-459.67 690,-556 673.9,-573.93 544.5,-585.56 448.17,-591.82"/>
<polygon fill="black" stroke="black" points="447.83,-588.33 438.07,-592.46 448.27,-595.32 447.83,-588.33"/>
<text text-anchor="middle" x="775.5" y="-452" font-family="Times,serif" font-size="10.00">wasInformedBy</text>
</g>
<!-- n6 -->
<g id="node11" class="node">
<title>n6</title>
<g id="a_node11"><a xlink:href="gitlab2prov:Merge Request Version" xlink:title="Merge Request Version">
<ellipse fill="#fffc87" stroke="#808080" cx="445" cy="-354.5" rx="119.68" ry="18"/>
<text text-anchor="middle" x="445" y="-350.8" font-family="Times,serif" font-size="14.00">Merge Request Version</text>
</a>
</g>
</g>
<!-- n4&#45;&gt;n6 -->
<g id="edge12" class="edge">
<title>n4&#45;&gt;n6</title>
<path fill="none" stroke="#8b0000" d="M664.95,-224.53C619.66,-251.09 532.26,-302.34 482.35,-331.6"/>
<polygon fill="#8b0000" stroke="#8b0000" points="480.34,-328.72 473.48,-336.8 483.88,-334.76 480.34,-328.72"/>
<text text-anchor="middle" x="633.5" y="-252" font-family="Times,serif" font-size="10.00" fill="red">used</text>
</g>
<!-- ann4 -->
<g id="node8" class="node">
<title>ann4</title>
<polygon fill="none" stroke="gray" points="1045,-135 927,-135 927,-73 1051,-73 1051,-129 1045,-135"/>
<polyline fill="none" stroke="gray" points="1045,-135 1045,-129 "/>
<polyline fill="none" stroke="gray" points="1051,-129 1045,-129 "/>
<g id="a_node8_9"><a xlink:href="http://www.w3.org/ns/prov#type" xlink:title="&lt;TABLE&gt;">
<text text-anchor="start" x="937" y="-121" font-family="Times,serif" font-size="10.00">prov:type</text>
</a>
</g>
<text text-anchor="start" x="1012" y="-121" font-family="Times,serif" font-size="10.00">event</text>
<g id="a_node8_10"><a xlink:href="gitlab2prov:event" xlink:title="&lt;TABLE&gt;">
<text text-anchor="start" x="937" y="-108" font-family="Times,serif" font-size="10.00">event</text>
</a>
</g>
<g id="a_node8_11"><a xlink:href="http://www.w3.org/ns/prov#endedAt" xlink:title="&lt;TABLE&gt;">
<text text-anchor="start" x="937" y="-95" font-family="Times,serif" font-size="10.00">prov:endedAt</text>
</a>
</g>
<g id="a_node8_12"><a xlink:href="http://www.w3.org/ns/prov#startedAt" xlink:title="&lt;TABLE&gt;">
<text text-anchor="start" x="937" y="-82" font-family="Times,serif" font-size="10.00">prov:startedAt</text>
</a>
</g>
</g>
<!-- ann4&#45;&gt;n4 -->
<g id="edge4" class="edge">
<title>ann4&#45;&gt;n4</title>
<path fill="none" stroke="gray" stroke-dasharray="5,2" d="M926.8,-126.19C872.54,-144.68 794.81,-171.16 744.37,-188.34"/>
</g>
<!-- n5 -->
<g id="node9" class="node">
<title>n5</title>
<g id="a_node9"><a xlink:href="gitlab2prov:Merge Request" xlink:title="Merge Request">
<ellipse fill="#fffc87" stroke="#808080" cx="150" cy="-502.5" rx="81.79" ry="18"/>
<text text-anchor="middle" x="150" y="-498.8" font-family="Times,serif" font-size="14.00">Merge Request</text>
</a>
</g>
</g>
<!-- n5&#45;&gt;n1 -->
<g id="edge18" class="edge">
<title>n5&#45;&gt;n1</title>
<path fill="none" stroke="#fed37f" d="M147.19,-520.72C144.02,-544.5 140.78,-588.36 153,-623 158.68,-639.08 170.05,-654.36 180.42,-665.95"/>
<polygon fill="#fed37f" stroke="#fed37f" points="177.96,-668.44 187.35,-673.35 183.07,-663.66 177.96,-668.44"/>
<text text-anchor="middle" x="195" y="-596" font-family="Times,serif" font-size="10.00">wasAttributedTo</text>
</g>
<!-- n5&#45;&gt;n3 -->
<g id="edge9" class="edge">
<title>n5&#45;&gt;n3</title>
<path fill="none" stroke="darkgreen" d="M155.02,-520.58C159.31,-532.22 166.61,-547.08 178,-556 184.61,-561.17 217.98,-569.99 252.92,-578.18"/>
<polygon fill="darkgreen" stroke="darkgreen" points="252.26,-581.62 262.79,-580.47 253.84,-574.8 252.26,-581.62"/>
<text text-anchor="middle" x="222" y="-548" font-family="Times,serif" font-size="10.00" fill="darkgreen">wasGeneratedBy</text>
</g>
<!-- ann5 -->
<g id="node10" class="node">
<title>ann5</title>
<polygon fill="none" stroke="gray" points="277.5,-431 40.5,-431 40.5,-278 283.5,-278 283.5,-425 277.5,-431"/>
<polyline fill="none" stroke="gray" points="277.5,-431 277.5,-425 "/>
<polyline fill="none" stroke="gray" points="283.5,-425 277.5,-425 "/>
<g id="a_node10_13"><a xlink:href="http://www.w3.org/ns/prov#type" xlink:title="&lt;TABLE&gt;">
<text text-anchor="start" x="51" y="-416.5" font-family="Times,serif" font-size="10.00">prov:type</text>
</a>
</g>
<text text-anchor="start" x="147" y="-416.5" font-family="Times,serif" font-size="10.00">merge_request_resource</text>
<g id="a_node10_14"><a xlink:href="gitlab2prov:description" xlink:title="&lt;TABLE&gt;">
<text text-anchor="start" x="51" y="-403.5" font-family="Times,serif" font-size="10.00">description</text>
</a>
</g>
<g id="a_node10_15"><a xlink:href="gitlab2prov:id" xlink:title="&lt;TABLE&gt;">
<text text-anchor="start" x="51" y="-390.5" font-family="Times,serif" font-size="10.00">id</text>
</a>
</g>
<g id="a_node10_16"><a xlink:href="gitlab2prov:iid" xlink:title="&lt;TABLE&gt;">
<text text-anchor="start" x="51" y="-377.5" font-family="Times,serif" font-size="10.00">iid</text>
</a>
</g>
<g id="a_node10_17"><a xlink:href="gitlab2prov:project_id" xlink:title="&lt;TABLE&gt;">
<text text-anchor="start" x="51" y="-364.5" font-family="Times,serif" font-size="10.00">project_id</text>
</a>
</g>
<g id="a_node10_18"><a xlink:href="gitlab2prov:source_branch" xlink:title="&lt;TABLE&gt;">
<text text-anchor="start" x="51" y="-351.5" font-family="Times,serif" font-size="10.00">source_branch</text>
</a>
</g>
<g id="a_node10_19"><a xlink:href="gitlab2prov:source_project_url" xlink:title="&lt;TABLE&gt;">
<text text-anchor="start" x="51" y="-338.5" font-family="Times,serif" font-size="10.00">source_project_url</text>
</a>
</g>
<g id="a_node10_20"><a xlink:href="gitlab2prov:target_branch" xlink:title="&lt;TABLE&gt;">
<text text-anchor="start" x="51" y="-325.5" font-family="Times,serif" font-size="10.00">target_branch</text>
</a>
</g>
<g id="a_node10_21"><a xlink:href="gitlab2prov:target_project_url" xlink:title="&lt;TABLE&gt;">
<text text-anchor="start" x="51" y="-312.5" font-family="Times,serif" font-size="10.00">target_project_url</text>
</a>
</g>
<g id="a_node10_22"><a xlink:href="gitlab2prov:title" xlink:title="&lt;TABLE&gt;">
<text text-anchor="start" x="51" y="-299.5" font-family="Times,serif" font-size="10.00">title</text>
</a>
</g>
<g id="a_node10_23"><a xlink:href="gitlab2prov:web_url" xlink:title="&lt;TABLE&gt;">
<text text-anchor="start" x="51" y="-286.5" font-family="Times,serif" font-size="10.00">web_url</text>
</a>
</g>
</g>
<!-- ann5&#45;&gt;n5 -->
<g id="edge5" class="edge">
<title>ann5&#45;&gt;n5</title>
<path fill="none" stroke="gray" stroke-dasharray="5,2" d="M155.79,-431.07C154.14,-451.1 152.52,-470.89 151.41,-484.36"/>
</g>
<!-- n6&#45;&gt;n1 -->
<g id="edge17" class="edge">
<title>n6&#45;&gt;n1</title>
<path fill="none" stroke="#fed37f" d="M484.24,-371.64C545.51,-399.34 653.04,-459.52 614,-527 544.41,-647.27 367.11,-677.45 269.31,-684.81"/>
<polygon fill="#fed37f" stroke="#fed37f" points="268.97,-681.33 259.23,-685.51 269.45,-688.31 268.97,-681.33"/>
<text text-anchor="middle" x="644" y="-548" font-family="Times,serif" font-size="10.00">wasAttributedTo</text>
</g>
<!-- n6&#45;&gt;n3 -->
<g id="edge10" class="edge">
<title>n6&#45;&gt;n3</title>
<path fill="none" stroke="darkgreen" d="M408.95,-371.74C371.12,-391 313.77,-427.06 289,-478 279.48,-497.59 282.1,-506.34 289,-527 294.65,-543.92 306.13,-560.04 316.97,-572.58"/>
<polygon fill="darkgreen" stroke="darkgreen" points="314.63,-575.21 323.93,-580.28 319.82,-570.51 314.63,-575.21"/>
<text text-anchor="middle" x="333" y="-500" font-family="Times,serif" font-size="10.00" fill="darkgreen">wasGeneratedBy</text>
</g>
<!-- n6&#45;&gt;n5 -->
<g id="edge13" class="edge">
<title>n6&#45;&gt;n5</title>
<path fill="none" stroke="black" d="M417.56,-372.13C387.72,-389.47 338.09,-416.14 292,-431 245.68,-445.93 224.69,-422.31 184,-449 174.3,-455.36 166.77,-465.56 161.3,-475.28"/>
<polygon fill="black" stroke="black" points="158.11,-473.82 156.67,-484.32 164.34,-477.01 158.11,-473.82"/>
<text text-anchor="middle" x="225" y="-452" font-family="Times,serif" font-size="10.00">specializationOf</text>
</g>
<!-- ann6 -->
<g id="node12" class="node">
<title>ann6</title>
<polygon fill="none" stroke="gray" points="565.5,-224.5 330.5,-224.5 330.5,-188.5 571.5,-188.5 571.5,-218.5 565.5,-224.5"/>
<polyline fill="none" stroke="gray" points="565.5,-224.5 565.5,-218.5 "/>
<polyline fill="none" stroke="gray" points="571.5,-218.5 565.5,-218.5 "/>
<g id="a_node12_24"><a xlink:href="http://www.w3.org/ns/prov#type" xlink:title="&lt;TABLE&gt;">
<text text-anchor="start" x="341" y="-203.5" font-family="Times,serif" font-size="10.00">prov:type</text>
</a>
</g>
<text text-anchor="start" x="392" y="-203.5" font-family="Times,serif" font-size="10.00">merge_request_resource_version</text>
</g>
<!-- ann6&#45;&gt;n6 -->
<g id="edge6" class="edge">
<title>ann6&#45;&gt;n6</title>
<path fill="none" stroke="gray" stroke-dasharray="5,2" d="M450.3,-224.53C449.15,-252.52 446.87,-307.92 445.71,-336.12"/>
</g>
<!-- n7 -->
<g id="node13" class="node">
<title>n7</title>
<g id="a_node13"><a xlink:href="gitlab2prov:Annotated Merge Request Version" xlink:title="Annotated Merge Request Version">
<ellipse fill="#fffc87" stroke="#808080" cx="350" cy="-104" rx="170.07" ry="18"/>
<text text-anchor="middle" x="350" y="-100.3" font-family="Times,serif" font-size="14.00">Annotated Merge Request Version</text>
</a>
</g>
</g>
<!-- n7&#45;&gt;n2 -->
<g id="edge16" class="edge">
<title>n7&#45;&gt;n2</title>
<path fill="none" stroke="#fed37f" d="M492.06,-113.97C656.06,-125.81 907.12,-149.07 936,-182 975,-226.46 923.49,-296.9 892.44,-332.06"/>
<polygon fill="#fed37f" stroke="#fed37f" points="889.55,-330.04 885.43,-339.8 894.73,-334.74 889.55,-330.04"/>
<text text-anchor="middle" x="993" y="-204" font-family="Times,serif" font-size="10.00">wasAttributedTo</text>
</g>
<!-- n7&#45;&gt;n4 -->
<g id="edge11" class="edge">
<title>n7&#45;&gt;n4</title>
<path fill="none" stroke="darkgreen" d="M405.27,-121.15C465.34,-138.7 561.36,-166.75 626.01,-185.64"/>
<polygon fill="darkgreen" stroke="darkgreen" points="625.12,-189.02 635.7,-188.47 627.09,-182.3 625.12,-189.02"/>
<text text-anchor="middle" x="587" y="-156" font-family="Times,serif" font-size="10.00" fill="darkgreen">wasGeneratedBy</text>
</g>
<!-- n7&#45;&gt;n5 -->
<g id="edge14" class="edge">
<title>n7&#45;&gt;n5</title>
<path fill="none" stroke="black" d="M278.68,-120.44C201.61,-141.41 82.88,-187.19 31,-278 -2.73,-337.04 -2.67,-371.92 31,-431 44.91,-455.4 70.95,-472.23 95.14,-483.3"/>
<polygon fill="black" stroke="black" points="94.07,-486.65 104.64,-487.41 96.85,-480.23 94.07,-486.65"/>
<text text-anchor="middle" x="91" y="-252" font-family="Times,serif" font-size="10.00">specializationOf</text>
</g>
<!-- n7&#45;&gt;n6 -->
<g id="edge15" class="edge">
<title>n7&#45;&gt;n6</title>
<path fill="none" stroke="black" d="M305.85,-121.39C279.56,-133.71 248.4,-153.42 233,-182 222.67,-201.17 222.11,-212.14 233,-231 242.61,-247.64 344.42,-301.89 403.38,-332.32"/>
<polygon fill="black" stroke="black" points="401.96,-335.53 412.45,-336.99 405.16,-329.3 401.96,-335.53"/>
<text text-anchor="middle" x="277" y="-204" font-family="Times,serif" font-size="10.00">wasDerivedFrom</text>
</g>
<!-- ann7 -->
<g id="node14" class="node">
<title>ann7</title>
<polygon fill="none" stroke="gray" points="464.5,-36 229.5,-36 229.5,0 470.5,0 470.5,-30 464.5,-36"/>
<polyline fill="none" stroke="gray" points="464.5,-36 464.5,-30 "/>
<polyline fill="none" stroke="gray" points="470.5,-30 464.5,-30 "/>
<g id="a_node14_25"><a xlink:href="http://www.w3.org/ns/prov#type" xlink:title="&lt;TABLE&gt;">
<text text-anchor="start" x="240" y="-15" font-family="Times,serif" font-size="10.00">prov:type</text>
</a>
</g>
<text text-anchor="start" x="291" y="-15" font-family="Times,serif" font-size="10.00">merge_request_resource_version</text>
</g>
<!-- ann7&#45;&gt;n7 -->
<g id="edge7" class="edge">
<title>ann7&#45;&gt;n7</title>
<path fill="none" stroke="gray" stroke-dasharray="5,2" d="M350,-36.4C350,-50.92 350,-71.48 350,-85.9"/>
</g>
</g>
</svg>
