<?xml version="1.0" encoding="UTF-8" standalone="no"?>
<!DOCTYPE svg PUBLIC "-//W3C//DTD SVG 1.1//EN"
 "http://www.w3.org/Graphics/SVG/1.1/DTD/svg11.dtd">
<!-- Generated by graphviz version 2.43.0 (0)
 -->
<!-- Title: G Pages: 1 -->
<svg width="994pt" height="681pt"
 viewBox="0.00 0.00 993.59 681.00" xmlns="http://www.w3.org/2000/svg" xmlns:xlink="http://www.w3.org/1999/xlink">
<g id="graph0" class="graph" transform="scale(1 1) rotate(0) translate(4 677)">
<title>G</title>
<polygon fill="white" stroke="transparent" points="-4,4 -4,-677 989.59,-677 989.59,4 -4,4"/>
<!-- n1 -->
<g id="node1" class="node">
<title>n1</title>
<g id="a_node1"><a xlink:href="gitlab2prov:User" xlink:title="User">
<polygon fill="#fed37f" stroke="black" points="596.54,-660.56 555.59,-673 514.65,-660.56 514.69,-640.44 596.5,-640.44 596.54,-660.56"/>
<text text-anchor="middle" x="555.59" y="-651.3" font-family="Times,serif" font-size="14.00">User</text>
</a>
</g>
</g>
<!-- ann1 -->
<g id="node2" class="node">
<title>ann1</title>
<polygon fill="none" stroke="gray" points="253.59,-590 205.59,-590 205.59,-554 259.59,-554 259.59,-584 253.59,-590"/>
<polyline fill="none" stroke="gray" points="253.59,-590 253.59,-584 "/>
<polyline fill="none" stroke="gray" points="259.59,-584 253.59,-584 "/>
<g id="a_node2_0"><a xlink:href="gitlab2prov:email" xlink:title="&lt;TABLE&gt;">
<text text-anchor="start" x="217.59" y="-576" font-family="Times,serif" font-size="10.00">email</text>
</a>
</g>
<g id="a_node2_1"><a xlink:href="gitlab2prov:name" xlink:title="&lt;TABLE&gt;">
<text text-anchor="start" x="217.59" y="-563" font-family="Times,serif" font-size="10.00">name</text>
</a>
</g>
</g>
<!-- ann1&#45;&gt;n1 -->
<g id="edge1" class="edge">
<title>ann1&#45;&gt;n1</title>
<path fill="none" stroke="gray" stroke-dasharray="5,2" d="M246.14,-590.3C255.07,-600.41 267.66,-612.43 281.59,-619 321.99,-638.04 448.64,-647.9 514.65,-651.86"/>
</g>
<!-- n2 -->
<g id="node3" class="node">
<title>n2</title>
<g id="a_node3"><a xlink:href="gitlab2prov:Release_Event" xlink:title="Release_Event">
<polygon fill="#9fb1fc" stroke="#0000ff" points="519.09,-590 398.09,-590 398.09,-554 519.09,-554 519.09,-590"/>
<text text-anchor="middle" x="458.59" y="-568.3" font-family="Times,serif" font-size="14.00">Release_Event</text>
</a>
</g>
</g>
<!-- n2&#45;&gt;n1 -->
<g id="edge12" class="edge">
<title>n2&#45;&gt;n1</title>
<path fill="none" stroke="#fed37f" d="M445.82,-590.38C440.75,-599.55 437.42,-610.61 443.59,-619 457.61,-638.07 481.98,-647.04 504.42,-651.15"/>
<polygon fill="#fed37f" stroke="#fed37f" points="504.13,-654.65 514.54,-652.71 505.19,-647.73 504.13,-654.65"/>
<text text-anchor="middle" x="492.59" y="-611" font-family="Times,serif" font-size="10.00">wasAssociatedWith</text>
</g>
<!-- n3 -->
<g id="node4" class="node">
<title>n3</title>
<g id="a_node4"><a xlink:href="gitlab2prov:Tag_Event" xlink:title="Tag_Event">
<polygon fill="#9fb1fc" stroke="#0000ff" points="612.09,-536 521.09,-536 521.09,-500 612.09,-500 612.09,-536"/>
<text text-anchor="middle" x="566.59" y="-514.3" font-family="Times,serif" font-size="14.00">Tag_Event</text>
</a>
</g>
</g>
<!-- n3&#45;&gt;n1 -->
<g id="edge13" class="edge">
<title>n3&#45;&gt;n1</title>
<path fill="none" stroke="#fed37f" d="M565.2,-536.1C563.26,-559.92 559.73,-603.2 557.53,-630.17"/>
<polygon fill="#fed37f" stroke="#fed37f" points="554.03,-630.05 556.71,-640.3 561.01,-630.62 554.03,-630.05"/>
<text text-anchor="middle" x="612.59" y="-569.5" font-family="Times,serif" font-size="10.00">wasAssociatedWith</text>
</g>
<!-- n4 -->
<g id="node5" class="node">
<title>n4</title>
<g id="a_node5"><a xlink:href="gitlab2prov:Commit_Event" xlink:title="Commit_Event">
<polygon fill="#9fb1fc" stroke="#0000ff" points="849.59,-428 727.59,-428 727.59,-392 849.59,-392 849.59,-428"/>
<text text-anchor="middle" x="788.59" y="-406.3" font-family="Times,serif" font-size="14.00">Commit_Event</text>
</a>
</g>
</g>
<!-- n4&#45;&gt;n1 -->
<g id="edge11" class="edge">
<title>n4&#45;&gt;n1</title>
<path fill="none" stroke="#fed37f" d="M788.4,-428.03C787.52,-452.9 783.52,-500.13 766.59,-536 745.87,-579.9 736.87,-593.46 695.59,-619 668.84,-635.55 634.64,-644.29 606.75,-648.89"/>
<polygon fill="#fed37f" stroke="#fed37f" points="606.14,-645.45 596.78,-650.41 607.19,-652.37 606.14,-645.45"/>
<text text-anchor="middle" x="827.59" y="-515.5" font-family="Times,serif" font-size="10.00">wasAssociatedWith</text>
</g>
<!-- n5 -->
<g id="node6" class="node">
<title>n5</title>
<g id="a_node6"><a xlink:href="gitlab2prov:Tag" xlink:title="Tag">
<ellipse fill="#fffc87" stroke="#808080" cx="616.59" cy="-310.5" rx="27.1" ry="18"/>
<text text-anchor="middle" x="616.59" y="-306.8" font-family="Times,serif" font-size="14.00">Tag</text>
</a>
</g>
</g>
<!-- n5&#45;&gt;n1 -->
<g id="edge15" class="edge">
<title>n5&#45;&gt;n1</title>
<path fill="none" stroke="#fed37f" d="M629.85,-326.53C642.36,-341.8 660.26,-366.74 667.59,-392 670.96,-403.61 680.04,-565.24 665.59,-590 652.54,-612.38 628.37,-627.68 606,-637.7"/>
<polygon fill="#fed37f" stroke="#fed37f" points="604.42,-634.57 596.56,-641.67 607.14,-641.02 604.42,-634.57"/>
<text text-anchor="middle" x="714.59" y="-515.5" font-family="Times,serif" font-size="10.00">wasAttributedTo</text>
</g>
<!-- n5&#45;&gt;n3 -->
<g id="edge18" class="edge">
<title>n5&#45;&gt;n3</title>
<path fill="none" stroke="darkgreen" d="M607.3,-327.55C598.6,-343.39 586.01,-368.56 579.59,-392 570.62,-424.78 567.75,-463.94 566.88,-489.59"/>
<polygon fill="darkgreen" stroke="darkgreen" points="563.38,-489.6 566.62,-499.69 570.38,-489.78 563.38,-489.6"/>
<text text-anchor="middle" x="623.59" y="-407.5" font-family="Times,serif" font-size="10.00" fill="darkgreen">wasGeneratedBy</text>
</g>
<!-- n6 -->
<g id="node8" class="node">
<title>n6</title>
<g id="a_node8"><a xlink:href="gitlab2prov:Release" xlink:title="Release">
<ellipse fill="#fffc87" stroke="#808080" cx="367.59" cy="-464" rx="46.59" ry="18"/>
<text text-anchor="middle" x="367.59" y="-460.3" font-family="Times,serif" font-size="14.00">Release</text>
</a>
</g>
</g>
<!-- n5&#45;&gt;n6 -->
<g id="edge9" class="edge">
<title>n5&#45;&gt;n6</title>
<path fill="none" stroke="black" d="M608.76,-327.93C601.05,-342.3 587.93,-362.6 570.59,-374 540.86,-393.54 525.2,-377.76 492.59,-392 466.5,-403.4 464.24,-413.74 439.59,-428 429.08,-434.08 417.35,-440.09 406.46,-445.37"/>
<polygon fill="black" stroke="black" points="404.69,-442.34 397.17,-449.8 407.7,-448.66 404.69,-442.34"/>
<text text-anchor="middle" x="524.59" y="-407.5" font-family="Times,serif" font-size="10.00">hadMember</text>
</g>
<!-- ann2 -->
<g id="node7" class="node">
<title>ann2</title>
<polygon fill="none" stroke="gray" points="697.09,-200 530.09,-200 530.09,-125 703.09,-125 703.09,-194 697.09,-200"/>
<polyline fill="none" stroke="gray" points="697.09,-200 697.09,-194 "/>
<polyline fill="none" stroke="gray" points="703.09,-194 697.09,-194 "/>
<g id="a_node7_2"><a xlink:href="http://www.w3.org/ns/prov#type" xlink:title="&lt;TABLE&gt;">
<text text-anchor="start" x="540.59" y="-185.5" font-family="Times,serif" font-size="10.00">prov:type</text>
</a>
</g>
<text text-anchor="start" x="616.59" y="-185.5" font-family="Times,serif" font-size="10.00">prov:Collection</text>
<g id="a_node7_3"><a xlink:href="gitlab2prov:commit" xlink:title="&lt;TABLE&gt;">
<text text-anchor="start" x="540.59" y="-172.5" font-family="Times,serif" font-size="10.00">commit</text>
</a>
</g>
<g id="a_node7_4"><a xlink:href="gitlab2prov:message" xlink:title="&lt;TABLE&gt;">
<text text-anchor="start" x="540.59" y="-159.5" font-family="Times,serif" font-size="10.00">message</text>
</a>
</g>
<g id="a_node7_5"><a xlink:href="gitlab2prov:name" xlink:title="&lt;TABLE&gt;">
<text text-anchor="start" x="540.59" y="-146.5" font-family="Times,serif" font-size="10.00">name</text>
</a>
</g>
<g id="a_node7_6"><a xlink:href="gitlab2prov:target_commit" xlink:title="&lt;TABLE&gt;">
<text text-anchor="start" x="540.59" y="-133.5" font-family="Times,serif" font-size="10.00">target_commit</text>
</a>
</g>
</g>
<!-- ann2&#45;&gt;n5 -->
<g id="edge2" class="edge">
<title>ann2&#45;&gt;n5</title>
<path fill="none" stroke="gray" stroke-dasharray="5,2" d="M616.59,-200.34C616.59,-229.74 616.59,-269.6 616.59,-292.12"/>
</g>
<!-- n6&#45;&gt;n1 -->
<g id="edge14" class="edge">
<title>n6&#45;&gt;n1</title>
<path fill="none" stroke="#fed37f" d="M349.15,-480.75C322.25,-505.62 278.26,-554.79 305.59,-590 329.71,-621.07 438.38,-639.63 504.25,-648.22"/>
<polygon fill="#fed37f" stroke="#fed37f" points="504.07,-651.73 514.43,-649.52 504.95,-644.78 504.07,-651.73"/>
<text text-anchor="middle" x="347.59" y="-569.5" font-family="Times,serif" font-size="10.00">wasAttributedTo</text>
</g>
<!-- n6&#45;&gt;n2 -->
<g id="edge17" class="edge">
<title>n6&#45;&gt;n2</title>
<path fill="none" stroke="darkgreen" d="M380.07,-481.43C391.35,-496.06 408.58,-517.88 424.59,-536 427.64,-539.45 430.93,-543.01 434.21,-546.48"/>
<polygon fill="darkgreen" stroke="darkgreen" points="431.86,-549.08 441.31,-553.86 436.9,-544.23 431.86,-549.08"/>
<text text-anchor="middle" x="468.59" y="-515.5" font-family="Times,serif" font-size="10.00" fill="darkgreen">wasGeneratedBy</text>
</g>
<!-- ann3 -->
<g id="node9" class="node">
<title>ann3</title>
<polygon fill="none" stroke="gray" points="555.09,-374 376.09,-374 376.09,-247 561.09,-247 561.09,-368 555.09,-374"/>
<polyline fill="none" stroke="gray" points="555.09,-374 555.09,-368 "/>
<polyline fill="none" stroke="gray" points="561.09,-368 555.09,-368 "/>
<g id="a_node9_7"><a xlink:href="http://www.w3.org/ns/prov#type" xlink:title="&lt;TABLE&gt;">
<text text-anchor="start" x="386.59" y="-359.5" font-family="Times,serif" font-size="10.00">prov:type</text>
</a>
</g>
<text text-anchor="start" x="474.59" y="-359.5" font-family="Times,serif" font-size="10.00">prov:Collection</text>
<g id="a_node9_8"><a xlink:href="gitlab2prov:commit_path" xlink:title="&lt;TABLE&gt;">
<text text-anchor="start" x="386.59" y="-346.5" font-family="Times,serif" font-size="10.00">commit_path</text>
</a>
</g>
<g id="a_node9_9"><a xlink:href="gitlab2prov:created_at" xlink:title="&lt;TABLE&gt;">
<text text-anchor="start" x="386.59" y="-333.5" font-family="Times,serif" font-size="10.00">created_at</text>
</a>
</g>
<g id="a_node9_10"><a xlink:href="gitlab2prov:description" xlink:title="&lt;TABLE&gt;">
<text text-anchor="start" x="386.59" y="-320.5" font-family="Times,serif" font-size="10.00">description</text>
</a>
</g>
<g id="a_node9_11"><a xlink:href="gitlab2prov:description_html" xlink:title="&lt;TABLE&gt;">
<text text-anchor="start" x="386.59" y="-307.5" font-family="Times,serif" font-size="10.00">description_html</text>
</a>
</g>
<g id="a_node9_12"><a xlink:href="gitlab2prov:name" xlink:title="&lt;TABLE&gt;">
<text text-anchor="start" x="386.59" y="-294.5" font-family="Times,serif" font-size="10.00">name</text>
</a>
</g>
<g id="a_node9_13"><a xlink:href="gitlab2prov:released_at" xlink:title="&lt;TABLE&gt;">
<text text-anchor="start" x="386.59" y="-281.5" font-family="Times,serif" font-size="10.00">released_at</text>
</a>
</g>
<g id="a_node9_14"><a xlink:href="gitlab2prov:tag_name" xlink:title="&lt;TABLE&gt;">
<text text-anchor="start" x="386.59" y="-268.5" font-family="Times,serif" font-size="10.00">tag_name</text>
</a>
</g>
<g id="a_node9_15"><a xlink:href="gitlab2prov:tag_path" xlink:title="&lt;TABLE&gt;">
<text text-anchor="start" x="386.59" y="-255.5" font-family="Times,serif" font-size="10.00">tag_path</text>
</a>
</g>
</g>
<!-- ann3&#45;&gt;n6 -->
<g id="edge3" class="edge">
<title>ann3&#45;&gt;n6</title>
<path fill="none" stroke="gray" stroke-dasharray="5,2" d="M446.43,-374.08C438.14,-392.56 427.53,-412.08 414.59,-428 408.3,-435.74 399.94,-442.68 392.02,-448.3"/>
</g>
<!-- n7 -->
<g id="node10" class="node">
<title>n7</title>
<g id="a_node10"><a xlink:href="gitlab2prov:Commit" xlink:title="Commit">
<ellipse fill="#fffc87" stroke="#808080" cx="788.59" cy="-162.5" rx="47.39" ry="18"/>
<text text-anchor="middle" x="788.59" y="-158.8" font-family="Times,serif" font-size="14.00">Commit</text>
</a>
</g>
</g>
<!-- n7&#45;&gt;n1 -->
<g id="edge16" class="edge">
<title>n7&#45;&gt;n1</title>
<path fill="none" stroke="#fed37f" d="M822.26,-175.54C842.13,-184.34 866.14,-198.21 880.59,-218 905.2,-251.69 901.59,-267.78 901.59,-309.5 901.59,-309.5 901.59,-309.5 901.59,-573 901.59,-632.82 703.03,-648.49 606.74,-652.57"/>
<polygon fill="#fed37f" stroke="#fed37f" points="606.49,-649.08 596.64,-652.98 606.77,-656.08 606.49,-649.08"/>
<text text-anchor="middle" x="943.59" y="-461.5" font-family="Times,serif" font-size="10.00">wasAttributedTo</text>
</g>
<!-- n7&#45;&gt;n4 -->
<g id="edge19" class="edge">
<title>n7&#45;&gt;n4</title>
<path fill="none" stroke="darkgreen" d="M788.59,-180.76C788.59,-222.76 788.59,-330.53 788.59,-381.5"/>
<polygon fill="darkgreen" stroke="darkgreen" points="785.09,-381.76 788.59,-391.76 792.09,-381.76 785.09,-381.76"/>
<text text-anchor="middle" x="832.59" y="-221" font-family="Times,serif" font-size="10.00" fill="darkgreen">wasGeneratedBy</text>
</g>
<!-- n7&#45;&gt;n5 -->
<g id="edge10" class="edge">
<title>n7&#45;&gt;n5</title>
<path fill="none" stroke="black" d="M762.61,-177.66C744.92,-187.84 721.4,-202.46 702.59,-218 677.3,-238.9 652.02,-266.85 635.48,-286.34"/>
<polygon fill="black" stroke="black" points="632.7,-284.21 628.96,-294.13 638.06,-288.71 632.7,-284.21"/>
<text text-anchor="middle" x="734.59" y="-221" font-family="Times,serif" font-size="10.00">hadMember</text>
</g>
<!-- ann4 -->
<g id="node11" class="node">
<title>ann4</title>
<polygon fill="none" stroke="gray" points="820.59,-88 750.59,-88 750.59,0 826.59,0 826.59,-82 820.59,-88"/>
<polyline fill="none" stroke="gray" points="820.59,-88 820.59,-82 "/>
<polyline fill="none" stroke="gray" points="826.59,-82 820.59,-82 "/>
<g id="a_node11_16"><a xlink:href="gitlab2prov:created_at" xlink:title="&lt;TABLE&gt;">
<text text-anchor="start" x="760.59" y="-74" font-family="Times,serif" font-size="10.00">created_at</text>
</a>
</g>
<g id="a_node11_17"><a xlink:href="gitlab2prov:id" xlink:title="&lt;TABLE&gt;">
<text text-anchor="start" x="760.59" y="-61" font-family="Times,serif" font-size="10.00">id</text>
</a>
</g>
<g id="a_node11_18"><a xlink:href="gitlab2prov:message" xlink:title="&lt;TABLE&gt;">
<text text-anchor="start" x="760.59" y="-48" font-family="Times,serif" font-size="10.00">message</text>
</a>
</g>
<g id="a_node11_19"><a xlink:href="gitlab2prov:short_id" xlink:title="&lt;TABLE&gt;">
<text text-anchor="start" x="760.59" y="-35" font-family="Times,serif" font-size="10.00">short_id</text>
</a>
</g>
<g id="a_node11_20"><a xlink:href="gitlab2prov:title" xlink:title="&lt;TABLE&gt;">
<text text-anchor="start" x="760.59" y="-22" font-family="Times,serif" font-size="10.00">title</text>
</a>
</g>
<g id="a_node11_21"><a xlink:href="gitlab2prov:web_url" xlink:title="&lt;TABLE&gt;">
<text text-anchor="start" x="760.59" y="-9" font-family="Times,serif" font-size="10.00">web_url</text>
</a>
</g>
</g>
<!-- ann4&#45;&gt;n7 -->
<g id="edge4" class="edge">
<title>ann4&#45;&gt;n7</title>
<path fill="none" stroke="gray" stroke-dasharray="5,2" d="M788.59,-88.05C788.59,-107.62 788.59,-129.66 788.59,-144.45"/>
</g>
<!-- n8 -->
<g id="node12" class="node">
<title>n8</title>
<g id="a_node12"><a xlink:href="gitlab2prov:Release_Evidence" xlink:title="Release_Evidence">
<ellipse fill="#fffc87" stroke="#808080" cx="93.59" cy="-310.5" rx="93.68" ry="18"/>
<text text-anchor="middle" x="93.59" y="-306.8" font-family="Times,serif" font-size="14.00">Release_Evidence</text>
</a>
</g>
</g>
<!-- n8&#45;&gt;n6 -->
<g id="edge8" class="edge">
<title>n8&#45;&gt;n6</title>
<path fill="none" stroke="black" d="M113.6,-328.26C143.92,-352.96 204.1,-399.33 261.59,-428 279.97,-437.16 301.29,-444.74 319.97,-450.47"/>
<polygon fill="black" stroke="black" points="319.18,-453.88 329.76,-453.38 321.17,-447.17 319.18,-453.88"/>
<text text-anchor="middle" x="293.59" y="-407.5" font-family="Times,serif" font-size="10.00">hadMember</text>
</g>
<!-- ann5 -->
<g id="node13" class="node">
<title>ann5</title>
<polygon fill="none" stroke="gray" points="129.09,-187 52.09,-187 52.09,-138 135.09,-138 135.09,-181 129.09,-187"/>
<polyline fill="none" stroke="gray" points="129.09,-187 129.09,-181 "/>
<polyline fill="none" stroke="gray" points="135.09,-181 129.09,-181 "/>
<g id="a_node13_22"><a xlink:href="gitlab2prov:collected_at" xlink:title="&lt;TABLE&gt;">
<text text-anchor="start" x="62.59" y="-172.5" font-family="Times,serif" font-size="10.00">collected_at</text>
</a>
</g>
<g id="a_node13_23"><a xlink:href="gitlab2prov:filepath" xlink:title="&lt;TABLE&gt;">
<text text-anchor="start" x="62.59" y="-159.5" font-family="Times,serif" font-size="10.00">filepath</text>
</a>
</g>
<g id="a_node13_24"><a xlink:href="gitlab2prov:sha" xlink:title="&lt;TABLE&gt;">
<text text-anchor="start" x="62.59" y="-146.5" font-family="Times,serif" font-size="10.00">sha</text>
</a>
</g>
</g>
<!-- ann5&#45;&gt;n8 -->
<g id="edge5" class="edge">
<title>ann5&#45;&gt;n8</title>
<path fill="none" stroke="gray" stroke-dasharray="5,2" d="M93.59,-187.28C93.59,-216.69 93.59,-266.06 93.59,-292.14"/>
</g>
<!-- n9 -->
<g id="node14" class="node">
<title>n9</title>
<g id="a_node14"><a xlink:href="gitlab2prov:Release_Asset" xlink:title="Release_Asset">
<ellipse fill="#fffc87" stroke="#808080" cx="281.59" cy="-310.5" rx="76.89" ry="18"/>
<text text-anchor="middle" x="281.59" y="-306.8" font-family="Times,serif" font-size="14.00">Release_Asset</text>
</a>
</g>
</g>
<!-- n9&#45;&gt;n6 -->
<g id="edge7" class="edge">
<title>n9&#45;&gt;n6</title>
<path fill="none" stroke="black" d="M291.29,-328.58C306.34,-355.09 335.41,-406.3 353,-437.29"/>
<polygon fill="black" stroke="black" points="350.08,-439.24 358.06,-446.21 356.17,-435.78 350.08,-439.24"/>
<text text-anchor="middle" x="378.59" y="-407.5" font-family="Times,serif" font-size="10.00">hadMember</text>
</g>
<!-- ann6 -->
<g id="node15" class="node">
<title>ann6</title>
<polygon fill="none" stroke="gray" points="306.59,-187 250.59,-187 250.59,-138 312.59,-138 312.59,-181 306.59,-187"/>
<polyline fill="none" stroke="gray" points="306.59,-187 306.59,-181 "/>
<polyline fill="none" stroke="gray" points="312.59,-181 306.59,-181 "/>
<g id="a_node15_25"><a xlink:href="gitlab2prov:filepath" xlink:title="&lt;TABLE&gt;">
<text text-anchor="start" x="260.59" y="-172.5" font-family="Times,serif" font-size="10.00">filepath</text>
</a>
</g>
<g id="a_node15_26"><a xlink:href="gitlab2prov:format" xlink:title="&lt;TABLE&gt;">
<text text-anchor="start" x="260.59" y="-159.5" font-family="Times,serif" font-size="10.00">format</text>
</a>
</g>
<g id="a_node15_27"><a xlink:href="gitlab2prov:uri" xlink:title="&lt;TABLE&gt;">
<text text-anchor="start" x="260.59" y="-146.5" font-family="Times,serif" font-size="10.00">uri</text>
</a>
</g>
</g>
<!-- ann6&#45;&gt;n9 -->
<g id="edge6" class="edge">
<title>ann6&#45;&gt;n9</title>
<path fill="none" stroke="gray" stroke-dasharray="5,2" d="M281.59,-187.28C281.59,-216.69 281.59,-266.06 281.59,-292.14"/>
</g>
</g>
</svg>
