<?xml version="1.0" encoding="UTF-8" standalone="no"?>
<!DOCTYPE svg PUBLIC "-//W3C//DTD SVG 1.1//EN"
 "http://www.w3.org/Graphics/SVG/1.1/DTD/svg11.dtd">
<!-- Generated by graphviz version 2.50.0 (20211204.2007)
 -->
<!-- Title: G Pages: 1 -->
<svg width="492pt" height="459pt"
 viewBox="0.00 0.00 491.84 459.00" xmlns="http://www.w3.org/2000/svg" xmlns:xlink="http://www.w3.org/1999/xlink">
<g id="graph0" class="graph" transform="scale(1 1) rotate(0) translate(4 455)">
<title>G</title>
<!-- n1 -->
<g id="node1" class="node">
<title>n1</title>
<g id="a_node1"><a xlink:href="gitlab2prov:Merge Request Author" xlink:title="Merge Request Author">
<polygon fill="#fed37f" stroke="black" points="337.71,-438.56 221.84,-451 105.97,-438.56 106.08,-418.44 337.6,-418.44 337.71,-438.56"/>
<text text-anchor="middle" x="221.84" y="-429.3" font-family="Times New Roman,serif" font-size="14.00">Merge Request Author</text>
</a>
</g>
</g>
<!-- n2 -->
<g id="node2" class="node">
<title>n2</title>
<g id="a_node2"><a xlink:href="gitlab2prov:Annotator" xlink:title="Annotator">
<polygon fill="#fed37f" stroke="black" points="389.63,-189.56 330.84,-202 272.05,-189.56 272.1,-169.44 389.58,-169.44 389.63,-189.56"/>
<text text-anchor="middle" x="330.84" y="-180.3" font-family="Times New Roman,serif" font-size="14.00">Annotator</text>
</a>
</g>
</g>
<!-- n3 -->
<g id="node3" class="node">
<title>n3</title>
<g id="a_node3"><a xlink:href="gitlab2prov:Creation" xlink:title="Creation">
<polygon fill="#9fb1fc" stroke="#0000ff" points="253.84,-368 189.84,-368 189.84,-332 253.84,-332 253.84,-368"/>
<text text-anchor="middle" x="221.84" y="-346.3" font-family="Times New Roman,serif" font-size="14.00">Creation</text>
</a>
</g>
</g>
<!-- n3&#45;&gt;n1 -->
<g id="edge12" class="edge">
<title>n3&#45;&gt;n1</title>
<path fill="none" stroke="#fed37f" d="M221.84,-368.18C221.84,-379.86 221.84,-395.47 221.84,-408.33"/>
<polygon fill="#fed37f" stroke="#fed37f" points="218.34,-408.33 221.84,-418.33 225.34,-408.33 218.34,-408.33"/>
<text text-anchor="middle" x="262.84" y="-389" font-family="Times New Roman,serif" font-size="10.00">wasAssociatedWith</text>
</g>
<!-- n4 -->
<g id="node4" class="node">
<title>n4</title>
<g id="a_node4"><a xlink:href="gitlab2prov:Annotation" xlink:title="Annotation">
<polygon fill="#9fb1fc" stroke="#0000ff" points="284.84,-119 206.84,-119 206.84,-83 284.84,-83 284.84,-119"/>
<text text-anchor="middle" x="245.84" y="-97.3" font-family="Times New Roman,serif" font-size="14.00">Annotation</text>
</a>
</g>
</g>
<!-- n4&#45;&gt;n2 -->
<g id="edge13" class="edge">
<title>n4&#45;&gt;n2</title>
<path fill="none" stroke="#fed37f" d="M245.99,-119.32C246.89,-128.69 249.41,-139.95 255.84,-148 261.19,-154.7 268.12,-160.17 275.6,-164.63"/>
<polygon fill="#fed37f" stroke="#fed37f" points="274.11,-167.8 284.58,-169.42 277.4,-161.63 274.11,-167.8"/>
<text text-anchor="middle" x="296.84" y="-140" font-family="Times New Roman,serif" font-size="10.00">wasAssociatedWith</text>
</g>
<!-- n4&#45;&gt;n3 -->
<g id="edge1" class="edge">
<title>n4&#45;&gt;n3</title>
<path fill="none" stroke="black" d="M244.15,-119.37C240.04,-161.72 229.46,-270.58 224.49,-321.71"/>
<polygon fill="black" stroke="black" points="220.98,-321.69 223.5,-331.98 227.95,-322.36 220.98,-321.69"/>
<text text-anchor="middle" x="265.84" y="-223" font-family="Times New Roman,serif" font-size="10.00">wasInformedBy</text>
</g>
<!-- n6 -->
<g id="node6" class="node">
<title>n6</title>
<g id="a_node6"><a xlink:href="gitlab2prov:Merge Request Version" xlink:title="Merge Request Version">
<ellipse fill="#fffc87" stroke="#808080" cx="96.84" cy="-184" rx="96.68" ry="18"/>
<text text-anchor="middle" x="96.84" y="-180.3" font-family="Times New Roman,serif" font-size="14.00">Merge Request Version</text>
</a>
</g>
</g>
<!-- n4&#45;&gt;n6 -->
<g id="edge5" class="edge">
<title>n4&#45;&gt;n6</title>
<path fill="none" stroke="#8b0000" d="M214.24,-119.18C191.29,-131.66 160.1,-148.61 135.63,-161.91"/>
<polygon fill="#8b0000" stroke="#8b0000" points="133.73,-158.96 126.62,-166.81 137.08,-165.11 133.73,-158.96"/>
<text text-anchor="middle" x="189.84" y="-140" font-family="Times New Roman,serif" font-size="10.00" fill="red">used</text>
</g>
<!-- n5 -->
<g id="node5" class="node">
<title>n5</title>
<g id="a_node5"><a xlink:href="gitlab2prov:Merge Request" xlink:title="Merge Request">
<ellipse fill="#fffc87" stroke="#808080" cx="326.84" cy="-267" rx="65.79" ry="18"/>
<text text-anchor="middle" x="326.84" y="-263.3" font-family="Times New Roman,serif" font-size="14.00">Merge Request</text>
</a>
</g>
</g>
<!-- n5&#45;&gt;n1 -->
<g id="edge11" class="edge">
<title>n5&#45;&gt;n1</title>
<path fill="none" stroke="#fed37f" d="M329.45,-285.23C332.52,-312.25 334.27,-364.81 307.84,-397 302.33,-403.72 295.32,-409.16 287.7,-413.56"/>
<polygon fill="#fed37f" stroke="#fed37f" points="285.82,-410.59 278.52,-418.27 289.01,-416.82 285.82,-410.59"/>
<text text-anchor="middle" x="364.84" y="-347.5" font-family="Times New Roman,serif" font-size="10.00">wasAttributedTo</text>
</g>
<!-- n5&#45;&gt;n3 -->
<g id="edge2" class="edge">
<title>n5&#45;&gt;n3</title>
<path fill="none" stroke="darkgreen" d="M290.17,-282.01C278.48,-287.5 265.96,-294.54 255.84,-303 249.09,-308.64 242.94,-315.89 237.78,-322.95"/>
<polygon fill="darkgreen" stroke="darkgreen" points="234.58,-321.44 231.81,-331.67 240.35,-325.4 234.58,-321.44"/>
<text text-anchor="middle" x="289.84" y="-306" font-family="Times New Roman,serif" font-size="10.00" fill="darkgreen">wasGeneratedBy</text>
</g>
<!-- n6&#45;&gt;n1 -->
<g id="edge10" class="edge">
<title>n6&#45;&gt;n1</title>
<path fill="none" stroke="#fed37f" d="M89.76,-202.2C80.35,-227.83 66.8,-277 83.84,-314 104.64,-359.14 152.17,-393.44 185.61,-413.13"/>
<polygon fill="#fed37f" stroke="#fed37f" points="184.22,-416.36 194.64,-418.29 187.69,-410.29 184.22,-416.36"/>
<text text-anchor="middle" x="118.84" y="-306" font-family="Times New Roman,serif" font-size="10.00">wasAttributedTo</text>
</g>
<!-- n6&#45;&gt;n3 -->
<g id="edge3" class="edge">
<title>n6&#45;&gt;n3</title>
<path fill="none" stroke="darkgreen" d="M101.39,-202.29C107.55,-223.39 120.1,-259.41 139.84,-285 152.13,-300.93 169.24,-315.11 184.66,-326.05"/>
<polygon fill="darkgreen" stroke="darkgreen" points="182.79,-329.01 193.01,-331.78 186.75,-323.24 182.79,-329.01"/>
<text text-anchor="middle" x="173.84" y="-264.5" font-family="Times New Roman,serif" font-size="10.00" fill="darkgreen">wasGeneratedBy</text>
</g>
<!-- n6&#45;&gt;n5 -->
<g id="edge6" class="edge">
<title>n6&#45;&gt;n5</title>
<path fill="none" stroke="black" d="M107.01,-202.05C113.88,-212.07 123.88,-224.08 135.84,-231 170.65,-251.13 214.49,-260.1 251.39,-263.94"/>
<polygon fill="black" stroke="black" points="251.31,-267.45 261.6,-264.89 251.96,-260.48 251.31,-267.45"/>
<text text-anchor="middle" x="167.84" y="-223" font-family="Times New Roman,serif" font-size="10.00">specializationOf</text>
</g>
<!-- n7 -->
<g id="node7" class="node">
<title>n7</title>
<g id="a_node7"><a xlink:href="gitlab2prov:Annotated Merge Request Version" xlink:title="Annotated Merge Request Version">
<ellipse fill="#fffc87" stroke="#808080" cx="304.84" cy="-18" rx="136.48" ry="18"/>
<text text-anchor="middle" x="304.84" y="-14.3" font-family="Times New Roman,serif" font-size="14.00">Annotated Merge Request Version</text>
</a>
</g>
</g>
<!-- n7&#45;&gt;n2 -->
<g id="edge9" class="edge">
<title>n7&#45;&gt;n2</title>
<path fill="none" stroke="#fed37f" d="M325.66,-35.97C330.6,-41.18 335.19,-47.32 337.84,-54 351.59,-88.63 344.55,-132.63 337.91,-159.26"/>
<polygon fill="#fed37f" stroke="#fed37f" points="334.45,-158.65 335.24,-169.21 341.21,-160.46 334.45,-158.65"/>
<text text-anchor="middle" x="379.84" y="-98.5" font-family="Times New Roman,serif" font-size="10.00">wasAttributedTo</text>
</g>
<!-- n7&#45;&gt;n4 -->
<g id="edge4" class="edge">
<title>n7&#45;&gt;n4</title>
<path fill="none" stroke="darkgreen" d="M285.91,-35.84C280.36,-41.31 274.52,-47.63 269.84,-54 265.47,-59.95 261.44,-66.81 257.98,-73.38"/>
<polygon fill="darkgreen" stroke="darkgreen" points="254.68,-72.16 253.34,-82.67 260.94,-75.28 254.68,-72.16"/>
<text text-anchor="middle" x="303.84" y="-57" font-family="Times New Roman,serif" font-size="10.00" fill="darkgreen">wasGeneratedBy</text>
</g>
<!-- n7&#45;&gt;n5 -->
<g id="edge7" class="edge">
<title>n7&#45;&gt;n5</title>
<path fill="none" stroke="black" d="M357.01,-34.72C380.25,-44.61 405.37,-59.98 418.84,-83 434.87,-110.38 406.44,-189.33 398.84,-202 388.99,-218.43 373.54,-232.96 359.48,-244.01"/>
<polygon fill="black" stroke="black" points="357.28,-241.29 351.41,-250.11 361.5,-246.87 357.28,-241.29"/>
<text text-anchor="middle" x="451.84" y="-140" font-family="Times New Roman,serif" font-size="10.00">specializationOf</text>
</g>
<!-- n7&#45;&gt;n6 -->
<g id="edge8" class="edge">
<title>n7&#45;&gt;n6</title>
<path fill="none" stroke="black" d="M224.06,-32.51C191.04,-41.75 154.82,-57.21 129.84,-83 110.82,-102.64 102.76,-133.45 99.35,-155.69"/>
<polygon fill="black" stroke="black" points="95.85,-155.46 98.02,-165.83 102.79,-156.37 95.85,-155.46"/>
<text text-anchor="middle" x="163.84" y="-98.5" font-family="Times New Roman,serif" font-size="10.00">wasDerivedFrom</text>
</g>
</g>
</svg>
