<?xml version="1.0" encoding="UTF-8" standalone="no"?>
<!DOCTYPE svg PUBLIC "-//W3C//DTD SVG 1.1//EN"
 "http://www.w3.org/Graphics/SVG/1.1/DTD/svg11.dtd">
<!-- Generated by graphviz version 2.43.0 (0)
 -->
<!-- Title: G Pages: 1 -->
<svg width="979pt" height="662pt"
 viewBox="0.00 0.00 979.00 662.00" xmlns="http://www.w3.org/2000/svg" xmlns:xlink="http://www.w3.org/1999/xlink">
<g id="graph0" class="graph" transform="scale(1 1) rotate(0) translate(4 658)">
<title>G</title>
<polygon fill="white" stroke="transparent" points="-4,4 -4,-658 975,-658 975,4 -4,4"/>
<!-- n1 -->
<g id="node1" class="node">
<title>n1</title>
<g id="a_node1"><a xlink:href="gitlab2prov:Creator" xlink:title="Creator">
<polygon fill="#fed37f" stroke="black" points="250.08,-641.56 193,-654 135.92,-641.56 135.97,-621.44 250.03,-621.44 250.08,-641.56"/>
<text text-anchor="middle" x="193" y="-632.3" font-family="Times,serif" font-size="14.00">Creator</text>
</a>
</g>
</g>
<!-- ann1 -->
<g id="node2" class="node">
<title>ann1</title>
<polygon fill="none" stroke="gray" points="102,-571 0,-571 0,-522 108,-522 108,-565 102,-571"/>
<polyline fill="none" stroke="gray" points="102,-571 102,-565 "/>
<polyline fill="none" stroke="gray" points="108,-565 102,-565 "/>
<g id="a_node2_0"><a xlink:href="http://www.w3.org/ns/prov#role" xlink:title="&lt;TABLE&gt;">
<text text-anchor="start" x="10" y="-556.5" font-family="Times,serif" font-size="10.00">prov:role</text>
</a>
</g>
<text text-anchor="start" x="61" y="-556.5" font-family="Times,serif" font-size="10.00">creator</text>
<g id="a_node2_1"><a xlink:href="http://www.w3.org/ns/prov#type" xlink:title="&lt;TABLE&gt;">
<text text-anchor="start" x="10" y="-543.5" font-family="Times,serif" font-size="10.00">prov:type</text>
</a>
</g>
<text text-anchor="start" x="61" y="-543.5" font-family="Times,serif" font-size="10.00">user</text>
<g id="a_node2_2"><a xlink:href="gitlab2prov:name" xlink:title="&lt;TABLE&gt;">
<text text-anchor="start" x="10" y="-530.5" font-family="Times,serif" font-size="10.00">name</text>
</a>
</g>
</g>
<!-- ann1&#45;&gt;n1 -->
<g id="edge1" class="edge">
<title>ann1&#45;&gt;n1</title>
<path fill="none" stroke="gray" stroke-dasharray="5,2" d="M86.83,-571.21C100.05,-580.49 115.56,-591.03 130,-600 142.01,-607.46 155.69,-615.15 167.23,-621.42"/>
</g>
<!-- n2 -->
<g id="node3" class="node">
<title>n2</title>
<g id="a_node3"><a xlink:href="gitlab2prov:Annotator" xlink:title="Annotator">
<polygon fill="#fed37f" stroke="black" points="866.89,-334.06 796,-346.5 725.11,-334.06 725.17,-313.94 866.83,-313.94 866.89,-334.06"/>
<text text-anchor="middle" x="796" y="-324.8" font-family="Times,serif" font-size="14.00">Annotator</text>
</a>
</g>
</g>
<!-- ann2 -->
<g id="node4" class="node">
<title>ann2</title>
<polygon fill="none" stroke="gray" points="841.5,-231 736.5,-231 736.5,-182 847.5,-182 847.5,-225 841.5,-231"/>
<polyline fill="none" stroke="gray" points="841.5,-231 841.5,-225 "/>
<polyline fill="none" stroke="gray" points="847.5,-225 841.5,-225 "/>
<g id="a_node4_3"><a xlink:href="http://www.w3.org/ns/prov#role" xlink:title="&lt;TABLE&gt;">
<text text-anchor="start" x="747" y="-216.5" font-family="Times,serif" font-size="10.00">prov:role</text>
</a>
</g>
<text text-anchor="start" x="798" y="-216.5" font-family="Times,serif" font-size="10.00">initiator</text>
<g id="a_node4_4"><a xlink:href="http://www.w3.org/ns/prov#type" xlink:title="&lt;TABLE&gt;">
<text text-anchor="start" x="747" y="-203.5" font-family="Times,serif" font-size="10.00">prov:type</text>
</a>
</g>
<text text-anchor="start" x="798" y="-203.5" font-family="Times,serif" font-size="10.00">user</text>
<g id="a_node4_5"><a xlink:href="gitlab2prov:name" xlink:title="&lt;TABLE&gt;">
<text text-anchor="start" x="747" y="-190.5" font-family="Times,serif" font-size="10.00">name</text>
</a>
</g>
</g>
<!-- ann2&#45;&gt;n2 -->
<g id="edge2" class="edge">
<title>ann2&#45;&gt;n2</title>
<path fill="none" stroke="gray" stroke-dasharray="5,2" d="M792.79,-231.21C793.61,-255.93 794.88,-293.83 795.55,-313.92"/>
</g>
<!-- n3 -->
<g id="node5" class="node">
<title>n3</title>
<g id="a_node5"><a xlink:href="gitlab2prov:Issue Creation" xlink:title="Issue Creation">
<polygon fill="#9fb1fc" stroke="#0000ff" points="366,-564.5 246,-564.5 246,-528.5 366,-528.5 366,-564.5"/>
<text text-anchor="middle" x="306" y="-542.8" font-family="Times,serif" font-size="14.00">Issue Creation</text>
</a>
</g>
</g>
<!-- n3&#45;&gt;n1 -->
<g id="edge19" class="edge">
<title>n3&#45;&gt;n1</title>
<path fill="none" stroke="#fed37f" d="M283.94,-564.58C265.17,-579.11 238.2,-600 218.5,-615.25"/>
<polygon fill="#fed37f" stroke="#fed37f" points="216.32,-612.52 210.55,-621.41 220.6,-618.05 216.32,-612.52"/>
<text text-anchor="middle" x="299" y="-592" font-family="Times,serif" font-size="10.00">wasAssociatedWith</text>
</g>
<!-- ann3 -->
<g id="node6" class="node">
<title>ann3</title>
<polygon fill="none" stroke="gray" points="548,-475 386,-475 386,-426 554,-426 554,-469 548,-475"/>
<polyline fill="none" stroke="gray" points="548,-475 548,-469 "/>
<polyline fill="none" stroke="gray" points="554,-469 548,-469 "/>
<g id="a_node6_6"><a xlink:href="http://www.w3.org/ns/prov#type" xlink:title="&lt;TABLE&gt;">
<text text-anchor="start" x="396" y="-460.5" font-family="Times,serif" font-size="10.00">prov:type</text>
</a>
</g>
<text text-anchor="start" x="471" y="-460.5" font-family="Times,serif" font-size="10.00">issue_creation</text>
<g id="a_node6_7"><a xlink:href="http://www.w3.org/ns/prov#endedAt" xlink:title="&lt;TABLE&gt;">
<text text-anchor="start" x="396" y="-447.5" font-family="Times,serif" font-size="10.00">prov:endedAt</text>
</a>
</g>
<g id="a_node6_8"><a xlink:href="http://www.w3.org/ns/prov#startedAt" xlink:title="&lt;TABLE&gt;">
<text text-anchor="start" x="396" y="-434.5" font-family="Times,serif" font-size="10.00">prov:startedAt</text>
</a>
</g>
</g>
<!-- ann3&#45;&gt;n3 -->
<g id="edge3" class="edge">
<title>ann3&#45;&gt;n3</title>
<path fill="none" stroke="gray" stroke-dasharray="5,2" d="M428.62,-475.22C399.67,-491.81 361.7,-513.57 335.73,-528.46"/>
</g>
<!-- n4 -->
<g id="node7" class="node">
<title>n4</title>
<g id="a_node7"><a xlink:href="gitlab2prov:Issue Annotation" xlink:title="Issue Annotation">
<polygon fill="#9fb1fc" stroke="#0000ff" points="718.5,-224.5 581.5,-224.5 581.5,-188.5 718.5,-188.5 718.5,-224.5"/>
<text text-anchor="middle" x="650" y="-202.8" font-family="Times,serif" font-size="14.00">Issue Annotation</text>
</a>
</g>
</g>
<!-- n4&#45;&gt;n2 -->
<g id="edge20" class="edge">
<title>n4&#45;&gt;n2</title>
<path fill="none" stroke="#fed37f" d="M661.63,-224.75C669.44,-235.61 680.41,-249.5 692,-260 713.08,-279.09 740.1,-296.46 761.32,-308.79"/>
<polygon fill="#fed37f" stroke="#fed37f" points="759.6,-311.84 770.02,-313.76 763.08,-305.76 759.6,-311.84"/>
<text text-anchor="middle" x="741" y="-252" font-family="Times,serif" font-size="10.00">wasAssociatedWith</text>
</g>
<!-- n4&#45;&gt;n3 -->
<g id="edge8" class="edge">
<title>n4&#45;&gt;n3</title>
<path fill="none" stroke="black" d="M655.81,-224.72C671.65,-275.22 709.66,-424.37 636,-504 618.66,-522.74 467.76,-535.4 376.13,-541.43"/>
<polygon fill="black" stroke="black" points="375.84,-537.94 366.08,-542.08 376.29,-544.93 375.84,-537.94"/>
<text text-anchor="middle" x="719.5" y="-400" font-family="Times,serif" font-size="10.00">wasInformedBy</text>
</g>
<!-- n6 -->
<g id="node11" class="node">
<title>n6</title>
<g id="a_node11"><a xlink:href="gitlab2prov:Issue Version" xlink:title="Issue Version">
<ellipse fill="#fffc87" stroke="#808080" cx="414" cy="-328.5" rx="72.59" ry="18"/>
<text text-anchor="middle" x="414" y="-324.8" font-family="Times,serif" font-size="14.00">Issue Version</text>
</a>
</g>
</g>
<!-- n4&#45;&gt;n6 -->
<g id="edge12" class="edge">
<title>n4&#45;&gt;n6</title>
<path fill="none" stroke="#8b0000" d="M616.44,-224.57C573.46,-246.42 499.1,-284.23 453.45,-307.44"/>
<polygon fill="#8b0000" stroke="#8b0000" points="451.78,-304.36 444.45,-312.02 454.95,-310.6 451.78,-304.36"/>
<text text-anchor="middle" x="579.5" y="-252" font-family="Times,serif" font-size="10.00" fill="red">used</text>
</g>
<!-- ann4 -->
<g id="node8" class="node">
<title>ann4</title>
<polygon fill="none" stroke="gray" points="965,-135 847,-135 847,-73 971,-73 971,-129 965,-135"/>
<polyline fill="none" stroke="gray" points="965,-135 965,-129 "/>
<polyline fill="none" stroke="gray" points="971,-129 965,-129 "/>
<g id="a_node8_9"><a xlink:href="http://www.w3.org/ns/prov#type" xlink:title="&lt;TABLE&gt;">
<text text-anchor="start" x="857" y="-121" font-family="Times,serif" font-size="10.00">prov:type</text>
</a>
</g>
<text text-anchor="start" x="932" y="-121" font-family="Times,serif" font-size="10.00">event</text>
<g id="a_node8_10"><a xlink:href="gitlab2prov:event" xlink:title="&lt;TABLE&gt;">
<text text-anchor="start" x="857" y="-108" font-family="Times,serif" font-size="10.00">event</text>
</a>
</g>
<g id="a_node8_11"><a xlink:href="http://www.w3.org/ns/prov#endedAt" xlink:title="&lt;TABLE&gt;">
<text text-anchor="start" x="857" y="-95" font-family="Times,serif" font-size="10.00">prov:endedAt</text>
</a>
</g>
<g id="a_node8_12"><a xlink:href="http://www.w3.org/ns/prov#startedAt" xlink:title="&lt;TABLE&gt;">
<text text-anchor="start" x="857" y="-82" font-family="Times,serif" font-size="10.00">prov:startedAt</text>
</a>
</g>
</g>
<!-- ann4&#45;&gt;n4 -->
<g id="edge4" class="edge">
<title>ann4&#45;&gt;n4</title>
<path fill="none" stroke="gray" stroke-dasharray="5,2" d="M846.96,-129.07C799.82,-147.36 736.13,-172.08 694.1,-188.39"/>
</g>
<!-- n5 -->
<g id="node9" class="node">
<title>n5</title>
<g id="a_node9"><a xlink:href="gitlab2prov:Issue" xlink:title="Issue">
<ellipse fill="#fffc87" stroke="#808080" cx="150" cy="-450.5" rx="35.19" ry="18"/>
<text text-anchor="middle" x="150" y="-446.8" font-family="Times,serif" font-size="14.00">Issue</text>
</a>
</g>
</g>
<!-- n5&#45;&gt;n1 -->
<g id="edge18" class="edge">
<title>n5&#45;&gt;n1</title>
<path fill="none" stroke="#fed37f" d="M147.66,-468.57C145.04,-492.16 142.43,-535.82 153,-571 157.57,-586.2 166.77,-601.34 175.19,-613.08"/>
<polygon fill="#fed37f" stroke="#fed37f" points="172.59,-615.45 181.4,-621.34 178.19,-611.24 172.59,-615.45"/>
<text text-anchor="middle" x="195" y="-544" font-family="Times,serif" font-size="10.00">wasAttributedTo</text>
</g>
<!-- n5&#45;&gt;n3 -->
<g id="edge9" class="edge">
<title>n5&#45;&gt;n3</title>
<path fill="none" stroke="darkgreen" d="M155.21,-468.35C159.58,-479.88 166.91,-494.71 178,-504 178.72,-504.6 210.83,-515.01 242.71,-525.26"/>
<polygon fill="darkgreen" stroke="darkgreen" points="241.97,-528.69 252.56,-528.42 244.11,-522.03 241.97,-528.69"/>
<text text-anchor="middle" x="222" y="-496" font-family="Times,serif" font-size="10.00" fill="darkgreen">wasGeneratedBy</text>
</g>
<!-- ann5 -->
<g id="node10" class="node">
<title>ann5</title>
<polygon fill="none" stroke="gray" points="263,-379 113,-379 113,-278 269,-278 269,-373 263,-379"/>
<polyline fill="none" stroke="gray" points="263,-379 263,-373 "/>
<polyline fill="none" stroke="gray" points="269,-373 263,-373 "/>
<g id="a_node10_13"><a xlink:href="http://www.w3.org/ns/prov#type" xlink:title="&lt;TABLE&gt;">
<text text-anchor="start" x="123" y="-364.5" font-family="Times,serif" font-size="10.00">prov:type</text>
</a>
</g>
<text text-anchor="start" x="183" y="-364.5" font-family="Times,serif" font-size="10.00">issue_resource</text>
<g id="a_node10_14"><a xlink:href="gitlab2prov:description" xlink:title="&lt;TABLE&gt;">
<text text-anchor="start" x="123" y="-351.5" font-family="Times,serif" font-size="10.00">description</text>
</a>
</g>
<g id="a_node10_15"><a xlink:href="gitlab2prov:id" xlink:title="&lt;TABLE&gt;">
<text text-anchor="start" x="123" y="-338.5" font-family="Times,serif" font-size="10.00">id</text>
</a>
</g>
<g id="a_node10_16"><a xlink:href="gitlab2prov:iid" xlink:title="&lt;TABLE&gt;">
<text text-anchor="start" x="123" y="-325.5" font-family="Times,serif" font-size="10.00">iid</text>
</a>
</g>
<g id="a_node10_17"><a xlink:href="gitlab2prov:project_id" xlink:title="&lt;TABLE&gt;">
<text text-anchor="start" x="123" y="-312.5" font-family="Times,serif" font-size="10.00">project_id</text>
</a>
</g>
<g id="a_node10_18"><a xlink:href="gitlab2prov:title" xlink:title="&lt;TABLE&gt;">
<text text-anchor="start" x="123" y="-299.5" font-family="Times,serif" font-size="10.00">title</text>
</a>
</g>
<g id="a_node10_19"><a xlink:href="gitlab2prov:web_url" xlink:title="&lt;TABLE&gt;">
<text text-anchor="start" x="123" y="-286.5" font-family="Times,serif" font-size="10.00">web_url</text>
</a>
</g>
</g>
<!-- ann5&#45;&gt;n5 -->
<g id="edge5" class="edge">
<title>ann5&#45;&gt;n5</title>
<path fill="none" stroke="gray" stroke-dasharray="5,2" d="M170.41,-379.01C168.14,-385.03 165.95,-391.13 164,-397 160.14,-408.64 156.59,-421.99 154.03,-432.32"/>
</g>
<!-- n6&#45;&gt;n1 -->
<g id="edge17" class="edge">
<title>n6&#45;&gt;n1</title>
<path fill="none" stroke="#fed37f" d="M450.99,-344.03C505.05,-367.59 595.85,-417.36 563,-475 501.86,-582.29 349.22,-617.69 260.27,-629.33"/>
<polygon fill="#fed37f" stroke="#fed37f" points="259.77,-625.87 250.27,-630.58 260.63,-632.81 259.77,-625.87"/>
<text text-anchor="middle" x="592" y="-496" font-family="Times,serif" font-size="10.00">wasAttributedTo</text>
</g>
<!-- n6&#45;&gt;n3 -->
<g id="edge10" class="edge">
<title>n6&#45;&gt;n3</title>
<path fill="none" stroke="darkgreen" d="M380.31,-344.6C350.15,-360.18 307.86,-387.61 289,-426 274.48,-455.55 284.19,-493.85 293.86,-519.02"/>
<polygon fill="darkgreen" stroke="darkgreen" points="290.62,-520.37 297.65,-528.3 297.1,-517.72 290.62,-520.37"/>
<text text-anchor="middle" x="333" y="-448" font-family="Times,serif" font-size="10.00" fill="darkgreen">wasGeneratedBy</text>
</g>
<!-- n6&#45;&gt;n5 -->
<g id="edge13" class="edge">
<title>n6&#45;&gt;n5</title>
<path fill="none" stroke="black" d="M378.43,-344.22C351.28,-355.02 312.76,-369.41 278,-379 236.99,-390.31 219.28,-373.24 184,-397 174.31,-403.53 166.76,-413.84 161.26,-423.61"/>
<polygon fill="black" stroke="black" points="158.06,-422.17 156.61,-432.66 164.29,-425.36 158.06,-422.17"/>
<text text-anchor="middle" x="225" y="-400" font-family="Times,serif" font-size="10.00">specializationOf</text>
</g>
<!-- ann6 -->
<g id="node12" class="node">
<title>ann6</title>
<polygon fill="none" stroke="gray" points="557,-224.5 373,-224.5 373,-188.5 563,-188.5 563,-218.5 557,-224.5"/>
<polyline fill="none" stroke="gray" points="557,-224.5 557,-218.5 "/>
<polyline fill="none" stroke="gray" points="563,-218.5 557,-218.5 "/>
<g id="a_node12_20"><a xlink:href="http://www.w3.org/ns/prov#type" xlink:title="&lt;TABLE&gt;">
<text text-anchor="start" x="383" y="-203.5" font-family="Times,serif" font-size="10.00">prov:type</text>
</a>
</g>
<text text-anchor="start" x="434" y="-203.5" font-family="Times,serif" font-size="10.00">issue_resource_version</text>
</g>
<!-- ann6&#45;&gt;n6 -->
<g id="edge6" class="edge">
<title>ann6&#45;&gt;n6</title>
<path fill="none" stroke="gray" stroke-dasharray="5,2" d="M460.26,-224.69C450,-247.51 431.98,-287.54 421.72,-310.34"/>
</g>
<!-- n7 -->
<g id="node13" class="node">
<title>n7</title>
<g id="a_node13"><a xlink:href="gitlab2prov:Annotated Issue Version" xlink:title="Annotated Issue Version">
<ellipse fill="#fffc87" stroke="#808080" cx="363" cy="-104" rx="123.48" ry="18"/>
<text text-anchor="middle" x="363" y="-100.3" font-family="Times,serif" font-size="14.00">Annotated Issue Version</text>
</a>
</g>
</g>
<!-- n7&#45;&gt;n2 -->
<g id="edge16" class="edge">
<title>n7&#45;&gt;n2</title>
<path fill="none" stroke="#fed37f" d="M485.33,-106.59C615.54,-111.19 809.21,-127.33 856,-182 887.8,-219.16 845.8,-275.49 817.65,-306.02"/>
<polygon fill="#fed37f" stroke="#fed37f" points="814.84,-303.89 810.5,-313.55 819.92,-308.71 814.84,-303.89"/>
<text text-anchor="middle" x="910" y="-204" font-family="Times,serif" font-size="10.00">wasAttributedTo</text>
</g>
<!-- n7&#45;&gt;n4 -->
<g id="edge11" class="edge">
<title>n7&#45;&gt;n4</title>
<path fill="none" stroke="darkgreen" d="M408.16,-120.81C457.75,-138.18 537.53,-166.11 591.78,-185.11"/>
<polygon fill="darkgreen" stroke="darkgreen" points="590.67,-188.43 601.27,-188.43 592.98,-181.83 590.67,-188.43"/>
<text text-anchor="middle" x="568" y="-156" font-family="Times,serif" font-size="10.00" fill="darkgreen">wasGeneratedBy</text>
</g>
<!-- n7&#45;&gt;n5 -->
<g id="edge14" class="edge">
<title>n7&#45;&gt;n5</title>
<path fill="none" stroke="black" d="M315.32,-120.62C253.38,-143.81 147.98,-193.91 104,-278 83.2,-317.78 91.2,-335.97 104,-379 109.09,-396.12 119.81,-412.96 129.62,-425.89"/>
<polygon fill="black" stroke="black" points="126.91,-428.12 135.86,-433.79 132.4,-423.77 126.91,-428.12"/>
<text text-anchor="middle" x="162" y="-252" font-family="Times,serif" font-size="10.00">specializationOf</text>
</g>
<!-- n7&#45;&gt;n6 -->
<g id="edge15" class="edge">
<title>n7&#45;&gt;n6</title>
<path fill="none" stroke="black" d="M333.61,-121.67C313.24,-135.05 287.76,-155.88 276,-182 267.06,-201.86 265.94,-211.69 276,-231 295.06,-267.58 335.02,-293.15 367.06,-308.73"/>
<polygon fill="black" stroke="black" points="365.74,-311.98 376.28,-313.06 368.71,-305.64 365.74,-311.98"/>
<text text-anchor="middle" x="320" y="-204" font-family="Times,serif" font-size="10.00">wasDerivedFrom</text>
</g>
<!-- ann7 -->
<g id="node14" class="node">
<title>ann7</title>
<polygon fill="none" stroke="gray" points="452,-36 268,-36 268,0 458,0 458,-30 452,-36"/>
<polyline fill="none" stroke="gray" points="452,-36 452,-30 "/>
<polyline fill="none" stroke="gray" points="458,-30 452,-30 "/>
<g id="a_node14_21"><a xlink:href="http://www.w3.org/ns/prov#type" xlink:title="&lt;TABLE&gt;">
<text text-anchor="start" x="278" y="-15" font-family="Times,serif" font-size="10.00">prov:type</text>
</a>
</g>
<text text-anchor="start" x="329" y="-15" font-family="Times,serif" font-size="10.00">issue_resource_version</text>
</g>
<!-- ann7&#45;&gt;n7 -->
<g id="edge7" class="edge">
<title>ann7&#45;&gt;n7</title>
<path fill="none" stroke="gray" stroke-dasharray="5,2" d="M363,-36.4C363,-50.92 363,-71.48 363,-85.9"/>
</g>
</g>
</svg>
