<?xml version="1.0" encoding="UTF-8" standalone="no"?>
<!DOCTYPE svg PUBLIC "-//W3C//DTD SVG 1.1//EN"
 "http://www.w3.org/Graphics/SVG/1.1/DTD/svg11.dtd">
<!-- Generated by graphviz version 2.40.1 (20161225.0304)
 -->
<!-- Title: G Pages: 1 -->
<svg width="829pt" height="668pt"
 viewBox="0.00 0.00 829.34 668.00" xmlns="http://www.w3.org/2000/svg" xmlns:xlink="http://www.w3.org/1999/xlink">
<g id="graph0" class="graph" transform="scale(1 1) rotate(0) translate(4 664)">
<title>G</title>
<polygon fill="#ffffff" stroke="transparent" points="-4,4 -4,-664 825.3431,-664 825.3431,4 -4,4"/>
<!-- n1 -->
<g id="node1" class="node">
<title>n1</title>
<g id="a_node1"><a xlink:href="gitlab2prov:User" xlink:title="User">
<polygon fill="#fed37f" stroke="#000000" points="493.9333,-647.5623 459.3431,-660 424.753,-647.5623 424.7853,-627.4377 493.901,-627.4377 493.9333,-647.5623"/>
<text text-anchor="middle" x="459.3431" y="-638.3" font-family="Times,serif" font-size="14.00" fill="#000000">User</text>
</a>
</g>
</g>
<!-- ann1 -->
<g id="node2" class="node">
<title>ann1</title>
<polygon fill="none" stroke="#c0c0c0" points="195.3431,-577 147.3431,-577 147.3431,-541 201.3431,-541 201.3431,-571 195.3431,-577"/>
<polyline fill="none" stroke="#c0c0c0" points="195.3431,-577 195.3431,-571 "/>
<polyline fill="none" stroke="#c0c0c0" points="201.3431,-571 195.3431,-571 "/>
<g id="a_node2_0"><a xlink:href="gitlab2prov:email" xlink:title="&lt;TABLE&gt;">
<text text-anchor="start" x="162.3431" y="-563" font-family="Times,serif" font-size="10.00" fill="#000000">email</text>
</a>
</g>
<g id="a_node2_1"><a xlink:href="gitlab2prov:name" xlink:title="&lt;TABLE&gt;">
<text text-anchor="start" x="162.3431" y="-550" font-family="Times,serif" font-size="10.00" fill="#000000">name</text>
</a>
</g>
</g>
<!-- ann1&#45;&gt;n1 -->
<g id="edge1" class="edge">
<title>ann1&#45;&gt;n1</title>
<path fill="none" stroke="#c0c0c0" stroke-dasharray="5,2" d="M188.28,-577.0254C197.1772,-587.2106 209.5983,-599.2248 223.3431,-606 258.1019,-623.1335 368.0063,-634.4451 424.7264,-639.298"/>
</g>
<!-- n2 -->
<g id="node3" class="node">
<title>n2</title>
<g id="a_node3"><a xlink:href="gitlab2prov:Release_Event" xlink:title="Release_Event">
<polygon fill="#9fb1fc" stroke="#0000ff" points="423.3431,-577 323.3431,-577 323.3431,-541 423.3431,-541 423.3431,-577"/>
<text text-anchor="middle" x="373.3431" y="-555.3" font-family="Times,serif" font-size="14.00" fill="#000000">Release_Event</text>
</a>
</g>
</g>
<!-- n2&#45;&gt;n1 -->
<g id="edge12" class="edge">
<title>n2&#45;&gt;n1</title>
<path fill="none" stroke="#fed37f" d="M364.3582,-577.3125C361.169,-586.6159 359.6203,-597.6801 365.3431,-606 371.4838,-614.9274 393.7323,-623.6531 415.0423,-630.2778"/>
<polygon fill="#fed37f" stroke="#fed37f" points="414.1225,-633.6559 424.7061,-633.167 416.1276,-626.9492 414.1225,-633.6559"/>
<text text-anchor="middle" x="405.3431" y="-598" font-family="Times,serif" font-size="10.00" fill="#000000">wasAssociatedWith</text>
</g>
<!-- n3 -->
<g id="node4" class="node">
<title>n3</title>
<g id="a_node4"><a xlink:href="gitlab2prov:Tag_Event" xlink:title="Tag_Event">
<polygon fill="#9fb1fc" stroke="#0000ff" points="510.3431,-523 432.3431,-523 432.3431,-487 510.3431,-487 510.3431,-523"/>
<text text-anchor="middle" x="471.3431" y="-501.3" font-family="Times,serif" font-size="14.00" fill="#000000">Tag_Event</text>
</a>
</g>
</g>
<!-- n3&#45;&gt;n1 -->
<g id="edge13" class="edge">
<title>n3&#45;&gt;n1</title>
<path fill="none" stroke="#fed37f" d="M469.7496,-523.1925C467.6427,-547.2462 463.9203,-589.7445 461.5455,-616.8566"/>
<polygon fill="#fed37f" stroke="#fed37f" points="458.0344,-616.831 460.6484,-627.0982 465.0077,-617.4418 458.0344,-616.831"/>
<text text-anchor="middle" x="507.3431" y="-556.5" font-family="Times,serif" font-size="10.00" fill="#000000">wasAssociatedWith</text>
</g>
<!-- n4 -->
<g id="node5" class="node">
<title>n4</title>
<g id="a_node5"><a xlink:href="gitlab2prov:Commit_Event" xlink:title="Commit_Event">
<polygon fill="#9fb1fc" stroke="#0000ff" points="709.3431,-415 607.3431,-415 607.3431,-379 709.3431,-379 709.3431,-415"/>
<text text-anchor="middle" x="658.3431" y="-393.3" font-family="Times,serif" font-size="14.00" fill="#000000">Commit_Event</text>
</a>
</g>
</g>
<!-- n4&#45;&gt;n1 -->
<g id="edge11" class="edge">
<title>n4&#45;&gt;n1</title>
<path fill="none" stroke="#fed37f" d="M657.8808,-415.089C655.732,-456.803 644.0144,-559.7019 581.3431,-606 558.7847,-622.6649 528.5826,-631.655 503.8729,-636.4838"/>
<polygon fill="#fed37f" stroke="#fed37f" points="503.2325,-633.0428 494.0067,-638.2519 504.4673,-639.933 503.2325,-633.0428"/>
<text text-anchor="middle" x="687.3431" y="-502.5" font-family="Times,serif" font-size="10.00" fill="#000000">wasAssociatedWith</text>
</g>
<!-- n5 -->
<g id="node6" class="node">
<title>n5</title>
<g id="a_node6"><a xlink:href="gitlab2prov:Tag" xlink:title="Tag">
<ellipse fill="#fffc87" stroke="#808080" cx="510.3431" cy="-304" rx="27" ry="18"/>
<text text-anchor="middle" x="510.3431" y="-300.3" font-family="Times,serif" font-size="14.00" fill="#000000">Tag</text>
</a>
</g>
</g>
<!-- n5&#45;&gt;n1 -->
<g id="edge15" class="edge">
<title>n5&#45;&gt;n1</title>
<path fill="none" stroke="#fed37f" d="M522.9601,-320.1617C533.4135,-334.6477 547.4718,-356.9547 553.3431,-379 559.5008,-402.12 577.6224,-527.0145 551.3431,-577 540.9415,-596.7848 521.4889,-611.8598 503.1408,-622.4868"/>
<polygon fill="#fed37f" stroke="#fed37f" points="501.3559,-619.4737 494.2668,-627.3475 504.7187,-625.6131 501.3559,-619.4737"/>
<text text-anchor="middle" x="598.3431" y="-502.5" font-family="Times,serif" font-size="10.00" fill="#000000">wasAttributedTo</text>
</g>
<!-- n5&#45;&gt;n3 -->
<g id="edge18" class="edge">
<title>n5&#45;&gt;n3</title>
<path fill="none" stroke="#006400" d="M502.9639,-321.5472C496.9762,-336.5383 488.8191,-358.8188 484.3431,-379 477.0101,-412.0629 473.7952,-450.9436 472.3975,-476.6778"/>
<polygon fill="#006400" stroke="#006400" points="468.893,-476.6883 471.903,-486.8465 475.8847,-477.0284 468.893,-476.6883"/>
<text text-anchor="middle" x="518.8431" y="-394.5" font-family="Times,serif" font-size="10.00" fill="#006400">wasGeneratedBy</text>
</g>
<!-- n6 -->
<g id="node8" class="node">
<title>n6</title>
<g id="a_node8"><a xlink:href="gitlab2prov:Release" xlink:title="Release">
<ellipse fill="#fffc87" stroke="#808080" cx="307.3431" cy="-451" rx="38.9931" ry="18"/>
<text text-anchor="middle" x="307.3431" y="-447.3" font-family="Times,serif" font-size="14.00" fill="#000000">Release</text>
</a>
</g>
</g>
<!-- n5&#45;&gt;n6 -->
<g id="edge9" class="edge">
<title>n5&#45;&gt;n6</title>
<path fill="none" stroke="#000000" d="M500.7213,-320.907C492.7291,-333.5672 480.2756,-350.4529 465.3431,-361 445.0236,-375.352 434.403,-367.5009 412.3431,-379 388.3798,-391.4913 385.6086,-399.686 363.3431,-415 355.6631,-420.2823 347.2642,-425.8092 339.3616,-430.9024"/>
<polygon fill="#000000" stroke="#000000" points="337.2537,-428.0959 330.715,-436.4324 341.0252,-433.993 337.2537,-428.0959"/>
<text text-anchor="middle" x="436.8431" y="-394.5" font-family="Times,serif" font-size="10.00" fill="#000000">hadMember</text>
</g>
<!-- ann2 -->
<g id="node7" class="node">
<title>ann2</title>
<polygon fill="none" stroke="#c0c0c0" points="576.3431,-200 438.3431,-200 438.3431,-125 582.3431,-125 582.3431,-194 576.3431,-200"/>
<polyline fill="none" stroke="#c0c0c0" points="576.3431,-200 576.3431,-194 "/>
<polyline fill="none" stroke="#c0c0c0" points="582.3431,-194 576.3431,-194 "/>
<g id="a_node7_2"><a xlink:href="http://www.w3.org/ns/prov#type" xlink:title="&lt;TABLE&gt;">
<text text-anchor="start" x="448.3431" y="-185.5" font-family="Times,serif" font-size="10.00" fill="#000000">prov:type</text>
</a>
</g>
<text text-anchor="start" x="509.3431" y="-185.5" font-family="Times,serif" font-size="10.00" fill="#000000">prov:Collection</text>
<g id="a_node7_3"><a xlink:href="gitlab2prov:commit" xlink:title="&lt;TABLE&gt;">
<text text-anchor="start" x="448.3431" y="-172.5" font-family="Times,serif" font-size="10.00" fill="#000000">commit</text>
</a>
</g>
<g id="a_node7_4"><a xlink:href="gitlab2prov:message" xlink:title="&lt;TABLE&gt;">
<text text-anchor="start" x="448.3431" y="-159.5" font-family="Times,serif" font-size="10.00" fill="#000000">message</text>
</a>
</g>
<g id="a_node7_5"><a xlink:href="gitlab2prov:name" xlink:title="&lt;TABLE&gt;">
<text text-anchor="start" x="448.3431" y="-146.5" font-family="Times,serif" font-size="10.00" fill="#000000">name</text>
</a>
</g>
<g id="a_node7_6"><a xlink:href="gitlab2prov:target_commit" xlink:title="&lt;TABLE&gt;">
<text text-anchor="start" x="448.3431" y="-133.5" font-family="Times,serif" font-size="10.00" fill="#000000">target_commit</text>
</a>
</g>
</g>
<!-- ann2&#45;&gt;n5 -->
<g id="edge2" class="edge">
<title>ann2&#45;&gt;n5</title>
<path fill="none" stroke="#c0c0c0" stroke-dasharray="5,2" d="M510.3431,-200.0479C510.3431,-227.7217 510.3431,-264.1604 510.3431,-285.7312"/>
</g>
<!-- n6&#45;&gt;n1 -->
<g id="edge14" class="edge">
<title>n6&#45;&gt;n1</title>
<path fill="none" stroke="#fed37f" d="M288.8357,-467.1738C262.4212,-492.2278 219.8787,-541.2547 246.3431,-577 266.4305,-604.1318 358.2281,-624.4941 414.5542,-634.6973"/>
<polygon fill="#fed37f" stroke="#fed37f" points="414.176,-638.1847 424.6334,-636.4836 415.3976,-631.2921 414.176,-638.1847"/>
<text text-anchor="middle" x="280.3431" y="-556.5" font-family="Times,serif" font-size="10.00" fill="#000000">wasAttributedTo</text>
</g>
<!-- n6&#45;&gt;n2 -->
<g id="edge17" class="edge">
<title>n6&#45;&gt;n2</title>
<path fill="none" stroke="#006400" d="M317.9472,-468.3521C328.5013,-485.6225 344.8423,-512.3623 357.0453,-532.3308"/>
<polygon fill="#006400" stroke="#006400" points="354.1242,-534.263 362.3253,-540.9707 360.0972,-530.6128 354.1242,-534.263"/>
<text text-anchor="middle" x="383.8431" y="-502.5" font-family="Times,serif" font-size="10.00" fill="#006400">wasGeneratedBy</text>
</g>
<!-- ann3 -->
<g id="node9" class="node">
<title>ann3</title>
<polygon fill="none" stroke="#c0c0c0" points="450.3431,-361 318.3431,-361 318.3431,-247 456.3431,-247 456.3431,-355 450.3431,-361"/>
<polyline fill="none" stroke="#c0c0c0" points="450.3431,-361 450.3431,-355 "/>
<polyline fill="none" stroke="#c0c0c0" points="456.3431,-355 450.3431,-355 "/>
<g id="a_node9_7"><a xlink:href="http://www.w3.org/ns/prov#type" xlink:title="&lt;TABLE&gt;">
<text text-anchor="start" x="328.3431" y="-347" font-family="Times,serif" font-size="10.00" fill="#000000">prov:type</text>
</a>
</g>
<text text-anchor="start" x="383.3431" y="-347" font-family="Times,serif" font-size="10.00" fill="#000000">prov:Collection</text>
<g id="a_node9_8"><a xlink:href="gitlab2prov:commit_path" xlink:title="&lt;TABLE&gt;">
<text text-anchor="start" x="328.3431" y="-334" font-family="Times,serif" font-size="10.00" fill="#000000">commit_path</text>
</a>
</g>
<g id="a_node9_9"><a xlink:href="gitlab2prov:created_at" xlink:title="&lt;TABLE&gt;">
<text text-anchor="start" x="328.3431" y="-321" font-family="Times,serif" font-size="10.00" fill="#000000">created_at</text>
</a>
</g>
<g id="a_node9_10"><a xlink:href="gitlab2prov:description" xlink:title="&lt;TABLE&gt;">
<text text-anchor="start" x="328.3431" y="-308" font-family="Times,serif" font-size="10.00" fill="#000000">description</text>
</a>
</g>
<g id="a_node9_11"><a xlink:href="gitlab2prov:name" xlink:title="&lt;TABLE&gt;">
<text text-anchor="start" x="328.3431" y="-295" font-family="Times,serif" font-size="10.00" fill="#000000">name</text>
</a>
</g>
<g id="a_node9_12"><a xlink:href="gitlab2prov:released_at" xlink:title="&lt;TABLE&gt;">
<text text-anchor="start" x="328.3431" y="-282" font-family="Times,serif" font-size="10.00" fill="#000000">released_at</text>
</a>
</g>
<g id="a_node9_13"><a xlink:href="gitlab2prov:tag_name" xlink:title="&lt;TABLE&gt;">
<text text-anchor="start" x="328.3431" y="-269" font-family="Times,serif" font-size="10.00" fill="#000000">tag_name</text>
</a>
</g>
<g id="a_node9_14"><a xlink:href="gitlab2prov:tag_path" xlink:title="&lt;TABLE&gt;">
<text text-anchor="start" x="328.3431" y="-256" font-family="Times,serif" font-size="10.00" fill="#000000">tag_path</text>
</a>
</g>
</g>
<!-- ann3&#45;&gt;n6 -->
<g id="edge3" class="edge">
<title>ann3&#45;&gt;n6</title>
<path fill="none" stroke="#c0c0c0" stroke-dasharray="5,2" d="M367.4776,-361.2128C360.1411,-379.0903 350.9791,-398.4517 340.3431,-415 335.8507,-421.9898 329.9617,-428.9036 324.4039,-434.7754"/>
</g>
<!-- n7 -->
<g id="node10" class="node">
<title>n7</title>
<g id="a_node10"><a xlink:href="gitlab2prov:Commit" xlink:title="Commit">
<ellipse fill="#fffc87" stroke="#808080" cx="658.3431" cy="-162.5" rx="40.0939" ry="18"/>
<text text-anchor="middle" x="658.3431" y="-158.8" font-family="Times,serif" font-size="14.00" fill="#000000">Commit</text>
</a>
</g>
</g>
<!-- n7&#45;&gt;n1 -->
<g id="edge16" class="edge">
<title>n7&#45;&gt;n1</title>
<path fill="none" stroke="#fed37f" d="M684.6007,-176.4039C700.3937,-186.0629 719.6402,-200.3538 731.3431,-218 753.1487,-250.8795 753.3431,-264.5469 753.3431,-304 753.3431,-304 753.3431,-304 753.3431,-559 753.3431,-610.1793 586.2486,-631.3645 504.001,-638.6924"/>
<polygon fill="#fed37f" stroke="#fed37f" points="503.5967,-635.2141 493.9332,-639.5578 504.1963,-642.1884 503.5967,-635.2141"/>
<text text-anchor="middle" x="787.3431" y="-448.5" font-family="Times,serif" font-size="10.00" fill="#000000">wasAttributedTo</text>
</g>
<!-- n7&#45;&gt;n4 -->
<g id="edge19" class="edge">
<title>n7&#45;&gt;n4</title>
<path fill="none" stroke="#006400" d="M658.3431,-180.5114C658.3431,-221.0923 658.3431,-319.9305 658.3431,-368.7545"/>
<polygon fill="#006400" stroke="#006400" points="654.8432,-368.9272 658.3431,-378.9272 661.8432,-368.9272 654.8432,-368.9272"/>
<text text-anchor="middle" x="692.8431" y="-221" font-family="Times,serif" font-size="10.00" fill="#006400">wasGeneratedBy</text>
</g>
<!-- n7&#45;&gt;n5 -->
<g id="edge10" class="edge">
<title>n7&#45;&gt;n5</title>
<path fill="none" stroke="#000000" d="M636.7285,-177.8365C622.2301,-188.4927 602.9969,-203.3579 587.3431,-218 566.4641,-237.5296 544.9441,-261.9989 529.981,-279.8381"/>
<polygon fill="#000000" stroke="#000000" points="526.8892,-278.0828 523.1937,-288.0122 532.2747,-282.5545 526.8892,-278.0828"/>
<text text-anchor="middle" x="611.8431" y="-221" font-family="Times,serif" font-size="10.00" fill="#000000">hadMember</text>
</g>
<!-- ann4 -->
<g id="node11" class="node">
<title>ann4</title>
<polygon fill="none" stroke="#c0c0c0" points="684.3431,-88 626.3431,-88 626.3431,0 690.3431,0 690.3431,-82 684.3431,-88"/>
<polyline fill="none" stroke="#c0c0c0" points="684.3431,-88 684.3431,-82 "/>
<polyline fill="none" stroke="#c0c0c0" points="690.3431,-82 684.3431,-82 "/>
<g id="a_node11_15"><a xlink:href="gitlab2prov:created_at" xlink:title="&lt;TABLE&gt;">
<text text-anchor="start" x="636.3431" y="-74" font-family="Times,serif" font-size="10.00" fill="#000000">created_at</text>
</a>
</g>
<g id="a_node11_16"><a xlink:href="gitlab2prov:id" xlink:title="&lt;TABLE&gt;">
<text text-anchor="start" x="636.3431" y="-61" font-family="Times,serif" font-size="10.00" fill="#000000">id</text>
</a>
</g>
<g id="a_node11_17"><a xlink:href="gitlab2prov:message" xlink:title="&lt;TABLE&gt;">
<text text-anchor="start" x="636.3431" y="-48" font-family="Times,serif" font-size="10.00" fill="#000000">message</text>
</a>
</g>
<g id="a_node11_18"><a xlink:href="gitlab2prov:short_id" xlink:title="&lt;TABLE&gt;">
<text text-anchor="start" x="636.3431" y="-35" font-family="Times,serif" font-size="10.00" fill="#000000">short_id</text>
</a>
</g>
<g id="a_node11_19"><a xlink:href="gitlab2prov:title" xlink:title="&lt;TABLE&gt;">
<text text-anchor="start" x="636.3431" y="-22" font-family="Times,serif" font-size="10.00" fill="#000000">title</text>
</a>
</g>
<g id="a_node11_20"><a xlink:href="gitlab2prov:web_url" xlink:title="&lt;TABLE&gt;">
<text text-anchor="start" x="636.3431" y="-9" font-family="Times,serif" font-size="10.00" fill="#000000">web_url</text>
</a>
</g>
</g>
<!-- ann4&#45;&gt;n7 -->
<g id="edge4" class="edge">
<title>ann4&#45;&gt;n7</title>
<path fill="none" stroke="#c0c0c0" stroke-dasharray="5,2" d="M658.3431,-88.125C658.3431,-107.6028 658.3431,-129.4176 658.3431,-144.3573"/>
</g>
<!-- n8 -->
<g id="node12" class="node">
<title>n8</title>
<g id="a_node12"><a xlink:href="gitlab2prov:Release_Evidence" xlink:title="Release_Evidence">
<ellipse fill="#fffc87" stroke="#808080" cx="77.3431" cy="-304" rx="77.1866" ry="18"/>
<text text-anchor="middle" x="77.3431" y="-300.3" font-family="Times,serif" font-size="14.00" fill="#000000">Release_Evidence</text>
</a>
</g>
</g>
<!-- n8&#45;&gt;n6 -->
<g id="edge8" class="edge">
<title>n8&#45;&gt;n6</title>
<path fill="none" stroke="#000000" d="M96.4969,-321.6055C122.8594,-345.1718 172.5128,-387.2186 220.3431,-415 234.7209,-423.3511 251.4084,-430.7494 266.3002,-436.6336"/>
<polygon fill="#000000" stroke="#000000" points="265.1945,-439.9581 275.7846,-440.2765 267.7045,-433.4236 265.1945,-439.9581"/>
<text text-anchor="middle" x="244.8431" y="-394.5" font-family="Times,serif" font-size="10.00" fill="#000000">hadMember</text>
</g>
<!-- ann5 -->
<g id="node13" class="node">
<title>ann5</title>
<polygon fill="none" stroke="#c0c0c0" points="106.8431,-187 41.8431,-187 41.8431,-138 112.8431,-138 112.8431,-181 106.8431,-187"/>
<polyline fill="none" stroke="#c0c0c0" points="106.8431,-187 106.8431,-181 "/>
<polyline fill="none" stroke="#c0c0c0" points="112.8431,-181 106.8431,-181 "/>
<g id="a_node13_21"><a xlink:href="gitlab2prov:collected_at" xlink:title="&lt;TABLE&gt;">
<text text-anchor="start" x="52.3431" y="-172.5" font-family="Times,serif" font-size="10.00" fill="#000000">collected_at</text>
</a>
</g>
<g id="a_node13_22"><a xlink:href="gitlab2prov:filepath" xlink:title="&lt;TABLE&gt;">
<text text-anchor="start" x="52.3431" y="-159.5" font-family="Times,serif" font-size="10.00" fill="#000000">filepath</text>
</a>
</g>
<g id="a_node13_23"><a xlink:href="gitlab2prov:sha" xlink:title="&lt;TABLE&gt;">
<text text-anchor="start" x="52.3431" y="-146.5" font-family="Times,serif" font-size="10.00" fill="#000000">sha</text>
</a>
</g>
</g>
<!-- ann5&#45;&gt;n8 -->
<g id="edge5" class="edge">
<title>ann5&#45;&gt;n8</title>
<path fill="none" stroke="#c0c0c0" stroke-dasharray="5,2" d="M77.3431,-187.1474C77.3431,-215.3359 77.3431,-260.8182 77.3431,-285.9172"/>
</g>
<!-- n9 -->
<g id="node14" class="node">
<title>n9</title>
<g id="a_node14"><a xlink:href="gitlab2prov:Release_Asset" xlink:title="Release_Asset">
<ellipse fill="#fffc87" stroke="#808080" cx="236.3431" cy="-304" rx="63.8893" ry="18"/>
<text text-anchor="middle" x="236.3431" y="-300.3" font-family="Times,serif" font-size="14.00" fill="#000000">Release_Asset</text>
</a>
</g>
</g>
<!-- n9&#45;&gt;n6 -->
<g id="edge7" class="edge">
<title>n9&#45;&gt;n6</title>
<path fill="none" stroke="#000000" d="M245.0491,-322.0251C257.3585,-347.5107 279.9433,-394.2708 294.2718,-423.9368"/>
<polygon fill="#000000" stroke="#000000" points="291.2868,-425.8042 298.7877,-433.2866 297.5901,-422.7597 291.2868,-425.8042"/>
<text text-anchor="middle" x="311.8431" y="-394.5" font-family="Times,serif" font-size="10.00" fill="#000000">hadMember</text>
</g>
<!-- ann6 -->
<g id="node15" class="node">
<title>ann6</title>
<polygon fill="none" stroke="#c0c0c0" points="257.3431,-187 209.3431,-187 209.3431,-138 263.3431,-138 263.3431,-181 257.3431,-187"/>
<polyline fill="none" stroke="#c0c0c0" points="257.3431,-187 257.3431,-181 "/>
<polyline fill="none" stroke="#c0c0c0" points="263.3431,-181 257.3431,-181 "/>
<g id="a_node15_24"><a xlink:href="gitlab2prov:filepath" xlink:title="&lt;TABLE&gt;">
<text text-anchor="start" x="220.3431" y="-172.5" font-family="Times,serif" font-size="10.00" fill="#000000">filepath</text>
</a>
</g>
<g id="a_node15_25"><a xlink:href="gitlab2prov:format" xlink:title="&lt;TABLE&gt;">
<text text-anchor="start" x="220.3431" y="-159.5" font-family="Times,serif" font-size="10.00" fill="#000000">format</text>
</a>
</g>
<g id="a_node15_26"><a xlink:href="gitlab2prov:uri" xlink:title="&lt;TABLE&gt;">
<text text-anchor="start" x="220.3431" y="-146.5" font-family="Times,serif" font-size="10.00" fill="#000000">uri</text>
</a>
</g>
</g>
<!-- ann6&#45;&gt;n9 -->
<g id="edge6" class="edge">
<title>ann6&#45;&gt;n9</title>
<path fill="none" stroke="#c0c0c0" stroke-dasharray="5,2" d="M236.3431,-187.1474C236.3431,-215.3359 236.3431,-260.8182 236.3431,-285.9172"/>
</g>
</g>
</svg>
