<?xml version="1.0" encoding="UTF-8" standalone="no"?>
<!DOCTYPE svg PUBLIC "-//W3C//DTD SVG 1.1//EN"
 "http://www.w3.org/Graphics/SVG/1.1/DTD/svg11.dtd">
<!-- Generated by graphviz version 2.50.0 (20211204.2007)
 -->
<!-- Title: G Pages: 1 -->
<svg width="609pt" height="376pt"
 viewBox="0.00 0.00 608.99 376.00" xmlns="http://www.w3.org/2000/svg" xmlns:xlink="http://www.w3.org/1999/xlink">
<g id="graph0" class="graph" transform="scale(1 1) rotate(0) translate(4 372)">
<title>G</title>
<!-- n1 -->
<g id="node1" class="node">
<title>n1</title>
<g id="a_node1"><a xlink:href="gitlab2prov:Release Author" xlink:title="Release Author">
<polygon fill="#fed37f" stroke="black" points="528.88,-355.56 446.99,-368 365.1,-355.56 365.18,-335.44 528.8,-335.44 528.88,-355.56"/>
<text text-anchor="middle" x="446.99" y="-346.3" font-family="Times New Roman,serif" font-size="14.00">Release Author</text>
</a>
</g>
</g>
<!-- n2 -->
<g id="node2" class="node">
<title>n2</title>
<g id="a_node2"><a xlink:href="gitlab2prov:Tag Author" xlink:title="Tag Author">
<polygon fill="#fed37f" stroke="black" points="332.14,-272.56 266.99,-285 201.84,-272.56 201.9,-252.44 332.07,-252.44 332.14,-272.56"/>
<text text-anchor="middle" x="266.99" y="-263.3" font-family="Times New Roman,serif" font-size="14.00">Tag Author</text>
</a>
</g>
</g>
<!-- n3 -->
<g id="node3" class="node">
<title>n3</title>
<g id="a_node3"><a xlink:href="gitlab2prov:Author" xlink:title="Author">
<polygon fill="#fed37f" stroke="black" points="89.97,-189.56 44.99,-202 0.01,-189.56 0.05,-169.44 89.92,-169.44 89.97,-189.56"/>
<text text-anchor="middle" x="44.99" y="-180.3" font-family="Times New Roman,serif" font-size="14.00">Author</text>
</a>
</g>
</g>
<!-- n4 -->
<g id="node4" class="node">
<title>n4</title>
<g id="a_node4"><a xlink:href="gitlab2prov:Release Creation" xlink:title="Release Creation">
<polygon fill="#9fb1fc" stroke="#0000ff" points="600.99,-285 490.99,-285 490.99,-249 600.99,-249 600.99,-285"/>
<text text-anchor="middle" x="545.99" y="-263.3" font-family="Times New Roman,serif" font-size="14.00">Release Creation</text>
</a>
</g>
</g>
<!-- n4&#45;&gt;n1 -->
<g id="edge6" class="edge">
<title>n4&#45;&gt;n1</title>
<path fill="none" stroke="#fed37f" d="M524.99,-285.18C509.43,-297.91 488.16,-315.31 471.77,-328.73"/>
<polygon fill="#fed37f" stroke="#fed37f" points="469.22,-326.29 463.69,-335.33 473.65,-331.71 469.22,-326.29"/>
<text text-anchor="middle" x="542.99" y="-306" font-family="Times New Roman,serif" font-size="10.00">wasAssociatedWith</text>
</g>
<!-- n5 -->
<g id="node5" class="node">
<title>n5</title>
<g id="a_node5"><a xlink:href="gitlab2prov:Tag Creation" xlink:title="Tag Creation">
<polygon fill="#9fb1fc" stroke="#0000ff" points="378.49,-202 289.49,-202 289.49,-166 378.49,-166 378.49,-202"/>
<text text-anchor="middle" x="333.99" y="-180.3" font-family="Times New Roman,serif" font-size="14.00">Tag Creation</text>
</a>
</g>
</g>
<!-- n5&#45;&gt;n2 -->
<g id="edge7" class="edge">
<title>n5&#45;&gt;n2</title>
<path fill="none" stroke="#fed37f" d="M319.78,-202.18C309.54,-214.56 295.64,-231.36 284.68,-244.61"/>
<polygon fill="#fed37f" stroke="#fed37f" points="281.97,-242.4 278.29,-252.33 287.36,-246.86 281.97,-242.4"/>
<text text-anchor="middle" x="345.99" y="-223" font-family="Times New Roman,serif" font-size="10.00">wasAssociatedWith</text>
</g>
<!-- n6 -->
<g id="node6" class="node">
<title>n6</title>
<g id="a_node6"><a xlink:href="gitlab2prov:Commit Creation" xlink:title="Commit Creation">
<polygon fill="#9fb1fc" stroke="#0000ff" points="236.49,-119 123.49,-119 123.49,-83 236.49,-83 236.49,-119"/>
<text text-anchor="middle" x="179.99" y="-97.3" font-family="Times New Roman,serif" font-size="14.00">Commit Creation</text>
</a>
</g>
</g>
<!-- n6&#45;&gt;n3 -->
<g id="edge5" class="edge">
<title>n6&#45;&gt;n3</title>
<path fill="none" stroke="#fed37f" d="M139.06,-119.14C127.76,-124.4 115.68,-130.52 104.99,-137 92.59,-144.52 79.72,-154.12 69.1,-162.6"/>
<polygon fill="#fed37f" stroke="#fed37f" points="66.65,-160.07 61.11,-169.1 71.07,-165.5 66.65,-160.07"/>
<text text-anchor="middle" x="145.99" y="-140" font-family="Times New Roman,serif" font-size="10.00">wasAssociatedWith</text>
</g>
<!-- n7 -->
<g id="node7" class="node">
<title>n7</title>
<g id="a_node7"><a xlink:href="gitlab2prov:Tag" xlink:title="Tag">
<ellipse fill="#fffc87" stroke="#808080" cx="281.99" cy="-101" rx="27" ry="18"/>
<text text-anchor="middle" x="281.99" y="-97.3" font-family="Times New Roman,serif" font-size="14.00">Tag</text>
</a>
</g>
</g>
<!-- n7&#45;&gt;n2 -->
<g id="edge9" class="edge">
<title>n7&#45;&gt;n2</title>
<path fill="none" stroke="#fed37f" d="M261.83,-113.19C244.45,-124.12 220.54,-142.5 209.99,-166 203.43,-180.6 204.3,-187.05 209.99,-202 216.42,-218.88 229.57,-234.15 241.62,-245.53"/>
<polygon fill="#fed37f" stroke="#fed37f" points="239.52,-248.35 249.3,-252.43 244.2,-243.14 239.52,-248.35"/>
<text text-anchor="middle" x="244.99" y="-181.5" font-family="Times New Roman,serif" font-size="10.00">wasAttributedTo</text>
</g>
<!-- n7&#45;&gt;n5 -->
<g id="edge12" class="edge">
<title>n7&#45;&gt;n5</title>
<path fill="none" stroke="darkgreen" d="M278.76,-119.13C277.9,-128.22 278.28,-139.29 282.99,-148 285.2,-152.1 288.13,-155.81 291.47,-159.15"/>
<polygon fill="darkgreen" stroke="darkgreen" points="289.43,-162.02 299.3,-165.88 293.99,-156.71 289.43,-162.02"/>
<text text-anchor="middle" x="316.99" y="-140" font-family="Times New Roman,serif" font-size="10.00" fill="darkgreen">wasGeneratedBy</text>
</g>
<!-- n8 -->
<g id="node8" class="node">
<title>n8</title>
<g id="a_node8"><a xlink:href="gitlab2prov:Release" xlink:title="Release">
<ellipse fill="#fffc87" stroke="#808080" cx="444.99" cy="-184" rx="38.19" ry="18"/>
<text text-anchor="middle" x="444.99" y="-180.3" font-family="Times New Roman,serif" font-size="14.00">Release</text>
</a>
</g>
</g>
<!-- n7&#45;&gt;n8 -->
<g id="edge3" class="edge">
<title>n7&#45;&gt;n8</title>
<path fill="none" stroke="black" d="M302.96,-112.42C330.12,-125.92 377.81,-149.62 410.38,-165.8"/>
<polygon fill="black" stroke="black" points="409.03,-169.04 419.54,-170.35 412.14,-162.77 409.03,-169.04"/>
<text text-anchor="middle" x="398.49" y="-140" font-family="Times New Roman,serif" font-size="10.00">hadMember</text>
</g>
<!-- n8&#45;&gt;n1 -->
<g id="edge8" class="edge">
<title>n8&#45;&gt;n1</title>
<path fill="none" stroke="#fed37f" d="M433.84,-201.25C426.01,-213.69 416.2,-231.63 411.99,-249 408.22,-264.55 408.03,-269.5 411.99,-285 415.75,-299.72 423.67,-314.69 431.02,-326.45"/>
<polygon fill="#fed37f" stroke="#fed37f" points="428.3,-328.68 436.71,-335.13 434.16,-324.85 428.3,-328.68"/>
<text text-anchor="middle" x="446.99" y="-264.5" font-family="Times New Roman,serif" font-size="10.00">wasAttributedTo</text>
</g>
<!-- n8&#45;&gt;n4 -->
<g id="edge11" class="edge">
<title>n8&#45;&gt;n4</title>
<path fill="none" stroke="darkgreen" d="M463.51,-199.86C478.39,-211.79 499.56,-228.76 516.73,-242.53"/>
<polygon fill="darkgreen" stroke="darkgreen" points="514.79,-245.47 524.79,-249 519.17,-240.01 514.79,-245.47"/>
<text text-anchor="middle" x="534.99" y="-223" font-family="Times New Roman,serif" font-size="10.00" fill="darkgreen">wasGeneratedBy</text>
</g>
<!-- n9 -->
<g id="node9" class="node">
<title>n9</title>
<g id="a_node9"><a xlink:href="gitlab2prov:Commit" xlink:title="Commit">
<ellipse fill="#fffc87" stroke="#808080" cx="179.99" cy="-18" rx="40.09" ry="18"/>
<text text-anchor="middle" x="179.99" y="-14.3" font-family="Times New Roman,serif" font-size="14.00">Commit</text>
</a>
</g>
</g>
<!-- n9&#45;&gt;n3 -->
<g id="edge10" class="edge">
<title>n9&#45;&gt;n3</title>
<path fill="none" stroke="#fed37f" d="M142.99,-25.15C110.65,-32.7 65.59,-48.96 43.99,-83 29.52,-105.8 33,-137.81 37.96,-159.42"/>
<polygon fill="#fed37f" stroke="#fed37f" points="34.57,-160.29 40.45,-169.11 41.35,-158.56 34.57,-160.29"/>
<text text-anchor="middle" x="78.99" y="-98.5" font-family="Times New Roman,serif" font-size="10.00">wasAttributedTo</text>
</g>
<!-- n9&#45;&gt;n6 -->
<g id="edge13" class="edge">
<title>n9&#45;&gt;n6</title>
<path fill="none" stroke="darkgreen" d="M179.99,-36.18C179.99,-46.81 179.99,-60.69 179.99,-72.8"/>
<polygon fill="darkgreen" stroke="darkgreen" points="176.49,-72.85 179.99,-82.85 183.49,-72.85 176.49,-72.85"/>
<text text-anchor="middle" x="213.99" y="-57" font-family="Times New Roman,serif" font-size="10.00" fill="darkgreen">wasGeneratedBy</text>
</g>
<!-- n9&#45;&gt;n7 -->
<g id="edge4" class="edge">
<title>n9&#45;&gt;n7</title>
<path fill="none" stroke="black" d="M210.9,-29.69C224.53,-35.43 240.11,-43.52 251.99,-54 258.53,-59.76 264.22,-67.28 268.84,-74.55"/>
<polygon fill="black" stroke="black" points="266.01,-76.65 274.1,-83.5 272.04,-73.1 266.01,-76.65"/>
<text text-anchor="middle" x="287.49" y="-57" font-family="Times New Roman,serif" font-size="10.00">hadMember</text>
</g>
<!-- n10 -->
<g id="node10" class="node">
<title>n10</title>
<g id="a_node10"><a xlink:href="gitlab2prov:Evidence" xlink:title="Evidence">
<ellipse fill="#fffc87" stroke="#808080" cx="444.99" cy="-101" rx="44.39" ry="18"/>
<text text-anchor="middle" x="444.99" y="-97.3" font-family="Times New Roman,serif" font-size="14.00">Evidence</text>
</a>
</g>
</g>
<!-- n10&#45;&gt;n8 -->
<g id="edge2" class="edge">
<title>n10&#45;&gt;n8</title>
<path fill="none" stroke="black" d="M444.99,-119.18C444.99,-129.81 444.99,-143.69 444.99,-155.8"/>
<polygon fill="black" stroke="black" points="441.49,-155.85 444.99,-165.85 448.49,-155.85 441.49,-155.85"/>
<text text-anchor="middle" x="469.49" y="-140" font-family="Times New Roman,serif" font-size="10.00">hadMember</text>
</g>
<!-- n11 -->
<g id="node11" class="node">
<title>n11</title>
<g id="a_node11"><a xlink:href="gitlab2prov:Asset" xlink:title="Asset">
<ellipse fill="#fffc87" stroke="#808080" cx="537.99" cy="-101" rx="31.4" ry="18"/>
<text text-anchor="middle" x="537.99" y="-97.3" font-family="Times New Roman,serif" font-size="14.00">Asset</text>
</a>
</g>
</g>
<!-- n11&#45;&gt;n8 -->
<g id="edge1" class="edge">
<title>n11&#45;&gt;n8</title>
<path fill="none" stroke="black" d="M525.98,-117.87C518.49,-127.21 508.34,-138.93 497.99,-148 491.43,-153.74 483.87,-159.28 476.55,-164.19"/>
<polygon fill="black" stroke="black" points="474.63,-161.26 468.14,-169.63 478.43,-167.13 474.63,-161.26"/>
<text text-anchor="middle" x="532.49" y="-140" font-family="Times New Roman,serif" font-size="10.00">hadMember</text>
</g>
</g>
</svg>
