<?xml version="1.0" encoding="UTF-8" standalone="no"?>
<!DOCTYPE svg PUBLIC "-//W3C//DTD SVG 1.1//EN"
 "http://www.w3.org/Graphics/SVG/1.1/DTD/svg11.dtd">
<!-- Generated by graphviz version 2.40.1 (20161225.0304)
 -->
<!-- Title: G Pages: 1 -->
<svg width="844pt" height="662pt"
 viewBox="0.00 0.00 843.50 662.00" xmlns="http://www.w3.org/2000/svg" xmlns:xlink="http://www.w3.org/1999/xlink">
<g id="graph0" class="graph" transform="scale(1 1) rotate(0) translate(4 658)">
<title>G</title>
<polygon fill="#ffffff" stroke="transparent" points="-4,4 -4,-658 839.5,-658 839.5,4 -4,4"/>
<!-- n1 -->
<g id="node1" class="node">
<title>n1</title>
<g id="a_node1"><a xlink:href="gitlab2prov:Creator" xlink:title="Creator">
<polygon fill="#fed37f" stroke="#000000" points="214.1915,-641.5623 167.5,-654 120.8085,-641.5623 120.8521,-621.4377 214.1479,-621.4377 214.1915,-641.5623"/>
<text text-anchor="middle" x="167.5" y="-632.3" font-family="Times,serif" font-size="14.00" fill="#000000">Creator</text>
</a>
</g>
</g>
<!-- ann1 -->
<g id="node2" class="node">
<title>ann1</title>
<polygon fill="none" stroke="#c0c0c0" points="83,-571 0,-571 0,-522 89,-522 89,-565 83,-571"/>
<polyline fill="none" stroke="#c0c0c0" points="83,-571 83,-565 "/>
<polyline fill="none" stroke="#c0c0c0" points="89,-565 83,-565 "/>
<g id="a_node2_0"><a xlink:href="http://www.w3.org/ns/prov#role" xlink:title="&lt;TABLE&gt;">
<text text-anchor="start" x="10.5" y="-556.5" font-family="Times,serif" font-size="10.00" fill="#000000">prov:role</text>
</a>
</g>
<text text-anchor="start" x="51.5" y="-556.5" font-family="Times,serif" font-size="10.00" fill="#000000">creator</text>
<g id="a_node2_1"><a xlink:href="http://www.w3.org/ns/prov#type" xlink:title="&lt;TABLE&gt;">
<text text-anchor="start" x="10.5" y="-543.5" font-family="Times,serif" font-size="10.00" fill="#000000">prov:type</text>
</a>
</g>
<text text-anchor="start" x="51.5" y="-543.5" font-family="Times,serif" font-size="10.00" fill="#000000">user</text>
<g id="a_node2_2"><a xlink:href="gitlab2prov:name" xlink:title="&lt;TABLE&gt;">
<text text-anchor="start" x="10.5" y="-530.5" font-family="Times,serif" font-size="10.00" fill="#000000">name</text>
</a>
</g>
</g>
<!-- ann1&#45;&gt;n1 -->
<g id="edge1" class="edge">
<title>ann1&#45;&gt;n1</title>
<path fill="none" stroke="#c0c0c0" stroke-dasharray="5,2" d="M74.0107,-571.1378C85.5082,-580.4504 98.9239,-590.9726 111.5,-600 121.7343,-607.3464 133.4057,-614.9633 143.435,-621.2885"/>
</g>
<!-- n2 -->
<g id="node3" class="node">
<title>n2</title>
<g id="a_node3"><a xlink:href="gitlab2prov:Annotator" xlink:title="Annotator">
<polygon fill="#fed37f" stroke="#000000" points="742.2928,-334.0623 683.5,-346.5 624.7072,-334.0623 624.7621,-313.9377 742.2379,-313.9377 742.2928,-334.0623"/>
<text text-anchor="middle" x="683.5" y="-324.8" font-family="Times,serif" font-size="14.00" fill="#000000">Annotator</text>
</a>
</g>
</g>
<!-- ann2 -->
<g id="node4" class="node">
<title>ann2</title>
<polygon fill="none" stroke="#c0c0c0" points="717,-231 630,-231 630,-182 723,-182 723,-225 717,-231"/>
<polyline fill="none" stroke="#c0c0c0" points="717,-231 717,-225 "/>
<polyline fill="none" stroke="#c0c0c0" points="723,-225 717,-225 "/>
<g id="a_node4_3"><a xlink:href="http://www.w3.org/ns/prov#role" xlink:title="&lt;TABLE&gt;">
<text text-anchor="start" x="640.5" y="-216.5" font-family="Times,serif" font-size="10.00" fill="#000000">prov:role</text>
</a>
</g>
<text text-anchor="start" x="681.5" y="-216.5" font-family="Times,serif" font-size="10.00" fill="#000000">initiator</text>
<g id="a_node4_4"><a xlink:href="http://www.w3.org/ns/prov#type" xlink:title="&lt;TABLE&gt;">
<text text-anchor="start" x="640.5" y="-203.5" font-family="Times,serif" font-size="10.00" fill="#000000">prov:type</text>
</a>
</g>
<text text-anchor="start" x="681.5" y="-203.5" font-family="Times,serif" font-size="10.00" fill="#000000">user</text>
<g id="a_node4_5"><a xlink:href="gitlab2prov:name" xlink:title="&lt;TABLE&gt;">
<text text-anchor="start" x="640.5" y="-190.5" font-family="Times,serif" font-size="10.00" fill="#000000">name</text>
</a>
</g>
</g>
<!-- ann2&#45;&gt;n2 -->
<g id="edge2" class="edge">
<title>ann2&#45;&gt;n2</title>
<path fill="none" stroke="#c0c0c0" stroke-dasharray="5,2" d="M677.9166,-231.1885C679.3388,-255.9755 681.4826,-293.3393 682.6569,-313.8067"/>
</g>
<!-- n3 -->
<g id="node5" class="node">
<title>n3</title>
<g id="a_node5"><a xlink:href="gitlab2prov:Issue Creation" xlink:title="Issue Creation">
<polygon fill="#9fb1fc" stroke="#0000ff" points="309,-564.5 212,-564.5 212,-528.5 309,-528.5 309,-564.5"/>
<text text-anchor="middle" x="260.5" y="-542.8" font-family="Times,serif" font-size="14.00" fill="#000000">Issue Creation</text>
</a>
</g>
</g>
<!-- n3&#45;&gt;n1 -->
<g id="edge19" class="edge">
<title>n3&#45;&gt;n1</title>
<path fill="none" stroke="#fed37f" d="M241.6801,-564.6117C226.8105,-578.9216 206.0036,-598.9454 190.2091,-614.1456"/>
<polygon fill="#fed37f" stroke="#fed37f" points="187.6844,-611.7177 182.906,-621.1738 192.5383,-616.7615 187.6844,-611.7177"/>
<text text-anchor="middle" x="254.5" y="-592" font-family="Times,serif" font-size="10.00" fill="#000000">wasAssociatedWith</text>
</g>
<!-- ann3 -->
<g id="node6" class="node">
<title>ann3</title>
<polygon fill="none" stroke="#c0c0c0" points="461.5,-475 329.5,-475 329.5,-426 467.5,-426 467.5,-469 461.5,-475"/>
<polyline fill="none" stroke="#c0c0c0" points="461.5,-475 461.5,-469 "/>
<polyline fill="none" stroke="#c0c0c0" points="467.5,-469 461.5,-469 "/>
<g id="a_node6_6"><a xlink:href="http://www.w3.org/ns/prov#type" xlink:title="&lt;TABLE&gt;">
<text text-anchor="start" x="339.5" y="-460.5" font-family="Times,serif" font-size="10.00" fill="#000000">prov:type</text>
</a>
</g>
<text text-anchor="start" x="399.5" y="-460.5" font-family="Times,serif" font-size="10.00" fill="#000000">issue_creation</text>
<g id="a_node6_7"><a xlink:href="http://www.w3.org/ns/prov#endedAt" xlink:title="&lt;TABLE&gt;">
<text text-anchor="start" x="339.5" y="-447.5" font-family="Times,serif" font-size="10.00" fill="#000000">prov:endedAt</text>
</a>
</g>
<g id="a_node6_8"><a xlink:href="http://www.w3.org/ns/prov#startedAt" xlink:title="&lt;TABLE&gt;">
<text text-anchor="start" x="339.5" y="-434.5" font-family="Times,serif" font-size="10.00" fill="#000000">prov:startedAt</text>
</a>
</g>
</g>
<!-- ann3&#45;&gt;n3 -->
<g id="edge3" class="edge">
<title>ann3&#45;&gt;n3</title>
<path fill="none" stroke="#c0c0c0" stroke-dasharray="5,2" d="M362.9616,-475.2224C339.1632,-491.7778 308.3577,-513.2077 286.7638,-528.2296"/>
</g>
<!-- n4 -->
<g id="node7" class="node">
<title>n4</title>
<g id="a_node7"><a xlink:href="gitlab2prov:Issue Annotation" xlink:title="Issue Annotation">
<polygon fill="#9fb1fc" stroke="#0000ff" points="611.5,-224.5 499.5,-224.5 499.5,-188.5 611.5,-188.5 611.5,-224.5"/>
<text text-anchor="middle" x="555.5" y="-202.8" font-family="Times,serif" font-size="14.00" fill="#000000">Issue Annotation</text>
</a>
</g>
</g>
<!-- n4&#45;&gt;n2 -->
<g id="edge20" class="edge">
<title>n4&#45;&gt;n2</title>
<path fill="none" stroke="#fed37f" d="M567.3594,-224.8006C574.7935,-235.6082 584.9435,-249.2363 595.5,-260 613.0916,-277.9368 635.4601,-295.2901 653.2426,-308.0427"/>
<polygon fill="#fed37f" stroke="#fed37f" points="651.3747,-311.0083 661.5628,-313.9158 655.4115,-305.2895 651.3747,-311.0083"/>
<text text-anchor="middle" x="635.5" y="-252" font-family="Times,serif" font-size="10.00" fill="#000000">wasAssociatedWith</text>
</g>
<!-- n4&#45;&gt;n3 -->
<g id="edge8" class="edge">
<title>n4&#45;&gt;n3</title>
<path fill="none" stroke="#000000" d="M561.3482,-224.8131C576.5449,-276.3411 611.2533,-424.0151 538.5,-504 523.9585,-519.987 396.5588,-534.1891 319.3629,-541.4283"/>
<polygon fill="#000000" stroke="#000000" points="318.9184,-537.9544 309.2834,-542.3608 319.5634,-544.9246 318.9184,-537.9544"/>
<text text-anchor="middle" x="614" y="-400" font-family="Times,serif" font-size="10.00" fill="#000000">wasInformedBy</text>
</g>
<!-- n6 -->
<g id="node11" class="node">
<title>n6</title>
<g id="a_node11"><a xlink:href="gitlab2prov:Issue Version" xlink:title="Issue Version">
<ellipse fill="#fffc87" stroke="#808080" cx="353.5" cy="-328.5" rx="60.3893" ry="18"/>
<text text-anchor="middle" x="353.5" y="-324.8" font-family="Times,serif" font-size="14.00" fill="#000000">Issue Version</text>
</a>
</g>
</g>
<!-- n4&#45;&gt;n6 -->
<g id="edge12" class="edge">
<title>n4&#45;&gt;n6</title>
<path fill="none" stroke="#8b0000" d="M525.6942,-224.5015C489.4229,-246.408 428.2273,-283.3677 389.3994,-306.8182"/>
<polygon fill="#8b0000" stroke="#8b0000" points="387.2672,-304.0171 380.5167,-312.183 390.8861,-310.0091 387.2672,-304.0171"/>
<text text-anchor="middle" x="494" y="-252" font-family="Times,serif" font-size="10.00" fill="#ff0000">used</text>
</g>
<!-- ann4 -->
<g id="node8" class="node">
<title>ann4</title>
<polygon fill="none" stroke="#c0c0c0" points="829.5,-135 733.5,-135 733.5,-73 835.5,-73 835.5,-129 829.5,-135"/>
<polyline fill="none" stroke="#c0c0c0" points="829.5,-135 829.5,-129 "/>
<polyline fill="none" stroke="#c0c0c0" points="835.5,-129 829.5,-129 "/>
<g id="a_node8_9"><a xlink:href="http://www.w3.org/ns/prov#type" xlink:title="&lt;TABLE&gt;">
<text text-anchor="start" x="743.5" y="-121" font-family="Times,serif" font-size="10.00" fill="#000000">prov:type</text>
</a>
</g>
<text text-anchor="start" x="803.5" y="-121" font-family="Times,serif" font-size="10.00" fill="#000000">event</text>
<g id="a_node8_10"><a xlink:href="gitlab2prov:event" xlink:title="&lt;TABLE&gt;">
<text text-anchor="start" x="743.5" y="-108" font-family="Times,serif" font-size="10.00" fill="#000000">event</text>
</a>
</g>
<g id="a_node8_11"><a xlink:href="http://www.w3.org/ns/prov#endedAt" xlink:title="&lt;TABLE&gt;">
<text text-anchor="start" x="743.5" y="-95" font-family="Times,serif" font-size="10.00" fill="#000000">prov:endedAt</text>
</a>
</g>
<g id="a_node8_12"><a xlink:href="http://www.w3.org/ns/prov#startedAt" xlink:title="&lt;TABLE&gt;">
<text text-anchor="start" x="743.5" y="-82" font-family="Times,serif" font-size="10.00" fill="#000000">prov:startedAt</text>
</a>
</g>
</g>
<!-- ann4&#45;&gt;n4 -->
<g id="edge4" class="edge">
<title>ann4&#45;&gt;n4</title>
<path fill="none" stroke="#c0c0c0" stroke-dasharray="5,2" d="M733.393,-126.8754C691.8699,-145.4611 634.1048,-171.3166 595.8,-188.4618"/>
</g>
<!-- n5 -->
<g id="node9" class="node">
<title>n5</title>
<g id="a_node9"><a xlink:href="gitlab2prov:Issue" xlink:title="Issue">
<ellipse fill="#fffc87" stroke="#808080" cx="128.5" cy="-450.5" rx="29.4969" ry="18"/>
<text text-anchor="middle" x="128.5" y="-446.8" font-family="Times,serif" font-size="14.00" fill="#000000">Issue</text>
</a>
</g>
</g>
<!-- n5&#45;&gt;n1 -->
<g id="edge18" class="edge">
<title>n5&#45;&gt;n1</title>
<path fill="none" stroke="#fed37f" d="M127.071,-468.8279C125.731,-492.767 125.1386,-535.7766 134.5,-571 138.3475,-585.4767 145.6914,-600.4614 152.4761,-612.3899"/>
<polygon fill="#fed37f" stroke="#fed37f" points="149.6089,-614.4167 157.72,-621.2329 155.6298,-610.8463 149.6089,-614.4167"/>
<text text-anchor="middle" x="168.5" y="-544" font-family="Times,serif" font-size="10.00" fill="#000000">wasAttributedTo</text>
</g>
<!-- n5&#45;&gt;n3 -->
<g id="edge9" class="edge">
<title>n5&#45;&gt;n3</title>
<path fill="none" stroke="#006400" d="M135.3262,-468.3856C140.4789,-479.8557 148.5431,-494.3519 159.5,-504 163.511,-507.5319 183.4611,-516.1519 204.5845,-524.7126"/>
<polygon fill="#006400" stroke="#006400" points="203.4075,-528.0116 213.9914,-528.4926 206.0175,-521.5164 203.4075,-528.0116"/>
<text text-anchor="middle" x="194" y="-496" font-family="Times,serif" font-size="10.00" fill="#006400">wasGeneratedBy</text>
</g>
<!-- ann5 -->
<g id="node10" class="node">
<title>ann5</title>
<polygon fill="none" stroke="#c0c0c0" points="218.5,-379 98.5,-379 98.5,-278 224.5,-278 224.5,-373 218.5,-379"/>
<polyline fill="none" stroke="#c0c0c0" points="218.5,-379 218.5,-373 "/>
<polyline fill="none" stroke="#c0c0c0" points="224.5,-373 218.5,-373 "/>
<g id="a_node10_13"><a xlink:href="http://www.w3.org/ns/prov#type" xlink:title="&lt;TABLE&gt;">
<text text-anchor="start" x="108.5" y="-364.5" font-family="Times,serif" font-size="10.00" fill="#000000">prov:type</text>
</a>
</g>
<text text-anchor="start" x="155.5" y="-364.5" font-family="Times,serif" font-size="10.00" fill="#000000">issue_resource</text>
<g id="a_node10_14"><a xlink:href="gitlab2prov:description" xlink:title="&lt;TABLE&gt;">
<text text-anchor="start" x="108.5" y="-351.5" font-family="Times,serif" font-size="10.00" fill="#000000">description</text>
</a>
</g>
<g id="a_node10_15"><a xlink:href="gitlab2prov:id" xlink:title="&lt;TABLE&gt;">
<text text-anchor="start" x="108.5" y="-338.5" font-family="Times,serif" font-size="10.00" fill="#000000">id</text>
</a>
</g>
<g id="a_node10_16"><a xlink:href="gitlab2prov:iid" xlink:title="&lt;TABLE&gt;">
<text text-anchor="start" x="108.5" y="-325.5" font-family="Times,serif" font-size="10.00" fill="#000000">iid</text>
</a>
</g>
<g id="a_node10_17"><a xlink:href="gitlab2prov:project_id" xlink:title="&lt;TABLE&gt;">
<text text-anchor="start" x="108.5" y="-312.5" font-family="Times,serif" font-size="10.00" fill="#000000">project_id</text>
</a>
</g>
<g id="a_node10_18"><a xlink:href="gitlab2prov:title" xlink:title="&lt;TABLE&gt;">
<text text-anchor="start" x="108.5" y="-299.5" font-family="Times,serif" font-size="10.00" fill="#000000">title</text>
</a>
</g>
<g id="a_node10_19"><a xlink:href="gitlab2prov:web_url" xlink:title="&lt;TABLE&gt;">
<text text-anchor="start" x="108.5" y="-286.5" font-family="Times,serif" font-size="10.00" fill="#000000">web_url</text>
</a>
</g>
</g>
<!-- ann5&#45;&gt;n5 -->
<g id="edge5" class="edge">
<title>ann5&#45;&gt;n5</title>
<path fill="none" stroke="#c0c0c0" stroke-dasharray="5,2" d="M147.3064,-379.3507C145.673,-385.2972 144.0415,-391.2802 142.5,-397 139.302,-408.8658 135.802,-422.2408 133.1015,-432.6494"/>
</g>
<!-- n6&#45;&gt;n1 -->
<g id="edge17" class="edge">
<title>n6&#45;&gt;n1</title>
<path fill="none" stroke="#fed37f" d="M384.2693,-344.0837C429.22,-369.101 504.602,-420.9264 476.5,-475 427.3458,-569.5821 299.4573,-610.2383 224.5135,-626.3934"/>
<polygon fill="#fed37f" stroke="#fed37f" points="223.3833,-623.0533 214.3037,-628.5134 224.8065,-629.9071 223.3833,-623.0533"/>
<text text-anchor="middle" x="500.5" y="-496" font-family="Times,serif" font-size="10.00" fill="#000000">wasAttributedTo</text>
</g>
<!-- n6&#45;&gt;n3 -->
<g id="edge10" class="edge">
<title>n6&#45;&gt;n3</title>
<path fill="none" stroke="#006400" d="M326.7901,-344.7785C302.0023,-361.6117 266.7142,-390.4101 251.5,-426 238.7443,-455.8389 244.6898,-493.614 251.3936,-518.8398"/>
<polygon fill="#006400" stroke="#006400" points="248.0418,-519.849 254.1607,-528.4983 254.7711,-517.921 248.0418,-519.849"/>
<text text-anchor="middle" x="286" y="-448" font-family="Times,serif" font-size="10.00" fill="#006400">wasGeneratedBy</text>
</g>
<!-- n6&#45;&gt;n5 -->
<g id="edge13" class="edge">
<title>n6&#45;&gt;n5</title>
<path fill="none" stroke="#000000" d="M320.9035,-343.7867C297.053,-354.5832 263.7189,-368.8745 233.5,-379 202.6328,-389.3427 188.8717,-377.9138 162.5,-397 153.1091,-403.7966 145.6899,-414.0579 140.2097,-423.782"/>
<polygon fill="#000000" stroke="#000000" points="137.0264,-422.3185 135.5487,-432.8098 143.2463,-425.5299 137.0264,-422.3185"/>
<text text-anchor="middle" x="195.5" y="-400" font-family="Times,serif" font-size="10.00" fill="#000000">specializationOf</text>
</g>
<!-- ann6 -->
<g id="node12" class="node">
<title>ann6</title>
<polygon fill="none" stroke="#c0c0c0" points="475,-224.5 326,-224.5 326,-188.5 481,-188.5 481,-218.5 475,-224.5"/>
<polyline fill="none" stroke="#c0c0c0" points="475,-224.5 475,-218.5 "/>
<polyline fill="none" stroke="#c0c0c0" points="481,-218.5 475,-218.5 "/>
<g id="a_node12_20"><a xlink:href="http://www.w3.org/ns/prov#type" xlink:title="&lt;TABLE&gt;">
<text text-anchor="start" x="336.5" y="-203.5" font-family="Times,serif" font-size="10.00" fill="#000000">prov:type</text>
</a>
</g>
<text text-anchor="start" x="377.5" y="-203.5" font-family="Times,serif" font-size="10.00" fill="#000000">issue_resource_version</text>
</g>
<!-- ann6&#45;&gt;n6 -->
<g id="edge6" class="edge">
<title>ann6&#45;&gt;n6</title>
<path fill="none" stroke="#c0c0c0" stroke-dasharray="5,2" d="M396.1223,-224.5015C386.669,-247.5676 370.3758,-287.323 360.9079,-310.4246"/>
</g>
<!-- n7 -->
<g id="node13" class="node">
<title>n7</title>
<g id="a_node13"><a xlink:href="gitlab2prov:Annotated Issue Version" xlink:title="Annotated Issue Version">
<ellipse fill="#fffc87" stroke="#808080" cx="317.5" cy="-104" rx="100.9827" ry="18"/>
<text text-anchor="middle" x="317.5" y="-100.3" font-family="Times,serif" font-size="14.00" fill="#000000">Annotated Issue Version</text>
</a>
</g>
</g>
<!-- n7&#45;&gt;n2 -->
<g id="edge16" class="edge">
<title>n7&#45;&gt;n2</title>
<path fill="none" stroke="#fed37f" d="M415.2624,-108.4509C524.7595,-115.7264 692.1096,-134.4952 731.5,-182 761.7942,-218.5348 727.0884,-274.7483 702.8963,-305.8481"/>
<polygon fill="#fed37f" stroke="#fed37f" points="699.9487,-303.9287 696.4144,-313.9167 705.4059,-308.3127 699.9487,-303.9287"/>
<text text-anchor="middle" x="777.5" y="-204" font-family="Times,serif" font-size="10.00" fill="#000000">wasAttributedTo</text>
</g>
<!-- n7&#45;&gt;n4 -->
<g id="edge11" class="edge">
<title>n7&#45;&gt;n4</title>
<path fill="none" stroke="#006400" d="M356.2685,-120.6965C396.5189,-138.0313 459.6919,-165.2381 504.088,-184.3583"/>
<polygon fill="#006400" stroke="#006400" points="502.972,-187.6884 513.5409,-188.4294 505.7409,-181.2593 502.972,-187.6884"/>
<text text-anchor="middle" x="486" y="-156" font-family="Times,serif" font-size="10.00" fill="#006400">wasGeneratedBy</text>
</g>
<!-- n7&#45;&gt;n5 -->
<g id="edge14" class="edge">
<title>n7&#45;&gt;n5</title>
<path fill="none" stroke="#000000" d="M277.3625,-120.6901C223.0911,-145.7395 128.6023,-198.737 89.5,-278 69.6404,-318.2568 78.4085,-335.503 89.5,-379 93.7012,-395.4758 102.5607,-412.2493 110.7752,-425.4056"/>
<polygon fill="#000000" stroke="#000000" points="107.9066,-427.4145 116.294,-433.8878 113.774,-423.597 107.9066,-427.4145"/>
<text text-anchor="middle" x="139.5" y="-252" font-family="Times,serif" font-size="10.00" fill="#000000">specializationOf</text>
</g>
<!-- n7&#45;&gt;n6 -->
<g id="edge15" class="edge">
<title>n7&#45;&gt;n6</title>
<path fill="none" stroke="#000000" d="M294.086,-121.6046C277.2916,-135.8026 256.0163,-157.4083 246.5,-182 238.6405,-202.3101 237.7013,-211.0788 246.5,-231 260.851,-263.4922 291.9702,-289.8256 316.9681,-306.8969"/>
<polygon fill="#000000" stroke="#000000" points="315.2442,-309.9528 325.5173,-312.5438 319.1022,-304.1119 315.2442,-309.9528"/>
<text text-anchor="middle" x="281.5" y="-204" font-family="Times,serif" font-size="10.00" fill="#000000">wasDerivedFrom</text>
</g>
<!-- ann7 -->
<g id="node14" class="node">
<title>ann7</title>
<polygon fill="none" stroke="#c0c0c0" points="389,-36 240,-36 240,0 395,0 395,-30 389,-36"/>
<polyline fill="none" stroke="#c0c0c0" points="389,-36 389,-30 "/>
<polyline fill="none" stroke="#c0c0c0" points="395,-30 389,-30 "/>
<g id="a_node14_21"><a xlink:href="http://www.w3.org/ns/prov#type" xlink:title="&lt;TABLE&gt;">
<text text-anchor="start" x="250.5" y="-15" font-family="Times,serif" font-size="10.00" fill="#000000">prov:type</text>
</a>
</g>
<text text-anchor="start" x="291.5" y="-15" font-family="Times,serif" font-size="10.00" fill="#000000">issue_resource_version</text>
</g>
<!-- ann7&#45;&gt;n7 -->
<g id="edge7" class="edge">
<title>ann7&#45;&gt;n7</title>
<path fill="none" stroke="#c0c0c0" stroke-dasharray="5,2" d="M317.5,-36.2384C317.5,-50.8329 317.5,-71.2004 317.5,-85.7879"/>
</g>
</g>
</svg>
