<?xml version="1.0" encoding="UTF-8" standalone="no"?>
<!DOCTYPE svg PUBLIC "-//W3C//DTD SVG 1.1//EN"
 "http://www.w3.org/Graphics/SVG/1.1/DTD/svg11.dtd">
<!-- Generated by graphviz version 2.40.1 (20161225.0304)
 -->
<!-- Title: G Pages: 1 -->
<svg width="748pt" height="688pt"
 viewBox="0.00 0.00 747.50 688.00" xmlns="http://www.w3.org/2000/svg" xmlns:xlink="http://www.w3.org/1999/xlink">
<g id="graph0" class="graph" transform="scale(1 1) rotate(0) translate(4 684)">
<title>G</title>
<polygon fill="#ffffff" stroke="transparent" points="-4,4 -4,-684 743.5,-684 743.5,4 -4,4"/>
<!-- n1 -->
<g id="node1" class="node">
<title>n1</title>
<g id="a_node1"><a xlink:href="gitlab2prov:Creator" xlink:title="Creator">
<polygon fill="#fed37f" stroke="#000000" points="218.1915,-667.5623 171.5,-680 124.8085,-667.5623 124.8521,-647.4377 218.1479,-647.4377 218.1915,-667.5623"/>
<text text-anchor="middle" x="171.5" y="-658.3" font-family="Times,serif" font-size="14.00" fill="#000000">Creator</text>
</a>
</g>
</g>
<!-- ann1 -->
<g id="node2" class="node">
<title>ann1</title>
<polygon fill="none" stroke="#c0c0c0" points="83,-571 0,-571 0,-522 89,-522 89,-565 83,-571"/>
<polyline fill="none" stroke="#c0c0c0" points="83,-571 83,-565 "/>
<polyline fill="none" stroke="#c0c0c0" points="89,-565 83,-565 "/>
<g id="a_node2_0"><a xlink:href="http://www.w3.org/ns/prov#role" xlink:title="&lt;TABLE&gt;">
<text text-anchor="start" x="10.5" y="-556.5" font-family="Times,serif" font-size="10.00" fill="#000000">prov:role</text>
</a>
</g>
<text text-anchor="start" x="51.5" y="-556.5" font-family="Times,serif" font-size="10.00" fill="#000000">creator</text>
<g id="a_node2_1"><a xlink:href="http://www.w3.org/ns/prov#type" xlink:title="&lt;TABLE&gt;">
<text text-anchor="start" x="10.5" y="-543.5" font-family="Times,serif" font-size="10.00" fill="#000000">prov:type</text>
</a>
</g>
<text text-anchor="start" x="51.5" y="-543.5" font-family="Times,serif" font-size="10.00" fill="#000000">user</text>
<g id="a_node2_2"><a xlink:href="gitlab2prov:name" xlink:title="&lt;TABLE&gt;">
<text text-anchor="start" x="10.5" y="-530.5" font-family="Times,serif" font-size="10.00" fill="#000000">name</text>
</a>
</g>
</g>
<!-- ann1&#45;&gt;n1 -->
<g id="edge1" class="edge">
<title>ann1&#45;&gt;n1</title>
<path fill="none" stroke="#c0c0c0" stroke-dasharray="5,2" d="M58.6197,-571.0194C69.3118,-588.0155 85.2458,-610.3219 103.5,-626 113.3294,-634.4422 125.4727,-641.6553 136.7652,-647.3587"/>
</g>
<!-- n2 -->
<g id="node3" class="node">
<title>n2</title>
<g id="a_node3"><a xlink:href="gitlab2prov:Annotator" xlink:title="Annotator">
<polygon fill="#fed37f" stroke="#000000" points="685.2928,-321.0623 626.5,-333.5 567.7072,-321.0623 567.7621,-300.9377 685.2379,-300.9377 685.2928,-321.0623"/>
<text text-anchor="middle" x="626.5" y="-311.8" font-family="Times,serif" font-size="14.00" fill="#000000">Annotator</text>
</a>
</g>
</g>
<!-- ann2 -->
<g id="node4" class="node">
<title>ann2</title>
<polygon fill="none" stroke="#c0c0c0" points="621,-231 534,-231 534,-182 627,-182 627,-225 621,-231"/>
<polyline fill="none" stroke="#c0c0c0" points="621,-231 621,-225 "/>
<polyline fill="none" stroke="#c0c0c0" points="627,-225 621,-225 "/>
<g id="a_node4_3"><a xlink:href="http://www.w3.org/ns/prov#role" xlink:title="&lt;TABLE&gt;">
<text text-anchor="start" x="544.5" y="-216.5" font-family="Times,serif" font-size="10.00" fill="#000000">prov:role</text>
</a>
</g>
<text text-anchor="start" x="585.5" y="-216.5" font-family="Times,serif" font-size="10.00" fill="#000000">initiator</text>
<g id="a_node4_4"><a xlink:href="http://www.w3.org/ns/prov#type" xlink:title="&lt;TABLE&gt;">
<text text-anchor="start" x="544.5" y="-203.5" font-family="Times,serif" font-size="10.00" fill="#000000">prov:type</text>
</a>
</g>
<text text-anchor="start" x="585.5" y="-203.5" font-family="Times,serif" font-size="10.00" fill="#000000">user</text>
<g id="a_node4_5"><a xlink:href="gitlab2prov:name" xlink:title="&lt;TABLE&gt;">
<text text-anchor="start" x="544.5" y="-190.5" font-family="Times,serif" font-size="10.00" fill="#000000">name</text>
</a>
</g>
</g>
<!-- ann2&#45;&gt;n2 -->
<g id="edge2" class="edge">
<title>ann2&#45;&gt;n2</title>
<path fill="none" stroke="#c0c0c0" stroke-dasharray="5,2" d="M602.0671,-231.4223C606.0147,-236.9349 609.7493,-242.9455 612.5,-249 620.1618,-265.8643 623.6915,-287.0551 625.2757,-300.9227"/>
</g>
<!-- n3 -->
<g id="node5" class="node">
<title>n3</title>
<g id="a_node5"><a xlink:href="gitlab2prov:Commit Creation" xlink:title="Commit Creation">
<polygon fill="#9fb1fc" stroke="#0000ff" points="425.5,-564.5 311.5,-564.5 311.5,-528.5 425.5,-528.5 425.5,-564.5"/>
<text text-anchor="middle" x="368.5" y="-542.8" font-family="Times,serif" font-size="14.00" fill="#000000">Commit Creation</text>
</a>
</g>
</g>
<!-- n3&#45;&gt;n1 -->
<g id="edge10" class="edge">
<title>n3&#45;&gt;n1</title>
<path fill="none" stroke="#fed37f" d="M344.7593,-564.6695C331.2297,-574.6941 313.7757,-587.0826 297.5,-597 269.7289,-613.922 237.062,-630.6904 211.9498,-642.9564"/>
<polygon fill="#fed37f" stroke="#fed37f" points="210.1942,-639.9178 202.7211,-647.428 213.2466,-646.2173 210.1942,-639.9178"/>
<text text-anchor="middle" x="304.5" y="-618" font-family="Times,serif" font-size="10.00" fill="#000000">wasAssociatedWith</text>
</g>
<!-- n5 -->
<g id="node9" class="node">
<title>n5</title>
<g id="a_node9"><a xlink:href="gitlab2prov:Git Commit" xlink:title="Git Commit">
<polygon fill="#9fb1fc" stroke="#0000ff" points="488.5,-680 404.5,-680 404.5,-644 488.5,-644 488.5,-680"/>
<text text-anchor="middle" x="446.5" y="-658.3" font-family="Times,serif" font-size="14.00" fill="#000000">Git Commit</text>
</a>
</g>
</g>
<!-- n3&#45;&gt;n5 -->
<g id="edge9" class="edge">
<title>n3&#45;&gt;n5</title>
<path fill="none" stroke="#000000" d="M371.3444,-564.7478C374.7495,-581.9205 381.8008,-607.6683 395.5,-626 398.5837,-630.1264 402.2804,-633.9616 406.2562,-637.4714"/>
<polygon fill="#000000" stroke="#000000" points="404.1678,-640.2831 414.158,-643.8109 408.5483,-634.8231 404.1678,-640.2831"/>
<text text-anchor="middle" x="428" y="-618" font-family="Times,serif" font-size="10.00" fill="#000000">wasInformedBy</text>
</g>
<!-- ann3 -->
<g id="node6" class="node">
<title>ann3</title>
<polygon fill="none" stroke="#c0c0c0" points="634,-449 527,-449 527,-400 640,-400 640,-443 634,-449"/>
<polyline fill="none" stroke="#c0c0c0" points="634,-449 634,-443 "/>
<polyline fill="none" stroke="#c0c0c0" points="640,-443 634,-443 "/>
<g id="a_node6_6"><a xlink:href="http://www.w3.org/ns/prov#type" xlink:title="&lt;TABLE&gt;">
<text text-anchor="start" x="537.5" y="-434.5" font-family="Times,serif" font-size="10.00" fill="#000000">prov:type</text>
</a>
</g>
<text text-anchor="start" x="597.5" y="-434.5" font-family="Times,serif" font-size="10.00" fill="#000000">creation</text>
<g id="a_node6_7"><a xlink:href="http://www.w3.org/ns/prov#endedAt" xlink:title="&lt;TABLE&gt;">
<text text-anchor="start" x="537.5" y="-421.5" font-family="Times,serif" font-size="10.00" fill="#000000">prov:endedAt</text>
</a>
</g>
<g id="a_node6_8"><a xlink:href="http://www.w3.org/ns/prov#startedAt" xlink:title="&lt;TABLE&gt;">
<text text-anchor="start" x="537.5" y="-408.5" font-family="Times,serif" font-size="10.00" fill="#000000">prov:startedAt</text>
</a>
</g>
</g>
<!-- ann3&#45;&gt;n3 -->
<g id="edge3" class="edge">
<title>ann3&#45;&gt;n3</title>
<path fill="none" stroke="#c0c0c0" stroke-dasharray="5,2" d="M556.5849,-449.0319C543.9929,-459.3427 528.3069,-470.6302 512.5,-478 480.2547,-493.034 466.6896,-480.8472 434.5,-496 417.1385,-504.1727 400.0024,-517.484 387.5437,-528.3887"/>
</g>
<!-- n4 -->
<g id="node7" class="node">
<title>n4</title>
<g id="a_node7"><a xlink:href="gitlab2prov:Commit Annotation" xlink:title="Commit Annotation">
<polygon fill="#9fb1fc" stroke="#0000ff" points="516,-224.5 387,-224.5 387,-188.5 516,-188.5 516,-224.5"/>
<text text-anchor="middle" x="451.5" y="-202.8" font-family="Times,serif" font-size="14.00" fill="#000000">Commit Annotation</text>
</a>
</g>
</g>
<!-- n4&#45;&gt;n2 -->
<g id="edge16" class="edge">
<title>n4&#45;&gt;n2</title>
<path fill="none" stroke="#fed37f" d="M476.4235,-224.6845C491.3097,-235.3259 510.7228,-248.8233 528.5,-260 548.5577,-272.6105 571.5835,-285.7173 590.274,-296.0254"/>
<polygon fill="#fed37f" stroke="#fed37f" points="588.6176,-299.1088 599.069,-300.8465 591.9824,-292.9705 588.6176,-299.1088"/>
<text text-anchor="middle" x="568.5" y="-252" font-family="Times,serif" font-size="10.00" fill="#000000">wasAssociatedWith</text>
</g>
<!-- n4&#45;&gt;n3 -->
<g id="edge18" class="edge">
<title>n4&#45;&gt;n3</title>
<path fill="none" stroke="#000000" d="M460.5119,-224.7885C466.9551,-238.93 475.0692,-259.2035 478.5,-278 484.4852,-310.7916 486.0019,-320.5218 478.5,-353 463.2831,-418.8793 417.4803,-485.0977 390.0104,-520.4158"/>
<polygon fill="#000000" stroke="#000000" points="387.2358,-518.2819 383.7824,-528.2982 392.7282,-522.6217 387.2358,-518.2819"/>
<text text-anchor="middle" x="506" y="-374" font-family="Times,serif" font-size="10.00" fill="#000000">wasInformedBy</text>
</g>
<!-- n7 -->
<g id="node13" class="node">
<title>n7</title>
<g id="a_node13"><a xlink:href="gitlab2prov:Commit Version" xlink:title="Commit Version">
<ellipse fill="#fffc87" stroke="#808080" cx="207.5" cy="-315.5" rx="71.4873" ry="18"/>
<text text-anchor="middle" x="207.5" y="-311.8" font-family="Times,serif" font-size="14.00" fill="#000000">Commit Version</text>
</a>
</g>
</g>
<!-- n4&#45;&gt;n7 -->
<g id="edge17" class="edge">
<title>n4&#45;&gt;n7</title>
<path fill="none" stroke="#8b0000" d="M431.3079,-224.6329C417.7325,-236.06 398.9997,-250.4136 380.5,-260 369.7475,-265.5719 309.6353,-284.4323 263.2556,-298.6323"/>
<polygon fill="#8b0000" stroke="#8b0000" points="262.1308,-295.3161 253.5898,-301.5852 264.1761,-302.0107 262.1308,-295.3161"/>
<text text-anchor="middle" x="407" y="-252" font-family="Times,serif" font-size="10.00" fill="#ff0000">used</text>
</g>
<!-- ann4 -->
<g id="node8" class="node">
<title>ann4</title>
<polygon fill="none" stroke="#c0c0c0" points="733.5,-135 637.5,-135 637.5,-73 739.5,-73 739.5,-129 733.5,-135"/>
<polyline fill="none" stroke="#c0c0c0" points="733.5,-135 733.5,-129 "/>
<polyline fill="none" stroke="#c0c0c0" points="739.5,-129 733.5,-129 "/>
<g id="a_node8_9"><a xlink:href="http://www.w3.org/ns/prov#type" xlink:title="&lt;TABLE&gt;">
<text text-anchor="start" x="647.5" y="-121" font-family="Times,serif" font-size="10.00" fill="#000000">prov:type</text>
</a>
</g>
<text text-anchor="start" x="707.5" y="-121" font-family="Times,serif" font-size="10.00" fill="#000000">event</text>
<g id="a_node8_10"><a xlink:href="gitlab2prov:event" xlink:title="&lt;TABLE&gt;">
<text text-anchor="start" x="647.5" y="-108" font-family="Times,serif" font-size="10.00" fill="#000000">event</text>
</a>
</g>
<g id="a_node8_11"><a xlink:href="http://www.w3.org/ns/prov#endedAt" xlink:title="&lt;TABLE&gt;">
<text text-anchor="start" x="647.5" y="-95" font-family="Times,serif" font-size="10.00" fill="#000000">prov:endedAt</text>
</a>
</g>
<g id="a_node8_12"><a xlink:href="http://www.w3.org/ns/prov#startedAt" xlink:title="&lt;TABLE&gt;">
<text text-anchor="start" x="647.5" y="-82" font-family="Times,serif" font-size="10.00" fill="#000000">prov:startedAt</text>
</a>
</g>
</g>
<!-- ann4&#45;&gt;n4 -->
<g id="edge4" class="edge">
<title>ann4&#45;&gt;n4</title>
<path fill="none" stroke="#c0c0c0" stroke-dasharray="5,2" d="M637.3663,-126.1148C594.3659,-144.712 533.6439,-170.9736 493.4551,-188.3549"/>
</g>
<!-- ann5 -->
<g id="node10" class="node">
<title>ann5</title>
<polygon fill="none" stroke="#c0c0c0" points="549,-597 444,-597 444,-496 555,-496 555,-591 549,-597"/>
<polyline fill="none" stroke="#c0c0c0" points="549,-597 549,-591 "/>
<polyline fill="none" stroke="#c0c0c0" points="555,-591 549,-591 "/>
<g id="a_node10_13"><a xlink:href="http://www.w3.org/ns/prov#type" xlink:title="&lt;TABLE&gt;">
<text text-anchor="start" x="454.5" y="-582.5" font-family="Times,serif" font-size="10.00" fill="#000000">prov:type</text>
</a>
</g>
<text text-anchor="start" x="514.5" y="-582.5" font-family="Times,serif" font-size="10.00" fill="#000000">commit</text>
<g id="a_node10_14"><a xlink:href="gitlab2prov:id" xlink:title="&lt;TABLE&gt;">
<text text-anchor="start" x="454.5" y="-569.5" font-family="Times,serif" font-size="10.00" fill="#000000">id</text>
</a>
</g>
<g id="a_node10_15"><a xlink:href="gitlab2prov:message" xlink:title="&lt;TABLE&gt;">
<text text-anchor="start" x="454.5" y="-556.5" font-family="Times,serif" font-size="10.00" fill="#000000">message</text>
</a>
</g>
<g id="a_node10_16"><a xlink:href="http://www.w3.org/ns/prov#endedAt" xlink:title="&lt;TABLE&gt;">
<text text-anchor="start" x="454.5" y="-543.5" font-family="Times,serif" font-size="10.00" fill="#000000">prov:endedAt</text>
</a>
</g>
<g id="a_node10_17"><a xlink:href="http://www.w3.org/ns/prov#startedAt" xlink:title="&lt;TABLE&gt;">
<text text-anchor="start" x="454.5" y="-530.5" font-family="Times,serif" font-size="10.00" fill="#000000">prov:startedAt</text>
</a>
</g>
<g id="a_node10_18"><a xlink:href="gitlab2prov:short_id" xlink:title="&lt;TABLE&gt;">
<text text-anchor="start" x="454.5" y="-517.5" font-family="Times,serif" font-size="10.00" fill="#000000">short_id</text>
</a>
</g>
<g id="a_node10_19"><a xlink:href="gitlab2prov:title" xlink:title="&lt;TABLE&gt;">
<text text-anchor="start" x="454.5" y="-504.5" font-family="Times,serif" font-size="10.00" fill="#000000">title</text>
</a>
</g>
</g>
<!-- ann5&#45;&gt;n5 -->
<g id="edge5" class="edge">
<title>ann5&#45;&gt;n5</title>
<path fill="none" stroke="#c0c0c0" stroke-dasharray="5,2" d="M476.2534,-597.16C468.6326,-613.7677 460.6473,-631.1697 454.8701,-643.7594"/>
</g>
<!-- n6 -->
<g id="node11" class="node">
<title>n6</title>
<g id="a_node11"><a xlink:href="gitlab2prov:Commit" xlink:title="Commit">
<ellipse fill="#fffc87" stroke="#808080" cx="327.5" cy="-424.5" rx="40.0939" ry="18"/>
<text text-anchor="middle" x="327.5" y="-420.8" font-family="Times,serif" font-size="14.00" fill="#000000">Commit</text>
</a>
</g>
</g>
<!-- n6&#45;&gt;n1 -->
<g id="edge11" class="edge">
<title>n6&#45;&gt;n1</title>
<path fill="none" stroke="#fed37f" d="M301.8262,-438.7656C281.1342,-451.4175 252.5988,-471.6428 234.5,-496 201.8186,-539.9824 184.1475,-602.9232 176.3988,-637.2868"/>
<polygon fill="#fed37f" stroke="#fed37f" points="172.9091,-636.8667 174.2251,-647.3795 179.7522,-638.3405 172.9091,-636.8667"/>
<text text-anchor="middle" x="268.5" y="-544" font-family="Times,serif" font-size="10.00" fill="#000000">wasAttributedTo</text>
</g>
<!-- n6&#45;&gt;n3 -->
<g id="edge13" class="edge">
<title>n6&#45;&gt;n3</title>
<path fill="none" stroke="#006400" d="M333.5497,-442.5015C340.3022,-462.5943 351.3105,-495.3509 359.1681,-518.732"/>
<polygon fill="#006400" stroke="#006400" points="355.9222,-520.0606 362.4255,-528.4246 362.5575,-517.8306 355.9222,-520.0606"/>
<text text-anchor="middle" x="379" y="-470" font-family="Times,serif" font-size="10.00" fill="#006400">wasGeneratedBy</text>
</g>
<!-- ann6 -->
<g id="node12" class="node">
<title>ann6</title>
<polygon fill="none" stroke="#c0c0c0" points="464,-353 339,-353 339,-278 470,-278 470,-347 464,-353"/>
<polyline fill="none" stroke="#c0c0c0" points="464,-353 464,-347 "/>
<polyline fill="none" stroke="#c0c0c0" points="470,-347 464,-347 "/>
<g id="a_node12_20"><a xlink:href="http://www.w3.org/ns/prov#type" xlink:title="&lt;TABLE&gt;">
<text text-anchor="start" x="349.5" y="-338.5" font-family="Times,serif" font-size="10.00" fill="#000000">prov:type</text>
</a>
</g>
<text text-anchor="start" x="390.5" y="-338.5" font-family="Times,serif" font-size="10.00" fill="#000000">commit_resource</text>
<g id="a_node12_21"><a xlink:href="gitlab2prov:id" xlink:title="&lt;TABLE&gt;">
<text text-anchor="start" x="349.5" y="-325.5" font-family="Times,serif" font-size="10.00" fill="#000000">id</text>
</a>
</g>
<g id="a_node12_22"><a xlink:href="gitlab2prov:message" xlink:title="&lt;TABLE&gt;">
<text text-anchor="start" x="349.5" y="-312.5" font-family="Times,serif" font-size="10.00" fill="#000000">message</text>
</a>
</g>
<g id="a_node12_23"><a xlink:href="gitlab2prov:short_id" xlink:title="&lt;TABLE&gt;">
<text text-anchor="start" x="349.5" y="-299.5" font-family="Times,serif" font-size="10.00" fill="#000000">short_id</text>
</a>
</g>
<g id="a_node12_24"><a xlink:href="gitlab2prov:title" xlink:title="&lt;TABLE&gt;">
<text text-anchor="start" x="349.5" y="-286.5" font-family="Times,serif" font-size="10.00" fill="#000000">title</text>
</a>
</g>
</g>
<!-- ann6&#45;&gt;n6 -->
<g id="edge6" class="edge">
<title>ann6&#45;&gt;n6</title>
<path fill="none" stroke="#c0c0c0" stroke-dasharray="5,2" d="M378.001,-353.0116C365.0372,-371.363 350.0563,-392.5696 339.798,-407.0911"/>
</g>
<!-- n7&#45;&gt;n1 -->
<g id="edge12" class="edge">
<title>n7&#45;&gt;n1</title>
<path fill="none" stroke="#fed37f" d="M199.0648,-333.6445C186.5976,-361.5664 163.8288,-417.079 155.5,-467 145.3754,-527.6843 157.5862,-600.1094 165.5956,-637.2858"/>
<polygon fill="#fed37f" stroke="#fed37f" points="162.2193,-638.2255 167.8191,-647.2195 169.0502,-636.6964 162.2193,-638.2255"/>
<text text-anchor="middle" x="189.5" y="-470" font-family="Times,serif" font-size="10.00" fill="#000000">wasAttributedTo</text>
</g>
<!-- n7&#45;&gt;n3 -->
<g id="edge14" class="edge">
<title>n7&#45;&gt;n3</title>
<path fill="none" stroke="#006400" d="M202.2222,-333.5971C195.3836,-360.9558 186.8309,-413.4211 209.5,-449 235.2417,-489.4014 266.1005,-470.2552 306.5,-496 318.3246,-503.5353 330.4694,-512.9854 340.8413,-521.6664"/>
<polygon fill="#006400" stroke="#006400" points="338.8622,-524.5789 348.7392,-528.4123 343.4085,-519.2562 338.8622,-524.5789"/>
<text text-anchor="middle" x="244" y="-422" font-family="Times,serif" font-size="10.00" fill="#006400">wasGeneratedBy</text>
</g>
<!-- n7&#45;&gt;n6 -->
<g id="edge20" class="edge">
<title>n7&#45;&gt;n6</title>
<path fill="none" stroke="#000000" d="M210.9765,-333.6142C214.6174,-348.2648 221.6569,-368.5928 234.5,-382 234.7768,-382.289 264.2825,-395.7521 289.9823,-407.4477"/>
<polygon fill="#000000" stroke="#000000" points="288.6656,-410.6938 299.2173,-411.6489 291.5643,-404.3221 288.6656,-410.6938"/>
<text text-anchor="middle" x="267.5" y="-374" font-family="Times,serif" font-size="10.00" fill="#000000">specializationOf</text>
</g>
<!-- ann7 -->
<g id="node14" class="node">
<title>ann7</title>
<polygon fill="none" stroke="#c0c0c0" points="170,-224.5 11,-224.5 11,-188.5 176,-188.5 176,-218.5 170,-224.5"/>
<polyline fill="none" stroke="#c0c0c0" points="170,-224.5 170,-218.5 "/>
<polyline fill="none" stroke="#c0c0c0" points="176,-218.5 170,-218.5 "/>
<g id="a_node14_25"><a xlink:href="http://www.w3.org/ns/prov#type" xlink:title="&lt;TABLE&gt;">
<text text-anchor="start" x="21.5" y="-203.5" font-family="Times,serif" font-size="10.00" fill="#000000">prov:type</text>
</a>
</g>
<text text-anchor="start" x="62.5" y="-203.5" font-family="Times,serif" font-size="10.00" fill="#000000">commit_resource_version</text>
</g>
<!-- ann7&#45;&gt;n7 -->
<g id="edge7" class="edge">
<title>ann7&#45;&gt;n7</title>
<path fill="none" stroke="#c0c0c0" stroke-dasharray="5,2" d="M112.581,-224.7441C133.8783,-245.1073 168.1011,-277.8291 189.1127,-297.9192"/>
</g>
<!-- n8 -->
<g id="node15" class="node">
<title>n8</title>
<g id="a_node15"><a xlink:href="gitlab2prov:Annotated Commit Version" xlink:title="Annotated Commit Version">
<ellipse fill="#fffc87" stroke="#808080" cx="363.5" cy="-104" rx="111.5806" ry="18"/>
<text text-anchor="middle" x="363.5" y="-100.3" font-family="Times,serif" font-size="14.00" fill="#000000">Annotated Commit Version</text>
</a>
</g>
</g>
<!-- n8&#45;&gt;n2 -->
<g id="edge15" class="edge">
<title>n8&#45;&gt;n2</title>
<path fill="none" stroke="#fed37f" d="M445.0308,-116.3987C516.4805,-129.1276 612.44,-151.3978 635.5,-182 659.3853,-213.6974 647.3794,-262.5495 636.7511,-291.5392"/>
<polygon fill="#fed37f" stroke="#fed37f" points="633.4716,-290.3155 633.1102,-300.9042 639.9959,-292.852 633.4716,-290.3155"/>
<text text-anchor="middle" x="683.5" y="-204" font-family="Times,serif" font-size="10.00" fill="#000000">wasAttributedTo</text>
</g>
<!-- n8&#45;&gt;n4 -->
<g id="edge19" class="edge">
<title>n8&#45;&gt;n4</title>
<path fill="none" stroke="#006400" d="M378.8284,-121.8541C392.6643,-137.9697 413.1995,-161.8886 428.9147,-180.1933"/>
<polygon fill="#006400" stroke="#006400" points="426.5851,-182.8528 435.7547,-188.1603 431.8962,-178.293 426.5851,-182.8528"/>
<text text-anchor="middle" x="448" y="-156" font-family="Times,serif" font-size="10.00" fill="#006400">wasGeneratedBy</text>
</g>
<!-- n8&#45;&gt;n6 -->
<g id="edge21" class="edge">
<title>n8&#45;&gt;n6</title>
<path fill="none" stroke="#000000" d="M354.4837,-122.19C341.6958,-149.1076 318.91,-201.4941 310.5,-249 301.3601,-300.6287 312.0607,-361.734 320.144,-396.5233"/>
<polygon fill="#000000" stroke="#000000" points="316.7889,-397.5399 322.5437,-406.4355 323.5924,-395.8927 316.7889,-397.5399"/>
<text text-anchor="middle" x="343.5" y="-252" font-family="Times,serif" font-size="10.00" fill="#000000">specializationOf</text>
</g>
<!-- n8&#45;&gt;n7 -->
<g id="edge22" class="edge">
<title>n8&#45;&gt;n7</title>
<path fill="none" stroke="#000000" d="M312.5113,-120.1465C282.6077,-132.3232 246.8186,-152.1275 226.5,-182 205.2517,-213.2393 203.2426,-258.1457 204.6601,-287.073"/>
<polygon fill="#000000" stroke="#000000" points="201.1851,-287.5686 205.3381,-297.3155 208.1698,-287.1061 201.1851,-287.5686"/>
<text text-anchor="middle" x="261.5" y="-204" font-family="Times,serif" font-size="10.00" fill="#000000">wasDerivedFrom</text>
</g>
<!-- ann8 -->
<g id="node16" class="node">
<title>ann8</title>
<polygon fill="none" stroke="#c0c0c0" points="440,-36 281,-36 281,0 446,0 446,-30 440,-36"/>
<polyline fill="none" stroke="#c0c0c0" points="440,-36 440,-30 "/>
<polyline fill="none" stroke="#c0c0c0" points="446,-30 440,-30 "/>
<g id="a_node16_26"><a xlink:href="http://www.w3.org/ns/prov#type" xlink:title="&lt;TABLE&gt;">
<text text-anchor="start" x="291.5" y="-15" font-family="Times,serif" font-size="10.00" fill="#000000">prov:type</text>
</a>
</g>
<text text-anchor="start" x="332.5" y="-15" font-family="Times,serif" font-size="10.00" fill="#000000">commit_resource_version</text>
</g>
<!-- ann8&#45;&gt;n8 -->
<g id="edge8" class="edge">
<title>ann8&#45;&gt;n8</title>
<path fill="none" stroke="#c0c0c0" stroke-dasharray="5,2" d="M363.5,-36.2384C363.5,-50.8329 363.5,-71.2004 363.5,-85.7879"/>
</g>
</g>
</svg>
