<?xml version="1.0" encoding="UTF-8" standalone="no"?>
<!DOCTYPE svg PUBLIC "-//W3C//DTD SVG 1.1//EN"
 "http://www.w3.org/Graphics/SVG/1.1/DTD/svg11.dtd">
<!-- Generated by graphviz version 2.43.0 (0)
 -->
<!-- Title: G Pages: 1 -->
<svg width="982pt" height="668pt"
 viewBox="0.00 0.00 981.59 668.00" xmlns="http://www.w3.org/2000/svg" xmlns:xlink="http://www.w3.org/1999/xlink">
<g id="graph0" class="graph" transform="scale(1 1) rotate(0) translate(4 664)">
<title>G</title>
<polygon fill="white" stroke="transparent" points="-4,4 -4,-664 977.59,-664 977.59,4 -4,4"/>
<!-- n1 -->
<g id="node1" class="node">
<title>n1</title>
<g id="a_node1"><a xlink:href="gitlab2prov:User" xlink:title="User">
<polygon fill="#fed37f" stroke="black" points="584.54,-647.56 543.59,-660 502.65,-647.56 502.69,-627.44 584.5,-627.44 584.54,-647.56"/>
<text text-anchor="middle" x="543.59" y="-638.3" font-family="Times,serif" font-size="14.00">User</text>
</a>
</g>
</g>
<!-- ann1 -->
<g id="node2" class="node">
<title>ann1</title>
<polygon fill="none" stroke="gray" points="241.59,-577 193.59,-577 193.59,-541 247.59,-541 247.59,-571 241.59,-577"/>
<polyline fill="none" stroke="gray" points="241.59,-577 241.59,-571 "/>
<polyline fill="none" stroke="gray" points="247.59,-571 241.59,-571 "/>
<g id="a_node2_0"><a xlink:href="gitlab2prov:email" xlink:title="&lt;TABLE&gt;">
<text text-anchor="start" x="205.59" y="-563" font-family="Times,serif" font-size="10.00">email</text>
</a>
</g>
<g id="a_node2_1"><a xlink:href="gitlab2prov:name" xlink:title="&lt;TABLE&gt;">
<text text-anchor="start" x="205.59" y="-550" font-family="Times,serif" font-size="10.00">name</text>
</a>
</g>
</g>
<!-- ann1&#45;&gt;n1 -->
<g id="edge1" class="edge">
<title>ann1&#45;&gt;n1</title>
<path fill="none" stroke="gray" stroke-dasharray="5,2" d="M234.14,-577.3C243.07,-587.41 255.66,-599.43 269.59,-606 309.99,-625.04 436.64,-634.9 502.65,-638.86"/>
</g>
<!-- n2 -->
<g id="node3" class="node">
<title>n2</title>
<g id="a_node3"><a xlink:href="gitlab2prov:Release_Event" xlink:title="Release_Event">
<polygon fill="#9fb1fc" stroke="#0000ff" points="507.09,-577 386.09,-577 386.09,-541 507.09,-541 507.09,-577"/>
<text text-anchor="middle" x="446.59" y="-555.3" font-family="Times,serif" font-size="14.00">Release_Event</text>
</a>
</g>
</g>
<!-- n2&#45;&gt;n1 -->
<g id="edge12" class="edge">
<title>n2&#45;&gt;n1</title>
<path fill="none" stroke="#fed37f" d="M433.82,-577.38C428.75,-586.55 425.42,-597.61 431.59,-606 445.61,-625.07 469.98,-634.04 492.42,-638.15"/>
<polygon fill="#fed37f" stroke="#fed37f" points="492.13,-641.65 502.54,-639.71 493.19,-634.73 492.13,-641.65"/>
<text text-anchor="middle" x="480.59" y="-598" font-family="Times,serif" font-size="10.00">wasAssociatedWith</text>
</g>
<!-- n3 -->
<g id="node4" class="node">
<title>n3</title>
<g id="a_node4"><a xlink:href="gitlab2prov:Tag_Event" xlink:title="Tag_Event">
<polygon fill="#9fb1fc" stroke="#0000ff" points="600.09,-523 509.09,-523 509.09,-487 600.09,-487 600.09,-523"/>
<text text-anchor="middle" x="554.59" y="-501.3" font-family="Times,serif" font-size="14.00">Tag_Event</text>
</a>
</g>
</g>
<!-- n3&#45;&gt;n1 -->
<g id="edge13" class="edge">
<title>n3&#45;&gt;n1</title>
<path fill="none" stroke="#fed37f" d="M553.2,-523.1C551.26,-546.92 547.73,-590.2 545.53,-617.17"/>
<polygon fill="#fed37f" stroke="#fed37f" points="542.03,-617.05 544.71,-627.3 549.01,-617.62 542.03,-617.05"/>
<text text-anchor="middle" x="600.59" y="-556.5" font-family="Times,serif" font-size="10.00">wasAssociatedWith</text>
</g>
<!-- n4 -->
<g id="node5" class="node">
<title>n4</title>
<g id="a_node5"><a xlink:href="gitlab2prov:Commit_Event" xlink:title="Commit_Event">
<polygon fill="#9fb1fc" stroke="#0000ff" points="837.59,-415 715.59,-415 715.59,-379 837.59,-379 837.59,-415"/>
<text text-anchor="middle" x="776.59" y="-393.3" font-family="Times,serif" font-size="14.00">Commit_Event</text>
</a>
</g>
</g>
<!-- n4&#45;&gt;n1 -->
<g id="edge11" class="edge">
<title>n4&#45;&gt;n1</title>
<path fill="none" stroke="#fed37f" d="M776.4,-415.03C775.52,-439.9 771.52,-487.13 754.59,-523 733.87,-566.9 724.87,-580.46 683.59,-606 656.84,-622.55 622.64,-631.29 594.75,-635.89"/>
<polygon fill="#fed37f" stroke="#fed37f" points="594.14,-632.45 584.78,-637.41 595.19,-639.37 594.14,-632.45"/>
<text text-anchor="middle" x="815.59" y="-502.5" font-family="Times,serif" font-size="10.00">wasAssociatedWith</text>
</g>
<!-- n5 -->
<g id="node6" class="node">
<title>n5</title>
<g id="a_node6"><a xlink:href="gitlab2prov:Tag" xlink:title="Tag">
<ellipse fill="#fffc87" stroke="#808080" cx="599.59" cy="-304" rx="27.1" ry="18"/>
<text text-anchor="middle" x="599.59" y="-300.3" font-family="Times,serif" font-size="14.00">Tag</text>
</a>
</g>
</g>
<!-- n5&#45;&gt;n1 -->
<g id="edge15" class="edge">
<title>n5&#45;&gt;n1</title>
<path fill="none" stroke="#fed37f" d="M614.89,-319.15C628.55,-332.91 647.59,-355.17 655.59,-379 659.3,-390.04 669.55,-549.65 653.59,-577 640.54,-599.38 616.37,-614.68 594,-624.7"/>
<polygon fill="#fed37f" stroke="#fed37f" points="592.42,-621.57 584.56,-628.67 595.14,-628.02 592.42,-621.57"/>
<text text-anchor="middle" x="703.59" y="-502.5" font-family="Times,serif" font-size="10.00">wasAttributedTo</text>
</g>
<!-- n5&#45;&gt;n3 -->
<g id="edge18" class="edge">
<title>n5&#45;&gt;n3</title>
<path fill="none" stroke="darkgreen" d="M590.85,-321.24C583.38,-335.9 573.01,-358.28 567.59,-379 558.99,-411.88 556.04,-451.02 555.05,-476.63"/>
<polygon fill="darkgreen" stroke="darkgreen" points="551.55,-476.62 554.74,-486.72 558.55,-476.84 551.55,-476.62"/>
<text text-anchor="middle" x="611.59" y="-394.5" font-family="Times,serif" font-size="10.00" fill="darkgreen">wasGeneratedBy</text>
</g>
<!-- n6 -->
<g id="node8" class="node">
<title>n6</title>
<g id="a_node8"><a xlink:href="gitlab2prov:Release" xlink:title="Release">
<ellipse fill="#fffc87" stroke="#808080" cx="359.59" cy="-451" rx="46.59" ry="18"/>
<text text-anchor="middle" x="359.59" y="-447.3" font-family="Times,serif" font-size="14.00">Release</text>
</a>
</g>
</g>
<!-- n5&#45;&gt;n6 -->
<g id="edge9" class="edge">
<title>n5&#45;&gt;n6</title>
<path fill="none" stroke="black" d="M589.94,-320.9C581.41,-333.62 567.8,-350.94 551.59,-361 523.93,-378.16 509.96,-364.96 480.59,-379 456.53,-390.5 455.39,-401.17 432.59,-415 421.98,-421.44 410.01,-427.59 398.88,-432.9"/>
<polygon fill="black" stroke="black" points="397.35,-429.75 389.77,-437.15 400.31,-436.1 397.35,-429.75"/>
<text text-anchor="middle" x="512.59" y="-394.5" font-family="Times,serif" font-size="10.00">hadMember</text>
</g>
<!-- ann2 -->
<g id="node7" class="node">
<title>ann2</title>
<polygon fill="none" stroke="gray" points="680.09,-200 513.09,-200 513.09,-125 686.09,-125 686.09,-194 680.09,-200"/>
<polyline fill="none" stroke="gray" points="680.09,-200 680.09,-194 "/>
<polyline fill="none" stroke="gray" points="686.09,-194 680.09,-194 "/>
<g id="a_node7_2"><a xlink:href="http://www.w3.org/ns/prov#type" xlink:title="&lt;TABLE&gt;">
<text text-anchor="start" x="523.59" y="-185.5" font-family="Times,serif" font-size="10.00">prov:type</text>
</a>
</g>
<text text-anchor="start" x="599.59" y="-185.5" font-family="Times,serif" font-size="10.00">prov:Collection</text>
<g id="a_node7_3"><a xlink:href="gitlab2prov:commit" xlink:title="&lt;TABLE&gt;">
<text text-anchor="start" x="523.59" y="-172.5" font-family="Times,serif" font-size="10.00">commit</text>
</a>
</g>
<g id="a_node7_4"><a xlink:href="gitlab2prov:message" xlink:title="&lt;TABLE&gt;">
<text text-anchor="start" x="523.59" y="-159.5" font-family="Times,serif" font-size="10.00">message</text>
</a>
</g>
<g id="a_node7_5"><a xlink:href="gitlab2prov:name" xlink:title="&lt;TABLE&gt;">
<text text-anchor="start" x="523.59" y="-146.5" font-family="Times,serif" font-size="10.00">name</text>
</a>
</g>
<g id="a_node7_6"><a xlink:href="gitlab2prov:target_commit" xlink:title="&lt;TABLE&gt;">
<text text-anchor="start" x="523.59" y="-133.5" font-family="Times,serif" font-size="10.00">target_commit</text>
</a>
</g>
</g>
<!-- ann2&#45;&gt;n5 -->
<g id="edge2" class="edge">
<title>ann2&#45;&gt;n5</title>
<path fill="none" stroke="gray" stroke-dasharray="5,2" d="M599.59,-200.15C599.59,-227.76 599.59,-264.37 599.59,-285.65"/>
</g>
<!-- n6&#45;&gt;n1 -->
<g id="edge14" class="edge">
<title>n6&#45;&gt;n1</title>
<path fill="none" stroke="#fed37f" d="M340.3,-467.64C312.11,-492.36 265.9,-541.33 293.59,-577 317.71,-608.07 426.38,-626.63 492.25,-635.22"/>
<polygon fill="#fed37f" stroke="#fed37f" points="492.07,-638.73 502.43,-636.52 492.95,-631.78 492.07,-638.73"/>
<text text-anchor="middle" x="335.59" y="-556.5" font-family="Times,serif" font-size="10.00">wasAttributedTo</text>
</g>
<!-- n6&#45;&gt;n2 -->
<g id="edge17" class="edge">
<title>n6&#45;&gt;n2</title>
<path fill="none" stroke="darkgreen" d="M371.01,-468.54C381.37,-483.23 397.32,-505.09 412.59,-523 415.58,-526.5 418.83,-530.1 422.1,-533.58"/>
<polygon fill="darkgreen" stroke="darkgreen" points="419.74,-536.18 429.18,-540.97 424.79,-531.33 419.74,-536.18"/>
<text text-anchor="middle" x="456.59" y="-502.5" font-family="Times,serif" font-size="10.00" fill="darkgreen">wasGeneratedBy</text>
</g>
<!-- ann3 -->
<g id="node9" class="node">
<title>ann3</title>
<polygon fill="none" stroke="gray" points="536.59,-361 376.59,-361 376.59,-247 542.59,-247 542.59,-355 536.59,-361"/>
<polyline fill="none" stroke="gray" points="536.59,-361 536.59,-355 "/>
<polyline fill="none" stroke="gray" points="542.59,-355 536.59,-355 "/>
<g id="a_node9_7"><a xlink:href="http://www.w3.org/ns/prov#type" xlink:title="&lt;TABLE&gt;">
<text text-anchor="start" x="386.59" y="-347" font-family="Times,serif" font-size="10.00">prov:type</text>
</a>
</g>
<text text-anchor="start" x="455.59" y="-347" font-family="Times,serif" font-size="10.00">prov:Collection</text>
<g id="a_node9_8"><a xlink:href="gitlab2prov:commit_path" xlink:title="&lt;TABLE&gt;">
<text text-anchor="start" x="386.59" y="-334" font-family="Times,serif" font-size="10.00">commit_path</text>
</a>
</g>
<g id="a_node9_9"><a xlink:href="gitlab2prov:created_at" xlink:title="&lt;TABLE&gt;">
<text text-anchor="start" x="386.59" y="-321" font-family="Times,serif" font-size="10.00">created_at</text>
</a>
</g>
<g id="a_node9_10"><a xlink:href="gitlab2prov:description" xlink:title="&lt;TABLE&gt;">
<text text-anchor="start" x="386.59" y="-308" font-family="Times,serif" font-size="10.00">description</text>
</a>
</g>
<g id="a_node9_11"><a xlink:href="gitlab2prov:name" xlink:title="&lt;TABLE&gt;">
<text text-anchor="start" x="386.59" y="-295" font-family="Times,serif" font-size="10.00">name</text>
</a>
</g>
<g id="a_node9_12"><a xlink:href="gitlab2prov:released_at" xlink:title="&lt;TABLE&gt;">
<text text-anchor="start" x="386.59" y="-282" font-family="Times,serif" font-size="10.00">released_at</text>
</a>
</g>
<g id="a_node9_13"><a xlink:href="gitlab2prov:tag_name" xlink:title="&lt;TABLE&gt;">
<text text-anchor="start" x="386.59" y="-269" font-family="Times,serif" font-size="10.00">tag_name</text>
</a>
</g>
<g id="a_node9_14"><a xlink:href="gitlab2prov:tag_path" xlink:title="&lt;TABLE&gt;">
<text text-anchor="start" x="386.59" y="-256" font-family="Times,serif" font-size="10.00">tag_path</text>
</a>
</g>
</g>
<!-- ann3&#45;&gt;n6 -->
<g id="edge3" class="edge">
<title>ann3&#45;&gt;n6</title>
<path fill="none" stroke="gray" stroke-dasharray="5,2" d="M440.22,-361.12C432.21,-379.48 421.69,-399.2 408.59,-415 401.99,-422.97 393.16,-430.01 384.82,-435.64"/>
</g>
<!-- n7 -->
<g id="node10" class="node">
<title>n7</title>
<g id="a_node10"><a xlink:href="gitlab2prov:Commit" xlink:title="Commit">
<ellipse fill="#fffc87" stroke="#808080" cx="776.59" cy="-162.5" rx="47.39" ry="18"/>
<text text-anchor="middle" x="776.59" y="-158.8" font-family="Times,serif" font-size="14.00">Commit</text>
</a>
</g>
</g>
<!-- n7&#45;&gt;n1 -->
<g id="edge16" class="edge">
<title>n7&#45;&gt;n1</title>
<path fill="none" stroke="#fed37f" d="M809.7,-175.43C829.61,-184.25 853.86,-198.18 868.59,-218 891.8,-249.23 889.59,-264.09 889.59,-303 889.59,-303 889.59,-303 889.59,-560 889.59,-619.82 691.03,-635.49 594.74,-639.57"/>
<polygon fill="#fed37f" stroke="#fed37f" points="594.49,-636.08 584.64,-639.98 594.77,-643.08 594.49,-636.08"/>
<text text-anchor="middle" x="931.59" y="-448.5" font-family="Times,serif" font-size="10.00">wasAttributedTo</text>
</g>
<!-- n7&#45;&gt;n4 -->
<g id="edge19" class="edge">
<title>n7&#45;&gt;n4</title>
<path fill="none" stroke="darkgreen" d="M776.59,-180.6C776.59,-220.57 776.59,-320.41 776.59,-368.82"/>
<polygon fill="darkgreen" stroke="darkgreen" points="773.09,-368.88 776.59,-378.88 780.09,-368.88 773.09,-368.88"/>
<text text-anchor="middle" x="820.59" y="-221" font-family="Times,serif" font-size="10.00" fill="darkgreen">wasGeneratedBy</text>
</g>
<!-- n7&#45;&gt;n5 -->
<g id="edge10" class="edge">
<title>n7&#45;&gt;n5</title>
<path fill="none" stroke="black" d="M751.3,-177.83C733.71,-188.2 710.03,-202.97 690.59,-218 665.15,-237.67 638.55,-263.18 620.73,-281.1"/>
<polygon fill="black" stroke="black" points="618.18,-278.7 613.66,-288.28 623.17,-283.61 618.18,-278.7"/>
<text text-anchor="middle" x="722.59" y="-221" font-family="Times,serif" font-size="10.00">hadMember</text>
</g>
<!-- ann4 -->
<g id="node11" class="node">
<title>ann4</title>
<polygon fill="none" stroke="gray" points="808.59,-88 738.59,-88 738.59,0 814.59,0 814.59,-82 808.59,-88"/>
<polyline fill="none" stroke="gray" points="808.59,-88 808.59,-82 "/>
<polyline fill="none" stroke="gray" points="814.59,-82 808.59,-82 "/>
<g id="a_node11_15"><a xlink:href="gitlab2prov:created_at" xlink:title="&lt;TABLE&gt;">
<text text-anchor="start" x="748.59" y="-74" font-family="Times,serif" font-size="10.00">created_at</text>
</a>
</g>
<g id="a_node11_16"><a xlink:href="gitlab2prov:id" xlink:title="&lt;TABLE&gt;">
<text text-anchor="start" x="748.59" y="-61" font-family="Times,serif" font-size="10.00">id</text>
</a>
</g>
<g id="a_node11_17"><a xlink:href="gitlab2prov:message" xlink:title="&lt;TABLE&gt;">
<text text-anchor="start" x="748.59" y="-48" font-family="Times,serif" font-size="10.00">message</text>
</a>
</g>
<g id="a_node11_18"><a xlink:href="gitlab2prov:short_id" xlink:title="&lt;TABLE&gt;">
<text text-anchor="start" x="748.59" y="-35" font-family="Times,serif" font-size="10.00">short_id</text>
</a>
</g>
<g id="a_node11_19"><a xlink:href="gitlab2prov:title" xlink:title="&lt;TABLE&gt;">
<text text-anchor="start" x="748.59" y="-22" font-family="Times,serif" font-size="10.00">title</text>
</a>
</g>
<g id="a_node11_20"><a xlink:href="gitlab2prov:web_url" xlink:title="&lt;TABLE&gt;">
<text text-anchor="start" x="748.59" y="-9" font-family="Times,serif" font-size="10.00">web_url</text>
</a>
</g>
</g>
<!-- ann4&#45;&gt;n7 -->
<g id="edge4" class="edge">
<title>ann4&#45;&gt;n7</title>
<path fill="none" stroke="gray" stroke-dasharray="5,2" d="M776.59,-88.05C776.59,-107.62 776.59,-129.66 776.59,-144.45"/>
</g>
<!-- n8 -->
<g id="node12" class="node">
<title>n8</title>
<g id="a_node12"><a xlink:href="gitlab2prov:Release_Evidence" xlink:title="Release_Evidence">
<ellipse fill="#fffc87" stroke="#808080" cx="93.59" cy="-304" rx="93.68" ry="18"/>
<text text-anchor="middle" x="93.59" y="-300.3" font-family="Times,serif" font-size="14.00">Release_Evidence</text>
</a>
</g>
</g>
<!-- n8&#45;&gt;n6 -->
<g id="edge8" class="edge">
<title>n8&#45;&gt;n6</title>
<path fill="none" stroke="black" d="M114.29,-321.95C143.86,-345.5 200.61,-388.22 254.59,-415 272.68,-423.98 293.62,-431.48 312.02,-437.21"/>
<polygon fill="black" stroke="black" points="311.07,-440.58 321.66,-440.13 313.1,-433.88 311.07,-440.58"/>
<text text-anchor="middle" x="286.59" y="-394.5" font-family="Times,serif" font-size="10.00">hadMember</text>
</g>
<!-- ann5 -->
<g id="node13" class="node">
<title>ann5</title>
<polygon fill="none" stroke="gray" points="129.09,-187 52.09,-187 52.09,-138 135.09,-138 135.09,-181 129.09,-187"/>
<polyline fill="none" stroke="gray" points="129.09,-187 129.09,-181 "/>
<polyline fill="none" stroke="gray" points="135.09,-181 129.09,-181 "/>
<g id="a_node13_21"><a xlink:href="gitlab2prov:collected_at" xlink:title="&lt;TABLE&gt;">
<text text-anchor="start" x="62.59" y="-172.5" font-family="Times,serif" font-size="10.00">collected_at</text>
</a>
</g>
<g id="a_node13_22"><a xlink:href="gitlab2prov:filepath" xlink:title="&lt;TABLE&gt;">
<text text-anchor="start" x="62.59" y="-159.5" font-family="Times,serif" font-size="10.00">filepath</text>
</a>
</g>
<g id="a_node13_23"><a xlink:href="gitlab2prov:sha" xlink:title="&lt;TABLE&gt;">
<text text-anchor="start" x="62.59" y="-146.5" font-family="Times,serif" font-size="10.00">sha</text>
</a>
</g>
</g>
<!-- ann5&#45;&gt;n8 -->
<g id="edge5" class="edge">
<title>ann5&#45;&gt;n8</title>
<path fill="none" stroke="gray" stroke-dasharray="5,2" d="M93.59,-187.16C93.59,-215.15 93.59,-261.05 93.59,-285.83"/>
</g>
<!-- n9 -->
<g id="node14" class="node">
<title>n9</title>
<g id="a_node14"><a xlink:href="gitlab2prov:Release_Asset" xlink:title="Release_Asset">
<ellipse fill="#fffc87" stroke="#808080" cx="281.59" cy="-304" rx="76.89" ry="18"/>
<text text-anchor="middle" x="281.59" y="-300.3" font-family="Times,serif" font-size="14.00">Release_Asset</text>
</a>
</g>
</g>
<!-- n9&#45;&gt;n6 -->
<g id="edge7" class="edge">
<title>n9&#45;&gt;n6</title>
<path fill="none" stroke="black" d="M290.69,-321.92C304.25,-347.13 329.87,-394.75 345.76,-424.29"/>
<polygon fill="black" stroke="black" points="342.73,-426.04 350.55,-433.19 348.89,-422.73 342.73,-426.04"/>
<text text-anchor="middle" x="372.59" y="-394.5" font-family="Times,serif" font-size="10.00">hadMember</text>
</g>
<!-- ann6 -->
<g id="node15" class="node">
<title>ann6</title>
<polygon fill="none" stroke="gray" points="306.59,-187 250.59,-187 250.59,-138 312.59,-138 312.59,-181 306.59,-187"/>
<polyline fill="none" stroke="gray" points="306.59,-187 306.59,-181 "/>
<polyline fill="none" stroke="gray" points="312.59,-181 306.59,-181 "/>
<g id="a_node15_24"><a xlink:href="gitlab2prov:filepath" xlink:title="&lt;TABLE&gt;">
<text text-anchor="start" x="260.59" y="-172.5" font-family="Times,serif" font-size="10.00">filepath</text>
</a>
</g>
<g id="a_node15_25"><a xlink:href="gitlab2prov:format" xlink:title="&lt;TABLE&gt;">
<text text-anchor="start" x="260.59" y="-159.5" font-family="Times,serif" font-size="10.00">format</text>
</a>
</g>
<g id="a_node15_26"><a xlink:href="gitlab2prov:uri" xlink:title="&lt;TABLE&gt;">
<text text-anchor="start" x="260.59" y="-146.5" font-family="Times,serif" font-size="10.00">uri</text>
</a>
</g>
</g>
<!-- ann6&#45;&gt;n9 -->
<g id="edge6" class="edge">
<title>ann6&#45;&gt;n9</title>
<path fill="none" stroke="gray" stroke-dasharray="5,2" d="M281.59,-187.16C281.59,-215.15 281.59,-261.05 281.59,-285.83"/>
</g>
</g>
</svg>
