<?xml version="1.0" encoding="UTF-8" standalone="no"?>
<!DOCTYPE svg PUBLIC "-//W3C//DTD SVG 1.1//EN"
 "http://www.w3.org/Graphics/SVG/1.1/DTD/svg11.dtd">
<!-- Generated by graphviz version 2.50.0 (20211204.2007)
 -->
<!-- Title: G Pages: 1 -->
<svg width="410pt" height="459pt"
 viewBox="0.00 0.00 410.04 459.00" xmlns="http://www.w3.org/2000/svg" xmlns:xlink="http://www.w3.org/1999/xlink">
<g id="graph0" class="graph" transform="scale(1 1) rotate(0) translate(4 455)">
<title>G</title>
<!-- n1 -->
<g id="node1" class="node">
<title>n1</title>
<g id="a_node1"><a xlink:href="gitlab2prov:Gitlab Commit Author" xlink:title="Gitlab Commit Author">
<polygon fill="#fed37f" stroke="black" points="243.2,-438.56 129.04,-451 14.88,-438.56 14.99,-418.44 243.09,-418.44 243.2,-438.56"/>
<text text-anchor="middle" x="129.04" y="-429.3" font-family="Times New Roman,serif" font-size="14.00">Gitlab Commit Author</text>
</a>
</g>
</g>
<!-- n2 -->
<g id="node2" class="node">
<title>n2</title>
<g id="a_node2"><a xlink:href="gitlab2prov:Annotator" xlink:title="Annotator">
<polygon fill="#fed37f" stroke="black" points="137.83,-189.56 79.04,-202 20.25,-189.56 20.3,-169.44 137.78,-169.44 137.83,-189.56"/>
<text text-anchor="middle" x="79.04" y="-180.3" font-family="Times New Roman,serif" font-size="14.00">Annotator</text>
</a>
</g>
</g>
<!-- n3 -->
<g id="node3" class="node">
<title>n3</title>
<g id="a_node3"><a xlink:href="gitlab2prov:Creation" xlink:title="Creation">
<polygon fill="#9fb1fc" stroke="#0000ff" points="290.04,-368 226.04,-368 226.04,-332 290.04,-332 290.04,-368"/>
<text text-anchor="middle" x="258.04" y="-346.3" font-family="Times New Roman,serif" font-size="14.00">Creation</text>
</a>
</g>
</g>
<!-- n3&#45;&gt;n1 -->
<g id="edge2" class="edge">
<title>n3&#45;&gt;n1</title>
<path fill="none" stroke="#fed37f" d="M225.77,-366.56C214.56,-372.3 202.05,-379.1 191.04,-386 178.37,-393.94 164.97,-403.7 153.88,-412.18"/>
<polygon fill="#fed37f" stroke="#fed37f" points="151.66,-409.47 145.9,-418.36 155.95,-415 151.66,-409.47"/>
<text text-anchor="middle" x="232.04" y="-389" font-family="Times New Roman,serif" font-size="10.00">wasAssociatedWith</text>
</g>
<!-- n5 -->
<g id="node5" class="node">
<title>n5</title>
<g id="a_node5"><a xlink:href="gitlab2prov:Git Commit" xlink:title="Git Commit">
<polygon fill="#9fb1fc" stroke="#0000ff" points="344.54,-451 261.54,-451 261.54,-415 344.54,-415 344.54,-451"/>
<text text-anchor="middle" x="303.04" y="-429.3" font-family="Times New Roman,serif" font-size="14.00">Git Commit</text>
</a>
</g>
</g>
<!-- n3&#45;&gt;n5 -->
<g id="edge1" class="edge">
<title>n3&#45;&gt;n5</title>
<path fill="none" stroke="black" d="M267.58,-368.18C273.67,-379.13 281.67,-393.54 288.54,-405.89"/>
<polygon fill="black" stroke="black" points="285.59,-407.8 293.51,-414.85 291.71,-404.41 285.59,-407.8"/>
<text text-anchor="middle" x="315.04" y="-389" font-family="Times New Roman,serif" font-size="10.00">wasInformedBy</text>
</g>
<!-- n4 -->
<g id="node4" class="node">
<title>n4</title>
<g id="a_node4"><a xlink:href="gitlab2prov:Annotation" xlink:title="Annotation">
<polygon fill="#9fb1fc" stroke="#0000ff" points="348.04,-119 270.04,-119 270.04,-83 348.04,-83 348.04,-119"/>
<text text-anchor="middle" x="309.04" y="-97.3" font-family="Times New Roman,serif" font-size="14.00">Annotation</text>
</a>
</g>
</g>
<!-- n4&#45;&gt;n2 -->
<g id="edge8" class="edge">
<title>n4&#45;&gt;n2</title>
<path fill="none" stroke="#fed37f" d="M269.76,-115.33C250.79,-121.81 227.71,-129.74 207.04,-137 180.21,-146.42 150.3,-157.16 126.15,-165.89"/>
<polygon fill="#fed37f" stroke="#fed37f" points="124.73,-162.68 116.51,-169.37 127.11,-169.26 124.73,-162.68"/>
<text text-anchor="middle" x="248.04" y="-140" font-family="Times New Roman,serif" font-size="10.00">wasAssociatedWith</text>
</g>
<!-- n4&#45;&gt;n3 -->
<g id="edge10" class="edge">
<title>n4&#45;&gt;n3</title>
<path fill="none" stroke="black" d="M317.33,-119.06C319.65,-124.64 321.85,-130.96 323.04,-137 335.77,-201.54 349.68,-224.42 324.04,-285 317.35,-300.8 304.65,-314.61 292.16,-325.32"/>
<polygon fill="black" stroke="black" points="289.61,-322.88 284.05,-331.9 294.02,-328.32 289.61,-322.88"/>
<text text-anchor="middle" x="370.04" y="-223" font-family="Times New Roman,serif" font-size="10.00">wasInformedBy</text>
</g>
<!-- n7 -->
<g id="node7" class="node">
<title>n7</title>
<g id="a_node7"><a xlink:href="gitlab2prov:Commit Version" xlink:title="Commit Version">
<ellipse fill="#fffc87" stroke="#808080" cx="226.04" cy="-184" rx="70.69" ry="18"/>
<text text-anchor="middle" x="226.04" y="-180.3" font-family="Times New Roman,serif" font-size="14.00">Commit Version</text>
</a>
</g>
</g>
<!-- n4&#45;&gt;n7 -->
<g id="edge9" class="edge">
<title>n4&#45;&gt;n7</title>
<path fill="none" stroke="#8b0000" d="M306.24,-119.3C303.99,-128.67 300,-139.93 293.04,-148 287.73,-154.15 281.08,-159.37 274.04,-163.75"/>
<polygon fill="#8b0000" stroke="#8b0000" points="271.97,-160.9 264.98,-168.86 275.41,-166.99 271.97,-160.9"/>
<text text-anchor="middle" x="309.04" y="-140" font-family="Times New Roman,serif" font-size="10.00" fill="red">used</text>
</g>
<!-- n6 -->
<g id="node6" class="node">
<title>n6</title>
<g id="a_node6"><a xlink:href="gitlab2prov:Commit" xlink:title="Commit">
<ellipse fill="#fffc87" stroke="#808080" cx="154.04" cy="-267" rx="40.09" ry="18"/>
<text text-anchor="middle" x="154.04" y="-263.3" font-family="Times New Roman,serif" font-size="14.00">Commit</text>
</a>
</g>
</g>
<!-- n6&#45;&gt;n1 -->
<g id="edge3" class="edge">
<title>n6&#45;&gt;n1</title>
<path fill="none" stroke="#fed37f" d="M151.41,-285.24C146.93,-314.65 137.8,-374.56 132.69,-408.03"/>
<polygon fill="#fed37f" stroke="#fed37f" points="129.18,-407.87 131.13,-418.28 136.1,-408.92 129.18,-407.87"/>
<text text-anchor="middle" x="179.04" y="-347.5" font-family="Times New Roman,serif" font-size="10.00">wasAttributedTo</text>
</g>
<!-- n6&#45;&gt;n3 -->
<g id="edge5" class="edge">
<title>n6&#45;&gt;n3</title>
<path fill="none" stroke="darkgreen" d="M157.26,-285.14C159.83,-294.69 164.33,-306.19 172.04,-314 173.84,-315.83 195.18,-324.51 216.14,-332.78"/>
<polygon fill="darkgreen" stroke="darkgreen" points="215.09,-336.12 225.68,-336.51 217.64,-329.61 215.09,-336.12"/>
<text text-anchor="middle" x="206.04" y="-306" font-family="Times New Roman,serif" font-size="10.00" fill="darkgreen">wasGeneratedBy</text>
</g>
<!-- n7&#45;&gt;n1 -->
<g id="edge4" class="edge">
<title>n7&#45;&gt;n1</title>
<path fill="none" stroke="#fed37f" d="M186.81,-199.08C161.22,-209.76 128.37,-226.46 105.04,-249 85.14,-268.23 81.17,-276.26 74.04,-303 63.56,-342.31 90.2,-385.27 109.96,-410.36"/>
<polygon fill="#fed37f" stroke="#fed37f" points="107.29,-412.63 116.34,-418.15 112.71,-408.2 107.29,-412.63"/>
<text text-anchor="middle" x="109.04" y="-306" font-family="Times New Roman,serif" font-size="10.00">wasAttributedTo</text>
</g>
<!-- n7&#45;&gt;n3 -->
<g id="edge6" class="edge">
<title>n7&#45;&gt;n3</title>
<path fill="none" stroke="darkgreen" d="M233.87,-202.17C236.15,-207.76 238.46,-214.05 240.04,-220 249.17,-254.38 253.88,-295.23 256.15,-321.6"/>
<polygon fill="darkgreen" stroke="darkgreen" points="252.66,-321.94 256.95,-331.63 259.64,-321.38 252.66,-321.94"/>
<text text-anchor="middle" x="286.04" y="-264.5" font-family="Times New Roman,serif" font-size="10.00" fill="darkgreen">wasGeneratedBy</text>
</g>
<!-- n7&#45;&gt;n6 -->
<g id="edge12" class="edge">
<title>n7&#45;&gt;n6</title>
<path fill="none" stroke="black" d="M198.27,-200.71C190.39,-206.1 182.27,-212.64 176.04,-220 171.19,-225.72 167.15,-232.68 163.9,-239.45"/>
<polygon fill="black" stroke="black" points="160.51,-238.48 159.72,-249.04 166.92,-241.28 160.51,-238.48"/>
<text text-anchor="middle" x="208.04" y="-223" font-family="Times New Roman,serif" font-size="10.00">specializationOf</text>
</g>
<!-- n8 -->
<g id="node8" class="node">
<title>n8</title>
<g id="a_node8"><a xlink:href="gitlab2prov:Annotated Commit Version" xlink:title="Annotated Commit Version">
<ellipse fill="#fffc87" stroke="#808080" cx="124.04" cy="-18" rx="110.48" ry="18"/>
<text text-anchor="middle" x="124.04" y="-14.3" font-family="Times New Roman,serif" font-size="14.00">Annotated Commit Version</text>
</a>
</g>
</g>
<!-- n8&#45;&gt;n2 -->
<g id="edge7" class="edge">
<title>n8&#45;&gt;n2</title>
<path fill="none" stroke="#fed37f" d="M110.44,-36.07C101.48,-48.36 90.45,-65.74 85.04,-83 77.15,-108.18 76.51,-138.64 77.29,-159.28"/>
<polygon fill="#fed37f" stroke="#fed37f" points="73.8,-159.56 77.82,-169.36 80.79,-159.2 73.8,-159.56"/>
<text text-anchor="middle" x="120.04" y="-98.5" font-family="Times New Roman,serif" font-size="10.00">wasAttributedTo</text>
</g>
<!-- n8&#45;&gt;n4 -->
<g id="edge11" class="edge">
<title>n8&#45;&gt;n4</title>
<path fill="none" stroke="darkgreen" d="M160.59,-35C189.22,-47.54 229.3,-65.09 260.6,-78.79"/>
<polygon fill="darkgreen" stroke="darkgreen" points="259.45,-82.11 270.01,-82.91 262.25,-75.69 259.45,-82.11"/>
<text text-anchor="middle" x="262.04" y="-57" font-family="Times New Roman,serif" font-size="10.00" fill="darkgreen">wasGeneratedBy</text>
</g>
<!-- n8&#45;&gt;n6 -->
<g id="edge13" class="edge">
<title>n8&#45;&gt;n6</title>
<path fill="none" stroke="black" d="M99.9,-35.69C55.87,-68.2 -29.37,-142.1 11.04,-202 32.55,-233.88 73.91,-250.06 106.64,-258.17"/>
<polygon fill="black" stroke="black" points="105.96,-261.6 116.49,-260.43 107.53,-254.78 105.96,-261.6"/>
<text text-anchor="middle" x="40.04" y="-140" font-family="Times New Roman,serif" font-size="10.00">specializationOf</text>
</g>
<!-- n8&#45;&gt;n7 -->
<g id="edge14" class="edge">
<title>n8&#45;&gt;n7</title>
<path fill="none" stroke="black" d="M132.53,-36.04C148.88,-68.78 183.79,-138.1 191.04,-148 193.8,-151.77 196.96,-155.51 200.24,-159.07"/>
<polygon fill="black" stroke="black" points="197.99,-161.78 207.47,-166.52 203.01,-156.91 197.99,-161.78"/>
<text text-anchor="middle" x="209.04" y="-98.5" font-family="Times New Roman,serif" font-size="10.00">wasDerivedFrom</text>
</g>
</g>
</svg>
