<?xml version="1.0" encoding="UTF-8" standalone="no"?>
<!DOCTYPE svg PUBLIC "-//W3C//DTD SVG 1.1//EN"
 "http://www.w3.org/Graphics/SVG/1.1/DTD/svg11.dtd">
<!-- Generated by graphviz version 2.40.1 (20161225.0304)
 -->
<!-- Title: G Pages: 1 -->
<svg width="891pt" height="714pt"
 viewBox="0.00 0.00 890.50 714.00" xmlns="http://www.w3.org/2000/svg" xmlns:xlink="http://www.w3.org/1999/xlink">
<g id="graph0" class="graph" transform="scale(1 1) rotate(0) translate(4 710)">
<title>G</title>
<polygon fill="#ffffff" stroke="transparent" points="-4,4 -4,-710 886.5,-710 886.5,4 -4,4"/>
<!-- n1 -->
<g id="node1" class="node">
<title>n1</title>
<g id="a_node1"><a xlink:href="gitlab2prov:Creator" xlink:title="Creator">
<polygon fill="#fed37f" stroke="#000000" points="221.1915,-693.5623 174.5,-706 127.8085,-693.5623 127.8521,-673.4377 221.1479,-673.4377 221.1915,-693.5623"/>
<text text-anchor="middle" x="174.5" y="-684.3" font-family="Times,serif" font-size="14.00" fill="#000000">Creator</text>
</a>
</g>
</g>
<!-- ann1 -->
<g id="node2" class="node">
<title>ann1</title>
<polygon fill="none" stroke="#c0c0c0" points="83,-623 0,-623 0,-574 89,-574 89,-617 83,-623"/>
<polyline fill="none" stroke="#c0c0c0" points="83,-623 83,-617 "/>
<polyline fill="none" stroke="#c0c0c0" points="89,-617 83,-617 "/>
<g id="a_node2_0"><a xlink:href="http://www.w3.org/ns/prov#role" xlink:title="&lt;TABLE&gt;">
<text text-anchor="start" x="10.5" y="-608.5" font-family="Times,serif" font-size="10.00" fill="#000000">prov:role</text>
</a>
</g>
<text text-anchor="start" x="51.5" y="-608.5" font-family="Times,serif" font-size="10.00" fill="#000000">creator</text>
<g id="a_node2_1"><a xlink:href="http://www.w3.org/ns/prov#type" xlink:title="&lt;TABLE&gt;">
<text text-anchor="start" x="10.5" y="-595.5" font-family="Times,serif" font-size="10.00" fill="#000000">prov:type</text>
</a>
</g>
<text text-anchor="start" x="51.5" y="-595.5" font-family="Times,serif" font-size="10.00" fill="#000000">user</text>
<g id="a_node2_2"><a xlink:href="gitlab2prov:name" xlink:title="&lt;TABLE&gt;">
<text text-anchor="start" x="10.5" y="-582.5" font-family="Times,serif" font-size="10.00" fill="#000000">name</text>
</a>
</g>
</g>
<!-- ann1&#45;&gt;n1 -->
<g id="edge1" class="edge">
<title>ann1&#45;&gt;n1</title>
<path fill="none" stroke="#c0c0c0" stroke-dasharray="5,2" d="M73.4359,-623.2185C84.9747,-632.6424 98.5694,-643.2202 111.5,-652 122.6514,-659.5717 135.4869,-667.1031 146.6506,-673.3051"/>
</g>
<!-- n2 -->
<g id="node3" class="node">
<title>n2</title>
<g id="a_node3"><a xlink:href="gitlab2prov:Annotator" xlink:title="Annotator">
<polygon fill="#fed37f" stroke="#000000" points="782.2928,-360.0623 723.5,-372.5 664.7072,-360.0623 664.7621,-339.9377 782.2379,-339.9377 782.2928,-360.0623"/>
<text text-anchor="middle" x="723.5" y="-350.8" font-family="Times,serif" font-size="14.00" fill="#000000">Annotator</text>
</a>
</g>
</g>
<!-- ann2 -->
<g id="node4" class="node">
<title>ann2</title>
<polygon fill="none" stroke="#c0c0c0" points="764,-231 677,-231 677,-182 770,-182 770,-225 764,-231"/>
<polyline fill="none" stroke="#c0c0c0" points="764,-231 764,-225 "/>
<polyline fill="none" stroke="#c0c0c0" points="770,-225 764,-225 "/>
<g id="a_node4_3"><a xlink:href="http://www.w3.org/ns/prov#role" xlink:title="&lt;TABLE&gt;">
<text text-anchor="start" x="687.5" y="-216.5" font-family="Times,serif" font-size="10.00" fill="#000000">prov:role</text>
</a>
</g>
<text text-anchor="start" x="728.5" y="-216.5" font-family="Times,serif" font-size="10.00" fill="#000000">initiator</text>
<g id="a_node4_4"><a xlink:href="http://www.w3.org/ns/prov#type" xlink:title="&lt;TABLE&gt;">
<text text-anchor="start" x="687.5" y="-203.5" font-family="Times,serif" font-size="10.00" fill="#000000">prov:type</text>
</a>
</g>
<text text-anchor="start" x="728.5" y="-203.5" font-family="Times,serif" font-size="10.00" fill="#000000">user</text>
<g id="a_node4_5"><a xlink:href="gitlab2prov:name" xlink:title="&lt;TABLE&gt;">
<text text-anchor="start" x="687.5" y="-190.5" font-family="Times,serif" font-size="10.00" fill="#000000">name</text>
</a>
</g>
</g>
<!-- ann2&#45;&gt;n2 -->
<g id="edge2" class="edge">
<title>ann2&#45;&gt;n2</title>
<path fill="none" stroke="#c0c0c0" stroke-dasharray="5,2" d="M723.5,-231.2719C723.5,-262.2125 723.5,-314.1669 723.5,-339.5845"/>
</g>
<!-- n3 -->
<g id="node5" class="node">
<title>n3</title>
<g id="a_node5"><a xlink:href="gitlab2prov:Merge Request Creation" xlink:title="Merge Request Creation">
<polygon fill="#9fb1fc" stroke="#0000ff" points="365,-616.5 212,-616.5 212,-580.5 365,-580.5 365,-616.5"/>
<text text-anchor="middle" x="288.5" y="-594.8" font-family="Times,serif" font-size="14.00" fill="#000000">Merge Request Creation</text>
</a>
</g>
</g>
<!-- n3&#45;&gt;n1 -->
<g id="edge19" class="edge">
<title>n3&#45;&gt;n1</title>
<path fill="none" stroke="#fed37f" d="M265.4304,-616.6117C246.8718,-631.1818 220.7681,-651.6754 201.287,-666.9698"/>
<polygon fill="#fed37f" stroke="#fed37f" points="199.089,-664.2457 193.3847,-673.1738 203.4116,-669.7516 199.089,-664.2457"/>
<text text-anchor="middle" x="271.5" y="-644" font-family="Times,serif" font-size="10.00" fill="#000000">wasAssociatedWith</text>
</g>
<!-- ann3 -->
<g id="node6" class="node">
<title>ann3</title>
<polygon fill="none" stroke="#c0c0c0" points="501,-527 330,-527 330,-478 507,-478 507,-521 501,-527"/>
<polyline fill="none" stroke="#c0c0c0" points="501,-527 501,-521 "/>
<polyline fill="none" stroke="#c0c0c0" points="507,-521 501,-521 "/>
<g id="a_node6_6"><a xlink:href="http://www.w3.org/ns/prov#type" xlink:title="&lt;TABLE&gt;">
<text text-anchor="start" x="340.5" y="-512.5" font-family="Times,serif" font-size="10.00" fill="#000000">prov:type</text>
</a>
</g>
<text text-anchor="start" x="400.5" y="-512.5" font-family="Times,serif" font-size="10.00" fill="#000000">merge_request_creation</text>
<g id="a_node6_7"><a xlink:href="http://www.w3.org/ns/prov#endedAt" xlink:title="&lt;TABLE&gt;">
<text text-anchor="start" x="340.5" y="-499.5" font-family="Times,serif" font-size="10.00" fill="#000000">prov:endedAt</text>
</a>
</g>
<g id="a_node6_8"><a xlink:href="http://www.w3.org/ns/prov#startedAt" xlink:title="&lt;TABLE&gt;">
<text text-anchor="start" x="340.5" y="-486.5" font-family="Times,serif" font-size="10.00" fill="#000000">prov:startedAt</text>
</a>
</g>
</g>
<!-- ann3&#45;&gt;n3 -->
<g id="edge3" class="edge">
<title>ann3&#45;&gt;n3</title>
<path fill="none" stroke="#c0c0c0" stroke-dasharray="5,2" d="M385.0218,-527.2224C362.603,-543.7778 333.5834,-565.2077 313.2412,-580.2296"/>
</g>
<!-- n4 -->
<g id="node7" class="node">
<title>n4</title>
<g id="a_node7"><a xlink:href="gitlab2prov:Merge Request Annotation" xlink:title="Merge Request Annotation">
<polygon fill="#9fb1fc" stroke="#0000ff" points="658.5,-224.5 490.5,-224.5 490.5,-188.5 658.5,-188.5 658.5,-224.5"/>
<text text-anchor="middle" x="574.5" y="-202.8" font-family="Times,serif" font-size="14.00" fill="#000000">Merge Request Annotation</text>
</a>
</g>
</g>
<!-- n4&#45;&gt;n2 -->
<g id="edge20" class="edge">
<title>n4&#45;&gt;n2</title>
<path fill="none" stroke="#fed37f" d="M592.7703,-224.6477C620.1629,-251.8565 671.8031,-303.15 701.3189,-332.4678"/>
<polygon fill="#fed37f" stroke="#fed37f" points="699.1072,-335.2041 708.6686,-339.7681 704.0402,-330.2377 699.1072,-335.2041"/>
<text text-anchor="middle" x="667.5" y="-252" font-family="Times,serif" font-size="10.00" fill="#000000">wasAssociatedWith</text>
</g>
<!-- n4&#45;&gt;n3 -->
<g id="edge8" class="edge">
<title>n4&#45;&gt;n3</title>
<path fill="none" stroke="#000000" d="M581.873,-224.8882C603.4366,-282.0074 659.7317,-458.3764 575.5,-556 562.4243,-571.1546 454.9411,-583.8748 375.3275,-591.3412"/>
<polygon fill="#000000" stroke="#000000" points="374.9103,-587.8647 365.2748,-592.2702 375.5545,-594.835 374.9103,-587.8647"/>
<text text-anchor="middle" x="651" y="-452" font-family="Times,serif" font-size="10.00" fill="#000000">wasInformedBy</text>
</g>
<!-- n6 -->
<g id="node11" class="node">
<title>n6</title>
<g id="a_node11"><a xlink:href="gitlab2prov:Merge Request Version" xlink:title="Merge Request Version">
<ellipse fill="#fffc87" stroke="#808080" cx="366.5" cy="-354.5" rx="96.6831" ry="18"/>
<text text-anchor="middle" x="366.5" y="-350.8" font-family="Times,serif" font-size="14.00" fill="#000000">Merge Request Version</text>
</a>
</g>
</g>
<!-- n4&#45;&gt;n6 -->
<g id="edge12" class="edge">
<title>n4&#45;&gt;n6</title>
<path fill="none" stroke="#8b0000" d="M548.9951,-224.6477C511.4215,-251.3828 441.1673,-301.3714 399.6439,-330.9169"/>
<polygon fill="#8b0000" stroke="#8b0000" points="397.3602,-328.2462 391.2414,-336.8955 401.4185,-333.9497 397.3602,-328.2462"/>
<text text-anchor="middle" x="523" y="-252" font-family="Times,serif" font-size="10.00" fill="#ff0000">used</text>
</g>
<!-- ann4 -->
<g id="node8" class="node">
<title>ann4</title>
<polygon fill="none" stroke="#c0c0c0" points="876.5,-135 780.5,-135 780.5,-73 882.5,-73 882.5,-129 876.5,-135"/>
<polyline fill="none" stroke="#c0c0c0" points="876.5,-135 876.5,-129 "/>
<polyline fill="none" stroke="#c0c0c0" points="882.5,-129 876.5,-129 "/>
<g id="a_node8_9"><a xlink:href="http://www.w3.org/ns/prov#type" xlink:title="&lt;TABLE&gt;">
<text text-anchor="start" x="790.5" y="-121" font-family="Times,serif" font-size="10.00" fill="#000000">prov:type</text>
</a>
</g>
<text text-anchor="start" x="850.5" y="-121" font-family="Times,serif" font-size="10.00" fill="#000000">event</text>
<g id="a_node8_10"><a xlink:href="gitlab2prov:event" xlink:title="&lt;TABLE&gt;">
<text text-anchor="start" x="790.5" y="-108" font-family="Times,serif" font-size="10.00" fill="#000000">event</text>
</a>
</g>
<g id="a_node8_11"><a xlink:href="http://www.w3.org/ns/prov#endedAt" xlink:title="&lt;TABLE&gt;">
<text text-anchor="start" x="790.5" y="-95" font-family="Times,serif" font-size="10.00" fill="#000000">prov:endedAt</text>
</a>
</g>
<g id="a_node8_12"><a xlink:href="http://www.w3.org/ns/prov#startedAt" xlink:title="&lt;TABLE&gt;">
<text text-anchor="start" x="790.5" y="-82" font-family="Times,serif" font-size="10.00" fill="#000000">prov:startedAt</text>
</a>
</g>
</g>
<!-- ann4&#45;&gt;n4 -->
<g id="edge4" class="edge">
<title>ann4&#45;&gt;n4</title>
<path fill="none" stroke="#c0c0c0" stroke-dasharray="5,2" d="M780.4178,-124.3733C733.5747,-143.0558 664.8488,-170.4659 619.8917,-188.3963"/>
</g>
<!-- n5 -->
<g id="node9" class="node">
<title>n5</title>
<g id="a_node9"><a xlink:href="gitlab2prov:Merge Request" xlink:title="Merge Request">
<ellipse fill="#fffc87" stroke="#808080" cx="128.5" cy="-502.5" rx="66.0889" ry="18"/>
<text text-anchor="middle" x="128.5" y="-498.8" font-family="Times,serif" font-size="14.00" fill="#000000">Merge Request</text>
</a>
</g>
</g>
<!-- n5&#45;&gt;n1 -->
<g id="edge18" class="edge">
<title>n5&#45;&gt;n1</title>
<path fill="none" stroke="#fed37f" d="M126.6611,-520.5417C124.8257,-544.535 123.6429,-587.9892 134.5,-623 139.1599,-638.0267 148.1018,-653.097 156.3514,-664.938"/>
<polygon fill="#fed37f" stroke="#fed37f" points="153.7287,-667.2824 162.4425,-673.3091 159.3889,-663.1639 153.7287,-667.2824"/>
<text text-anchor="middle" x="168.5" y="-596" font-family="Times,serif" font-size="10.00" fill="#000000">wasAttributedTo</text>
</g>
<!-- n5&#45;&gt;n3 -->
<g id="edge9" class="edge">
<title>n5&#45;&gt;n3</title>
<path fill="none" stroke="#006400" d="M134.9667,-520.4244C140.0071,-532.0601 148.0825,-546.7303 159.5,-556 168.151,-563.0236 187.9974,-570.654 209.5936,-577.4857"/>
<polygon fill="#006400" stroke="#006400" points="208.6783,-580.866 219.2654,-580.4617 210.7369,-574.1755 208.6783,-580.866"/>
<text text-anchor="middle" x="194" y="-548" font-family="Times,serif" font-size="10.00" fill="#006400">wasGeneratedBy</text>
</g>
<!-- ann5 -->
<g id="node10" class="node">
<title>ann5</title>
<polygon fill="none" stroke="#c0c0c0" points="229,-431 40,-431 40,-278 235,-278 235,-425 229,-431"/>
<polyline fill="none" stroke="#c0c0c0" points="229,-431 229,-425 "/>
<polyline fill="none" stroke="#c0c0c0" points="235,-425 229,-425 "/>
<g id="a_node10_13"><a xlink:href="http://www.w3.org/ns/prov#type" xlink:title="&lt;TABLE&gt;">
<text text-anchor="start" x="50.5" y="-416.5" font-family="Times,serif" font-size="10.00" fill="#000000">prov:type</text>
</a>
</g>
<text text-anchor="start" x="127.5" y="-416.5" font-family="Times,serif" font-size="10.00" fill="#000000">merge_request_resource</text>
<g id="a_node10_14"><a xlink:href="gitlab2prov:description" xlink:title="&lt;TABLE&gt;">
<text text-anchor="start" x="50.5" y="-403.5" font-family="Times,serif" font-size="10.00" fill="#000000">description</text>
</a>
</g>
<g id="a_node10_15"><a xlink:href="gitlab2prov:id" xlink:title="&lt;TABLE&gt;">
<text text-anchor="start" x="50.5" y="-390.5" font-family="Times,serif" font-size="10.00" fill="#000000">id</text>
</a>
</g>
<g id="a_node10_16"><a xlink:href="gitlab2prov:iid" xlink:title="&lt;TABLE&gt;">
<text text-anchor="start" x="50.5" y="-377.5" font-family="Times,serif" font-size="10.00" fill="#000000">iid</text>
</a>
</g>
<g id="a_node10_17"><a xlink:href="gitlab2prov:project_id" xlink:title="&lt;TABLE&gt;">
<text text-anchor="start" x="50.5" y="-364.5" font-family="Times,serif" font-size="10.00" fill="#000000">project_id</text>
</a>
</g>
<g id="a_node10_18"><a xlink:href="gitlab2prov:source_branch" xlink:title="&lt;TABLE&gt;">
<text text-anchor="start" x="50.5" y="-351.5" font-family="Times,serif" font-size="10.00" fill="#000000">source_branch</text>
</a>
</g>
<g id="a_node10_19"><a xlink:href="gitlab2prov:source_project_url" xlink:title="&lt;TABLE&gt;">
<text text-anchor="start" x="50.5" y="-338.5" font-family="Times,serif" font-size="10.00" fill="#000000">source_project_url</text>
</a>
</g>
<g id="a_node10_20"><a xlink:href="gitlab2prov:target_branch" xlink:title="&lt;TABLE&gt;">
<text text-anchor="start" x="50.5" y="-325.5" font-family="Times,serif" font-size="10.00" fill="#000000">target_branch</text>
</a>
</g>
<g id="a_node10_21"><a xlink:href="gitlab2prov:target_project_url" xlink:title="&lt;TABLE&gt;">
<text text-anchor="start" x="50.5" y="-312.5" font-family="Times,serif" font-size="10.00" fill="#000000">target_project_url</text>
</a>
</g>
<g id="a_node10_22"><a xlink:href="gitlab2prov:title" xlink:title="&lt;TABLE&gt;">
<text text-anchor="start" x="50.5" y="-299.5" font-family="Times,serif" font-size="10.00" fill="#000000">title</text>
</a>
</g>
<g id="a_node10_23"><a xlink:href="gitlab2prov:web_url" xlink:title="&lt;TABLE&gt;">
<text text-anchor="start" x="50.5" y="-286.5" font-family="Times,serif" font-size="10.00" fill="#000000">web_url</text>
</a>
</g>
</g>
<!-- ann5&#45;&gt;n5 -->
<g id="edge5" class="edge">
<title>ann5&#45;&gt;n5</title>
<path fill="none" stroke="#c0c0c0" stroke-dasharray="5,2" d="M132.8418,-431.1011C131.6323,-450.9914 130.438,-470.6309 129.6091,-484.2619"/>
</g>
<!-- n6&#45;&gt;n1 -->
<g id="edge17" class="edge">
<title>n6&#45;&gt;n1</title>
<path fill="none" stroke="#fed37f" d="M401.1364,-371.3257C455.2149,-400.0557 550.1142,-461.8166 515.5,-527 460.0691,-631.3841 313.2397,-668.6111 231.484,-681.4886"/>
<polygon fill="#fed37f" stroke="#fed37f" points="230.7316,-678.0623 221.3633,-683.0106 231.7726,-684.9845 230.7316,-678.0623"/>
<text text-anchor="middle" x="537.5" y="-548" font-family="Times,serif" font-size="10.00" fill="#000000">wasAttributedTo</text>
</g>
<!-- n6&#45;&gt;n3 -->
<g id="edge10" class="edge">
<title>n6&#45;&gt;n3</title>
<path fill="none" stroke="#006400" d="M341.4646,-372.0108C313.4168,-393.3248 269.5225,-432.199 251.5,-478 239.1364,-509.4198 255.1155,-546.7368 269.7643,-571.4297"/>
<polygon fill="#006400" stroke="#006400" points="266.9929,-573.6003 275.2517,-580.2368 272.9341,-569.8986 266.9929,-573.6003"/>
<text text-anchor="middle" x="286" y="-500" font-family="Times,serif" font-size="10.00" fill="#006400">wasGeneratedBy</text>
</g>
<!-- n6&#45;&gt;n5 -->
<g id="edge13" class="edge">
<title>n6&#45;&gt;n5</title>
<path fill="none" stroke="#000000" d="M343.2978,-372.2903C319.4859,-389.7131 280.7521,-415.7945 243.5,-431 209.3566,-444.9366 192.6918,-427.8232 162.5,-449 153.0777,-455.6089 145.6797,-465.7462 140.2245,-475.4263"/>
<polygon fill="#000000" stroke="#000000" points="137.0511,-473.9439 135.5869,-484.4371 143.2752,-477.1473 137.0511,-473.9439"/>
<text text-anchor="middle" x="195.5" y="-452" font-family="Times,serif" font-size="10.00" fill="#000000">specializationOf</text>
</g>
<!-- ann6 -->
<g id="node12" class="node">
<title>ann6</title>
<polygon fill="none" stroke="#c0c0c0" points="466.5,-224.5 278.5,-224.5 278.5,-188.5 472.5,-188.5 472.5,-218.5 466.5,-224.5"/>
<polyline fill="none" stroke="#c0c0c0" points="466.5,-224.5 466.5,-218.5 "/>
<polyline fill="none" stroke="#c0c0c0" points="472.5,-218.5 466.5,-218.5 "/>
<g id="a_node12_24"><a xlink:href="http://www.w3.org/ns/prov#type" xlink:title="&lt;TABLE&gt;">
<text text-anchor="start" x="288.5" y="-203.5" font-family="Times,serif" font-size="10.00" fill="#000000">prov:type</text>
</a>
</g>
<text text-anchor="start" x="329.5" y="-203.5" font-family="Times,serif" font-size="10.00" fill="#000000">merge_request_resource_version</text>
</g>
<!-- ann6&#45;&gt;n6 -->
<g id="edge6" class="edge">
<title>ann6&#45;&gt;n6</title>
<path fill="none" stroke="#c0c0c0" stroke-dasharray="5,2" d="M374.3964,-224.6477C372.6691,-253.0529 369.3455,-307.7075 367.6126,-336.2039"/>
</g>
<!-- n7 -->
<g id="node13" class="node">
<title>n7</title>
<g id="a_node13"><a xlink:href="gitlab2prov:Annotated Merge Request Version" xlink:title="Annotated Merge Request Version">
<ellipse fill="#fffc87" stroke="#808080" cx="286.5" cy="-104" rx="137.2758" ry="18"/>
<text text-anchor="middle" x="286.5" y="-100.3" font-family="Times,serif" font-size="14.00" fill="#000000">Annotated Merge Request Version</text>
</a>
</g>
</g>
<!-- n7&#45;&gt;n2 -->
<g id="edge16" class="edge">
<title>n7&#45;&gt;n2</title>
<path fill="none" stroke="#fed37f" d="M399.5644,-114.2225C537.1249,-127.8237 754.1575,-153.4943 778.5,-182 816.1061,-226.0377 771.1014,-296.0291 742.9116,-331.812"/>
<polygon fill="#fed37f" stroke="#fed37f" points="740.0763,-329.7519 736.5072,-339.7274 745.5182,-334.1549 740.0763,-329.7519"/>
<text text-anchor="middle" x="827.5" y="-204" font-family="Times,serif" font-size="10.00" fill="#000000">wasAttributedTo</text>
</g>
<!-- n7&#45;&gt;n4 -->
<g id="edge11" class="edge">
<title>n7&#45;&gt;n4</title>
<path fill="none" stroke="#006400" d="M334.0573,-120.9258C383.2396,-138.4299 460.2005,-165.8205 513.7569,-184.8813"/>
<polygon fill="#006400" stroke="#006400" points="512.878,-188.2836 523.4727,-188.3392 515.2251,-181.6888 512.878,-188.2836"/>
<text text-anchor="middle" x="483" y="-156" font-family="Times,serif" font-size="10.00" fill="#006400">wasGeneratedBy</text>
</g>
<!-- n7&#45;&gt;n5 -->
<g id="edge14" class="edge">
<title>n7&#45;&gt;n5</title>
<path fill="none" stroke="#000000" d="M236.9363,-120.857C175.3618,-144.8266 73.2133,-195.2738 30.5,-278 -.6969,-338.4215 -.311,-370.3808 30.5,-431 41.8883,-453.4059 63.9557,-470.4599 84.2708,-482.2827"/>
<polygon fill="#000000" stroke="#000000" points="82.69,-485.408 93.1342,-487.188 86.0796,-479.2834 82.69,-485.408"/>
<text text-anchor="middle" x="80.5" y="-252" font-family="Times,serif" font-size="10.00" fill="#000000">specializationOf</text>
</g>
<!-- n7&#45;&gt;n6 -->
<g id="edge15" class="edge">
<title>n7&#45;&gt;n6</title>
<path fill="none" stroke="#000000" d="M256.2315,-121.5582C236.0128,-135.1711 211.079,-156.0676 199.5,-182 190.621,-201.8855 189.6951,-211.5543 199.5,-231 213.4266,-258.6202 283.6904,-304.6868 328.5261,-332.0706"/>
<polygon fill="#000000" stroke="#000000" points="326.7643,-335.0955 337.13,-337.2873 330.3936,-329.1098 326.7643,-335.0955"/>
<text text-anchor="middle" x="234.5" y="-204" font-family="Times,serif" font-size="10.00" fill="#000000">wasDerivedFrom</text>
</g>
<!-- ann7 -->
<g id="node14" class="node">
<title>ann7</title>
<polygon fill="none" stroke="#c0c0c0" points="377.5,-36 189.5,-36 189.5,0 383.5,0 383.5,-30 377.5,-36"/>
<polyline fill="none" stroke="#c0c0c0" points="377.5,-36 377.5,-30 "/>
<polyline fill="none" stroke="#c0c0c0" points="383.5,-30 377.5,-30 "/>
<g id="a_node14_25"><a xlink:href="http://www.w3.org/ns/prov#type" xlink:title="&lt;TABLE&gt;">
<text text-anchor="start" x="199.5" y="-15" font-family="Times,serif" font-size="10.00" fill="#000000">prov:type</text>
</a>
</g>
<text text-anchor="start" x="240.5" y="-15" font-family="Times,serif" font-size="10.00" fill="#000000">merge_request_resource_version</text>
</g>
<!-- ann7&#45;&gt;n7 -->
<g id="edge7" class="edge">
<title>ann7&#45;&gt;n7</title>
<path fill="none" stroke="#c0c0c0" stroke-dasharray="5,2" d="M286.5,-36.2384C286.5,-50.8329 286.5,-71.2004 286.5,-85.7879"/>
</g>
</g>
</svg>
