<?xml version="1.0" encoding="UTF-8" standalone="no"?>
<!DOCTYPE svg PUBLIC "-//W3C//DTD SVG 1.1//EN"
 "http://www.w3.org/Graphics/SVG/1.1/DTD/svg11.dtd">
<!-- Generated by graphviz version 2.50.0 (20211204.2007)
 -->
<!-- Title: G Pages: 1 -->
<svg width="418pt" height="459pt"
 viewBox="0.00 0.00 418.44 459.00" xmlns="http://www.w3.org/2000/svg" xmlns:xlink="http://www.w3.org/1999/xlink">
<g id="graph0" class="graph" transform="scale(1 1) rotate(0) translate(4 455)">
<title>G</title>
<!-- n1 -->
<g id="node1" class="node">
<title>n1</title>
<g id="a_node1"><a xlink:href="gitlab2prov:Issue Author" xlink:title="Issue Author">
<polygon fill="#fed37f" stroke="black" points="223.95,-438.56 152.44,-451 80.94,-438.56 81.01,-418.44 223.88,-418.44 223.95,-438.56"/>
<text text-anchor="middle" x="152.44" y="-429.3" font-family="Times New Roman,serif" font-size="14.00">Issue Author</text>
</a>
</g>
</g>
<!-- n2 -->
<g id="node2" class="node">
<title>n2</title>
<g id="a_node2"><a xlink:href="gitlab2prov:Annotator" xlink:title="Annotator">
<polygon fill="#fed37f" stroke="black" points="320.24,-189.56 261.44,-202 202.65,-189.56 202.71,-169.44 320.18,-169.44 320.24,-189.56"/>
<text text-anchor="middle" x="261.44" y="-180.3" font-family="Times New Roman,serif" font-size="14.00">Annotator</text>
</a>
</g>
</g>
<!-- n3 -->
<g id="node3" class="node">
<title>n3</title>
<g id="a_node3"><a xlink:href="gitlab2prov:Creation" xlink:title="Creation">
<polygon fill="#9fb1fc" stroke="#0000ff" points="184.44,-368 120.44,-368 120.44,-332 184.44,-332 184.44,-368"/>
<text text-anchor="middle" x="152.44" y="-346.3" font-family="Times New Roman,serif" font-size="14.00">Creation</text>
</a>
</g>
</g>
<!-- n3&#45;&gt;n1 -->
<g id="edge12" class="edge">
<title>n3&#45;&gt;n1</title>
<path fill="none" stroke="#fed37f" d="M152.44,-368.18C152.44,-379.86 152.44,-395.47 152.44,-408.33"/>
<polygon fill="#fed37f" stroke="#fed37f" points="148.94,-408.33 152.44,-418.33 155.94,-408.33 148.94,-408.33"/>
<text text-anchor="middle" x="193.44" y="-389" font-family="Times New Roman,serif" font-size="10.00">wasAssociatedWith</text>
</g>
<!-- n4 -->
<g id="node4" class="node">
<title>n4</title>
<g id="a_node4"><a xlink:href="gitlab2prov:Annotation" xlink:title="Annotation">
<polygon fill="#9fb1fc" stroke="#0000ff" points="224.44,-119 146.44,-119 146.44,-83 224.44,-83 224.44,-119"/>
<text text-anchor="middle" x="185.44" y="-97.3" font-family="Times New Roman,serif" font-size="14.00">Annotation</text>
</a>
</g>
</g>
<!-- n4&#45;&gt;n2 -->
<g id="edge13" class="edge">
<title>n4&#45;&gt;n2</title>
<path fill="none" stroke="#fed37f" d="M181.7,-119.02C180.62,-128.29 180.95,-139.57 186.44,-148 190.75,-154.6 196.65,-159.98 203.27,-164.36"/>
<polygon fill="#fed37f" stroke="#fed37f" points="201.56,-167.41 211.97,-169.38 205.06,-161.35 201.56,-167.41"/>
<text text-anchor="middle" x="227.44" y="-140" font-family="Times New Roman,serif" font-size="10.00">wasAssociatedWith</text>
</g>
<!-- n4&#45;&gt;n3 -->
<g id="edge1" class="edge">
<title>n4&#45;&gt;n3</title>
<path fill="none" stroke="black" d="M181.17,-119.02C179.84,-124.71 178.46,-131.1 177.44,-137 166.06,-202.9 158.3,-281.24 154.72,-321.73"/>
<polygon fill="black" stroke="black" points="151.21,-321.61 153.84,-331.87 158.19,-322.21 151.21,-321.61"/>
<text text-anchor="middle" x="196.44" y="-223" font-family="Times New Roman,serif" font-size="10.00">wasInformedBy</text>
</g>
<!-- n6 -->
<g id="node6" class="node">
<title>n6</title>
<g id="a_node6"><a xlink:href="gitlab2prov:Issue Version" xlink:title="Issue Version">
<ellipse fill="#fffc87" stroke="#808080" cx="60.44" cy="-184" rx="60.39" ry="18"/>
<text text-anchor="middle" x="60.44" y="-180.3" font-family="Times New Roman,serif" font-size="14.00">Issue Version</text>
</a>
</g>
</g>
<!-- n4&#45;&gt;n6 -->
<g id="edge5" class="edge">
<title>n4&#45;&gt;n6</title>
<path fill="none" stroke="#8b0000" d="M149.61,-119.13C139.32,-124.47 128.24,-130.64 118.44,-137 107.77,-143.93 96.68,-152.38 87.09,-160.14"/>
<polygon fill="#8b0000" stroke="#8b0000" points="84.59,-157.66 79.1,-166.72 89.04,-163.06 84.59,-157.66"/>
<text text-anchor="middle" x="128.44" y="-140" font-family="Times New Roman,serif" font-size="10.00" fill="red">used</text>
</g>
<!-- n5 -->
<g id="node5" class="node">
<title>n5</title>
<g id="a_node5"><a xlink:href="gitlab2prov:Issue" xlink:title="Issue">
<ellipse fill="#fffc87" stroke="#808080" cx="239.44" cy="-267" rx="29.8" ry="18"/>
<text text-anchor="middle" x="239.44" y="-263.3" font-family="Times New Roman,serif" font-size="14.00">Issue</text>
</a>
</g>
</g>
<!-- n5&#45;&gt;n1 -->
<g id="edge11" class="edge">
<title>n5&#45;&gt;n1</title>
<path fill="none" stroke="#fed37f" d="M248.04,-284.29C250.64,-290.04 253.14,-296.65 254.44,-303 261.13,-335.59 267.59,-361.5 238.44,-397 232.93,-403.72 225.93,-409.16 218.3,-413.56"/>
<polygon fill="#fed37f" stroke="#fed37f" points="216.42,-410.59 209.12,-418.27 219.62,-416.82 216.42,-410.59"/>
<text text-anchor="middle" x="294.44" y="-347.5" font-family="Times New Roman,serif" font-size="10.00">wasAttributedTo</text>
</g>
<!-- n5&#45;&gt;n3 -->
<g id="edge2" class="edge">
<title>n5&#45;&gt;n3</title>
<path fill="none" stroke="darkgreen" d="M218.08,-279.74C207.88,-285.91 195.89,-294.05 186.44,-303 180.16,-308.96 174.22,-316.19 169.1,-323.15"/>
<polygon fill="darkgreen" stroke="darkgreen" points="165.99,-321.49 163.11,-331.68 171.72,-325.51 165.99,-321.49"/>
<text text-anchor="middle" x="220.44" y="-306" font-family="Times New Roman,serif" font-size="10.00" fill="darkgreen">wasGeneratedBy</text>
</g>
<!-- n6&#45;&gt;n1 -->
<g id="edge10" class="edge">
<title>n6&#45;&gt;n1</title>
<path fill="none" stroke="#fed37f" d="M45.57,-201.61C25.19,-226.49 -6.91,-274.71 11.44,-314 32.77,-359.66 81.43,-393.89 115.59,-413.41"/>
<polygon fill="#fed37f" stroke="#fed37f" points="113.93,-416.49 124.37,-418.29 117.33,-410.37 113.93,-416.49"/>
<text text-anchor="middle" x="46.44" y="-306" font-family="Times New Roman,serif" font-size="10.00">wasAttributedTo</text>
</g>
<!-- n6&#45;&gt;n3 -->
<g id="edge3" class="edge">
<title>n6&#45;&gt;n3</title>
<path fill="none" stroke="darkgreen" d="M57.65,-202.13C55.12,-223.39 53.98,-259.91 70.44,-285 81.23,-301.43 97.67,-315.46 113,-326.16"/>
<polygon fill="darkgreen" stroke="darkgreen" points="111.11,-329.1 121.36,-331.75 115,-323.28 111.11,-329.1"/>
<text text-anchor="middle" x="104.44" y="-264.5" font-family="Times New Roman,serif" font-size="10.00" fill="darkgreen">wasGeneratedBy</text>
</g>
<!-- n6&#45;&gt;n5 -->
<g id="edge6" class="edge">
<title>n6&#45;&gt;n5</title>
<path fill="none" stroke="black" d="M58.17,-202.35C57.91,-211.96 59.41,-223.46 66.44,-231 84.18,-250.03 154.48,-259.21 199.82,-263.24"/>
<polygon fill="black" stroke="black" points="199.67,-266.74 209.93,-264.09 200.26,-259.76 199.67,-266.74"/>
<text text-anchor="middle" x="98.44" y="-223" font-family="Times New Roman,serif" font-size="10.00">specializationOf</text>
</g>
<!-- n7 -->
<g id="node7" class="node">
<title>n7</title>
<g id="a_node7"><a xlink:href="gitlab2prov:Annotated Issue Version" xlink:title="Annotated Issue Version">
<ellipse fill="#fffc87" stroke="#808080" cx="240.44" cy="-18" rx="100.98" ry="18"/>
<text text-anchor="middle" x="240.44" y="-14.3" font-family="Times New Roman,serif" font-size="14.00">Annotated Issue Version</text>
</a>
</g>
</g>
<!-- n7&#45;&gt;n2 -->
<g id="edge9" class="edge">
<title>n7&#45;&gt;n2</title>
<path fill="none" stroke="#fed37f" d="M257.87,-36.09C262.16,-41.38 266.18,-47.54 268.44,-54 280.78,-89.16 274.16,-133 267.99,-159.46"/>
<polygon fill="#fed37f" stroke="#fed37f" points="264.55,-158.79 265.52,-169.34 271.34,-160.49 264.55,-158.79"/>
<text text-anchor="middle" x="309.44" y="-98.5" font-family="Times New Roman,serif" font-size="10.00">wasAttributedTo</text>
</g>
<!-- n7&#45;&gt;n4 -->
<g id="edge4" class="edge">
<title>n7&#45;&gt;n4</title>
<path fill="none" stroke="darkgreen" d="M217.16,-35.68C211.04,-40.97 204.92,-47.22 200.44,-54 196.68,-59.7 193.79,-66.43 191.6,-72.95"/>
<polygon fill="darkgreen" stroke="darkgreen" points="188.16,-72.28 188.72,-82.86 194.88,-74.23 188.16,-72.28"/>
<text text-anchor="middle" x="234.44" y="-57" font-family="Times New Roman,serif" font-size="10.00" fill="darkgreen">wasGeneratedBy</text>
</g>
<!-- n7&#45;&gt;n5 -->
<g id="edge7" class="edge">
<title>n7&#45;&gt;n5</title>
<path fill="none" stroke="black" d="M286.86,-34.01C309.72,-44.02 335.17,-59.71 348.44,-83 356.37,-96.9 350.24,-103.1 348.44,-119 344.2,-156.6 350.46,-170.53 329.44,-202 315.2,-223.33 291.25,-239.85 271.64,-250.76"/>
<polygon fill="black" stroke="black" points="269.89,-247.73 262.71,-255.51 273.18,-253.9 269.89,-247.73"/>
<text text-anchor="middle" x="378.44" y="-140" font-family="Times New Roman,serif" font-size="10.00">specializationOf</text>
</g>
<!-- n7&#45;&gt;n6 -->
<g id="edge8" class="edge">
<title>n7&#45;&gt;n6</title>
<path fill="none" stroke="black" d="M162.07,-29.47C128.29,-38.15 91.54,-54.01 69.44,-83 53.74,-103.61 53.24,-134.01 55.58,-155.88"/>
<polygon fill="black" stroke="black" points="52.12,-156.39 56.9,-165.84 59.06,-155.47 52.12,-156.39"/>
<text text-anchor="middle" x="103.44" y="-98.5" font-family="Times New Roman,serif" font-size="10.00">wasDerivedFrom</text>
</g>
</g>
</svg>
