<?xml version="1.0" encoding="UTF-8" standalone="no"?>
<!DOCTYPE svg PUBLIC "-//W3C//DTD SVG 1.1//EN"
 "http://www.w3.org/Graphics/SVG/1.1/DTD/svg11.dtd">
<!-- Generated by graphviz version 2.42.3 (0)
 -->
<!-- Title: G Pages: 1 -->
<svg width="555pt" height="348pt"
 viewBox="0.00 0.00 555.00 348.00" xmlns="http://www.w3.org/2000/svg" xmlns:xlink="http://www.w3.org/1999/xlink">
<g id="graph0" class="graph" transform="scale(1 1) rotate(0) translate(4 344)">
<title>G</title>
<polygon fill="white" stroke="transparent" points="-4,4 -4,-344 551,-344 551,4 -4,4"/>
<g id="clust1" class="cluster">
<title>cluster_c1</title>
<g id="a_clust1"><a xlink:href="gitlab2prov:repository" xlink:title="repository">
<polygon fill="none" stroke="black" points="8,-8 8,-332 539,-332 539,-8 8,-8"/>
<text text-anchor="middle" x="273.5" y="-15.8" font-family="Times,serif" font-size="14.00">repository</text>
</a>
</g>
</g>
<!-- n1 -->
<g id="node1" class="node">
<title>n1</title>
<g id="a_node1"><a xlink:href="gitlab2prov:resource" xlink:title="resource">
<ellipse fill="#fffc87" stroke="#808080" cx="86" cy="-306" rx="51.19" ry="18"/>
<text text-anchor="middle" x="86" y="-302.3" font-family="Times,serif" font-size="14.00">resource</text>
</a>
</g>
</g>
<!-- n2 -->
<g id="node2" class="node">
<title>n2</title>
<g id="a_node2"><a xlink:href="gitlab2prov:resource_v-1" xlink:title="resource_v&#45;1">
<ellipse fill="#fffc87" stroke="#808080" cx="106" cy="-223" rx="69.59" ry="18"/>
<text text-anchor="middle" x="106" y="-219.3" font-family="Times,serif" font-size="14.00">resource_v&#45;1</text>
</a>
</g>
</g>
<!-- n2&#45;&gt;n1 -->
<g id="edge5" class="edge">
<title>n2&#45;&gt;n1</title>
<path fill="none" stroke="black" d="M101.76,-241.18C99.13,-251.81 95.71,-265.69 92.72,-277.8"/>
<polygon fill="black" stroke="black" points="89.23,-277.3 90.24,-287.85 96.03,-278.98 89.23,-277.3"/>
<text text-anchor="middle" x="109" y="-262" font-family="Times,serif" font-size="10.00">spec</text>
</g>
<!-- n3 -->
<g id="node3" class="node">
<title>n3</title>
<g id="a_node3"><a xlink:href="gitlab2prov:resource_v" xlink:title="resource_v">
<ellipse fill="#fffc87" stroke="#808080" cx="167" cy="-57" rx="61.19" ry="18"/>
<text text-anchor="middle" x="167" y="-53.3" font-family="Times,serif" font-size="14.00">resource_v</text>
</a>
</g>
</g>
<!-- n3&#45;&gt;n1 -->
<g id="edge4" class="edge">
<title>n3&#45;&gt;n1</title>
<path fill="none" stroke="black" d="M143.26,-73.8C109.87,-97.62 50.49,-146.26 27,-205 21.06,-219.86 21.18,-226.1 27,-241 33.27,-257.05 45.66,-271.5 57.47,-282.59"/>
<polygon fill="black" stroke="black" points="55.29,-285.33 65.08,-289.38 59.95,-280.11 55.29,-285.33"/>
<text text-anchor="middle" x="54" y="-179" font-family="Times,serif" font-size="10.00">spec</text>
</g>
<!-- n3&#45;&gt;n2 -->
<g id="edge3" class="edge">
<title>n3&#45;&gt;n2</title>
<path fill="none" stroke="black" d="M160.7,-74.93C150.11,-103.41 128.64,-161.12 115.98,-195.17"/>
<polygon fill="black" stroke="black" points="112.56,-194.32 112.36,-204.91 119.12,-196.76 112.56,-194.32"/>
<text text-anchor="middle" x="151" y="-137.5" font-family="Times,serif" font-size="10.00">der</text>
</g>
<!-- n4 -->
<g id="node4" class="node">
<title>n4</title>
<g id="a_node4"><a xlink:href="gitlab2prov:event" xlink:title="event">
<polygon fill="#9fb1fc" stroke="#0000ff" points="270,-158 214,-158 214,-122 270,-122 270,-158"/>
<text text-anchor="middle" x="242" y="-136.3" font-family="Times,serif" font-size="14.00">event</text>
</a>
</g>
</g>
<!-- n3&#45;&gt;n4 -->
<g id="edge2" class="edge">
<title>n3&#45;&gt;n4</title>
<path fill="none" stroke="black" d="M182.54,-74.78C193.13,-86.22 207.32,-101.55 219.19,-114.36"/>
<polygon fill="black" stroke="black" points="216.86,-117 226.22,-121.96 222,-112.24 216.86,-117"/>
<text text-anchor="middle" x="218" y="-96" font-family="Times,serif" font-size="10.00">gen</text>
</g>
<!-- n6 -->
<g id="node6" class="node">
<title>n6</title>
<g id="a_node6"><a xlink:href="gitlab2prov:event_initiator" xlink:title="event_initiator">
<polygon fill="#fed37f" stroke="black" points="531.42,-228.56 434,-241 336.58,-228.56 336.67,-208.44 531.33,-208.44 531.42,-228.56"/>
<text text-anchor="middle" x="434" y="-219.3" font-family="Times,serif" font-size="14.00">event_initiator</text>
</a>
</g>
</g>
<!-- n3&#45;&gt;n6 -->
<g id="edge8" class="edge">
<title>n3&#45;&gt;n6</title>
<path fill="none" stroke="black" d="M198.36,-72.63C241.2,-93.21 319.69,-133.01 381,-176 391.8,-183.57 402.95,-192.97 412.21,-201.29"/>
<polygon fill="black" stroke="black" points="410.08,-204.08 419.82,-208.26 414.81,-198.92 410.08,-204.08"/>
<text text-anchor="middle" x="360" y="-137.5" font-family="Times,serif" font-size="10.00">att</text>
</g>
<!-- n4&#45;&gt;n2 -->
<g id="edge1" class="edge">
<title>n4&#45;&gt;n2</title>
<path fill="none" stroke="black" d="M213.82,-157.78C192.8,-170.3 163.95,-187.49 141.38,-200.93"/>
<polygon fill="black" stroke="black" points="139.56,-197.94 132.76,-206.06 143.14,-203.95 139.56,-197.94"/>
<text text-anchor="middle" x="194.5" y="-179" font-family="Times,serif" font-size="10.00">used</text>
</g>
<!-- n5 -->
<g id="node5" class="node">
<title>n5</title>
<g id="a_node5"><a xlink:href="gitlab2prov:previous_event" xlink:title="previous_event">
<polygon fill="#9fb1fc" stroke="#0000ff" points="318.5,-241 193.5,-241 193.5,-205 318.5,-205 318.5,-241"/>
<text text-anchor="middle" x="256" y="-219.3" font-family="Times,serif" font-size="14.00">previous_event</text>
</a>
</g>
</g>
<!-- n4&#45;&gt;n5 -->
<g id="edge6" class="edge">
<title>n4&#45;&gt;n5</title>
<path fill="none" stroke="black" d="M244.97,-158.18C246.81,-168.81 249.21,-182.69 251.3,-194.8"/>
<polygon fill="black" stroke="black" points="247.88,-195.59 253.04,-204.85 254.78,-194.4 247.88,-195.59"/>
<text text-anchor="middle" x="256" y="-179" font-family="Times,serif" font-size="10.00">inf</text>
</g>
<!-- n4&#45;&gt;n6 -->
<g id="edge7" class="edge">
<title>n4&#45;&gt;n6</title>
<path fill="none" stroke="black" d="M270.33,-152.95C302.5,-166.53 355.31,-188.8 392.21,-204.37"/>
<polygon fill="black" stroke="black" points="391.13,-207.71 401.7,-208.37 393.85,-201.26 391.13,-207.71"/>
<text text-anchor="middle" x="363" y="-179" font-family="Times,serif" font-size="10.00">assoc</text>
</g>
</g>
</svg>
