<?xml version="1.0" encoding="UTF-8" standalone="no"?>
<!DOCTYPE svg PUBLIC "-//W3C//DTD SVG 1.1//EN"
 "http://www.w3.org/Graphics/SVG/1.1/DTD/svg11.dtd">
<!-- Generated by graphviz version 2.42.3 (0)
 -->
<!-- Title: G Pages: 1 -->
<svg width="254pt" height="348pt"
 viewBox="0.00 0.00 254.00 348.00" xmlns="http://www.w3.org/2000/svg" xmlns:xlink="http://www.w3.org/1999/xlink">
<g id="graph0" class="graph" transform="scale(1 1) rotate(0) translate(4 344)">
<title>G</title>
<polygon fill="white" stroke="transparent" points="-4,4 -4,-344 250,-344 250,4 -4,4"/>
<g id="clust1" class="cluster">
<title>cluster_c1</title>
<g id="a_clust1"><a xlink:href="gitlab2prov:repository" xlink:title="repository">
<polygon fill="none" stroke="black" points="8,-8 8,-332 238,-332 238,-8 8,-8"/>
<text text-anchor="middle" x="123" y="-15.8" font-family="Times,serif" font-size="14.00">repository</text>
</a>
</g>
</g>
<!-- n1 -->
<g id="node1" class="node">
<title>n1</title>
<g id="a_node1"><a xlink:href="gitlab2prov:resource" xlink:title="resource">
<ellipse fill="#fffc87" stroke="#808080" cx="75" cy="-140" rx="51.19" ry="18"/>
<text text-anchor="middle" x="75" y="-136.3" font-family="Times,serif" font-size="14.00">resource</text>
</a>
</g>
</g>
<!-- n3 -->
<g id="node3" class="node">
<title>n3</title>
<g id="a_node3"><a xlink:href="gitlab2prov:resource_creation" xlink:title="resource_creation">
<polygon fill="#9fb1fc" stroke="#0000ff" points="210,-241 66,-241 66,-205 210,-205 210,-241"/>
<text text-anchor="middle" x="138" y="-219.3" font-family="Times,serif" font-size="14.00">resource_creation</text>
</a>
</g>
</g>
<!-- n1&#45;&gt;n3 -->
<g id="edge1" class="edge">
<title>n1&#45;&gt;n3</title>
<path fill="none" stroke="black" d="M88.05,-157.78C96.86,-169.11 108.65,-184.26 118.56,-197"/>
<polygon fill="black" stroke="black" points="115.84,-199.21 124.75,-204.96 121.37,-194.92 115.84,-199.21"/>
<text text-anchor="middle" x="120" y="-179" font-family="Times,serif" font-size="10.00">gen</text>
</g>
<!-- n4 -->
<g id="node4" class="node">
<title>n4</title>
<g id="a_node4"><a xlink:href="gitlab2prov:creator" xlink:title="creator">
<polygon fill="#fed37f" stroke="black" points="192.76,-311.56 138,-324 83.24,-311.56 83.29,-291.44 192.71,-291.44 192.76,-311.56"/>
<text text-anchor="middle" x="138" y="-302.3" font-family="Times,serif" font-size="14.00">creator</text>
</a>
</g>
</g>
<!-- n1&#45;&gt;n4 -->
<g id="edge3" class="edge">
<title>n1&#45;&gt;n4</title>
<path fill="none" stroke="black" d="M61.92,-157.65C47.55,-178.11 28.36,-213.48 43,-241 53.81,-261.31 74.24,-276.33 93.4,-286.7"/>
<polygon fill="black" stroke="black" points="91.87,-289.85 102.37,-291.28 95.05,-283.61 91.87,-289.85"/>
<text text-anchor="middle" x="50" y="-220.5" font-family="Times,serif" font-size="10.00">att</text>
</g>
<!-- n2 -->
<g id="node2" class="node">
<title>n2</title>
<g id="a_node2"><a xlink:href="gitlab2prov:resource_v" xlink:title="resource_v">
<ellipse fill="#fffc87" stroke="#808080" cx="162" cy="-57" rx="61.19" ry="18"/>
<text text-anchor="middle" x="162" y="-53.3" font-family="Times,serif" font-size="14.00">resource_v</text>
</a>
</g>
</g>
<!-- n2&#45;&gt;n1 -->
<g id="edge6" class="edge">
<title>n2&#45;&gt;n1</title>
<path fill="none" stroke="black" d="M144.39,-74.39C131.57,-86.33 114.04,-102.65 99.8,-115.91"/>
<polygon fill="black" stroke="black" points="97.22,-113.53 92.28,-122.91 101.99,-118.66 97.22,-113.53"/>
<text text-anchor="middle" x="135" y="-96" font-family="Times,serif" font-size="10.00">spec</text>
</g>
<!-- n2&#45;&gt;n3 -->
<g id="edge2" class="edge">
<title>n2&#45;&gt;n3</title>
<path fill="none" stroke="black" d="M159.48,-75.24C155.31,-103.74 146.94,-160.88 141.97,-194.84"/>
<polygon fill="black" stroke="black" points="138.47,-194.59 140.49,-204.99 145.4,-195.6 138.47,-194.59"/>
<text text-anchor="middle" x="162" y="-137.5" font-family="Times,serif" font-size="10.00">gen</text>
</g>
<!-- n2&#45;&gt;n4 -->
<g id="edge4" class="edge">
<title>n2&#45;&gt;n4</title>
<path fill="none" stroke="black" d="M175.36,-74.78C199.9,-107.76 247.14,-182.9 219,-241 209.69,-260.23 191.48,-275.43 174.68,-286.18"/>
<polygon fill="black" stroke="black" points="172.82,-283.22 166.08,-291.4 176.45,-289.2 172.82,-283.22"/>
<text text-anchor="middle" x="233" y="-179" font-family="Times,serif" font-size="10.00">att</text>
</g>
<!-- n3&#45;&gt;n4 -->
<g id="edge5" class="edge">
<title>n3&#45;&gt;n4</title>
<path fill="none" stroke="black" d="M138,-241.18C138,-252.86 138,-268.47 138,-281.33"/>
<polygon fill="black" stroke="black" points="134.5,-281.33 138,-291.33 141.5,-281.33 134.5,-281.33"/>
<text text-anchor="middle" x="152" y="-262" font-family="Times,serif" font-size="10.00">assoc</text>
</g>
</g>
</svg>
